<?xml version="1.0" encoding="utf-8" standalone="no"?>
<!DOCTYPE svg PUBLIC "-//W3C//DTD SVG 1.1//EN"
  "http://www.w3.org/Graphics/SVG/1.1/DTD/svg11.dtd">
<!-- Created with matplotlib (https://matplotlib.org/) -->
<svg height="432pt" version="1.1" viewBox="0 0 864 432" width="864pt" xmlns="http://www.w3.org/2000/svg" xmlns:xlink="http://www.w3.org/1999/xlink">
 <metadata>
  <rdf:RDF xmlns:cc="http://creativecommons.org/ns#" xmlns:dc="http://purl.org/dc/elements/1.1/" xmlns:rdf="http://www.w3.org/1999/02/22-rdf-syntax-ns#">
   <cc:Work>
    <dc:type rdf:resource="http://purl.org/dc/dcmitype/StillImage"/>
    <dc:date>2023-04-16T12:00:03.316094</dc:date>
    <dc:format>image/svg+xml</dc:format>
    <dc:creator>
     <cc:Agent>
      <dc:title>Matplotlib v3.3.4, https://matplotlib.org/</dc:title>
     </cc:Agent>
    </dc:creator>
   </cc:Work>
  </rdf:RDF>
 </metadata>
 <defs>
  <style type="text/css">*{stroke-linecap:butt;stroke-linejoin:round;}</style>
 </defs>
 <g id="figure_1">
  <g id="patch_1">
   <path d="M 0 432 
L 864 432 
L 864 0 
L 0 0 
z
" style="fill:none;"/>
  </g>
  <g id="axes_1">
   <g id="patch_2">
    <path d="M 108 378 
L 777.6 378 
L 777.6 51.84 
L 108 51.84 
z
" style="fill:#ffffff;"/>
   </g>
   <g id="PolyCollection_1">
    <defs>
     <path d="M 276.910622 -88.554717 
L 273.889378 -88.554717 
L 273.502554 -91.350473 
L 273.041584 -94.146229 
L 272.49912 -96.941985 
L 271.868814 -99.737741 
L 271.145799 -102.533496 
L 270.327182 -105.329252 
L 269.412521 -108.125008 
L 268.404252 -110.920764 
L 267.308027 -113.71652 
L 266.132938 -116.512276 
L 264.891587 -119.308031 
L 263.599987 -122.103787 
L 262.277281 -124.899543 
L 260.945276 -127.695299 
L 259.627823 -130.491055 
L 258.35004 -133.286811 
L 257.137456 -136.082567 
L 256.015082 -138.878322 
L 255.006495 -141.674078 
L 254.132968 -144.469834 
L 253.412695 -147.26559 
L 252.860156 -150.061346 
L 252.485648 -152.857102 
L 252.294995 -155.652857 
L 252.289444 -158.448613 
L 252.465732 -161.244369 
L 252.81631 -164.040125 
L 253.329698 -166.835881 
L 253.990927 -169.631637 
L 254.78206 -172.427392 
L 255.682736 -175.223148 
L 256.67073 -178.018904 
L 257.722498 -180.81466 
L 258.813691 -183.610416 
L 259.919626 -186.406172 
L 261.015699 -189.201927 
L 262.077735 -191.997683 
L 263.082266 -194.793439 
L 264.00673 -197.589195 
L 264.82957 -200.384951 
L 265.53025 -203.180707 
L 266.089157 -205.976463 
L 266.487404 -208.772218 
L 266.706543 -211.567974 
L 266.728178 -214.36373 
L 266.53354 -217.159486 
L 266.103021 -219.955242 
L 265.415744 -222.750998 
L 264.449209 -225.546753 
L 263.17908 -228.342509 
L 261.57919 -231.138265 
L 259.62181 -233.934021 
L 257.278262 -236.729777 
L 254.519885 -239.525533 
L 251.31941 -242.321288 
L 247.652699 -245.117044 
L 243.500833 -247.9128 
L 238.85246 -250.708556 
L 233.706297 -253.504312 
L 228.073642 -256.300068 
L 221.980727 -259.095824 
L 215.470726 -261.891579 
L 208.60523 -264.687335 
L 201.465006 -267.483091 
L 194.149871 -270.278847 
L 186.777575 -273.074603 
L 179.481616 -275.870359 
L 172.407976 -278.666114 
L 165.710858 -281.46187 
L 159.547551 -284.257626 
L 154.072655 -287.053382 
L 149.431917 -289.849138 
L 145.756038 -292.644894 
L 143.154769 -295.440649 
L 141.711693 -298.236405 
L 141.48 -301.032161 
L 142.479564 -303.827917 
L 144.695526 -306.623673 
L 148.078505 -309.419429 
L 152.546465 -312.215184 
L 157.988127 -315.01094 
L 164.267737 -317.806696 
L 171.230904 -320.602452 
L 178.711139 -323.398208 
L 186.536722 -326.193964 
L 194.53746 -328.98972 
L 202.550989 -331.785475 
L 210.428266 -334.581231 
L 218.038003 -337.376987 
L 225.269883 -340.172743 
L 232.036471 -342.968499 
L 238.273852 -345.764255 
L 243.941101 -348.56001 
L 249.018738 -351.355766 
L 253.506401 -354.151522 
L 257.419973 -356.947278 
L 260.788385 -359.743034 
L 263.650356 -362.53879 
L 266.051225 -365.334545 
L 284.748775 -365.334545 
L 284.748775 -365.334545 
L 287.149644 -362.53879 
L 290.011615 -359.743034 
L 293.380027 -356.947278 
L 297.293599 -354.151522 
L 301.781262 -351.355766 
L 306.858899 -348.56001 
L 312.526148 -345.764255 
L 318.763529 -342.968499 
L 325.530117 -340.172743 
L 332.761997 -337.376987 
L 340.371734 -334.581231 
L 348.249011 -331.785475 
L 356.26254 -328.98972 
L 364.263278 -326.193964 
L 372.088861 -323.398208 
L 379.569096 -320.602452 
L 386.532263 -317.806696 
L 392.811873 -315.01094 
L 398.253535 -312.215184 
L 402.721495 -309.419429 
L 406.104474 -306.623673 
L 408.320436 -303.827917 
L 409.32 -301.032161 
L 409.088307 -298.236405 
L 407.645231 -295.440649 
L 405.043962 -292.644894 
L 401.368083 -289.849138 
L 396.727345 -287.053382 
L 391.252449 -284.257626 
L 385.089142 -281.46187 
L 378.392024 -278.666114 
L 371.318384 -275.870359 
L 364.022425 -273.074603 
L 356.650129 -270.278847 
L 349.334994 -267.483091 
L 342.19477 -264.687335 
L 335.329274 -261.891579 
L 328.819273 -259.095824 
L 322.726358 -256.300068 
L 317.093703 -253.504312 
L 311.94754 -250.708556 
L 307.299167 -247.9128 
L 303.147301 -245.117044 
L 299.48059 -242.321288 
L 296.280115 -239.525533 
L 293.521738 -236.729777 
L 291.17819 -233.934021 
L 289.22081 -231.138265 
L 287.62092 -228.342509 
L 286.350791 -225.546753 
L 285.384256 -222.750998 
L 284.696979 -219.955242 
L 284.26646 -217.159486 
L 284.071822 -214.36373 
L 284.093457 -211.567974 
L 284.312596 -208.772218 
L 284.710843 -205.976463 
L 285.26975 -203.180707 
L 285.97043 -200.384951 
L 286.79327 -197.589195 
L 287.717734 -194.793439 
L 288.722265 -191.997683 
L 289.784301 -189.201927 
L 290.880374 -186.406172 
L 291.986309 -183.610416 
L 293.077502 -180.81466 
L 294.12927 -178.018904 
L 295.117264 -175.223148 
L 296.01794 -172.427392 
L 296.809073 -169.631637 
L 297.470302 -166.835881 
L 297.98369 -164.040125 
L 298.334268 -161.244369 
L 298.510556 -158.448613 
L 298.505005 -155.652857 
L 298.314352 -152.857102 
L 297.939844 -150.061346 
L 297.387305 -147.26559 
L 296.667032 -144.469834 
L 295.793505 -141.674078 
L 294.784918 -138.878322 
L 293.662544 -136.082567 
L 292.44996 -133.286811 
L 291.172177 -130.491055 
L 289.854724 -127.695299 
L 288.522719 -124.899543 
L 287.200013 -122.103787 
L 285.908413 -119.308031 
L 284.667062 -116.512276 
L 283.491973 -113.71652 
L 282.395748 -110.920764 
L 281.387479 -108.125008 
L 280.472818 -105.329252 
L 279.654201 -102.533496 
L 278.931186 -99.737741 
L 278.30088 -96.941985 
L 277.758416 -94.146229 
L 277.297446 -91.350473 
L 276.910622 -88.554717 
z
" id="md66d1d5c49" style="stroke:#3f3f3f;stroke-width:2.25;"/>
    </defs>
    <g clip-path="url(#pc001f088d4)">
     <use style="fill:#3274a1;stroke:#3f3f3f;stroke-width:2.25;" x="0" xlink:href="#md66d1d5c49" y="432"/>
    </g>
   </g>
   <g id="PolyCollection_2">
    <defs>
     <path d="M 611.38389 -68.825455 
L 609.01611 -68.825455 
L 608.615022 -71.749117 
L 608.104558 -74.67278 
L 607.463367 -77.596443 
L 606.668159 -80.520106 
L 605.693995 -83.443769 
L 604.514667 -86.367432 
L 603.10317 -89.291095 
L 601.43224 -92.214757 
L 599.474987 -95.13842 
L 597.205617 -98.062083 
L 594.600266 -100.985746 
L 591.637969 -103.909409 
L 588.30178 -106.833072 
L 584.580066 -109.756735 
L 580.467943 -112.680398 
L 575.968839 -115.60406 
L 571.096085 -118.527723 
L 565.874443 -121.451386 
L 560.341395 -124.375049 
L 554.548053 -127.298712 
L 548.559498 -130.222375 
L 542.454403 -133.146038 
L 536.323827 -136.0697 
L 530.269136 -138.993363 
L 524.399075 -141.917026 
L 518.826104 -144.840689 
L 513.662192 -147.764352 
L 509.014317 -150.688015 
L 504.979955 -153.611678 
L 501.642879 -156.53534 
L 499.069541 -159.459003 
L 497.306283 -162.382666 
L 496.377558 -165.306329 
L 496.285264 -168.229992 
L 497.009209 -171.153655 
L 498.508642 -174.077318 
L 500.724735 -177.000981 
L 503.583808 -179.924643 
L 507.001093 -182.848306 
L 510.884767 -185.771969 
L 515.140011 -188.695632 
L 519.672839 -191.619295 
L 524.393483 -194.542958 
L 529.219144 -197.466621 
L 534.075978 -200.390283 
L 538.900246 -203.313946 
L 543.638622 -206.237609 
L 548.247729 -209.161272 
L 552.693036 -212.084935 
L 556.947302 -215.008598 
L 560.988809 -217.932261 
L 564.799622 -220.855923 
L 568.36411 -223.779586 
L 571.667928 -226.703249 
L 574.697574 -229.626912 
L 577.440578 -232.550575 
L 579.886257 -235.474238 
L 582.026908 -238.397901 
L 583.859236 -241.321564 
L 585.385762 -244.245226 
L 586.615972 -247.168889 
L 587.566975 -250.092552 
L 588.263541 -253.016215 
L 588.737424 -255.939878 
L 589.026031 -258.863541 
L 589.170548 -261.787204 
L 589.213739 -264.710866 
L 589.197645 -267.634529 
L 589.161458 -270.558192 
L 589.139778 -273.481855 
L 589.161407 -276.405518 
L 589.248776 -279.329181 
L 589.417958 -282.252844 
L 589.679211 -285.176506 
L 590.037846 -288.100169 
L 590.495279 -291.023832 
L 591.050046 -293.947495 
L 591.698651 -296.871158 
L 592.436139 -299.794821 
L 593.256373 -302.718484 
L 594.152042 -305.642147 
L 595.114495 -308.565809 
L 596.133505 -311.489472 
L 597.197091 -314.413135 
L 598.291504 -317.336798 
L 599.401425 -320.260461 
L 600.510411 -323.184124 
L 601.601544 -326.107787 
L 602.658229 -329.031449 
L 603.665038 -331.955112 
L 604.608507 -334.878775 
L 605.477789 -337.802438 
L 606.265108 -340.726101 
L 606.96596 -343.649764 
L 607.579068 -346.573427 
L 608.10612 -349.497089 
L 608.551323 -352.420752 
L 608.92085 -355.344415 
L 609.222233 -358.268078 
L 611.177767 -358.268078 
L 611.177767 -358.268078 
L 611.47915 -355.344415 
L 611.848677 -352.420752 
L 612.29388 -349.497089 
L 612.820932 -346.573427 
L 613.43404 -343.649764 
L 614.134892 -340.726101 
L 614.922211 -337.802438 
L 615.791493 -334.878775 
L 616.734962 -331.955112 
L 617.741771 -329.031449 
L 618.798456 -326.107787 
L 619.889589 -323.184124 
L 620.998575 -320.260461 
L 622.108496 -317.336798 
L 623.202909 -314.413135 
L 624.266495 -311.489472 
L 625.285505 -308.565809 
L 626.247958 -305.642147 
L 627.143627 -302.718484 
L 627.963861 -299.794821 
L 628.701349 -296.871158 
L 629.349954 -293.947495 
L 629.904721 -291.023832 
L 630.362154 -288.100169 
L 630.720789 -285.176506 
L 630.982042 -282.252844 
L 631.151224 -279.329181 
L 631.238593 -276.405518 
L 631.260222 -273.481855 
L 631.238542 -270.558192 
L 631.202355 -267.634529 
L 631.186261 -264.710866 
L 631.229452 -261.787204 
L 631.373969 -258.863541 
L 631.662576 -255.939878 
L 632.136459 -253.016215 
L 632.833025 -250.092552 
L 633.784028 -247.168889 
L 635.014238 -244.245226 
L 636.540764 -241.321564 
L 638.373092 -238.397901 
L 640.513743 -235.474238 
L 642.959422 -232.550575 
L 645.702426 -229.626912 
L 648.732072 -226.703249 
L 652.03589 -223.779586 
L 655.600378 -220.855923 
L 659.411191 -217.932261 
L 663.452698 -215.008598 
L 667.706964 -212.084935 
L 672.152271 -209.161272 
L 676.761378 -206.237609 
L 681.499754 -203.313946 
L 686.324022 -200.390283 
L 691.180856 -197.466621 
L 696.006517 -194.542958 
L 700.727161 -191.619295 
L 705.259989 -188.695632 
L 709.515233 -185.771969 
L 713.398907 -182.848306 
L 716.816192 -179.924643 
L 719.675265 -177.000981 
L 721.891358 -174.077318 
L 723.390791 -171.153655 
L 724.114736 -168.229992 
L 724.022442 -165.306329 
L 723.093717 -162.382666 
L 721.330459 -159.459003 
L 718.757121 -156.53534 
L 715.420045 -153.611678 
L 711.385683 -150.688015 
L 706.737808 -147.764352 
L 701.573896 -144.840689 
L 696.000925 -141.917026 
L 690.130864 -138.993363 
L 684.076173 -136.0697 
L 677.945597 -133.146038 
L 671.840502 -130.222375 
L 665.851947 -127.298712 
L 660.058605 -124.375049 
L 654.525557 -121.451386 
L 649.303915 -118.527723 
L 644.431161 -115.60406 
L 639.932057 -112.680398 
L 635.819934 -109.756735 
L 632.09822 -106.833072 
L 628.762031 -103.909409 
L 625.799734 -100.985746 
L 623.194383 -98.062083 
L 620.925013 -95.13842 
L 618.96776 -92.214757 
L 617.29683 -89.291095 
L 615.885333 -86.367432 
L 614.706005 -83.443769 
L 613.731841 -80.520106 
L 612.936633 -77.596443 
L 612.295442 -74.67278 
L 611.784978 -71.749117 
L 611.38389 -68.825455 
z
" id="m5c3ddab667" style="stroke:#3f3f3f;stroke-width:2.25;"/>
    </defs>
    <g clip-path="url(#pc001f088d4)">
     <use style="fill:#e1812c;stroke:#3f3f3f;stroke-width:2.25;" x="0" xlink:href="#m5c3ddab667" y="432"/>
    </g>
   </g>
   <g id="matplotlib.axis_1">
    <g id="xtick_1">
     <g id="line2d_1">
      <defs>
       <path d="M 0 0 
L 0 9 
" id="mc4821492aa" style="stroke:#000000;stroke-width:1.875;"/>
      </defs>
      <g>
       <use style="stroke:#000000;stroke-width:1.875;" x="275.4" xlink:href="#mc4821492aa" y="378"/>
      </g>
     </g>
     <g id="text_1">
      <!-- blocked -->
      <g transform="translate(243.494414 403.037422)scale(0.165 -0.165)">
       <defs>
        <path d="M 48.6875 27.296875 
Q 48.6875 37.203125 44.609375 42.84375 
Q 40.53125 48.484375 33.40625 48.484375 
Q 26.265625 48.484375 22.1875 42.84375 
Q 18.109375 37.203125 18.109375 27.296875 
Q 18.109375 17.390625 22.1875 11.75 
Q 26.265625 6.109375 33.40625 6.109375 
Q 40.53125 6.109375 44.609375 11.75 
Q 48.6875 17.390625 48.6875 27.296875 
z
M 18.109375 46.390625 
Q 20.953125 51.265625 25.265625 53.625 
Q 29.59375 56 35.59375 56 
Q 45.5625 56 51.78125 48.09375 
Q 58.015625 40.1875 58.015625 27.296875 
Q 58.015625 14.40625 51.78125 6.484375 
Q 45.5625 -1.421875 35.59375 -1.421875 
Q 29.59375 -1.421875 25.265625 0.953125 
Q 20.953125 3.328125 18.109375 8.203125 
L 18.109375 0 
L 9.078125 0 
L 9.078125 75.984375 
L 18.109375 75.984375 
z
" id="DejaVuSans-98"/>
        <path d="M 9.421875 75.984375 
L 18.40625 75.984375 
L 18.40625 0 
L 9.421875 0 
z
" id="DejaVuSans-108"/>
        <path d="M 30.609375 48.390625 
Q 23.390625 48.390625 19.1875 42.75 
Q 14.984375 37.109375 14.984375 27.296875 
Q 14.984375 17.484375 19.15625 11.84375 
Q 23.34375 6.203125 30.609375 6.203125 
Q 37.796875 6.203125 41.984375 11.859375 
Q 46.1875 17.53125 46.1875 27.296875 
Q 46.1875 37.015625 41.984375 42.703125 
Q 37.796875 48.390625 30.609375 48.390625 
z
M 30.609375 56 
Q 42.328125 56 49.015625 48.375 
Q 55.71875 40.765625 55.71875 27.296875 
Q 55.71875 13.875 49.015625 6.21875 
Q 42.328125 -1.421875 30.609375 -1.421875 
Q 18.84375 -1.421875 12.171875 6.21875 
Q 5.515625 13.875 5.515625 27.296875 
Q 5.515625 40.765625 12.171875 48.375 
Q 18.84375 56 30.609375 56 
z
" id="DejaVuSans-111"/>
        <path d="M 48.78125 52.59375 
L 48.78125 44.1875 
Q 44.96875 46.296875 41.140625 47.34375 
Q 37.3125 48.390625 33.40625 48.390625 
Q 24.65625 48.390625 19.8125 42.84375 
Q 14.984375 37.3125 14.984375 27.296875 
Q 14.984375 17.28125 19.8125 11.734375 
Q 24.65625 6.203125 33.40625 6.203125 
Q 37.3125 6.203125 41.140625 7.25 
Q 44.96875 8.296875 48.78125 10.40625 
L 48.78125 2.09375 
Q 45.015625 0.34375 40.984375 -0.53125 
Q 36.96875 -1.421875 32.421875 -1.421875 
Q 20.0625 -1.421875 12.78125 6.34375 
Q 5.515625 14.109375 5.515625 27.296875 
Q 5.515625 40.671875 12.859375 48.328125 
Q 20.21875 56 33.015625 56 
Q 37.15625 56 41.109375 55.140625 
Q 45.0625 54.296875 48.78125 52.59375 
z
" id="DejaVuSans-99"/>
        <path d="M 9.078125 75.984375 
L 18.109375 75.984375 
L 18.109375 31.109375 
L 44.921875 54.6875 
L 56.390625 54.6875 
L 27.390625 29.109375 
L 57.625 0 
L 45.90625 0 
L 18.109375 26.703125 
L 18.109375 0 
L 9.078125 0 
z
" id="DejaVuSans-107"/>
        <path d="M 56.203125 29.59375 
L 56.203125 25.203125 
L 14.890625 25.203125 
Q 15.484375 15.921875 20.484375 11.0625 
Q 25.484375 6.203125 34.421875 6.203125 
Q 39.59375 6.203125 44.453125 7.46875 
Q 49.3125 8.734375 54.109375 11.28125 
L 54.109375 2.78125 
Q 49.265625 0.734375 44.1875 -0.34375 
Q 39.109375 -1.421875 33.890625 -1.421875 
Q 20.796875 -1.421875 13.15625 6.1875 
Q 5.515625 13.8125 5.515625 26.8125 
Q 5.515625 40.234375 12.765625 48.109375 
Q 20.015625 56 32.328125 56 
Q 43.359375 56 49.78125 48.890625 
Q 56.203125 41.796875 56.203125 29.59375 
z
M 47.21875 32.234375 
Q 47.125 39.59375 43.09375 43.984375 
Q 39.0625 48.390625 32.421875 48.390625 
Q 24.90625 48.390625 20.390625 44.140625 
Q 15.875 39.890625 15.1875 32.171875 
z
" id="DejaVuSans-101"/>
        <path d="M 45.40625 46.390625 
L 45.40625 75.984375 
L 54.390625 75.984375 
L 54.390625 0 
L 45.40625 0 
L 45.40625 8.203125 
Q 42.578125 3.328125 38.25 0.953125 
Q 33.9375 -1.421875 27.875 -1.421875 
Q 17.96875 -1.421875 11.734375 6.484375 
Q 5.515625 14.40625 5.515625 27.296875 
Q 5.515625 40.1875 11.734375 48.09375 
Q 17.96875 56 27.875 56 
Q 33.9375 56 38.25 53.625 
Q 42.578125 51.265625 45.40625 46.390625 
z
M 14.796875 27.296875 
Q 14.796875 17.390625 18.875 11.75 
Q 22.953125 6.109375 30.078125 6.109375 
Q 37.203125 6.109375 41.296875 11.75 
Q 45.40625 17.390625 45.40625 27.296875 
Q 45.40625 37.203125 41.296875 42.84375 
Q 37.203125 48.484375 30.078125 48.484375 
Q 22.953125 48.484375 18.875 42.84375 
Q 14.796875 37.203125 14.796875 27.296875 
z
" id="DejaVuSans-100"/>
       </defs>
       <use xlink:href="#DejaVuSans-98"/>
       <use x="63.476562" xlink:href="#DejaVuSans-108"/>
       <use x="91.259766" xlink:href="#DejaVuSans-111"/>
       <use x="152.441406" xlink:href="#DejaVuSans-99"/>
       <use x="207.421875" xlink:href="#DejaVuSans-107"/>
       <use x="261.707031" xlink:href="#DejaVuSans-101"/>
       <use x="323.230469" xlink:href="#DejaVuSans-100"/>
      </g>
     </g>
    </g>
    <g id="xtick_2">
     <g id="line2d_2">
      <g>
       <use style="stroke:#000000;stroke-width:1.875;" x="610.2" xlink:href="#mc4821492aa" y="378"/>
      </g>
     </g>
     <g id="text_2">
      <!-- interleaved -->
      <g transform="translate(563.356758 403.037422)scale(0.165 -0.165)">
       <defs>
        <path d="M 9.421875 54.6875 
L 18.40625 54.6875 
L 18.40625 0 
L 9.421875 0 
z
M 9.421875 75.984375 
L 18.40625 75.984375 
L 18.40625 64.59375 
L 9.421875 64.59375 
z
" id="DejaVuSans-105"/>
        <path d="M 54.890625 33.015625 
L 54.890625 0 
L 45.90625 0 
L 45.90625 32.71875 
Q 45.90625 40.484375 42.875 44.328125 
Q 39.84375 48.1875 33.796875 48.1875 
Q 26.515625 48.1875 22.3125 43.546875 
Q 18.109375 38.921875 18.109375 30.90625 
L 18.109375 0 
L 9.078125 0 
L 9.078125 54.6875 
L 18.109375 54.6875 
L 18.109375 46.1875 
Q 21.34375 51.125 25.703125 53.5625 
Q 30.078125 56 35.796875 56 
Q 45.21875 56 50.046875 50.171875 
Q 54.890625 44.34375 54.890625 33.015625 
z
" id="DejaVuSans-110"/>
        <path d="M 18.3125 70.21875 
L 18.3125 54.6875 
L 36.8125 54.6875 
L 36.8125 47.703125 
L 18.3125 47.703125 
L 18.3125 18.015625 
Q 18.3125 11.328125 20.140625 9.421875 
Q 21.96875 7.515625 27.59375 7.515625 
L 36.8125 7.515625 
L 36.8125 0 
L 27.59375 0 
Q 17.1875 0 13.234375 3.875 
Q 9.28125 7.765625 9.28125 18.015625 
L 9.28125 47.703125 
L 2.6875 47.703125 
L 2.6875 54.6875 
L 9.28125 54.6875 
L 9.28125 70.21875 
z
" id="DejaVuSans-116"/>
        <path d="M 41.109375 46.296875 
Q 39.59375 47.171875 37.8125 47.578125 
Q 36.03125 48 33.890625 48 
Q 26.265625 48 22.1875 43.046875 
Q 18.109375 38.09375 18.109375 28.8125 
L 18.109375 0 
L 9.078125 0 
L 9.078125 54.6875 
L 18.109375 54.6875 
L 18.109375 46.1875 
Q 20.953125 51.171875 25.484375 53.578125 
Q 30.03125 56 36.53125 56 
Q 37.453125 56 38.578125 55.875 
Q 39.703125 55.765625 41.0625 55.515625 
z
" id="DejaVuSans-114"/>
        <path d="M 34.28125 27.484375 
Q 23.390625 27.484375 19.1875 25 
Q 14.984375 22.515625 14.984375 16.5 
Q 14.984375 11.71875 18.140625 8.90625 
Q 21.296875 6.109375 26.703125 6.109375 
Q 34.1875 6.109375 38.703125 11.40625 
Q 43.21875 16.703125 43.21875 25.484375 
L 43.21875 27.484375 
z
M 52.203125 31.203125 
L 52.203125 0 
L 43.21875 0 
L 43.21875 8.296875 
Q 40.140625 3.328125 35.546875 0.953125 
Q 30.953125 -1.421875 24.3125 -1.421875 
Q 15.921875 -1.421875 10.953125 3.296875 
Q 6 8.015625 6 15.921875 
Q 6 25.140625 12.171875 29.828125 
Q 18.359375 34.515625 30.609375 34.515625 
L 43.21875 34.515625 
L 43.21875 35.40625 
Q 43.21875 41.609375 39.140625 45 
Q 35.0625 48.390625 27.6875 48.390625 
Q 23 48.390625 18.546875 47.265625 
Q 14.109375 46.140625 10.015625 43.890625 
L 10.015625 52.203125 
Q 14.9375 54.109375 19.578125 55.046875 
Q 24.21875 56 28.609375 56 
Q 40.484375 56 46.34375 49.84375 
Q 52.203125 43.703125 52.203125 31.203125 
z
" id="DejaVuSans-97"/>
        <path d="M 2.984375 54.6875 
L 12.5 54.6875 
L 29.59375 8.796875 
L 46.6875 54.6875 
L 56.203125 54.6875 
L 35.6875 0 
L 23.484375 0 
z
" id="DejaVuSans-118"/>
       </defs>
       <use xlink:href="#DejaVuSans-105"/>
       <use x="27.783203" xlink:href="#DejaVuSans-110"/>
       <use x="91.162109" xlink:href="#DejaVuSans-116"/>
       <use x="130.371094" xlink:href="#DejaVuSans-101"/>
       <use x="191.894531" xlink:href="#DejaVuSans-114"/>
       <use x="233.007812" xlink:href="#DejaVuSans-108"/>
       <use x="260.791016" xlink:href="#DejaVuSans-101"/>
       <use x="322.314453" xlink:href="#DejaVuSans-97"/>
       <use x="383.59375" xlink:href="#DejaVuSans-118"/>
       <use x="442.773438" xlink:href="#DejaVuSans-101"/>
       <use x="504.296875" xlink:href="#DejaVuSans-100"/>
      </g>
     </g>
    </g>
    <g id="text_3">
     <!-- condition -->
     <g transform="translate(401.187656 424.146094)scale(0.18 -0.18)">
      <use xlink:href="#DejaVuSans-99"/>
      <use x="54.980469" xlink:href="#DejaVuSans-111"/>
      <use x="116.162109" xlink:href="#DejaVuSans-110"/>
      <use x="179.541016" xlink:href="#DejaVuSans-100"/>
      <use x="243.017578" xlink:href="#DejaVuSans-105"/>
      <use x="270.800781" xlink:href="#DejaVuSans-116"/>
      <use x="310.009766" xlink:href="#DejaVuSans-105"/>
      <use x="337.792969" xlink:href="#DejaVuSans-111"/>
      <use x="398.974609" xlink:href="#DejaVuSans-110"/>
     </g>
    </g>
   </g>
   <g id="matplotlib.axis_2">
    <g id="ytick_1">
     <g id="line2d_3">
      <defs>
       <path d="M 0 0 
L -9 0 
" id="m7b0fd05c5c" style="stroke:#000000;stroke-width:1.875;"/>
      </defs>
      <g>
       <use style="stroke:#000000;stroke-width:1.875;" x="108" xlink:href="#m7b0fd05c5c" y="367.973407"/>
      </g>
     </g>
     <g id="text_4">
      <!-- 0.2 -->
      <g transform="translate(69.259844 374.242118)scale(0.165 -0.165)">
       <defs>
        <path d="M 31.78125 66.40625 
Q 24.171875 66.40625 20.328125 58.90625 
Q 16.5 51.421875 16.5 36.375 
Q 16.5 21.390625 20.328125 13.890625 
Q 24.171875 6.390625 31.78125 6.390625 
Q 39.453125 6.390625 43.28125 13.890625 
Q 47.125 21.390625 47.125 36.375 
Q 47.125 51.421875 43.28125 58.90625 
Q 39.453125 66.40625 31.78125 66.40625 
z
M 31.78125 74.21875 
Q 44.046875 74.21875 50.515625 64.515625 
Q 56.984375 54.828125 56.984375 36.375 
Q 56.984375 17.96875 50.515625 8.265625 
Q 44.046875 -1.421875 31.78125 -1.421875 
Q 19.53125 -1.421875 13.0625 8.265625 
Q 6.59375 17.96875 6.59375 36.375 
Q 6.59375 54.828125 13.0625 64.515625 
Q 19.53125 74.21875 31.78125 74.21875 
z
" id="DejaVuSans-48"/>
        <path d="M 10.6875 12.40625 
L 21 12.40625 
L 21 0 
L 10.6875 0 
z
" id="DejaVuSans-46"/>
        <path d="M 19.1875 8.296875 
L 53.609375 8.296875 
L 53.609375 0 
L 7.328125 0 
L 7.328125 8.296875 
Q 12.9375 14.109375 22.625 23.890625 
Q 32.328125 33.6875 34.8125 36.53125 
Q 39.546875 41.84375 41.421875 45.53125 
Q 43.3125 49.21875 43.3125 52.78125 
Q 43.3125 58.59375 39.234375 62.25 
Q 35.15625 65.921875 28.609375 65.921875 
Q 23.96875 65.921875 18.8125 64.3125 
Q 13.671875 62.703125 7.8125 59.421875 
L 7.8125 69.390625 
Q 13.765625 71.78125 18.9375 73 
Q 24.125 74.21875 28.421875 74.21875 
Q 39.75 74.21875 46.484375 68.546875 
Q 53.21875 62.890625 53.21875 53.421875 
Q 53.21875 48.921875 51.53125 44.890625 
Q 49.859375 40.875 45.40625 35.40625 
Q 44.1875 33.984375 37.640625 27.21875 
Q 31.109375 20.453125 19.1875 8.296875 
z
" id="DejaVuSans-50"/>
       </defs>
       <use xlink:href="#DejaVuSans-48"/>
       <use x="63.623047" xlink:href="#DejaVuSans-46"/>
       <use x="95.410156" xlink:href="#DejaVuSans-50"/>
      </g>
     </g>
    </g>
    <g id="ytick_2">
     <g id="line2d_4">
      <g>
       <use style="stroke:#000000;stroke-width:1.875;" x="108" xlink:href="#m7b0fd05c5c" y="305.807314"/>
      </g>
     </g>
     <g id="text_5">
      <!-- 0.4 -->
      <g transform="translate(69.259844 312.076025)scale(0.165 -0.165)">
       <defs>
        <path d="M 37.796875 64.3125 
L 12.890625 25.390625 
L 37.796875 25.390625 
z
M 35.203125 72.90625 
L 47.609375 72.90625 
L 47.609375 25.390625 
L 58.015625 25.390625 
L 58.015625 17.1875 
L 47.609375 17.1875 
L 47.609375 0 
L 37.796875 0 
L 37.796875 17.1875 
L 4.890625 17.1875 
L 4.890625 26.703125 
z
" id="DejaVuSans-52"/>
       </defs>
       <use xlink:href="#DejaVuSans-48"/>
       <use x="63.623047" xlink:href="#DejaVuSans-46"/>
       <use x="95.410156" xlink:href="#DejaVuSans-52"/>
      </g>
     </g>
    </g>
    <g id="ytick_3">
     <g id="line2d_5">
      <g>
       <use style="stroke:#000000;stroke-width:1.875;" x="108" xlink:href="#m7b0fd05c5c" y="243.64122"/>
      </g>
     </g>
     <g id="text_6">
      <!-- 0.6 -->
      <g transform="translate(69.259844 249.909931)scale(0.165 -0.165)">
       <defs>
        <path d="M 33.015625 40.375 
Q 26.375 40.375 22.484375 35.828125 
Q 18.609375 31.296875 18.609375 23.390625 
Q 18.609375 15.53125 22.484375 10.953125 
Q 26.375 6.390625 33.015625 6.390625 
Q 39.65625 6.390625 43.53125 10.953125 
Q 47.40625 15.53125 47.40625 23.390625 
Q 47.40625 31.296875 43.53125 35.828125 
Q 39.65625 40.375 33.015625 40.375 
z
M 52.59375 71.296875 
L 52.59375 62.3125 
Q 48.875 64.0625 45.09375 64.984375 
Q 41.3125 65.921875 37.59375 65.921875 
Q 27.828125 65.921875 22.671875 59.328125 
Q 17.53125 52.734375 16.796875 39.40625 
Q 19.671875 43.65625 24.015625 45.921875 
Q 28.375 48.1875 33.59375 48.1875 
Q 44.578125 48.1875 50.953125 41.515625 
Q 57.328125 34.859375 57.328125 23.390625 
Q 57.328125 12.15625 50.6875 5.359375 
Q 44.046875 -1.421875 33.015625 -1.421875 
Q 20.359375 -1.421875 13.671875 8.265625 
Q 6.984375 17.96875 6.984375 36.375 
Q 6.984375 53.65625 15.1875 63.9375 
Q 23.390625 74.21875 37.203125 74.21875 
Q 40.921875 74.21875 44.703125 73.484375 
Q 48.484375 72.75 52.59375 71.296875 
z
" id="DejaVuSans-54"/>
       </defs>
       <use xlink:href="#DejaVuSans-48"/>
       <use x="63.623047" xlink:href="#DejaVuSans-46"/>
       <use x="95.410156" xlink:href="#DejaVuSans-54"/>
      </g>
     </g>
    </g>
    <g id="ytick_4">
     <g id="line2d_6">
      <g>
       <use style="stroke:#000000;stroke-width:1.875;" x="108" xlink:href="#m7b0fd05c5c" y="181.475126"/>
      </g>
     </g>
     <g id="text_7">
      <!-- 0.8 -->
      <g transform="translate(69.259844 187.743837)scale(0.165 -0.165)">
       <defs>
        <path d="M 31.78125 34.625 
Q 24.75 34.625 20.71875 30.859375 
Q 16.703125 27.09375 16.703125 20.515625 
Q 16.703125 13.921875 20.71875 10.15625 
Q 24.75 6.390625 31.78125 6.390625 
Q 38.8125 6.390625 42.859375 10.171875 
Q 46.921875 13.96875 46.921875 20.515625 
Q 46.921875 27.09375 42.890625 30.859375 
Q 38.875 34.625 31.78125 34.625 
z
M 21.921875 38.8125 
Q 15.578125 40.375 12.03125 44.71875 
Q 8.5 49.078125 8.5 55.328125 
Q 8.5 64.0625 14.71875 69.140625 
Q 20.953125 74.21875 31.78125 74.21875 
Q 42.671875 74.21875 48.875 69.140625 
Q 55.078125 64.0625 55.078125 55.328125 
Q 55.078125 49.078125 51.53125 44.71875 
Q 48 40.375 41.703125 38.8125 
Q 48.828125 37.15625 52.796875 32.3125 
Q 56.78125 27.484375 56.78125 20.515625 
Q 56.78125 9.90625 50.3125 4.234375 
Q 43.84375 -1.421875 31.78125 -1.421875 
Q 19.734375 -1.421875 13.25 4.234375 
Q 6.78125 9.90625 6.78125 20.515625 
Q 6.78125 27.484375 10.78125 32.3125 
Q 14.796875 37.15625 21.921875 38.8125 
z
M 18.3125 54.390625 
Q 18.3125 48.734375 21.84375 45.5625 
Q 25.390625 42.390625 31.78125 42.390625 
Q 38.140625 42.390625 41.71875 45.5625 
Q 45.3125 48.734375 45.3125 54.390625 
Q 45.3125 60.0625 41.71875 63.234375 
Q 38.140625 66.40625 31.78125 66.40625 
Q 25.390625 66.40625 21.84375 63.234375 
Q 18.3125 60.0625 18.3125 54.390625 
z
" id="DejaVuSans-56"/>
       </defs>
       <use xlink:href="#DejaVuSans-48"/>
       <use x="63.623047" xlink:href="#DejaVuSans-46"/>
       <use x="95.410156" xlink:href="#DejaVuSans-56"/>
      </g>
     </g>
    </g>
    <g id="ytick_5">
     <g id="line2d_7">
      <g>
       <use style="stroke:#000000;stroke-width:1.875;" x="108" xlink:href="#m7b0fd05c5c" y="119.309032"/>
      </g>
     </g>
     <g id="text_8">
      <!-- 1.0 -->
      <g transform="translate(69.259844 125.577743)scale(0.165 -0.165)">
       <defs>
        <path d="M 12.40625 8.296875 
L 28.515625 8.296875 
L 28.515625 63.921875 
L 10.984375 60.40625 
L 10.984375 69.390625 
L 28.421875 72.90625 
L 38.28125 72.90625 
L 38.28125 8.296875 
L 54.390625 8.296875 
L 54.390625 0 
L 12.40625 0 
z
" id="DejaVuSans-49"/>
       </defs>
       <use xlink:href="#DejaVuSans-49"/>
       <use x="63.623047" xlink:href="#DejaVuSans-46"/>
       <use x="95.410156" xlink:href="#DejaVuSans-48"/>
      </g>
     </g>
    </g>
    <g id="ytick_6">
     <g id="line2d_8">
      <g>
       <use style="stroke:#000000;stroke-width:1.875;" x="108" xlink:href="#m7b0fd05c5c" y="57.142939"/>
      </g>
     </g>
     <g id="text_9">
      <!-- 1.2 -->
      <g transform="translate(69.259844 63.41165)scale(0.165 -0.165)">
       <use xlink:href="#DejaVuSans-49"/>
       <use x="63.623047" xlink:href="#DejaVuSans-46"/>
       <use x="95.410156" xlink:href="#DejaVuSans-50"/>
      </g>
     </g>
    </g>
    <g id="text_10">
     <!-- prediction accuracy -->
     <g transform="translate(61.516406 303.537656)rotate(-90)scale(0.18 -0.18)">
      <defs>
       <path d="M 18.109375 8.203125 
L 18.109375 -20.796875 
L 9.078125 -20.796875 
L 9.078125 54.6875 
L 18.109375 54.6875 
L 18.109375 46.390625 
Q 20.953125 51.265625 25.265625 53.625 
Q 29.59375 56 35.59375 56 
Q 45.5625 56 51.78125 48.09375 
Q 58.015625 40.1875 58.015625 27.296875 
Q 58.015625 14.40625 51.78125 6.484375 
Q 45.5625 -1.421875 35.59375 -1.421875 
Q 29.59375 -1.421875 25.265625 0.953125 
Q 20.953125 3.328125 18.109375 8.203125 
z
M 48.6875 27.296875 
Q 48.6875 37.203125 44.609375 42.84375 
Q 40.53125 48.484375 33.40625 48.484375 
Q 26.265625 48.484375 22.1875 42.84375 
Q 18.109375 37.203125 18.109375 27.296875 
Q 18.109375 17.390625 22.1875 11.75 
Q 26.265625 6.109375 33.40625 6.109375 
Q 40.53125 6.109375 44.609375 11.75 
Q 48.6875 17.390625 48.6875 27.296875 
z
" id="DejaVuSans-112"/>
       <path id="DejaVuSans-32"/>
       <path d="M 8.5 21.578125 
L 8.5 54.6875 
L 17.484375 54.6875 
L 17.484375 21.921875 
Q 17.484375 14.15625 20.5 10.265625 
Q 23.53125 6.390625 29.59375 6.390625 
Q 36.859375 6.390625 41.078125 11.03125 
Q 45.3125 15.671875 45.3125 23.6875 
L 45.3125 54.6875 
L 54.296875 54.6875 
L 54.296875 0 
L 45.3125 0 
L 45.3125 8.40625 
Q 42.046875 3.421875 37.71875 1 
Q 33.40625 -1.421875 27.6875 -1.421875 
Q 18.265625 -1.421875 13.375 4.4375 
Q 8.5 10.296875 8.5 21.578125 
z
M 31.109375 56 
z
" id="DejaVuSans-117"/>
       <path d="M 32.171875 -5.078125 
Q 28.375 -14.84375 24.75 -17.8125 
Q 21.140625 -20.796875 15.09375 -20.796875 
L 7.90625 -20.796875 
L 7.90625 -13.28125 
L 13.1875 -13.28125 
Q 16.890625 -13.28125 18.9375 -11.515625 
Q 21 -9.765625 23.484375 -3.21875 
L 25.09375 0.875 
L 2.984375 54.6875 
L 12.5 54.6875 
L 29.59375 11.921875 
L 46.6875 54.6875 
L 56.203125 54.6875 
z
" id="DejaVuSans-121"/>
      </defs>
      <use xlink:href="#DejaVuSans-112"/>
      <use x="63.476562" xlink:href="#DejaVuSans-114"/>
      <use x="102.339844" xlink:href="#DejaVuSans-101"/>
      <use x="163.863281" xlink:href="#DejaVuSans-100"/>
      <use x="227.339844" xlink:href="#DejaVuSans-105"/>
      <use x="255.123047" xlink:href="#DejaVuSans-99"/>
      <use x="310.103516" xlink:href="#DejaVuSans-116"/>
      <use x="349.3125" xlink:href="#DejaVuSans-105"/>
      <use x="377.095703" xlink:href="#DejaVuSans-111"/>
      <use x="438.277344" xlink:href="#DejaVuSans-110"/>
      <use x="501.65625" xlink:href="#DejaVuSans-32"/>
      <use x="533.443359" xlink:href="#DejaVuSans-97"/>
      <use x="594.722656" xlink:href="#DejaVuSans-99"/>
      <use x="649.703125" xlink:href="#DejaVuSans-99"/>
      <use x="704.683594" xlink:href="#DejaVuSans-117"/>
      <use x="768.0625" xlink:href="#DejaVuSans-114"/>
      <use x="809.175781" xlink:href="#DejaVuSans-97"/>
      <use x="870.455078" xlink:href="#DejaVuSans-99"/>
      <use x="925.435547" xlink:href="#DejaVuSans-121"/>
     </g>
    </g>
   </g>
   <g id="line2d_9">
    <path clip-path="url(#pc001f088d4)" d="M 275.4 185.551591 
L 275.4 119.309032 
" style="fill:none;stroke:#3f3f3f;stroke-linecap:square;stroke-width:2.25;"/>
   </g>
   <g id="line2d_10">
    <path clip-path="url(#pc001f088d4)" d="M 275.4 149.882521 
L 275.4 124.48954 
" style="fill:none;stroke:#3f3f3f;stroke-linecap:square;stroke-width:6.75;"/>
   </g>
   <g id="line2d_11">
    <path clip-path="url(#pc001f088d4)" d="M 610.2 317.597435 
L 610.2 160.073684 
" style="fill:none;stroke:#3f3f3f;stroke-linecap:square;stroke-width:2.25;"/>
   </g>
   <g id="line2d_12">
    <path clip-path="url(#pc001f088d4)" d="M 610.2 275.998162 
L 610.2 228.951889 
" style="fill:none;stroke:#3f3f3f;stroke-linecap:square;stroke-width:6.75;"/>
   </g>
   <g id="patch_3">
    <path d="M 108 378 
L 108 51.84 
" style="fill:none;stroke:#000000;stroke-linecap:square;stroke-linejoin:miter;stroke-width:1.875;"/>
   </g>
   <g id="patch_4">
    <path d="M 777.6 378 
L 777.6 51.84 
" style="fill:none;stroke:#000000;stroke-linecap:square;stroke-linejoin:miter;stroke-width:1.875;"/>
   </g>
   <g id="patch_5">
    <path d="M 108 378 
L 777.6 378 
" style="fill:none;stroke:#000000;stroke-linecap:square;stroke-linejoin:miter;stroke-width:1.875;"/>
   </g>
   <g id="patch_6">
    <path d="M 108 51.84 
L 777.6 51.84 
" style="fill:none;stroke:#000000;stroke-linecap:square;stroke-linejoin:miter;stroke-width:1.875;"/>
   </g>
   <g id="PathCollection_1">
    <defs>
     <path d="M 0 2.25 
C 0.596707 2.25 1.169055 2.012926 1.59099 1.59099 
C 2.012926 1.169055 2.25 0.596707 2.25 0 
C 2.25 -0.596707 2.012926 -1.169055 1.59099 -1.59099 
C 1.169055 -2.012926 0.596707 -2.25 0 -2.25 
C -0.596707 -2.25 -1.169055 -2.012926 -1.59099 -1.59099 
C -2.012926 -1.169055 -2.25 -0.596707 -2.25 0 
C -2.25 0.596707 -2.012926 1.169055 -1.59099 1.59099 
C -1.169055 2.012926 -0.596707 2.25 0 2.25 
z
" id="mbb8f3e5f63" style="stroke:#3f3f3f;stroke-width:1.5;"/>
    </defs>
    <g clip-path="url(#pc001f088d4)">
     <use style="fill:#ffffff;stroke:#3f3f3f;stroke-width:1.5;" x="275.4" xlink:href="#mbb8f3e5f63" y="133.655054"/>
    </g>
   </g>
   <g id="PathCollection_2">
    <g clip-path="url(#pc001f088d4)">
     <use style="fill:#ffffff;stroke:#3f3f3f;stroke-width:1.5;" x="610.2" xlink:href="#mbb8f3e5f63" y="260.062452"/>
    </g>
   </g>
  </g>
 </g>
 <defs>
  <clipPath id="pc001f088d4">
   <rect height="326.16" width="669.6" x="108" y="51.84"/>
  </clipPath>
 </defs>
</svg>
