<?xml version="1.0" encoding="utf-8" standalone="no"?>
<!DOCTYPE svg PUBLIC "-//W3C//DTD SVG 1.1//EN"
  "http://www.w3.org/Graphics/SVG/1.1/DTD/svg11.dtd">
<!-- Created with matplotlib (https://matplotlib.org/) -->
<svg height="432pt" version="1.1" viewBox="0 0 864 432" width="864pt" xmlns="http://www.w3.org/2000/svg" xmlns:xlink="http://www.w3.org/1999/xlink">
 <metadata>
  <rdf:RDF xmlns:cc="http://creativecommons.org/ns#" xmlns:dc="http://purl.org/dc/elements/1.1/" xmlns:rdf="http://www.w3.org/1999/02/22-rdf-syntax-ns#">
   <cc:Work>
    <dc:type rdf:resource="http://purl.org/dc/dcmitype/StillImage"/>
    <dc:date>2023-04-16T12:00:33.477510</dc:date>
    <dc:format>image/svg+xml</dc:format>
    <dc:creator>
     <cc:Agent>
      <dc:title>Matplotlib v3.3.4, https://matplotlib.org/</dc:title>
     </cc:Agent>
    </dc:creator>
   </cc:Work>
  </rdf:RDF>
 </metadata>
 <defs>
  <style type="text/css">*{stroke-linecap:butt;stroke-linejoin:round;}</style>
 </defs>
 <g id="figure_1">
  <g id="patch_1">
   <path d="M 0 432 
L 864 432 
L 864 0 
L 0 0 
z
" style="fill:none;"/>
  </g>
  <g id="axes_1">
   <g id="patch_2">
    <path d="M 108 378 
L 777.6 378 
L 777.6 51.84 
L 108 51.84 
z
" style="fill:#ffffff;"/>
   </g>
   <g id="PolyCollection_1">
    <defs>
     <path d="M 276.185155 -68.825455 
L 274.614845 -68.825455 
L 274.387396 -71.820496 
L 274.105819 -74.815537 
L 273.760526 -77.810579 
L 273.341018 -80.80562 
L 272.835965 -83.800661 
L 272.233318 -86.795702 
L 271.520476 -89.790744 
L 270.684495 -92.785785 
L 269.712344 -95.780826 
L 268.591226 -98.775868 
L 267.308952 -101.770909 
L 265.854373 -104.76595 
L 264.217874 -107.760992 
L 262.391924 -110.756033 
L 260.371669 -113.751074 
L 258.155559 -116.746116 
L 255.745985 -119.741157 
L 253.149891 -122.736198 
L 250.379335 -125.73124 
L 247.451947 -128.726281 
L 244.391248 -131.721322 
L 241.22677 -134.716364 
L 237.993959 -137.711405 
L 234.733801 -140.706446 
L 231.492174 -143.701488 
L 228.318907 -146.696529 
L 225.266563 -149.69157 
L 222.388994 -152.686612 
L 219.739695 -155.681653 
L 217.370052 -158.676694 
L 215.327553 -161.671736 
L 213.654045 -164.666777 
L 212.384141 -167.661818 
L 211.543846 -170.65686 
L 211.149473 -173.651901 
L 211.206919 -176.646942 
L 211.711305 -179.641983 
L 212.647022 -182.637025 
L 213.988159 -185.632066 
L 215.699269 -188.627107 
L 217.736457 -191.622149 
L 220.048693 -194.61719 
L 222.579312 -197.612231 
L 225.267598 -200.607273 
L 228.050412 -203.602314 
L 230.863771 -206.597355 
L 233.644348 -209.592397 
L 236.330834 -212.587438 
L 238.865147 -215.582479 
L 241.193466 -218.577521 
L 243.267104 -221.572562 
L 245.043218 -224.567603 
L 246.485389 -227.562645 
L 247.564092 -230.557686 
L 248.257077 -233.552727 
L 248.549692 -236.547769 
L 248.435159 -239.54281 
L 247.914804 -242.537851 
L 246.998241 -245.532893 
L 245.703506 -248.527934 
L 244.057094 -251.522975 
L 242.093886 -254.518017 
L 239.856928 -257.513058 
L 237.397009 -260.508099 
L 234.772029 -263.50314 
L 232.046097 -266.498182 
L 229.288361 -269.493223 
L 226.571561 -272.488264 
L 223.970293 -275.483306 
L 221.559045 -278.478347 
L 219.410029 -281.473388 
L 217.590891 -284.46843 
L 216.162387 -287.463471 
L 215.176135 -290.458512 
L 214.672568 -293.453554 
L 214.679196 -296.448595 
L 215.20932 -299.443636 
L 216.261279 -302.438678 
L 217.818326 -305.433719 
L 219.849164 -308.42876 
L 222.309144 -311.423802 
L 225.142086 -314.418843 
L 228.282622 -317.413884 
L 231.658945 -320.408926 
L 235.195792 -323.403967 
L 238.817489 -326.399008 
L 242.450882 -329.39405 
L 246.027986 -332.389091 
L 249.488206 -335.384132 
L 252.780033 -338.379174 
L 255.862151 -341.374215 
L 258.70394 -344.369256 
L 261.285406 -347.364298 
L 263.596604 -350.359339 
L 265.636642 -353.35438 
L 267.412395 -356.349421 
L 268.937021 -359.344463 
L 270.228419 -362.339504 
L 271.307715 -365.334545 
L 279.492285 -365.334545 
L 279.492285 -365.334545 
L 280.571581 -362.339504 
L 281.862979 -359.344463 
L 283.387605 -356.349421 
L 285.163358 -353.35438 
L 287.203396 -350.359339 
L 289.514594 -347.364298 
L 292.09606 -344.369256 
L 294.937849 -341.374215 
L 298.019967 -338.379174 
L 301.311794 -335.384132 
L 304.772014 -332.389091 
L 308.349118 -329.39405 
L 311.982511 -326.399008 
L 315.604208 -323.403967 
L 319.141055 -320.408926 
L 322.517378 -317.413884 
L 325.657914 -314.418843 
L 328.490856 -311.423802 
L 330.950836 -308.42876 
L 332.981674 -305.433719 
L 334.538721 -302.438678 
L 335.59068 -299.443636 
L 336.120804 -296.448595 
L 336.127432 -293.453554 
L 335.623865 -290.458512 
L 334.637613 -287.463471 
L 333.209109 -284.46843 
L 331.389971 -281.473388 
L 329.240955 -278.478347 
L 326.829707 -275.483306 
L 324.228439 -272.488264 
L 321.511639 -269.493223 
L 318.753903 -266.498182 
L 316.027971 -263.50314 
L 313.402991 -260.508099 
L 310.943072 -257.513058 
L 308.706114 -254.518017 
L 306.742906 -251.522975 
L 305.096494 -248.527934 
L 303.801759 -245.532893 
L 302.885196 -242.537851 
L 302.364841 -239.54281 
L 302.250308 -236.547769 
L 302.542923 -233.552727 
L 303.235908 -230.557686 
L 304.314611 -227.562645 
L 305.756782 -224.567603 
L 307.532896 -221.572562 
L 309.606534 -218.577521 
L 311.934853 -215.582479 
L 314.469166 -212.587438 
L 317.155652 -209.592397 
L 319.936229 -206.597355 
L 322.749588 -203.602314 
L 325.532402 -200.607273 
L 328.220688 -197.612231 
L 330.751307 -194.61719 
L 333.063543 -191.622149 
L 335.100731 -188.627107 
L 336.811841 -185.632066 
L 338.152978 -182.637025 
L 339.088695 -179.641983 
L 339.593081 -176.646942 
L 339.650527 -173.651901 
L 339.256154 -170.65686 
L 338.415859 -167.661818 
L 337.145955 -164.666777 
L 335.472447 -161.671736 
L 333.429948 -158.676694 
L 331.060305 -155.681653 
L 328.411006 -152.686612 
L 325.533437 -149.69157 
L 322.481093 -146.696529 
L 319.307826 -143.701488 
L 316.066199 -140.706446 
L 312.806041 -137.711405 
L 309.57323 -134.716364 
L 306.408752 -131.721322 
L 303.348053 -128.726281 
L 300.420665 -125.73124 
L 297.650109 -122.736198 
L 295.054015 -119.741157 
L 292.644441 -116.746116 
L 290.428331 -113.751074 
L 288.408076 -110.756033 
L 286.582126 -107.760992 
L 284.945627 -104.76595 
L 283.491048 -101.770909 
L 282.208774 -98.775868 
L 281.087656 -95.780826 
L 280.115505 -92.785785 
L 279.279524 -89.790744 
L 278.566682 -86.795702 
L 277.964035 -83.800661 
L 277.458982 -80.80562 
L 277.039474 -77.810579 
L 276.694181 -74.815537 
L 276.412604 -71.820496 
L 276.185155 -68.825455 
z
" id="mf2779e84f0" style="stroke:#3f3f3f;stroke-width:2.25;"/>
    </defs>
    <g clip-path="url(#p6eca71419d)">
     <use style="fill:#3274a1;stroke:#3f3f3f;stroke-width:2.25;" x="0" xlink:href="#mf2779e84f0" y="432"/>
    </g>
   </g>
   <g id="PolyCollection_2">
    <defs>
     <path d="M 611.331164 -84.044365 
L 609.068836 -84.044365 
L 608.677602 -86.715129 
L 608.184362 -89.385893 
L 607.573174 -92.056657 
L 606.828081 -94.727421 
L 605.933367 -97.398184 
L 604.873576 -100.068948 
L 603.63324 -102.739712 
L 602.196259 -105.410476 
L 600.544998 -108.08124 
L 598.659202 -110.752004 
L 596.514941 -113.422768 
L 594.083828 -116.093531 
L 591.332817 -118.764295 
L 588.224815 -121.435059 
L 584.720309 -124.105823 
L 580.780052 -126.776587 
L 576.368718 -129.447351 
L 571.459262 -132.118115 
L 566.037597 -134.788878 
L 560.107121 -137.459642 
L 553.692603 -140.130406 
L 546.842999 -142.80117 
L 539.632888 -145.471934 
L 532.162366 -148.142698 
L 524.555388 -150.813462 
L 516.956691 -153.484225 
L 509.527491 -156.154989 
L 502.440219 -158.825753 
L 495.872514 -161.496517 
L 490.000683 -164.167281 
L 484.992798 -166.838045 
L 481.001606 -169.508809 
L 478.157462 -172.179572 
L 476.561582 -174.850336 
L 476.28 -177.5211 
L 477.338718 -180.191864 
L 479.720559 -182.862628 
L 483.364222 -185.533392 
L 488.165893 -188.204156 
L 493.983554 -190.87492 
L 500.64388 -193.545683 
L 507.95126 -196.216447 
L 515.698274 -198.887211 
L 523.67672 -201.557975 
L 531.688216 -204.228739 
L 539.553473 -206.899503 
L 547.119484 -209.570267 
L 554.26414 -212.24103 
L 560.898112 -214.911794 
L 566.964129 -217.582558 
L 572.434055 -220.253322 
L 577.304353 -222.924086 
L 581.590612 -225.59485 
L 585.321808 -228.265614 
L 588.534887 -230.936377 
L 591.270136 -233.607141 
L 593.567604 -236.277905 
L 595.464725 -238.948669 
L 596.995087 -241.619433 
L 598.188209 -244.290197 
L 599.070095 -246.960961 
L 599.66428 -249.631724 
L 599.993101 -252.302488 
L 600.078934 -254.973252 
L 599.945205 -257.644016 
L 599.617058 -260.31478 
L 599.121652 -262.985544 
L 598.488101 -265.656308 
L 597.747164 -268.327071 
L 596.930799 -270.997835 
L 596.07168 -273.668599 
L 595.202762 -276.339363 
L 594.35691 -279.010127 
L 593.566564 -281.680891 
L 592.863349 -284.351655 
L 592.277541 -287.022418 
L 591.837301 -289.693182 
L 591.567637 -292.363946 
L 591.489129 -295.03471 
L 591.616521 -297.705474 
L 591.957363 -300.376238 
L 592.510904 -303.047002 
L 593.267458 -305.717765 
L 594.208405 -308.388529 
L 595.30692 -311.059293 
L 596.529407 -313.730057 
L 597.837546 -316.400821 
L 599.19073 -319.071585 
L 600.548659 -321.742349 
L 601.873797 -324.413112 
L 603.133471 -327.083876 
L 604.301413 -329.75464 
L 605.358636 -332.425404 
L 606.293653 -335.096168 
L 607.102064 -337.766932 
L 607.785674 -340.437696 
L 608.351279 -343.108459 
L 608.809293 -345.779223 
L 609.172384 -348.449987 
L 611.227616 -348.449987 
L 611.227616 -348.449987 
L 611.590707 -345.779223 
L 612.048721 -343.108459 
L 612.614326 -340.437696 
L 613.297936 -337.766932 
L 614.106347 -335.096168 
L 615.041364 -332.425404 
L 616.098587 -329.75464 
L 617.266529 -327.083876 
L 618.526203 -324.413112 
L 619.851341 -321.742349 
L 621.20927 -319.071585 
L 622.562454 -316.400821 
L 623.870593 -313.730057 
L 625.09308 -311.059293 
L 626.191595 -308.388529 
L 627.132542 -305.717765 
L 627.889096 -303.047002 
L 628.442637 -300.376238 
L 628.783479 -297.705474 
L 628.910871 -295.03471 
L 628.832363 -292.363946 
L 628.562699 -289.693182 
L 628.122459 -287.022418 
L 627.536651 -284.351655 
L 626.833436 -281.680891 
L 626.04309 -279.010127 
L 625.197238 -276.339363 
L 624.32832 -273.668599 
L 623.469201 -270.997835 
L 622.652836 -268.327071 
L 621.911899 -265.656308 
L 621.278348 -262.985544 
L 620.782942 -260.31478 
L 620.454795 -257.644016 
L 620.321066 -254.973252 
L 620.406899 -252.302488 
L 620.73572 -249.631724 
L 621.329905 -246.960961 
L 622.211791 -244.290197 
L 623.404913 -241.619433 
L 624.935275 -238.948669 
L 626.832396 -236.277905 
L 629.129864 -233.607141 
L 631.865113 -230.936377 
L 635.078192 -228.265614 
L 638.809388 -225.59485 
L 643.095647 -222.924086 
L 647.965945 -220.253322 
L 653.435871 -217.582558 
L 659.501888 -214.911794 
L 666.13586 -212.24103 
L 673.280516 -209.570267 
L 680.846527 -206.899503 
L 688.711784 -204.228739 
L 696.72328 -201.557975 
L 704.701726 -198.887211 
L 712.44874 -196.216447 
L 719.75612 -193.545683 
L 726.416446 -190.87492 
L 732.234107 -188.204156 
L 737.035778 -185.533392 
L 740.679441 -182.862628 
L 743.061282 -180.191864 
L 744.12 -177.5211 
L 743.838418 -174.850336 
L 742.242538 -172.179572 
L 739.398394 -169.508809 
L 735.407202 -166.838045 
L 730.399317 -164.167281 
L 724.527486 -161.496517 
L 717.959781 -158.825753 
L 710.872509 -156.154989 
L 703.443309 -153.484225 
L 695.844612 -150.813462 
L 688.237634 -148.142698 
L 680.767112 -145.471934 
L 673.557001 -142.80117 
L 666.707397 -140.130406 
L 660.292879 -137.459642 
L 654.362403 -134.788878 
L 648.940738 -132.118115 
L 644.031282 -129.447351 
L 639.619948 -126.776587 
L 635.679691 -124.105823 
L 632.175185 -121.435059 
L 629.067183 -118.764295 
L 626.316172 -116.093531 
L 623.885059 -113.422768 
L 621.740798 -110.752004 
L 619.855002 -108.08124 
L 618.203741 -105.410476 
L 616.76676 -102.739712 
L 615.526424 -100.068948 
L 614.466633 -97.398184 
L 613.571919 -94.727421 
L 612.826826 -92.056657 
L 612.215638 -89.385893 
L 611.722398 -86.715129 
L 611.331164 -84.044365 
z
" id="m3056539df2" style="stroke:#3f3f3f;stroke-width:2.25;"/>
    </defs>
    <g clip-path="url(#p6eca71419d)">
     <use style="fill:#e1812c;stroke:#3f3f3f;stroke-width:2.25;" x="0" xlink:href="#m3056539df2" y="432"/>
    </g>
   </g>
   <g id="matplotlib.axis_1">
    <g id="xtick_1">
     <g id="line2d_1">
      <defs>
       <path d="M 0 0 
L 0 9 
" id="mf3c88b0a41" style="stroke:#000000;stroke-width:1.875;"/>
      </defs>
      <g>
       <use style="stroke:#000000;stroke-width:1.875;" x="275.4" xlink:href="#mf3c88b0a41" y="378"/>
      </g>
     </g>
     <g id="text_1">
      <!-- blocked_rep -->
      <g transform="translate(225.849727 403.037422)scale(0.165 -0.165)">
       <defs>
        <path d="M 48.6875 27.296875 
Q 48.6875 37.203125 44.609375 42.84375 
Q 40.53125 48.484375 33.40625 48.484375 
Q 26.265625 48.484375 22.1875 42.84375 
Q 18.109375 37.203125 18.109375 27.296875 
Q 18.109375 17.390625 22.1875 11.75 
Q 26.265625 6.109375 33.40625 6.109375 
Q 40.53125 6.109375 44.609375 11.75 
Q 48.6875 17.390625 48.6875 27.296875 
z
M 18.109375 46.390625 
Q 20.953125 51.265625 25.265625 53.625 
Q 29.59375 56 35.59375 56 
Q 45.5625 56 51.78125 48.09375 
Q 58.015625 40.1875 58.015625 27.296875 
Q 58.015625 14.40625 51.78125 6.484375 
Q 45.5625 -1.421875 35.59375 -1.421875 
Q 29.59375 -1.421875 25.265625 0.953125 
Q 20.953125 3.328125 18.109375 8.203125 
L 18.109375 0 
L 9.078125 0 
L 9.078125 75.984375 
L 18.109375 75.984375 
z
" id="DejaVuSans-98"/>
        <path d="M 9.421875 75.984375 
L 18.40625 75.984375 
L 18.40625 0 
L 9.421875 0 
z
" id="DejaVuSans-108"/>
        <path d="M 30.609375 48.390625 
Q 23.390625 48.390625 19.1875 42.75 
Q 14.984375 37.109375 14.984375 27.296875 
Q 14.984375 17.484375 19.15625 11.84375 
Q 23.34375 6.203125 30.609375 6.203125 
Q 37.796875 6.203125 41.984375 11.859375 
Q 46.1875 17.53125 46.1875 27.296875 
Q 46.1875 37.015625 41.984375 42.703125 
Q 37.796875 48.390625 30.609375 48.390625 
z
M 30.609375 56 
Q 42.328125 56 49.015625 48.375 
Q 55.71875 40.765625 55.71875 27.296875 
Q 55.71875 13.875 49.015625 6.21875 
Q 42.328125 -1.421875 30.609375 -1.421875 
Q 18.84375 -1.421875 12.171875 6.21875 
Q 5.515625 13.875 5.515625 27.296875 
Q 5.515625 40.765625 12.171875 48.375 
Q 18.84375 56 30.609375 56 
z
" id="DejaVuSans-111"/>
        <path d="M 48.78125 52.59375 
L 48.78125 44.1875 
Q 44.96875 46.296875 41.140625 47.34375 
Q 37.3125 48.390625 33.40625 48.390625 
Q 24.65625 48.390625 19.8125 42.84375 
Q 14.984375 37.3125 14.984375 27.296875 
Q 14.984375 17.28125 19.8125 11.734375 
Q 24.65625 6.203125 33.40625 6.203125 
Q 37.3125 6.203125 41.140625 7.25 
Q 44.96875 8.296875 48.78125 10.40625 
L 48.78125 2.09375 
Q 45.015625 0.34375 40.984375 -0.53125 
Q 36.96875 -1.421875 32.421875 -1.421875 
Q 20.0625 -1.421875 12.78125 6.34375 
Q 5.515625 14.109375 5.515625 27.296875 
Q 5.515625 40.671875 12.859375 48.328125 
Q 20.21875 56 33.015625 56 
Q 37.15625 56 41.109375 55.140625 
Q 45.0625 54.296875 48.78125 52.59375 
z
" id="DejaVuSans-99"/>
        <path d="M 9.078125 75.984375 
L 18.109375 75.984375 
L 18.109375 31.109375 
L 44.921875 54.6875 
L 56.390625 54.6875 
L 27.390625 29.109375 
L 57.625 0 
L 45.90625 0 
L 18.109375 26.703125 
L 18.109375 0 
L 9.078125 0 
z
" id="DejaVuSans-107"/>
        <path d="M 56.203125 29.59375 
L 56.203125 25.203125 
L 14.890625 25.203125 
Q 15.484375 15.921875 20.484375 11.0625 
Q 25.484375 6.203125 34.421875 6.203125 
Q 39.59375 6.203125 44.453125 7.46875 
Q 49.3125 8.734375 54.109375 11.28125 
L 54.109375 2.78125 
Q 49.265625 0.734375 44.1875 -0.34375 
Q 39.109375 -1.421875 33.890625 -1.421875 
Q 20.796875 -1.421875 13.15625 6.1875 
Q 5.515625 13.8125 5.515625 26.8125 
Q 5.515625 40.234375 12.765625 48.109375 
Q 20.015625 56 32.328125 56 
Q 43.359375 56 49.78125 48.890625 
Q 56.203125 41.796875 56.203125 29.59375 
z
M 47.21875 32.234375 
Q 47.125 39.59375 43.09375 43.984375 
Q 39.0625 48.390625 32.421875 48.390625 
Q 24.90625 48.390625 20.390625 44.140625 
Q 15.875 39.890625 15.1875 32.171875 
z
" id="DejaVuSans-101"/>
        <path d="M 45.40625 46.390625 
L 45.40625 75.984375 
L 54.390625 75.984375 
L 54.390625 0 
L 45.40625 0 
L 45.40625 8.203125 
Q 42.578125 3.328125 38.25 0.953125 
Q 33.9375 -1.421875 27.875 -1.421875 
Q 17.96875 -1.421875 11.734375 6.484375 
Q 5.515625 14.40625 5.515625 27.296875 
Q 5.515625 40.1875 11.734375 48.09375 
Q 17.96875 56 27.875 56 
Q 33.9375 56 38.25 53.625 
Q 42.578125 51.265625 45.40625 46.390625 
z
M 14.796875 27.296875 
Q 14.796875 17.390625 18.875 11.75 
Q 22.953125 6.109375 30.078125 6.109375 
Q 37.203125 6.109375 41.296875 11.75 
Q 45.40625 17.390625 45.40625 27.296875 
Q 45.40625 37.203125 41.296875 42.84375 
Q 37.203125 48.484375 30.078125 48.484375 
Q 22.953125 48.484375 18.875 42.84375 
Q 14.796875 37.203125 14.796875 27.296875 
z
" id="DejaVuSans-100"/>
        <path d="M 50.984375 -16.609375 
L 50.984375 -23.578125 
L -0.984375 -23.578125 
L -0.984375 -16.609375 
z
" id="DejaVuSans-95"/>
        <path d="M 41.109375 46.296875 
Q 39.59375 47.171875 37.8125 47.578125 
Q 36.03125 48 33.890625 48 
Q 26.265625 48 22.1875 43.046875 
Q 18.109375 38.09375 18.109375 28.8125 
L 18.109375 0 
L 9.078125 0 
L 9.078125 54.6875 
L 18.109375 54.6875 
L 18.109375 46.1875 
Q 20.953125 51.171875 25.484375 53.578125 
Q 30.03125 56 36.53125 56 
Q 37.453125 56 38.578125 55.875 
Q 39.703125 55.765625 41.0625 55.515625 
z
" id="DejaVuSans-114"/>
        <path d="M 18.109375 8.203125 
L 18.109375 -20.796875 
L 9.078125 -20.796875 
L 9.078125 54.6875 
L 18.109375 54.6875 
L 18.109375 46.390625 
Q 20.953125 51.265625 25.265625 53.625 
Q 29.59375 56 35.59375 56 
Q 45.5625 56 51.78125 48.09375 
Q 58.015625 40.1875 58.015625 27.296875 
Q 58.015625 14.40625 51.78125 6.484375 
Q 45.5625 -1.421875 35.59375 -1.421875 
Q 29.59375 -1.421875 25.265625 0.953125 
Q 20.953125 3.328125 18.109375 8.203125 
z
M 48.6875 27.296875 
Q 48.6875 37.203125 44.609375 42.84375 
Q 40.53125 48.484375 33.40625 48.484375 
Q 26.265625 48.484375 22.1875 42.84375 
Q 18.109375 37.203125 18.109375 27.296875 
Q 18.109375 17.390625 22.1875 11.75 
Q 26.265625 6.109375 33.40625 6.109375 
Q 40.53125 6.109375 44.609375 11.75 
Q 48.6875 17.390625 48.6875 27.296875 
z
" id="DejaVuSans-112"/>
       </defs>
       <use xlink:href="#DejaVuSans-98"/>
       <use x="63.476562" xlink:href="#DejaVuSans-108"/>
       <use x="91.259766" xlink:href="#DejaVuSans-111"/>
       <use x="152.441406" xlink:href="#DejaVuSans-99"/>
       <use x="207.421875" xlink:href="#DejaVuSans-107"/>
       <use x="261.707031" xlink:href="#DejaVuSans-101"/>
       <use x="323.230469" xlink:href="#DejaVuSans-100"/>
       <use x="386.707031" xlink:href="#DejaVuSans-95"/>
       <use x="436.707031" xlink:href="#DejaVuSans-114"/>
       <use x="475.570312" xlink:href="#DejaVuSans-101"/>
       <use x="537.09375" xlink:href="#DejaVuSans-112"/>
      </g>
     </g>
    </g>
    <g id="xtick_2">
     <g id="line2d_2">
      <g>
       <use style="stroke:#000000;stroke-width:1.875;" x="610.2" xlink:href="#mf3c88b0a41" y="378"/>
      </g>
     </g>
     <g id="text_2">
      <!-- interleaved_rep -->
      <g transform="translate(545.71207 403.037422)scale(0.165 -0.165)">
       <defs>
        <path d="M 9.421875 54.6875 
L 18.40625 54.6875 
L 18.40625 0 
L 9.421875 0 
z
M 9.421875 75.984375 
L 18.40625 75.984375 
L 18.40625 64.59375 
L 9.421875 64.59375 
z
" id="DejaVuSans-105"/>
        <path d="M 54.890625 33.015625 
L 54.890625 0 
L 45.90625 0 
L 45.90625 32.71875 
Q 45.90625 40.484375 42.875 44.328125 
Q 39.84375 48.1875 33.796875 48.1875 
Q 26.515625 48.1875 22.3125 43.546875 
Q 18.109375 38.921875 18.109375 30.90625 
L 18.109375 0 
L 9.078125 0 
L 9.078125 54.6875 
L 18.109375 54.6875 
L 18.109375 46.1875 
Q 21.34375 51.125 25.703125 53.5625 
Q 30.078125 56 35.796875 56 
Q 45.21875 56 50.046875 50.171875 
Q 54.890625 44.34375 54.890625 33.015625 
z
" id="DejaVuSans-110"/>
        <path d="M 18.3125 70.21875 
L 18.3125 54.6875 
L 36.8125 54.6875 
L 36.8125 47.703125 
L 18.3125 47.703125 
L 18.3125 18.015625 
Q 18.3125 11.328125 20.140625 9.421875 
Q 21.96875 7.515625 27.59375 7.515625 
L 36.8125 7.515625 
L 36.8125 0 
L 27.59375 0 
Q 17.1875 0 13.234375 3.875 
Q 9.28125 7.765625 9.28125 18.015625 
L 9.28125 47.703125 
L 2.6875 47.703125 
L 2.6875 54.6875 
L 9.28125 54.6875 
L 9.28125 70.21875 
z
" id="DejaVuSans-116"/>
        <path d="M 34.28125 27.484375 
Q 23.390625 27.484375 19.1875 25 
Q 14.984375 22.515625 14.984375 16.5 
Q 14.984375 11.71875 18.140625 8.90625 
Q 21.296875 6.109375 26.703125 6.109375 
Q 34.1875 6.109375 38.703125 11.40625 
Q 43.21875 16.703125 43.21875 25.484375 
L 43.21875 27.484375 
z
M 52.203125 31.203125 
L 52.203125 0 
L 43.21875 0 
L 43.21875 8.296875 
Q 40.140625 3.328125 35.546875 0.953125 
Q 30.953125 -1.421875 24.3125 -1.421875 
Q 15.921875 -1.421875 10.953125 3.296875 
Q 6 8.015625 6 15.921875 
Q 6 25.140625 12.171875 29.828125 
Q 18.359375 34.515625 30.609375 34.515625 
L 43.21875 34.515625 
L 43.21875 35.40625 
Q 43.21875 41.609375 39.140625 45 
Q 35.0625 48.390625 27.6875 48.390625 
Q 23 48.390625 18.546875 47.265625 
Q 14.109375 46.140625 10.015625 43.890625 
L 10.015625 52.203125 
Q 14.9375 54.109375 19.578125 55.046875 
Q 24.21875 56 28.609375 56 
Q 40.484375 56 46.34375 49.84375 
Q 52.203125 43.703125 52.203125 31.203125 
z
" id="DejaVuSans-97"/>
        <path d="M 2.984375 54.6875 
L 12.5 54.6875 
L 29.59375 8.796875 
L 46.6875 54.6875 
L 56.203125 54.6875 
L 35.6875 0 
L 23.484375 0 
z
" id="DejaVuSans-118"/>
       </defs>
       <use xlink:href="#DejaVuSans-105"/>
       <use x="27.783203" xlink:href="#DejaVuSans-110"/>
       <use x="91.162109" xlink:href="#DejaVuSans-116"/>
       <use x="130.371094" xlink:href="#DejaVuSans-101"/>
       <use x="191.894531" xlink:href="#DejaVuSans-114"/>
       <use x="233.007812" xlink:href="#DejaVuSans-108"/>
       <use x="260.791016" xlink:href="#DejaVuSans-101"/>
       <use x="322.314453" xlink:href="#DejaVuSans-97"/>
       <use x="383.59375" xlink:href="#DejaVuSans-118"/>
       <use x="442.773438" xlink:href="#DejaVuSans-101"/>
       <use x="504.296875" xlink:href="#DejaVuSans-100"/>
       <use x="567.773438" xlink:href="#DejaVuSans-95"/>
       <use x="617.773438" xlink:href="#DejaVuSans-114"/>
       <use x="656.636719" xlink:href="#DejaVuSans-101"/>
       <use x="718.160156" xlink:href="#DejaVuSans-112"/>
      </g>
     </g>
    </g>
    <g id="text_3">
     <!-- condition -->
     <g transform="translate(401.187656 424.605)scale(0.18 -0.18)">
      <use xlink:href="#DejaVuSans-99"/>
      <use x="54.980469" xlink:href="#DejaVuSans-111"/>
      <use x="116.162109" xlink:href="#DejaVuSans-110"/>
      <use x="179.541016" xlink:href="#DejaVuSans-100"/>
      <use x="243.017578" xlink:href="#DejaVuSans-105"/>
      <use x="270.800781" xlink:href="#DejaVuSans-116"/>
      <use x="310.009766" xlink:href="#DejaVuSans-105"/>
      <use x="337.792969" xlink:href="#DejaVuSans-111"/>
      <use x="398.974609" xlink:href="#DejaVuSans-110"/>
     </g>
    </g>
   </g>
   <g id="matplotlib.axis_2">
    <g id="ytick_1">
     <g id="line2d_3">
      <defs>
       <path d="M 0 0 
L -9 0 
" id="m7b1ec5c18d" style="stroke:#000000;stroke-width:1.875;"/>
      </defs>
      <g>
       <use style="stroke:#000000;stroke-width:1.875;" x="108" xlink:href="#m7b1ec5c18d" y="349.554301"/>
      </g>
     </g>
     <g id="text_4">
      <!-- 0.2 -->
      <g transform="translate(69.259844 355.823012)scale(0.165 -0.165)">
       <defs>
        <path d="M 31.78125 66.40625 
Q 24.171875 66.40625 20.328125 58.90625 
Q 16.5 51.421875 16.5 36.375 
Q 16.5 21.390625 20.328125 13.890625 
Q 24.171875 6.390625 31.78125 6.390625 
Q 39.453125 6.390625 43.28125 13.890625 
Q 47.125 21.390625 47.125 36.375 
Q 47.125 51.421875 43.28125 58.90625 
Q 39.453125 66.40625 31.78125 66.40625 
z
M 31.78125 74.21875 
Q 44.046875 74.21875 50.515625 64.515625 
Q 56.984375 54.828125 56.984375 36.375 
Q 56.984375 17.96875 50.515625 8.265625 
Q 44.046875 -1.421875 31.78125 -1.421875 
Q 19.53125 -1.421875 13.0625 8.265625 
Q 6.59375 17.96875 6.59375 36.375 
Q 6.59375 54.828125 13.0625 64.515625 
Q 19.53125 74.21875 31.78125 74.21875 
z
" id="DejaVuSans-48"/>
        <path d="M 10.6875 12.40625 
L 21 12.40625 
L 21 0 
L 10.6875 0 
z
" id="DejaVuSans-46"/>
        <path d="M 19.1875 8.296875 
L 53.609375 8.296875 
L 53.609375 0 
L 7.328125 0 
L 7.328125 8.296875 
Q 12.9375 14.109375 22.625 23.890625 
Q 32.328125 33.6875 34.8125 36.53125 
Q 39.546875 41.84375 41.421875 45.53125 
Q 43.3125 49.21875 43.3125 52.78125 
Q 43.3125 58.59375 39.234375 62.25 
Q 35.15625 65.921875 28.609375 65.921875 
Q 23.96875 65.921875 18.8125 64.3125 
Q 13.671875 62.703125 7.8125 59.421875 
L 7.8125 69.390625 
Q 13.765625 71.78125 18.9375 73 
Q 24.125 74.21875 28.421875 74.21875 
Q 39.75 74.21875 46.484375 68.546875 
Q 53.21875 62.890625 53.21875 53.421875 
Q 53.21875 48.921875 51.53125 44.890625 
Q 49.859375 40.875 45.40625 35.40625 
Q 44.1875 33.984375 37.640625 27.21875 
Q 31.109375 20.453125 19.1875 8.296875 
z
" id="DejaVuSans-50"/>
       </defs>
       <use xlink:href="#DejaVuSans-48"/>
       <use x="63.623047" xlink:href="#DejaVuSans-46"/>
       <use x="95.410156" xlink:href="#DejaVuSans-50"/>
      </g>
     </g>
    </g>
    <g id="ytick_2">
     <g id="line2d_4">
      <g>
       <use style="stroke:#000000;stroke-width:1.875;" x="108" xlink:href="#m7b1ec5c18d" y="292.555838"/>
      </g>
     </g>
     <g id="text_5">
      <!-- 0.4 -->
      <g transform="translate(69.259844 298.824549)scale(0.165 -0.165)">
       <defs>
        <path d="M 37.796875 64.3125 
L 12.890625 25.390625 
L 37.796875 25.390625 
z
M 35.203125 72.90625 
L 47.609375 72.90625 
L 47.609375 25.390625 
L 58.015625 25.390625 
L 58.015625 17.1875 
L 47.609375 17.1875 
L 47.609375 0 
L 37.796875 0 
L 37.796875 17.1875 
L 4.890625 17.1875 
L 4.890625 26.703125 
z
" id="DejaVuSans-52"/>
       </defs>
       <use xlink:href="#DejaVuSans-48"/>
       <use x="63.623047" xlink:href="#DejaVuSans-46"/>
       <use x="95.410156" xlink:href="#DejaVuSans-52"/>
      </g>
     </g>
    </g>
    <g id="ytick_3">
     <g id="line2d_5">
      <g>
       <use style="stroke:#000000;stroke-width:1.875;" x="108" xlink:href="#m7b1ec5c18d" y="235.557375"/>
      </g>
     </g>
     <g id="text_6">
      <!-- 0.6 -->
      <g transform="translate(69.259844 241.826085)scale(0.165 -0.165)">
       <defs>
        <path d="M 33.015625 40.375 
Q 26.375 40.375 22.484375 35.828125 
Q 18.609375 31.296875 18.609375 23.390625 
Q 18.609375 15.53125 22.484375 10.953125 
Q 26.375 6.390625 33.015625 6.390625 
Q 39.65625 6.390625 43.53125 10.953125 
Q 47.40625 15.53125 47.40625 23.390625 
Q 47.40625 31.296875 43.53125 35.828125 
Q 39.65625 40.375 33.015625 40.375 
z
M 52.59375 71.296875 
L 52.59375 62.3125 
Q 48.875 64.0625 45.09375 64.984375 
Q 41.3125 65.921875 37.59375 65.921875 
Q 27.828125 65.921875 22.671875 59.328125 
Q 17.53125 52.734375 16.796875 39.40625 
Q 19.671875 43.65625 24.015625 45.921875 
Q 28.375 48.1875 33.59375 48.1875 
Q 44.578125 48.1875 50.953125 41.515625 
Q 57.328125 34.859375 57.328125 23.390625 
Q 57.328125 12.15625 50.6875 5.359375 
Q 44.046875 -1.421875 33.015625 -1.421875 
Q 20.359375 -1.421875 13.671875 8.265625 
Q 6.984375 17.96875 6.984375 36.375 
Q 6.984375 53.65625 15.1875 63.9375 
Q 23.390625 74.21875 37.203125 74.21875 
Q 40.921875 74.21875 44.703125 73.484375 
Q 48.484375 72.75 52.59375 71.296875 
z
" id="DejaVuSans-54"/>
       </defs>
       <use xlink:href="#DejaVuSans-48"/>
       <use x="63.623047" xlink:href="#DejaVuSans-46"/>
       <use x="95.410156" xlink:href="#DejaVuSans-54"/>
      </g>
     </g>
    </g>
    <g id="ytick_4">
     <g id="line2d_6">
      <g>
       <use style="stroke:#000000;stroke-width:1.875;" x="108" xlink:href="#m7b1ec5c18d" y="178.558912"/>
      </g>
     </g>
     <g id="text_7">
      <!-- 0.8 -->
      <g transform="translate(69.259844 184.827622)scale(0.165 -0.165)">
       <defs>
        <path d="M 31.78125 34.625 
Q 24.75 34.625 20.71875 30.859375 
Q 16.703125 27.09375 16.703125 20.515625 
Q 16.703125 13.921875 20.71875 10.15625 
Q 24.75 6.390625 31.78125 6.390625 
Q 38.8125 6.390625 42.859375 10.171875 
Q 46.921875 13.96875 46.921875 20.515625 
Q 46.921875 27.09375 42.890625 30.859375 
Q 38.875 34.625 31.78125 34.625 
z
M 21.921875 38.8125 
Q 15.578125 40.375 12.03125 44.71875 
Q 8.5 49.078125 8.5 55.328125 
Q 8.5 64.0625 14.71875 69.140625 
Q 20.953125 74.21875 31.78125 74.21875 
Q 42.671875 74.21875 48.875 69.140625 
Q 55.078125 64.0625 55.078125 55.328125 
Q 55.078125 49.078125 51.53125 44.71875 
Q 48 40.375 41.703125 38.8125 
Q 48.828125 37.15625 52.796875 32.3125 
Q 56.78125 27.484375 56.78125 20.515625 
Q 56.78125 9.90625 50.3125 4.234375 
Q 43.84375 -1.421875 31.78125 -1.421875 
Q 19.734375 -1.421875 13.25 4.234375 
Q 6.78125 9.90625 6.78125 20.515625 
Q 6.78125 27.484375 10.78125 32.3125 
Q 14.796875 37.15625 21.921875 38.8125 
z
M 18.3125 54.390625 
Q 18.3125 48.734375 21.84375 45.5625 
Q 25.390625 42.390625 31.78125 42.390625 
Q 38.140625 42.390625 41.71875 45.5625 
Q 45.3125 48.734375 45.3125 54.390625 
Q 45.3125 60.0625 41.71875 63.234375 
Q 38.140625 66.40625 31.78125 66.40625 
Q 25.390625 66.40625 21.84375 63.234375 
Q 18.3125 60.0625 18.3125 54.390625 
z
" id="DejaVuSans-56"/>
       </defs>
       <use xlink:href="#DejaVuSans-48"/>
       <use x="63.623047" xlink:href="#DejaVuSans-46"/>
       <use x="95.410156" xlink:href="#DejaVuSans-56"/>
      </g>
     </g>
    </g>
    <g id="ytick_5">
     <g id="line2d_7">
      <g>
       <use style="stroke:#000000;stroke-width:1.875;" x="108" xlink:href="#m7b1ec5c18d" y="121.560448"/>
      </g>
     </g>
     <g id="text_8">
      <!-- 1.0 -->
      <g transform="translate(69.259844 127.829159)scale(0.165 -0.165)">
       <defs>
        <path d="M 12.40625 8.296875 
L 28.515625 8.296875 
L 28.515625 63.921875 
L 10.984375 60.40625 
L 10.984375 69.390625 
L 28.421875 72.90625 
L 38.28125 72.90625 
L 38.28125 8.296875 
L 54.390625 8.296875 
L 54.390625 0 
L 12.40625 0 
z
" id="DejaVuSans-49"/>
       </defs>
       <use xlink:href="#DejaVuSans-49"/>
       <use x="63.623047" xlink:href="#DejaVuSans-46"/>
       <use x="95.410156" xlink:href="#DejaVuSans-48"/>
      </g>
     </g>
    </g>
    <g id="ytick_6">
     <g id="line2d_8">
      <g>
       <use style="stroke:#000000;stroke-width:1.875;" x="108" xlink:href="#m7b1ec5c18d" y="64.561985"/>
      </g>
     </g>
     <g id="text_9">
      <!-- 1.2 -->
      <g transform="translate(69.259844 70.830696)scale(0.165 -0.165)">
       <use xlink:href="#DejaVuSans-49"/>
       <use x="63.623047" xlink:href="#DejaVuSans-46"/>
       <use x="95.410156" xlink:href="#DejaVuSans-50"/>
      </g>
     </g>
    </g>
    <g id="text_10">
     <!-- prediction accuracy -->
     <g transform="translate(61.516406 303.537656)rotate(-90)scale(0.18 -0.18)">
      <defs>
       <path id="DejaVuSans-32"/>
       <path d="M 8.5 21.578125 
L 8.5 54.6875 
L 17.484375 54.6875 
L 17.484375 21.921875 
Q 17.484375 14.15625 20.5 10.265625 
Q 23.53125 6.390625 29.59375 6.390625 
Q 36.859375 6.390625 41.078125 11.03125 
Q 45.3125 15.671875 45.3125 23.6875 
L 45.3125 54.6875 
L 54.296875 54.6875 
L 54.296875 0 
L 45.3125 0 
L 45.3125 8.40625 
Q 42.046875 3.421875 37.71875 1 
Q 33.40625 -1.421875 27.6875 -1.421875 
Q 18.265625 -1.421875 13.375 4.4375 
Q 8.5 10.296875 8.5 21.578125 
z
M 31.109375 56 
z
" id="DejaVuSans-117"/>
       <path d="M 32.171875 -5.078125 
Q 28.375 -14.84375 24.75 -17.8125 
Q 21.140625 -20.796875 15.09375 -20.796875 
L 7.90625 -20.796875 
L 7.90625 -13.28125 
L 13.1875 -13.28125 
Q 16.890625 -13.28125 18.9375 -11.515625 
Q 21 -9.765625 23.484375 -3.21875 
L 25.09375 0.875 
L 2.984375 54.6875 
L 12.5 54.6875 
L 29.59375 11.921875 
L 46.6875 54.6875 
L 56.203125 54.6875 
z
" id="DejaVuSans-121"/>
      </defs>
      <use xlink:href="#DejaVuSans-112"/>
      <use x="63.476562" xlink:href="#DejaVuSans-114"/>
      <use x="102.339844" xlink:href="#DejaVuSans-101"/>
      <use x="163.863281" xlink:href="#DejaVuSans-100"/>
      <use x="227.339844" xlink:href="#DejaVuSans-105"/>
      <use x="255.123047" xlink:href="#DejaVuSans-99"/>
      <use x="310.103516" xlink:href="#DejaVuSans-116"/>
      <use x="349.3125" xlink:href="#DejaVuSans-105"/>
      <use x="377.095703" xlink:href="#DejaVuSans-111"/>
      <use x="438.277344" xlink:href="#DejaVuSans-110"/>
      <use x="501.65625" xlink:href="#DejaVuSans-32"/>
      <use x="533.443359" xlink:href="#DejaVuSans-97"/>
      <use x="594.722656" xlink:href="#DejaVuSans-99"/>
      <use x="649.703125" xlink:href="#DejaVuSans-99"/>
      <use x="704.683594" xlink:href="#DejaVuSans-117"/>
      <use x="768.0625" xlink:href="#DejaVuSans-114"/>
      <use x="809.175781" xlink:href="#DejaVuSans-97"/>
      <use x="870.455078" xlink:href="#DejaVuSans-99"/>
      <use x="925.435547" xlink:href="#DejaVuSans-121"/>
     </g>
    </g>
   </g>
   <g id="line2d_9">
    <path clip-path="url(#p6eca71419d)" d="M 275.4 308.279552 
L 275.4 121.560448 
" style="fill:none;stroke:#3f3f3f;stroke-linecap:square;stroke-width:2.25;"/>
   </g>
   <g id="line2d_10">
    <path clip-path="url(#p6eca71419d)" d="M 275.4 260.622509 
L 275.4 136.540814 
" style="fill:none;stroke:#3f3f3f;stroke-linecap:square;stroke-width:6.75;"/>
   </g>
   <g id="line2d_11">
    <path clip-path="url(#p6eca71419d)" d="M 610.2 308.279552 
L 610.2 212.034199 
" style="fill:none;stroke:#3f3f3f;stroke-linecap:square;stroke-width:2.25;"/>
   </g>
   <g id="line2d_12">
    <path clip-path="url(#p6eca71419d)" d="M 610.2 266.566508 
L 610.2 238.142815 
" style="fill:none;stroke:#3f3f3f;stroke-linecap:square;stroke-width:6.75;"/>
   </g>
   <g id="patch_3">
    <path d="M 108 378 
L 108 51.84 
" style="fill:none;stroke:#000000;stroke-linecap:square;stroke-linejoin:miter;stroke-width:1.875;"/>
   </g>
   <g id="patch_4">
    <path d="M 777.6 378 
L 777.6 51.84 
" style="fill:none;stroke:#000000;stroke-linecap:square;stroke-linejoin:miter;stroke-width:1.875;"/>
   </g>
   <g id="patch_5">
    <path d="M 108 378 
L 777.6 378 
" style="fill:none;stroke:#000000;stroke-linecap:square;stroke-linejoin:miter;stroke-width:1.875;"/>
   </g>
   <g id="patch_6">
    <path d="M 108 51.84 
L 777.6 51.84 
" style="fill:none;stroke:#000000;stroke-linecap:square;stroke-linejoin:miter;stroke-width:1.875;"/>
   </g>
   <g id="PathCollection_1">
    <defs>
     <path d="M 0 2.25 
C 0.596707 2.25 1.169055 2.012926 1.59099 1.59099 
C 2.012926 1.169055 2.25 0.596707 2.25 0 
C 2.25 -0.596707 2.012926 -1.169055 1.59099 -1.59099 
C 1.169055 -2.012926 0.596707 -2.25 0 -2.25 
C -0.596707 -2.25 -1.169055 -2.012926 -1.59099 -1.59099 
C -2.012926 -1.169055 -2.25 -0.596707 -2.25 0 
C -2.25 0.596707 -2.012926 1.169055 -1.59099 1.59099 
C -1.169055 2.012926 -0.596707 2.25 0 2.25 
z
" id="m8b653bb9c4" style="stroke:#3f3f3f;stroke-width:1.5;"/>
    </defs>
    <g clip-path="url(#p6eca71419d)">
     <use style="fill:#ffffff;stroke:#3f3f3f;stroke-width:1.5;" x="275.4" xlink:href="#m8b653bb9c4" y="227.113158"/>
    </g>
   </g>
   <g id="PathCollection_2">
    <g clip-path="url(#p6eca71419d)">
     <use style="fill:#ffffff;stroke:#3f3f3f;stroke-width:1.5;" x="610.2" xlink:href="#m8b653bb9c4" y="251.768802"/>
    </g>
   </g>
  </g>
 </g>
 <defs>
  <clipPath id="p6eca71419d">
   <rect height="326.16" width="669.6" x="108" y="51.84"/>
  </clipPath>
 </defs>
</svg>
