<?xml version="1.0" encoding="utf-8" standalone="no"?>
<!DOCTYPE svg PUBLIC "-//W3C//DTD SVG 1.1//EN"
  "http://www.w3.org/Graphics/SVG/1.1/DTD/svg11.dtd">
<!-- Created with matplotlib (https://matplotlib.org/) -->
<svg height="432pt" version="1.1" viewBox="0 0 864 432" width="864pt" xmlns="http://www.w3.org/2000/svg" xmlns:xlink="http://www.w3.org/1999/xlink">
 <metadata>
  <rdf:RDF xmlns:cc="http://creativecommons.org/ns#" xmlns:dc="http://purl.org/dc/elements/1.1/" xmlns:rdf="http://www.w3.org/1999/02/22-rdf-syntax-ns#">
   <cc:Work>
    <dc:type rdf:resource="http://purl.org/dc/dcmitype/StillImage"/>
    <dc:date>2023-04-16T12:00:33.180927</dc:date>
    <dc:format>image/svg+xml</dc:format>
    <dc:creator>
     <cc:Agent>
      <dc:title>Matplotlib v3.3.4, https://matplotlib.org/</dc:title>
     </cc:Agent>
    </dc:creator>
   </cc:Work>
  </rdf:RDF>
 </metadata>
 <defs>
  <style type="text/css">*{stroke-linecap:butt;stroke-linejoin:round;}</style>
 </defs>
 <g id="figure_1">
  <g id="patch_1">
   <path d="M 0 432 
L 864 432 
L 864 0 
L 0 0 
z
" style="fill:none;"/>
  </g>
  <g id="axes_1">
   <g id="patch_2">
    <path d="M 108 378 
L 777.6 378 
L 777.6 51.84 
L 108 51.84 
z
" style="fill:#ffffff;"/>
   </g>
   <g id="PolyCollection_1">
    <defs>
     <path d="M 138.436364 -211.149818 
L 138.436364 -163.708364 
L 141.48 -191.194286 
L 144.523636 -170.799481 
L 147.567273 -199.098781 
L 150.610909 -190.545114 
L 153.654545 -189.147984 
L 156.698182 -174.391664 
L 159.741818 -173.131527 
L 162.785455 -181.281494 
L 165.829091 -179.79009 
L 168.872727 -200.447731 
L 171.916364 -224.417683 
L 174.96 -196.745534 
L 178.003636 -174.434577 
L 181.047273 -210.02026 
L 184.090909 -175.300226 
L 187.134545 -252.645107 
L 190.178182 -172.51539 
L 193.221818 -201.714683 
L 196.265455 -212.277062 
L 199.309091 -225.981412 
L 202.352727 -192.222595 
L 205.396364 -241.526539 
L 208.44 -187.246904 
L 211.483636 -198.446915 
L 214.527273 -210.02026 
L 217.570909 -211.114793 
L 220.614545 -209.962393 
L 223.658182 -189.849573 
L 226.701818 -189.849573 
L 229.745455 -200.319853 
L 232.789091 -183.695805 
L 235.832727 -208.872334 
L 238.876364 -186.87357 
L 241.92 -189.102511 
L 244.963636 -191.194286 
L 248.007273 -187.265204 
L 251.050909 -181.726993 
L 254.094545 -204.028379 
L 257.138182 -190.203445 
L 260.181818 -199.341661 
L 263.225455 -204.372468 
L 266.269091 -207.793726 
L 269.312727 -194.331948 
L 272.356364 -202.456252 
L 275.4 -198.054598 
L 278.443636 -210.02026 
L 281.487273 -154.550872 
L 284.530909 -198.989416 
L 287.574545 -173.331846 
L 290.618182 -221.070288 
L 293.661818 -196.986893 
L 296.705455 -213.520957 
L 299.749091 -188.716088 
L 302.792727 -229.165318 
L 305.836364 -183.307729 
L 308.88 -190.545114 
L 311.923636 -190.16474 
L 314.967273 -220.186286 
L 318.010909 -201.195584 
L 321.054545 -241.667371 
L 324.098182 -191.603546 
L 327.141818 -204.977588 
L 330.185455 -194.331948 
L 333.229091 -216.638766 
L 336.272727 -215.70249 
L 339.316364 -216.964267 
L 342.36 -199.159121 
L 345.403636 -216.964267 
L 348.447273 -177.817936 
L 351.490909 -202.71708 
L 354.534545 -193.602259 
L 357.578182 -228.436973 
L 360.621818 -222.194143 
L 363.665455 -229.857546 
L 366.709091 -219.129602 
L 369.752727 -182.656925 
L 372.796364 -209.96423 
L 375.84 -250.060578 
L 378.883636 -205.174167 
L 381.927273 -202.960519 
L 384.970909 -185.103529 
L 388.014545 -208.852901 
L 391.058182 -198.572032 
L 394.101818 -208.770748 
L 397.145455 -220.294191 
L 400.189091 -201.195584 
L 403.232727 -225.463442 
L 406.276364 -211.206771 
L 409.32 -207.543158 
L 412.363636 -231.199481 
L 415.407273 -223.012555 
L 418.450909 -205.151473 
L 421.494545 -168.492376 
L 424.538182 -231.094111 
L 427.581818 -198.054598 
L 430.625455 -224.249194 
L 433.669091 -205.537885 
L 436.712727 -197.184368 
L 439.756364 -181.781299 
L 442.8 -238.683867 
L 445.843636 -174.658525 
L 448.887273 -194.892245 
L 451.930909 -211.315625 
L 454.974545 -228.986726 
L 458.018182 -202.358526 
L 461.061818 -189.849573 
L 464.105455 -193.180512 
L 467.149091 -230.190946 
L 470.192727 -211.098083 
L 473.236364 -190.203445 
L 476.28 -192.090761 
L 479.323636 -195.96438 
L 482.367273 -207.585867 
L 485.410909 -238.197832 
L 488.454545 -217.802651 
L 491.498182 -204.087705 
L 494.541818 -211.149818 
L 497.585455 -216.536943 
L 500.629091 -199.688933 
L 503.672727 -195.413901 
L 506.716364 -214.889046 
L 509.76 -218.266511 
L 512.803636 -212.634978 
L 515.847273 -184.743868 
L 518.890909 -217.451565 
L 521.934545 -219.433247 
L 524.978182 -217.199657 
L 528.021818 -207.585867 
L 531.065455 -219.433247 
L 534.109091 -202.113351 
L 537.152727 -221.070288 
L 540.196364 -233.951583 
L 543.24 -180.807541 
L 546.283636 -212.541596 
L 549.327273 -190.47021 
L 552.370909 -204.185764 
L 555.414545 -213.836336 
L 558.458182 -221.226197 
L 561.501818 -190.47021 
L 564.545455 -208.853361 
L 567.589091 -231.55845 
L 570.632727 -206.204184 
L 573.676364 -206.631584 
L 576.72 -205.561476 
L 579.763636 -177.015974 
L 582.807273 -221.985921 
L 585.850909 -210.02026 
L 588.894545 -222.856151 
L 591.938182 -196.356246 
L 594.981818 -237.348287 
L 598.025455 -196.356246 
L 601.069091 -192.050012 
L 604.112727 -204.087705 
L 607.156364 -230.831146 
L 610.2 -205.313766 
L 613.243636 -220.881399 
L 616.287273 -192.370909 
L 619.330909 -237.310012 
L 622.374545 -202.65622 
L 625.418182 -210.02026 
L 628.461818 -177.614895 
L 631.505455 -215.70249 
L 634.549091 -196.027982 
L 637.592727 -225.708571 
L 640.636364 -211.206771 
L 643.68 -215.952815 
L 646.723636 -242.404389 
L 649.767273 -209.967575 
L 652.810909 -214.649598 
L 655.854545 -223.257273 
L 658.898182 -197.184368 
L 661.941818 -198.254026 
L 664.985455 -198.389048 
L 668.029091 -202.358526 
L 671.072727 -208.795016 
L 674.116364 -202.960519 
L 677.16 -203.422372 
L 680.203636 -196.074379 
L 683.247273 -217.323439 
L 686.290909 -200.111852 
L 689.334545 -214.432597 
L 692.378182 -224.943288 
L 695.421818 -225.444902 
L 698.465455 -217.199657 
L 701.509091 -199.159121 
L 704.552727 -219.574795 
L 707.596364 -211.227053 
L 710.64 -218.467812 
L 713.683636 -224.13974 
L 716.727273 -226.696812 
L 719.770909 -227.359973 
L 722.814545 -213.906355 
L 725.858182 -211.248041 
L 728.901818 -217.584267 
L 731.945455 -235.803659 
L 734.989091 -207.779072 
L 738.032727 -238.718391 
L 741.076364 -206.39988 
L 744.12 -206.460727 
L 744.12 -261.040231 
L 744.12 -261.040231 
L 741.076364 -257.085195 
L 738.032727 -284.635401 
L 734.989091 -254.900037 
L 731.945455 -282.459334 
L 728.901818 -265.489647 
L 725.858182 -262.814839 
L 722.814545 -265.720963 
L 719.770909 -276.90201 
L 716.727273 -273.391157 
L 713.683636 -277.793766 
L 710.64 -269.153127 
L 707.596364 -261.912368 
L 704.552727 -266.285859 
L 701.509091 -249.844436 
L 698.465455 -265.062302 
L 695.421818 -272.905341 
L 692.378182 -275.451999 
L 689.334545 -260.762143 
L 686.290909 -254.608093 
L 683.247273 -266.011303 
L 680.203636 -244.740294 
L 677.16 -256.205476 
L 674.116364 -254.731948 
L 671.072727 -255.529329 
L 668.029091 -250.517995 
L 664.985455 -244.740294 
L 661.941818 -247.672208 
L 658.898182 -248.527934 
L 655.854545 -271.792987 
L 652.810909 -260.942976 
L 649.767273 -256.382733 
L 646.723636 -289.037536 
L 643.68 -265.786275 
L 640.636364 -258.726535 
L 637.592727 -275.388225 
L 634.549091 -249.453043 
L 631.505455 -261.734292 
L 628.461818 -228.537611 
L 625.418182 -255.700932 
L 622.374545 -253.839337 
L 619.330909 -284.770451 
L 616.287273 -242.860659 
L 613.243636 -271.566713 
L 610.2 -254.731948 
L 607.156364 -277.54821 
L 604.112727 -253.921166 
L 601.069091 -240.826399 
L 598.025455 -248.734964 
L 594.981818 -282.894998 
L 591.938182 -244.180293 
L 588.894545 -271.865918 
L 585.850909 -258.708124 
L 582.807273 -269.848567 
L 579.763636 -221.786494 
L 576.72 -262.039398 
L 573.676364 -254.073039 
L 570.632727 -259.629245 
L 567.589091 -279.421096 
L 564.545455 -255.529329 
L 561.501818 -236.086993 
L 558.458182 -268.291132 
L 555.414545 -264.717346 
L 552.370909 -255.529329 
L 549.327273 -238.259221 
L 546.283636 -262.968312 
L 543.24 -234.364192 
L 540.196364 -281.814228 
L 537.152727 -270.181525 
L 534.109091 -251.813922 
L 531.065455 -266.498182 
L 528.021818 -258.708124 
L 524.978182 -267.455435 
L 521.934545 -268.851429 
L 518.890909 -262.039398 
L 515.847273 -237.754954 
L 512.803636 -264.929351 
L 509.76 -268.159297 
L 506.716364 -261.142517 
L 503.672727 -246.597017 
L 500.629091 -247.901793 
L 497.585455 -259.981499 
L 494.541818 -263.109506 
L 491.498182 -253.921166 
L 488.454545 -264.552584 
L 485.410909 -284.914896 
L 482.367273 -256.27373 
L 479.323636 -244.364942 
L 476.28 -241.452913 
L 473.236364 -239.745482 
L 470.192727 -258.522292 
L 467.149091 -280.024407 
L 464.105455 -244.99512 
L 461.061818 -240.276289 
L 458.018182 -250.517995 
L 454.974545 -275.349199 
L 451.930909 -263.130232 
L 448.887273 -247.840297 
L 445.843636 -225.148275 
L 442.8 -283.2717 
L 439.756364 -231.199481 
L 436.712727 -246.194135 
L 433.669091 -252.60282 
L 430.625455 -268.030529 
L 427.581818 -248.310376 
L 424.538182 -275.349199 
L 421.494545 -220.698858 
L 418.450909 -253.839337 
L 415.407273 -270.532319 
L 412.363636 -278.264416 
L 409.32 -262.039398 
L 406.276364 -263.413253 
L 403.232727 -273.999156 
L 400.189091 -247.52513 
L 397.145455 -268.564447 
L 394.101818 -261.250233 
L 391.058182 -249.453043 
L 388.014545 -257.826375 
L 384.970909 -239.683034 
L 381.927273 -250.025455 
L 378.883636 -255.489773 
L 375.84 -290.100896 
L 372.796364 -257.085195 
L 369.752727 -233.005461 
L 366.709091 -271.50832 
L 363.665455 -276.533515 
L 360.621818 -271.167616 
L 357.578182 -277.54821 
L 354.534545 -243.950794 
L 351.490909 -253.839337 
L 348.447273 -229.837075 
L 345.403636 -267.886983 
L 342.36 -247.430849 
L 339.316364 -267.886983 
L 336.272727 -266.268597 
L 333.229091 -265.174481 
L 330.185455 -242.442771 
L 327.141818 -257.92564 
L 324.098182 -240.714783 
L 321.054545 -287.920842 
L 318.010909 -249.731299 
L 314.967273 -267.62774 
L 311.923636 -238.700455 
L 308.88 -239.232978 
L 305.836364 -236.73279 
L 302.792727 -277.027964 
L 299.749091 -238.759025 
L 296.705455 -264.864523 
L 293.661818 -244.775904 
L 290.618182 -270.181525 
L 287.574545 -222.249731 
L 284.530909 -245.374115 
L 281.487273 -204.977588 
L 278.443636 -256.313638 
L 275.4 -250.703509 
L 272.356364 -252.882968 
L 269.312727 -240.350996 
L 266.269091 -255.637043 
L 263.225455 -251.8704 
L 260.181818 -249.175122 
L 257.138182 -242.284511 
L 254.094545 -253.921166 
L 251.050909 -227.398082 
L 248.007273 -240.276289 
L 244.963636 -240.612468 
L 241.92 -241.462251 
L 238.876364 -242.425625 
L 235.832727 -257.142591 
L 232.789091 -233.951583 
L 229.745455 -252.055354 
L 226.701818 -236.560637 
L 223.658182 -242.797625 
L 220.614545 -258.628307 
L 217.570909 -259.274262 
L 214.527273 -257.085195 
L 211.483636 -247.054963 
L 208.44 -239.625622 
L 205.396364 -288.202507 
L 202.352727 -242.056056 
L 199.309091 -272.637086 
L 196.265455 -260.942976 
L 193.221818 -251.607469 
L 190.178182 -223.257273 
L 187.134545 -300.598059 
L 184.090909 -228.537611 
L 181.047273 -260.121642 
L 178.003636 -229.534989 
L 174.96 -249.844436 
L 171.916364 -268.999665 
L 168.872727 -248.310376 
L 165.829091 -230.535744 
L 162.785455 -236.260002 
L 159.741818 -226.62019 
L 156.698182 -227.240748 
L 153.654545 -238.32061 
L 150.610909 -241.667371 
L 147.567273 -247.491189 
L 144.523636 -223.093853 
L 141.48 -240.612468 
L 138.436364 -211.149818 
z
" id="m3b1a82d148" style="stroke:#1f77b4;stroke-opacity:0.2;stroke-width:1.5;"/>
    </defs>
    <g clip-path="url(#p6d40982451)">
     <use style="fill:#1f77b4;fill-opacity:0.2;stroke:#1f77b4;stroke-opacity:0.2;stroke-width:1.5;" x="0" xlink:href="#m3b1a82d148" y="432"/>
    </g>
   </g>
   <g id="PolyCollection_2">
    <defs>
     <path d="M 138.436364 -365.334545 
L 138.436364 -68.825455 
L 141.48 -68.825455 
L 144.523636 -68.825455 
L 147.567273 -68.825455 
L 150.610909 -68.825455 
L 153.654545 -68.825455 
L 156.698182 -68.825455 
L 159.741818 -68.825455 
L 162.785455 -68.825455 
L 165.829091 -68.825455 
L 168.872727 -68.825455 
L 171.916364 -68.825455 
L 174.96 -68.825455 
L 178.003636 -68.825455 
L 181.047273 -68.825455 
L 184.090909 -68.825455 
L 187.134545 -68.825455 
L 190.178182 -68.825455 
L 193.221818 -68.825455 
L 196.265455 -68.825455 
L 199.309091 -68.825455 
L 202.352727 -68.825455 
L 205.396364 -68.825455 
L 208.44 -68.825455 
L 211.483636 -68.825455 
L 214.527273 -68.825455 
L 217.570909 -68.825455 
L 220.614545 -68.825455 
L 223.658182 -68.825455 
L 226.701818 -68.825455 
L 229.745455 -68.825455 
L 232.789091 -68.825455 
L 235.832727 -68.825455 
L 238.876364 -68.825455 
L 241.92 -68.825455 
L 244.963636 -68.825455 
L 248.007273 -68.825455 
L 251.050909 -68.825455 
L 254.094545 -68.825455 
L 257.138182 -68.825455 
L 260.181818 -68.825455 
L 260.181818 -365.334545 
L 260.181818 -365.334545 
L 257.138182 -365.334545 
L 254.094545 -365.334545 
L 251.050909 -365.334545 
L 248.007273 -365.334545 
L 244.963636 -365.334545 
L 241.92 -365.334545 
L 238.876364 -365.334545 
L 235.832727 -365.334545 
L 232.789091 -365.334545 
L 229.745455 -365.334545 
L 226.701818 -365.334545 
L 223.658182 -365.334545 
L 220.614545 -365.334545 
L 217.570909 -365.334545 
L 214.527273 -365.334545 
L 211.483636 -365.334545 
L 208.44 -365.334545 
L 205.396364 -365.334545 
L 202.352727 -365.334545 
L 199.309091 -365.334545 
L 196.265455 -365.334545 
L 193.221818 -365.334545 
L 190.178182 -365.334545 
L 187.134545 -365.334545 
L 184.090909 -365.334545 
L 181.047273 -365.334545 
L 178.003636 -365.334545 
L 174.96 -365.334545 
L 171.916364 -365.334545 
L 168.872727 -365.334545 
L 165.829091 -365.334545 
L 162.785455 -365.334545 
L 159.741818 -365.334545 
L 156.698182 -365.334545 
L 153.654545 -365.334545 
L 150.610909 -365.334545 
L 147.567273 -365.334545 
L 144.523636 -365.334545 
L 141.48 -365.334545 
L 138.436364 -365.334545 
z
" id="mc1e2c2185c" style="stroke:#ffd700;stroke-opacity:0.2;stroke-width:1.5;"/>
    </defs>
    <g clip-path="url(#p6d40982451)">
     <use style="fill:#ffd700;fill-opacity:0.2;stroke:#ffd700;stroke-opacity:0.2;stroke-width:1.5;" x="0" xlink:href="#mc1e2c2185c" y="432"/>
    </g>
   </g>
   <g id="PolyCollection_3">
    <defs>
     <path d="M 260.181818 -365.334545 
L 260.181818 -68.825455 
L 263.225455 -68.825455 
L 266.269091 -68.825455 
L 269.312727 -68.825455 
L 272.356364 -68.825455 
L 275.4 -68.825455 
L 278.443636 -68.825455 
L 281.487273 -68.825455 
L 284.530909 -68.825455 
L 287.574545 -68.825455 
L 290.618182 -68.825455 
L 293.661818 -68.825455 
L 296.705455 -68.825455 
L 299.749091 -68.825455 
L 302.792727 -68.825455 
L 305.836364 -68.825455 
L 308.88 -68.825455 
L 311.923636 -68.825455 
L 314.967273 -68.825455 
L 318.010909 -68.825455 
L 321.054545 -68.825455 
L 324.098182 -68.825455 
L 327.141818 -68.825455 
L 330.185455 -68.825455 
L 333.229091 -68.825455 
L 336.272727 -68.825455 
L 339.316364 -68.825455 
L 342.36 -68.825455 
L 345.403636 -68.825455 
L 348.447273 -68.825455 
L 351.490909 -68.825455 
L 354.534545 -68.825455 
L 357.578182 -68.825455 
L 360.621818 -68.825455 
L 363.665455 -68.825455 
L 366.709091 -68.825455 
L 369.752727 -68.825455 
L 372.796364 -68.825455 
L 375.84 -68.825455 
L 378.883636 -68.825455 
L 381.927273 -68.825455 
L 381.927273 -365.334545 
L 381.927273 -365.334545 
L 378.883636 -365.334545 
L 375.84 -365.334545 
L 372.796364 -365.334545 
L 369.752727 -365.334545 
L 366.709091 -365.334545 
L 363.665455 -365.334545 
L 360.621818 -365.334545 
L 357.578182 -365.334545 
L 354.534545 -365.334545 
L 351.490909 -365.334545 
L 348.447273 -365.334545 
L 345.403636 -365.334545 
L 342.36 -365.334545 
L 339.316364 -365.334545 
L 336.272727 -365.334545 
L 333.229091 -365.334545 
L 330.185455 -365.334545 
L 327.141818 -365.334545 
L 324.098182 -365.334545 
L 321.054545 -365.334545 
L 318.010909 -365.334545 
L 314.967273 -365.334545 
L 311.923636 -365.334545 
L 308.88 -365.334545 
L 305.836364 -365.334545 
L 302.792727 -365.334545 
L 299.749091 -365.334545 
L 296.705455 -365.334545 
L 293.661818 -365.334545 
L 290.618182 -365.334545 
L 287.574545 -365.334545 
L 284.530909 -365.334545 
L 281.487273 -365.334545 
L 278.443636 -365.334545 
L 275.4 -365.334545 
L 272.356364 -365.334545 
L 269.312727 -365.334545 
L 266.269091 -365.334545 
L 263.225455 -365.334545 
L 260.181818 -365.334545 
z
" id="m69c0ff91b5" style="stroke:#ffd700;stroke-opacity:0.2;stroke-width:1.5;"/>
    </defs>
    <g clip-path="url(#p6d40982451)">
     <use style="fill:#ffd700;fill-opacity:0.2;stroke:#ffd700;stroke-opacity:0.2;stroke-width:1.5;" x="0" xlink:href="#m69c0ff91b5" y="432"/>
    </g>
   </g>
   <g id="PolyCollection_4">
    <defs>
     <path d="M 381.927273 -365.334545 
L 381.927273 -68.825455 
L 384.970909 -68.825455 
L 388.014545 -68.825455 
L 391.058182 -68.825455 
L 394.101818 -68.825455 
L 397.145455 -68.825455 
L 400.189091 -68.825455 
L 403.232727 -68.825455 
L 406.276364 -68.825455 
L 409.32 -68.825455 
L 412.363636 -68.825455 
L 415.407273 -68.825455 
L 418.450909 -68.825455 
L 421.494545 -68.825455 
L 424.538182 -68.825455 
L 427.581818 -68.825455 
L 430.625455 -68.825455 
L 433.669091 -68.825455 
L 436.712727 -68.825455 
L 439.756364 -68.825455 
L 442.8 -68.825455 
L 445.843636 -68.825455 
L 448.887273 -68.825455 
L 451.930909 -68.825455 
L 454.974545 -68.825455 
L 458.018182 -68.825455 
L 461.061818 -68.825455 
L 464.105455 -68.825455 
L 467.149091 -68.825455 
L 470.192727 -68.825455 
L 473.236364 -68.825455 
L 476.28 -68.825455 
L 479.323636 -68.825455 
L 482.367273 -68.825455 
L 485.410909 -68.825455 
L 488.454545 -68.825455 
L 491.498182 -68.825455 
L 494.541818 -68.825455 
L 497.585455 -68.825455 
L 500.629091 -68.825455 
L 503.672727 -68.825455 
L 503.672727 -365.334545 
L 503.672727 -365.334545 
L 500.629091 -365.334545 
L 497.585455 -365.334545 
L 494.541818 -365.334545 
L 491.498182 -365.334545 
L 488.454545 -365.334545 
L 485.410909 -365.334545 
L 482.367273 -365.334545 
L 479.323636 -365.334545 
L 476.28 -365.334545 
L 473.236364 -365.334545 
L 470.192727 -365.334545 
L 467.149091 -365.334545 
L 464.105455 -365.334545 
L 461.061818 -365.334545 
L 458.018182 -365.334545 
L 454.974545 -365.334545 
L 451.930909 -365.334545 
L 448.887273 -365.334545 
L 445.843636 -365.334545 
L 442.8 -365.334545 
L 439.756364 -365.334545 
L 436.712727 -365.334545 
L 433.669091 -365.334545 
L 430.625455 -365.334545 
L 427.581818 -365.334545 
L 424.538182 -365.334545 
L 421.494545 -365.334545 
L 418.450909 -365.334545 
L 415.407273 -365.334545 
L 412.363636 -365.334545 
L 409.32 -365.334545 
L 406.276364 -365.334545 
L 403.232727 -365.334545 
L 400.189091 -365.334545 
L 397.145455 -365.334545 
L 394.101818 -365.334545 
L 391.058182 -365.334545 
L 388.014545 -365.334545 
L 384.970909 -365.334545 
L 381.927273 -365.334545 
z
" id="m3ed2abd068" style="stroke:#ffd700;stroke-opacity:0.2;stroke-width:1.5;"/>
    </defs>
    <g clip-path="url(#p6d40982451)">
     <use style="fill:#ffd700;fill-opacity:0.2;stroke:#ffd700;stroke-opacity:0.2;stroke-width:1.5;" x="0" xlink:href="#m3ed2abd068" y="432"/>
    </g>
   </g>
   <g id="PolyCollection_5">
    <defs>
     <path d="M 503.672727 -365.334545 
L 503.672727 -68.825455 
L 506.716364 -68.825455 
L 509.76 -68.825455 
L 512.803636 -68.825455 
L 515.847273 -68.825455 
L 518.890909 -68.825455 
L 521.934545 -68.825455 
L 524.978182 -68.825455 
L 528.021818 -68.825455 
L 531.065455 -68.825455 
L 534.109091 -68.825455 
L 537.152727 -68.825455 
L 540.196364 -68.825455 
L 543.24 -68.825455 
L 546.283636 -68.825455 
L 549.327273 -68.825455 
L 552.370909 -68.825455 
L 555.414545 -68.825455 
L 558.458182 -68.825455 
L 561.501818 -68.825455 
L 564.545455 -68.825455 
L 567.589091 -68.825455 
L 570.632727 -68.825455 
L 573.676364 -68.825455 
L 576.72 -68.825455 
L 579.763636 -68.825455 
L 582.807273 -68.825455 
L 585.850909 -68.825455 
L 588.894545 -68.825455 
L 591.938182 -68.825455 
L 594.981818 -68.825455 
L 598.025455 -68.825455 
L 601.069091 -68.825455 
L 604.112727 -68.825455 
L 607.156364 -68.825455 
L 610.2 -68.825455 
L 613.243636 -68.825455 
L 616.287273 -68.825455 
L 619.330909 -68.825455 
L 622.374545 -68.825455 
L 625.418182 -68.825455 
L 625.418182 -365.334545 
L 625.418182 -365.334545 
L 622.374545 -365.334545 
L 619.330909 -365.334545 
L 616.287273 -365.334545 
L 613.243636 -365.334545 
L 610.2 -365.334545 
L 607.156364 -365.334545 
L 604.112727 -365.334545 
L 601.069091 -365.334545 
L 598.025455 -365.334545 
L 594.981818 -365.334545 
L 591.938182 -365.334545 
L 588.894545 -365.334545 
L 585.850909 -365.334545 
L 582.807273 -365.334545 
L 579.763636 -365.334545 
L 576.72 -365.334545 
L 573.676364 -365.334545 
L 570.632727 -365.334545 
L 567.589091 -365.334545 
L 564.545455 -365.334545 
L 561.501818 -365.334545 
L 558.458182 -365.334545 
L 555.414545 -365.334545 
L 552.370909 -365.334545 
L 549.327273 -365.334545 
L 546.283636 -365.334545 
L 543.24 -365.334545 
L 540.196364 -365.334545 
L 537.152727 -365.334545 
L 534.109091 -365.334545 
L 531.065455 -365.334545 
L 528.021818 -365.334545 
L 524.978182 -365.334545 
L 521.934545 -365.334545 
L 518.890909 -365.334545 
L 515.847273 -365.334545 
L 512.803636 -365.334545 
L 509.76 -365.334545 
L 506.716364 -365.334545 
L 503.672727 -365.334545 
z
" id="mab06c01afe" style="stroke:#ffd700;stroke-opacity:0.2;stroke-width:1.5;"/>
    </defs>
    <g clip-path="url(#p6d40982451)">
     <use style="fill:#ffd700;fill-opacity:0.2;stroke:#ffd700;stroke-opacity:0.2;stroke-width:1.5;" x="0" xlink:href="#mab06c01afe" y="432"/>
    </g>
   </g>
   <g id="PolyCollection_6">
    <defs>
     <path d="M 625.418182 -365.334545 
L 625.418182 -68.825455 
L 628.461818 -68.825455 
L 631.505455 -68.825455 
L 634.549091 -68.825455 
L 637.592727 -68.825455 
L 640.636364 -68.825455 
L 643.68 -68.825455 
L 646.723636 -68.825455 
L 649.767273 -68.825455 
L 652.810909 -68.825455 
L 655.854545 -68.825455 
L 658.898182 -68.825455 
L 661.941818 -68.825455 
L 664.985455 -68.825455 
L 668.029091 -68.825455 
L 671.072727 -68.825455 
L 674.116364 -68.825455 
L 677.16 -68.825455 
L 680.203636 -68.825455 
L 683.247273 -68.825455 
L 686.290909 -68.825455 
L 689.334545 -68.825455 
L 692.378182 -68.825455 
L 695.421818 -68.825455 
L 698.465455 -68.825455 
L 701.509091 -68.825455 
L 704.552727 -68.825455 
L 707.596364 -68.825455 
L 710.64 -68.825455 
L 713.683636 -68.825455 
L 716.727273 -68.825455 
L 719.770909 -68.825455 
L 722.814545 -68.825455 
L 725.858182 -68.825455 
L 728.901818 -68.825455 
L 731.945455 -68.825455 
L 734.989091 -68.825455 
L 738.032727 -68.825455 
L 741.076364 -68.825455 
L 744.12 -68.825455 
L 747.163636 -68.825455 
L 747.163636 -365.334545 
L 747.163636 -365.334545 
L 744.12 -365.334545 
L 741.076364 -365.334545 
L 738.032727 -365.334545 
L 734.989091 -365.334545 
L 731.945455 -365.334545 
L 728.901818 -365.334545 
L 725.858182 -365.334545 
L 722.814545 -365.334545 
L 719.770909 -365.334545 
L 716.727273 -365.334545 
L 713.683636 -365.334545 
L 710.64 -365.334545 
L 707.596364 -365.334545 
L 704.552727 -365.334545 
L 701.509091 -365.334545 
L 698.465455 -365.334545 
L 695.421818 -365.334545 
L 692.378182 -365.334545 
L 689.334545 -365.334545 
L 686.290909 -365.334545 
L 683.247273 -365.334545 
L 680.203636 -365.334545 
L 677.16 -365.334545 
L 674.116364 -365.334545 
L 671.072727 -365.334545 
L 668.029091 -365.334545 
L 664.985455 -365.334545 
L 661.941818 -365.334545 
L 658.898182 -365.334545 
L 655.854545 -365.334545 
L 652.810909 -365.334545 
L 649.767273 -365.334545 
L 646.723636 -365.334545 
L 643.68 -365.334545 
L 640.636364 -365.334545 
L 637.592727 -365.334545 
L 634.549091 -365.334545 
L 631.505455 -365.334545 
L 628.461818 -365.334545 
L 625.418182 -365.334545 
z
" id="m23c9e2a34e" style="stroke:#ff0000;stroke-opacity:0.2;stroke-width:1.5;"/>
    </defs>
    <g clip-path="url(#p6d40982451)">
     <use style="fill:#ff0000;fill-opacity:0.2;stroke:#ff0000;stroke-opacity:0.2;stroke-width:1.5;" x="0" xlink:href="#m23c9e2a34e" y="432"/>
    </g>
   </g>
   <g id="matplotlib.axis_1">
    <g id="xtick_1">
     <g id="line2d_1">
      <defs>
       <path d="M 0 0 
L 0 9 
" id="m60b86f840c" style="stroke:#000000;stroke-width:1.875;"/>
      </defs>
      <g>
       <use style="stroke:#000000;stroke-width:1.875;" x="138.436364" xlink:href="#m60b86f840c" y="378"/>
      </g>
     </g>
     <g id="text_1">
      <!-- 0 -->
      <g transform="translate(133.187301 403.037422)scale(0.165 -0.165)">
       <defs>
        <path d="M 31.78125 66.40625 
Q 24.171875 66.40625 20.328125 58.90625 
Q 16.5 51.421875 16.5 36.375 
Q 16.5 21.390625 20.328125 13.890625 
Q 24.171875 6.390625 31.78125 6.390625 
Q 39.453125 6.390625 43.28125 13.890625 
Q 47.125 21.390625 47.125 36.375 
Q 47.125 51.421875 43.28125 58.90625 
Q 39.453125 66.40625 31.78125 66.40625 
z
M 31.78125 74.21875 
Q 44.046875 74.21875 50.515625 64.515625 
Q 56.984375 54.828125 56.984375 36.375 
Q 56.984375 17.96875 50.515625 8.265625 
Q 44.046875 -1.421875 31.78125 -1.421875 
Q 19.53125 -1.421875 13.0625 8.265625 
Q 6.59375 17.96875 6.59375 36.375 
Q 6.59375 54.828125 13.0625 64.515625 
Q 19.53125 74.21875 31.78125 74.21875 
z
" id="DejaVuSans-48"/>
       </defs>
       <use xlink:href="#DejaVuSans-48"/>
      </g>
     </g>
    </g>
    <g id="xtick_2">
     <g id="line2d_2">
      <g>
       <use style="stroke:#000000;stroke-width:1.875;" x="214.527273" xlink:href="#m60b86f840c" y="378"/>
      </g>
     </g>
     <g id="text_2">
      <!-- 25 -->
      <g transform="translate(204.029148 403.037422)scale(0.165 -0.165)">
       <defs>
        <path d="M 19.1875 8.296875 
L 53.609375 8.296875 
L 53.609375 0 
L 7.328125 0 
L 7.328125 8.296875 
Q 12.9375 14.109375 22.625 23.890625 
Q 32.328125 33.6875 34.8125 36.53125 
Q 39.546875 41.84375 41.421875 45.53125 
Q 43.3125 49.21875 43.3125 52.78125 
Q 43.3125 58.59375 39.234375 62.25 
Q 35.15625 65.921875 28.609375 65.921875 
Q 23.96875 65.921875 18.8125 64.3125 
Q 13.671875 62.703125 7.8125 59.421875 
L 7.8125 69.390625 
Q 13.765625 71.78125 18.9375 73 
Q 24.125 74.21875 28.421875 74.21875 
Q 39.75 74.21875 46.484375 68.546875 
Q 53.21875 62.890625 53.21875 53.421875 
Q 53.21875 48.921875 51.53125 44.890625 
Q 49.859375 40.875 45.40625 35.40625 
Q 44.1875 33.984375 37.640625 27.21875 
Q 31.109375 20.453125 19.1875 8.296875 
z
" id="DejaVuSans-50"/>
        <path d="M 10.796875 72.90625 
L 49.515625 72.90625 
L 49.515625 64.59375 
L 19.828125 64.59375 
L 19.828125 46.734375 
Q 21.96875 47.46875 24.109375 47.828125 
Q 26.265625 48.1875 28.421875 48.1875 
Q 40.625 48.1875 47.75 41.5 
Q 54.890625 34.8125 54.890625 23.390625 
Q 54.890625 11.625 47.5625 5.09375 
Q 40.234375 -1.421875 26.90625 -1.421875 
Q 22.3125 -1.421875 17.546875 -0.640625 
Q 12.796875 0.140625 7.71875 1.703125 
L 7.71875 11.625 
Q 12.109375 9.234375 16.796875 8.0625 
Q 21.484375 6.890625 26.703125 6.890625 
Q 35.15625 6.890625 40.078125 11.328125 
Q 45.015625 15.765625 45.015625 23.390625 
Q 45.015625 31 40.078125 35.4375 
Q 35.15625 39.890625 26.703125 39.890625 
Q 22.75 39.890625 18.8125 39.015625 
Q 14.890625 38.140625 10.796875 36.28125 
z
" id="DejaVuSans-53"/>
       </defs>
       <use xlink:href="#DejaVuSans-50"/>
       <use x="63.623047" xlink:href="#DejaVuSans-53"/>
      </g>
     </g>
    </g>
    <g id="xtick_3">
     <g id="line2d_3">
      <g>
       <use style="stroke:#000000;stroke-width:1.875;" x="290.618182" xlink:href="#m60b86f840c" y="378"/>
      </g>
     </g>
     <g id="text_3">
      <!-- 50 -->
      <g transform="translate(280.120057 403.037422)scale(0.165 -0.165)">
       <use xlink:href="#DejaVuSans-53"/>
       <use x="63.623047" xlink:href="#DejaVuSans-48"/>
      </g>
     </g>
    </g>
    <g id="xtick_4">
     <g id="line2d_4">
      <g>
       <use style="stroke:#000000;stroke-width:1.875;" x="366.709091" xlink:href="#m60b86f840c" y="378"/>
      </g>
     </g>
     <g id="text_4">
      <!-- 75 -->
      <g transform="translate(356.210966 403.037422)scale(0.165 -0.165)">
       <defs>
        <path d="M 8.203125 72.90625 
L 55.078125 72.90625 
L 55.078125 68.703125 
L 28.609375 0 
L 18.3125 0 
L 43.21875 64.59375 
L 8.203125 64.59375 
z
" id="DejaVuSans-55"/>
       </defs>
       <use xlink:href="#DejaVuSans-55"/>
       <use x="63.623047" xlink:href="#DejaVuSans-53"/>
      </g>
     </g>
    </g>
    <g id="xtick_5">
     <g id="line2d_5">
      <g>
       <use style="stroke:#000000;stroke-width:1.875;" x="442.8" xlink:href="#m60b86f840c" y="378"/>
      </g>
     </g>
     <g id="text_5">
      <!-- 100 -->
      <g transform="translate(427.052813 403.037422)scale(0.165 -0.165)">
       <defs>
        <path d="M 12.40625 8.296875 
L 28.515625 8.296875 
L 28.515625 63.921875 
L 10.984375 60.40625 
L 10.984375 69.390625 
L 28.421875 72.90625 
L 38.28125 72.90625 
L 38.28125 8.296875 
L 54.390625 8.296875 
L 54.390625 0 
L 12.40625 0 
z
" id="DejaVuSans-49"/>
       </defs>
       <use xlink:href="#DejaVuSans-49"/>
       <use x="63.623047" xlink:href="#DejaVuSans-48"/>
       <use x="127.246094" xlink:href="#DejaVuSans-48"/>
      </g>
     </g>
    </g>
    <g id="xtick_6">
     <g id="line2d_6">
      <g>
       <use style="stroke:#000000;stroke-width:1.875;" x="518.890909" xlink:href="#m60b86f840c" y="378"/>
      </g>
     </g>
     <g id="text_6">
      <!-- 125 -->
      <g transform="translate(503.143722 403.037422)scale(0.165 -0.165)">
       <use xlink:href="#DejaVuSans-49"/>
       <use x="63.623047" xlink:href="#DejaVuSans-50"/>
       <use x="127.246094" xlink:href="#DejaVuSans-53"/>
      </g>
     </g>
    </g>
    <g id="xtick_7">
     <g id="line2d_7">
      <g>
       <use style="stroke:#000000;stroke-width:1.875;" x="594.981818" xlink:href="#m60b86f840c" y="378"/>
      </g>
     </g>
     <g id="text_7">
      <!-- 150 -->
      <g transform="translate(579.234631 403.037422)scale(0.165 -0.165)">
       <use xlink:href="#DejaVuSans-49"/>
       <use x="63.623047" xlink:href="#DejaVuSans-53"/>
       <use x="127.246094" xlink:href="#DejaVuSans-48"/>
      </g>
     </g>
    </g>
    <g id="xtick_8">
     <g id="line2d_8">
      <g>
       <use style="stroke:#000000;stroke-width:1.875;" x="671.072727" xlink:href="#m60b86f840c" y="378"/>
      </g>
     </g>
     <g id="text_8">
      <!-- 175 -->
      <g transform="translate(655.32554 403.037422)scale(0.165 -0.165)">
       <use xlink:href="#DejaVuSans-49"/>
       <use x="63.623047" xlink:href="#DejaVuSans-55"/>
       <use x="127.246094" xlink:href="#DejaVuSans-53"/>
      </g>
     </g>
    </g>
    <g id="xtick_9">
     <g id="line2d_9">
      <g>
       <use style="stroke:#000000;stroke-width:1.875;" x="747.163636" xlink:href="#m60b86f840c" y="378"/>
      </g>
     </g>
     <g id="text_9">
      <!-- 200 -->
      <g transform="translate(731.416449 403.037422)scale(0.165 -0.165)">
       <use xlink:href="#DejaVuSans-50"/>
       <use x="63.623047" xlink:href="#DejaVuSans-48"/>
       <use x="127.246094" xlink:href="#DejaVuSans-48"/>
      </g>
     </g>
    </g>
    <g id="text_10">
     <!-- trial -->
     <g transform="translate(425.055938 424.146094)scale(0.18 -0.18)">
      <defs>
       <path d="M 18.3125 70.21875 
L 18.3125 54.6875 
L 36.8125 54.6875 
L 36.8125 47.703125 
L 18.3125 47.703125 
L 18.3125 18.015625 
Q 18.3125 11.328125 20.140625 9.421875 
Q 21.96875 7.515625 27.59375 7.515625 
L 36.8125 7.515625 
L 36.8125 0 
L 27.59375 0 
Q 17.1875 0 13.234375 3.875 
Q 9.28125 7.765625 9.28125 18.015625 
L 9.28125 47.703125 
L 2.6875 47.703125 
L 2.6875 54.6875 
L 9.28125 54.6875 
L 9.28125 70.21875 
z
" id="DejaVuSans-116"/>
       <path d="M 41.109375 46.296875 
Q 39.59375 47.171875 37.8125 47.578125 
Q 36.03125 48 33.890625 48 
Q 26.265625 48 22.1875 43.046875 
Q 18.109375 38.09375 18.109375 28.8125 
L 18.109375 0 
L 9.078125 0 
L 9.078125 54.6875 
L 18.109375 54.6875 
L 18.109375 46.1875 
Q 20.953125 51.171875 25.484375 53.578125 
Q 30.03125 56 36.53125 56 
Q 37.453125 56 38.578125 55.875 
Q 39.703125 55.765625 41.0625 55.515625 
z
" id="DejaVuSans-114"/>
       <path d="M 9.421875 54.6875 
L 18.40625 54.6875 
L 18.40625 0 
L 9.421875 0 
z
M 9.421875 75.984375 
L 18.40625 75.984375 
L 18.40625 64.59375 
L 9.421875 64.59375 
z
" id="DejaVuSans-105"/>
       <path d="M 34.28125 27.484375 
Q 23.390625 27.484375 19.1875 25 
Q 14.984375 22.515625 14.984375 16.5 
Q 14.984375 11.71875 18.140625 8.90625 
Q 21.296875 6.109375 26.703125 6.109375 
Q 34.1875 6.109375 38.703125 11.40625 
Q 43.21875 16.703125 43.21875 25.484375 
L 43.21875 27.484375 
z
M 52.203125 31.203125 
L 52.203125 0 
L 43.21875 0 
L 43.21875 8.296875 
Q 40.140625 3.328125 35.546875 0.953125 
Q 30.953125 -1.421875 24.3125 -1.421875 
Q 15.921875 -1.421875 10.953125 3.296875 
Q 6 8.015625 6 15.921875 
Q 6 25.140625 12.171875 29.828125 
Q 18.359375 34.515625 30.609375 34.515625 
L 43.21875 34.515625 
L 43.21875 35.40625 
Q 43.21875 41.609375 39.140625 45 
Q 35.0625 48.390625 27.6875 48.390625 
Q 23 48.390625 18.546875 47.265625 
Q 14.109375 46.140625 10.015625 43.890625 
L 10.015625 52.203125 
Q 14.9375 54.109375 19.578125 55.046875 
Q 24.21875 56 28.609375 56 
Q 40.484375 56 46.34375 49.84375 
Q 52.203125 43.703125 52.203125 31.203125 
z
" id="DejaVuSans-97"/>
       <path d="M 9.421875 75.984375 
L 18.40625 75.984375 
L 18.40625 0 
L 9.421875 0 
z
" id="DejaVuSans-108"/>
      </defs>
      <use xlink:href="#DejaVuSans-116"/>
      <use x="39.208984" xlink:href="#DejaVuSans-114"/>
      <use x="80.322266" xlink:href="#DejaVuSans-105"/>
      <use x="108.105469" xlink:href="#DejaVuSans-97"/>
      <use x="169.384766" xlink:href="#DejaVuSans-108"/>
     </g>
    </g>
   </g>
   <g id="matplotlib.axis_2">
    <g id="ytick_1">
     <g id="line2d_10">
      <defs>
       <path d="M 0 0 
L -9 0 
" id="m2af357b914" style="stroke:#000000;stroke-width:1.875;"/>
      </defs>
      <g>
       <use style="stroke:#000000;stroke-width:1.875;" x="108" xlink:href="#m2af357b914" y="363.174545"/>
      </g>
     </g>
     <g id="text_11">
      <!-- 0.0 -->
      <g transform="translate(69.259844 369.443256)scale(0.165 -0.165)">
       <defs>
        <path d="M 10.6875 12.40625 
L 21 12.40625 
L 21 0 
L 10.6875 0 
z
" id="DejaVuSans-46"/>
       </defs>
       <use xlink:href="#DejaVuSans-48"/>
       <use x="63.623047" xlink:href="#DejaVuSans-46"/>
       <use x="95.410156" xlink:href="#DejaVuSans-48"/>
      </g>
     </g>
    </g>
    <g id="ytick_2">
     <g id="line2d_11">
      <g>
       <use style="stroke:#000000;stroke-width:1.875;" x="108" xlink:href="#m2af357b914" y="306.696623"/>
      </g>
     </g>
     <g id="text_12">
      <!-- 0.2 -->
      <g transform="translate(69.259844 312.965334)scale(0.165 -0.165)">
       <use xlink:href="#DejaVuSans-48"/>
       <use x="63.623047" xlink:href="#DejaVuSans-46"/>
       <use x="95.410156" xlink:href="#DejaVuSans-50"/>
      </g>
     </g>
    </g>
    <g id="ytick_3">
     <g id="line2d_12">
      <g>
       <use style="stroke:#000000;stroke-width:1.875;" x="108" xlink:href="#m2af357b914" y="250.218701"/>
      </g>
     </g>
     <g id="text_13">
      <!-- 0.4 -->
      <g transform="translate(69.259844 256.487412)scale(0.165 -0.165)">
       <defs>
        <path d="M 37.796875 64.3125 
L 12.890625 25.390625 
L 37.796875 25.390625 
z
M 35.203125 72.90625 
L 47.609375 72.90625 
L 47.609375 25.390625 
L 58.015625 25.390625 
L 58.015625 17.1875 
L 47.609375 17.1875 
L 47.609375 0 
L 37.796875 0 
L 37.796875 17.1875 
L 4.890625 17.1875 
L 4.890625 26.703125 
z
" id="DejaVuSans-52"/>
       </defs>
       <use xlink:href="#DejaVuSans-48"/>
       <use x="63.623047" xlink:href="#DejaVuSans-46"/>
       <use x="95.410156" xlink:href="#DejaVuSans-52"/>
      </g>
     </g>
    </g>
    <g id="ytick_4">
     <g id="line2d_13">
      <g>
       <use style="stroke:#000000;stroke-width:1.875;" x="108" xlink:href="#m2af357b914" y="193.740779"/>
      </g>
     </g>
     <g id="text_14">
      <!-- 0.6 -->
      <g transform="translate(69.259844 200.00949)scale(0.165 -0.165)">
       <defs>
        <path d="M 33.015625 40.375 
Q 26.375 40.375 22.484375 35.828125 
Q 18.609375 31.296875 18.609375 23.390625 
Q 18.609375 15.53125 22.484375 10.953125 
Q 26.375 6.390625 33.015625 6.390625 
Q 39.65625 6.390625 43.53125 10.953125 
Q 47.40625 15.53125 47.40625 23.390625 
Q 47.40625 31.296875 43.53125 35.828125 
Q 39.65625 40.375 33.015625 40.375 
z
M 52.59375 71.296875 
L 52.59375 62.3125 
Q 48.875 64.0625 45.09375 64.984375 
Q 41.3125 65.921875 37.59375 65.921875 
Q 27.828125 65.921875 22.671875 59.328125 
Q 17.53125 52.734375 16.796875 39.40625 
Q 19.671875 43.65625 24.015625 45.921875 
Q 28.375 48.1875 33.59375 48.1875 
Q 44.578125 48.1875 50.953125 41.515625 
Q 57.328125 34.859375 57.328125 23.390625 
Q 57.328125 12.15625 50.6875 5.359375 
Q 44.046875 -1.421875 33.015625 -1.421875 
Q 20.359375 -1.421875 13.671875 8.265625 
Q 6.984375 17.96875 6.984375 36.375 
Q 6.984375 53.65625 15.1875 63.9375 
Q 23.390625 74.21875 37.203125 74.21875 
Q 40.921875 74.21875 44.703125 73.484375 
Q 48.484375 72.75 52.59375 71.296875 
z
" id="DejaVuSans-54"/>
       </defs>
       <use xlink:href="#DejaVuSans-48"/>
       <use x="63.623047" xlink:href="#DejaVuSans-46"/>
       <use x="95.410156" xlink:href="#DejaVuSans-54"/>
      </g>
     </g>
    </g>
    <g id="ytick_5">
     <g id="line2d_14">
      <g>
       <use style="stroke:#000000;stroke-width:1.875;" x="108" xlink:href="#m2af357b914" y="137.262857"/>
      </g>
     </g>
     <g id="text_15">
      <!-- 0.8 -->
      <g transform="translate(69.259844 143.531568)scale(0.165 -0.165)">
       <defs>
        <path d="M 31.78125 34.625 
Q 24.75 34.625 20.71875 30.859375 
Q 16.703125 27.09375 16.703125 20.515625 
Q 16.703125 13.921875 20.71875 10.15625 
Q 24.75 6.390625 31.78125 6.390625 
Q 38.8125 6.390625 42.859375 10.171875 
Q 46.921875 13.96875 46.921875 20.515625 
Q 46.921875 27.09375 42.890625 30.859375 
Q 38.875 34.625 31.78125 34.625 
z
M 21.921875 38.8125 
Q 15.578125 40.375 12.03125 44.71875 
Q 8.5 49.078125 8.5 55.328125 
Q 8.5 64.0625 14.71875 69.140625 
Q 20.953125 74.21875 31.78125 74.21875 
Q 42.671875 74.21875 48.875 69.140625 
Q 55.078125 64.0625 55.078125 55.328125 
Q 55.078125 49.078125 51.53125 44.71875 
Q 48 40.375 41.703125 38.8125 
Q 48.828125 37.15625 52.796875 32.3125 
Q 56.78125 27.484375 56.78125 20.515625 
Q 56.78125 9.90625 50.3125 4.234375 
Q 43.84375 -1.421875 31.78125 -1.421875 
Q 19.734375 -1.421875 13.25 4.234375 
Q 6.78125 9.90625 6.78125 20.515625 
Q 6.78125 27.484375 10.78125 32.3125 
Q 14.796875 37.15625 21.921875 38.8125 
z
M 18.3125 54.390625 
Q 18.3125 48.734375 21.84375 45.5625 
Q 25.390625 42.390625 31.78125 42.390625 
Q 38.140625 42.390625 41.71875 45.5625 
Q 45.3125 48.734375 45.3125 54.390625 
Q 45.3125 60.0625 41.71875 63.234375 
Q 38.140625 66.40625 31.78125 66.40625 
Q 25.390625 66.40625 21.84375 63.234375 
Q 18.3125 60.0625 18.3125 54.390625 
z
" id="DejaVuSans-56"/>
       </defs>
       <use xlink:href="#DejaVuSans-48"/>
       <use x="63.623047" xlink:href="#DejaVuSans-46"/>
       <use x="95.410156" xlink:href="#DejaVuSans-56"/>
      </g>
     </g>
    </g>
    <g id="ytick_6">
     <g id="line2d_15">
      <g>
       <use style="stroke:#000000;stroke-width:1.875;" x="108" xlink:href="#m2af357b914" y="80.784935"/>
      </g>
     </g>
     <g id="text_16">
      <!-- 1.0 -->
      <g transform="translate(69.259844 87.053646)scale(0.165 -0.165)">
       <use xlink:href="#DejaVuSans-49"/>
       <use x="63.623047" xlink:href="#DejaVuSans-46"/>
       <use x="95.410156" xlink:href="#DejaVuSans-48"/>
      </g>
     </g>
    </g>
    <g id="text_17">
     <!-- prediction accuracy -->
     <g transform="translate(61.516406 303.537656)rotate(-90)scale(0.18 -0.18)">
      <defs>
       <path d="M 18.109375 8.203125 
L 18.109375 -20.796875 
L 9.078125 -20.796875 
L 9.078125 54.6875 
L 18.109375 54.6875 
L 18.109375 46.390625 
Q 20.953125 51.265625 25.265625 53.625 
Q 29.59375 56 35.59375 56 
Q 45.5625 56 51.78125 48.09375 
Q 58.015625 40.1875 58.015625 27.296875 
Q 58.015625 14.40625 51.78125 6.484375 
Q 45.5625 -1.421875 35.59375 -1.421875 
Q 29.59375 -1.421875 25.265625 0.953125 
Q 20.953125 3.328125 18.109375 8.203125 
z
M 48.6875 27.296875 
Q 48.6875 37.203125 44.609375 42.84375 
Q 40.53125 48.484375 33.40625 48.484375 
Q 26.265625 48.484375 22.1875 42.84375 
Q 18.109375 37.203125 18.109375 27.296875 
Q 18.109375 17.390625 22.1875 11.75 
Q 26.265625 6.109375 33.40625 6.109375 
Q 40.53125 6.109375 44.609375 11.75 
Q 48.6875 17.390625 48.6875 27.296875 
z
" id="DejaVuSans-112"/>
       <path d="M 56.203125 29.59375 
L 56.203125 25.203125 
L 14.890625 25.203125 
Q 15.484375 15.921875 20.484375 11.0625 
Q 25.484375 6.203125 34.421875 6.203125 
Q 39.59375 6.203125 44.453125 7.46875 
Q 49.3125 8.734375 54.109375 11.28125 
L 54.109375 2.78125 
Q 49.265625 0.734375 44.1875 -0.34375 
Q 39.109375 -1.421875 33.890625 -1.421875 
Q 20.796875 -1.421875 13.15625 6.1875 
Q 5.515625 13.8125 5.515625 26.8125 
Q 5.515625 40.234375 12.765625 48.109375 
Q 20.015625 56 32.328125 56 
Q 43.359375 56 49.78125 48.890625 
Q 56.203125 41.796875 56.203125 29.59375 
z
M 47.21875 32.234375 
Q 47.125 39.59375 43.09375 43.984375 
Q 39.0625 48.390625 32.421875 48.390625 
Q 24.90625 48.390625 20.390625 44.140625 
Q 15.875 39.890625 15.1875 32.171875 
z
" id="DejaVuSans-101"/>
       <path d="M 45.40625 46.390625 
L 45.40625 75.984375 
L 54.390625 75.984375 
L 54.390625 0 
L 45.40625 0 
L 45.40625 8.203125 
Q 42.578125 3.328125 38.25 0.953125 
Q 33.9375 -1.421875 27.875 -1.421875 
Q 17.96875 -1.421875 11.734375 6.484375 
Q 5.515625 14.40625 5.515625 27.296875 
Q 5.515625 40.1875 11.734375 48.09375 
Q 17.96875 56 27.875 56 
Q 33.9375 56 38.25 53.625 
Q 42.578125 51.265625 45.40625 46.390625 
z
M 14.796875 27.296875 
Q 14.796875 17.390625 18.875 11.75 
Q 22.953125 6.109375 30.078125 6.109375 
Q 37.203125 6.109375 41.296875 11.75 
Q 45.40625 17.390625 45.40625 27.296875 
Q 45.40625 37.203125 41.296875 42.84375 
Q 37.203125 48.484375 30.078125 48.484375 
Q 22.953125 48.484375 18.875 42.84375 
Q 14.796875 37.203125 14.796875 27.296875 
z
" id="DejaVuSans-100"/>
       <path d="M 48.78125 52.59375 
L 48.78125 44.1875 
Q 44.96875 46.296875 41.140625 47.34375 
Q 37.3125 48.390625 33.40625 48.390625 
Q 24.65625 48.390625 19.8125 42.84375 
Q 14.984375 37.3125 14.984375 27.296875 
Q 14.984375 17.28125 19.8125 11.734375 
Q 24.65625 6.203125 33.40625 6.203125 
Q 37.3125 6.203125 41.140625 7.25 
Q 44.96875 8.296875 48.78125 10.40625 
L 48.78125 2.09375 
Q 45.015625 0.34375 40.984375 -0.53125 
Q 36.96875 -1.421875 32.421875 -1.421875 
Q 20.0625 -1.421875 12.78125 6.34375 
Q 5.515625 14.109375 5.515625 27.296875 
Q 5.515625 40.671875 12.859375 48.328125 
Q 20.21875 56 33.015625 56 
Q 37.15625 56 41.109375 55.140625 
Q 45.0625 54.296875 48.78125 52.59375 
z
" id="DejaVuSans-99"/>
       <path d="M 30.609375 48.390625 
Q 23.390625 48.390625 19.1875 42.75 
Q 14.984375 37.109375 14.984375 27.296875 
Q 14.984375 17.484375 19.15625 11.84375 
Q 23.34375 6.203125 30.609375 6.203125 
Q 37.796875 6.203125 41.984375 11.859375 
Q 46.1875 17.53125 46.1875 27.296875 
Q 46.1875 37.015625 41.984375 42.703125 
Q 37.796875 48.390625 30.609375 48.390625 
z
M 30.609375 56 
Q 42.328125 56 49.015625 48.375 
Q 55.71875 40.765625 55.71875 27.296875 
Q 55.71875 13.875 49.015625 6.21875 
Q 42.328125 -1.421875 30.609375 -1.421875 
Q 18.84375 -1.421875 12.171875 6.21875 
Q 5.515625 13.875 5.515625 27.296875 
Q 5.515625 40.765625 12.171875 48.375 
Q 18.84375 56 30.609375 56 
z
" id="DejaVuSans-111"/>
       <path d="M 54.890625 33.015625 
L 54.890625 0 
L 45.90625 0 
L 45.90625 32.71875 
Q 45.90625 40.484375 42.875 44.328125 
Q 39.84375 48.1875 33.796875 48.1875 
Q 26.515625 48.1875 22.3125 43.546875 
Q 18.109375 38.921875 18.109375 30.90625 
L 18.109375 0 
L 9.078125 0 
L 9.078125 54.6875 
L 18.109375 54.6875 
L 18.109375 46.1875 
Q 21.34375 51.125 25.703125 53.5625 
Q 30.078125 56 35.796875 56 
Q 45.21875 56 50.046875 50.171875 
Q 54.890625 44.34375 54.890625 33.015625 
z
" id="DejaVuSans-110"/>
       <path id="DejaVuSans-32"/>
       <path d="M 8.5 21.578125 
L 8.5 54.6875 
L 17.484375 54.6875 
L 17.484375 21.921875 
Q 17.484375 14.15625 20.5 10.265625 
Q 23.53125 6.390625 29.59375 6.390625 
Q 36.859375 6.390625 41.078125 11.03125 
Q 45.3125 15.671875 45.3125 23.6875 
L 45.3125 54.6875 
L 54.296875 54.6875 
L 54.296875 0 
L 45.3125 0 
L 45.3125 8.40625 
Q 42.046875 3.421875 37.71875 1 
Q 33.40625 -1.421875 27.6875 -1.421875 
Q 18.265625 -1.421875 13.375 4.4375 
Q 8.5 10.296875 8.5 21.578125 
z
M 31.109375 56 
z
" id="DejaVuSans-117"/>
       <path d="M 32.171875 -5.078125 
Q 28.375 -14.84375 24.75 -17.8125 
Q 21.140625 -20.796875 15.09375 -20.796875 
L 7.90625 -20.796875 
L 7.90625 -13.28125 
L 13.1875 -13.28125 
Q 16.890625 -13.28125 18.9375 -11.515625 
Q 21 -9.765625 23.484375 -3.21875 
L 25.09375 0.875 
L 2.984375 54.6875 
L 12.5 54.6875 
L 29.59375 11.921875 
L 46.6875 54.6875 
L 56.203125 54.6875 
z
" id="DejaVuSans-121"/>
      </defs>
      <use xlink:href="#DejaVuSans-112"/>
      <use x="63.476562" xlink:href="#DejaVuSans-114"/>
      <use x="102.339844" xlink:href="#DejaVuSans-101"/>
      <use x="163.863281" xlink:href="#DejaVuSans-100"/>
      <use x="227.339844" xlink:href="#DejaVuSans-105"/>
      <use x="255.123047" xlink:href="#DejaVuSans-99"/>
      <use x="310.103516" xlink:href="#DejaVuSans-116"/>
      <use x="349.3125" xlink:href="#DejaVuSans-105"/>
      <use x="377.095703" xlink:href="#DejaVuSans-111"/>
      <use x="438.277344" xlink:href="#DejaVuSans-110"/>
      <use x="501.65625" xlink:href="#DejaVuSans-32"/>
      <use x="533.443359" xlink:href="#DejaVuSans-97"/>
      <use x="594.722656" xlink:href="#DejaVuSans-99"/>
      <use x="649.703125" xlink:href="#DejaVuSans-99"/>
      <use x="704.683594" xlink:href="#DejaVuSans-117"/>
      <use x="768.0625" xlink:href="#DejaVuSans-114"/>
      <use x="809.175781" xlink:href="#DejaVuSans-97"/>
      <use x="870.455078" xlink:href="#DejaVuSans-99"/>
      <use x="925.435547" xlink:href="#DejaVuSans-121"/>
     </g>
    </g>
   </g>
   <g id="line2d_16">
    <path clip-path="url(#p6d40982451)" d="M 138.436364 243.441351 
L 141.48 214.92 
L 144.523636 235.053333 
L 147.567273 208.705015 
L 150.610909 217.110954 
L 153.654545 218.296398 
L 156.698182 228.577628 
L 159.741818 230.883917 
L 162.785455 223.229252 
L 165.829091 225.60012 
L 168.872727 207.620947 
L 171.916364 185.291326 
L 174.96 208.705015 
L 178.003636 230.015217 
L 181.047273 194.651713 
L 184.090909 231.238416 
L 187.134545 155.378417 
L 190.178182 235.216753 
L 193.221818 204.182076 
L 196.265455 196.518382 
L 199.309091 181.46297 
L 202.352727 213.674163 
L 205.396364 167.135477 
L 208.44 217.425069 
L 214.527273 198.447273 
L 217.570909 196.805473 
L 220.614545 198.833051 
L 223.658182 214.415733 
L 226.701818 220.918125 
L 229.745455 205.812396 
L 232.789091 224.372873 
L 235.832727 197.87331 
L 238.876364 217.350402 
L 241.92 216.750303 
L 244.963636 217.273247 
L 248.007273 219.458404 
L 251.050909 228.496424 
L 254.094545 204.182076 
L 257.138182 214.548435 
L 260.181818 206.555098 
L 263.225455 202.777247 
L 266.269091 200.257463 
L 269.312727 214.658528 
L 272.356364 204.33039 
L 275.4 207.620947 
L 278.443636 198.833051 
L 281.487273 252.23577 
L 284.530909 208.742727 
L 287.574545 234.209212 
L 290.618182 186.374094 
L 293.661818 211.118601 
L 296.705455 192.80726 
L 299.749091 218.231206 
L 302.792727 178.903359 
L 305.836364 223.251766 
L 308.88 217.110954 
L 311.923636 217.567403 
L 314.967273 186.963429 
L 318.010909 206.536558 
L 321.054545 165.988697 
L 324.098182 213.385274 
L 327.141818 199.287718 
L 330.185455 214.658528 
L 333.229091 191.093377 
L 336.272727 190.985759 
L 339.316364 187.259706 
L 342.36 208.705015 
L 345.403636 189.574375 
L 348.447273 229.411046 
L 351.490909 204.938988 
L 354.534545 212.12894 
L 357.578182 179.007408 
L 360.621818 187.514867 
L 363.665455 178.804469 
L 366.709091 185.542371 
L 369.752727 223.074274 
L 372.796364 197.326679 
L 375.84 162.972956 
L 378.883636 202.834682 
L 381.927273 205.507013 
L 384.970909 220.793229 
L 388.014545 198.632568 
L 391.058182 207.987462 
L 397.145455 188.689908 
L 400.189091 206.536558 
L 403.232727 182.268701 
L 406.276364 194.689988 
L 409.32 197.208722 
L 412.363636 177.268052 
L 415.407273 185.1979 
L 418.450909 202.504595 
L 421.494545 237.404383 
L 424.538182 177.724652 
L 427.581818 210.014079 
L 430.625455 185.860139 
L 433.669091 201.809054 
L 436.712727 211.477647 
L 439.756364 224.332987 
L 442.8 169.960602 
L 445.843636 232.065083 
L 448.887273 209.373061 
L 454.974545 179.832037 
L 458.018182 205.56174 
L 461.061818 216.937069 
L 464.105455 212.912184 
L 467.149091 175.705813 
L 470.192727 197.189813 
L 473.236364 217.025537 
L 476.28 217.497365 
L 479.323636 213.075563 
L 482.367273 200.070202 
L 485.410909 171.640723 
L 488.454545 189.738407 
L 491.498182 201.809054 
L 494.541818 193.740779 
L 497.585455 195.913007 
L 500.629091 207.056712 
L 503.672727 209.807774 
L 506.716364 192.767022 
L 509.76 189.943944 
L 512.803636 193.217835 
L 515.847273 221.97974 
L 518.890909 191.192903 
L 521.934545 186.681039 
L 524.978182 190.86902 
L 528.021818 197.635808 
L 531.065455 189.034286 
L 534.109091 205.036364 
L 537.152727 183.918532 
L 540.196364 174.117094 
L 543.24 226.848527 
L 546.283636 194.245046 
L 549.327273 217.635285 
L 552.370909 202.142454 
L 555.414545 192.723159 
L 558.458182 186.120742 
L 561.501818 219.807512 
L 564.545455 199.808655 
L 567.589091 176.510227 
L 570.632727 200.355311 
L 573.676364 200.51813 
L 576.72 196.713301 
L 579.763636 233.745974 
L 582.807273 186.082756 
L 585.850909 197.635808 
L 588.894545 183.472066 
L 591.938182 210.593062 
L 594.981818 171.878358 
L 598.025455 208.315727 
L 601.069091 214.278205 
L 604.112727 201.809054 
L 607.156364 176.551846 
L 610.2 200.800519 
L 613.243636 186.982737 
L 616.287273 214.415733 
L 619.330909 170.959769 
L 622.374545 204.938988 
L 625.418182 199.139404 
L 628.461818 228.923747 
L 631.505455 193.281609 
L 634.549091 210.531513 
L 637.592727 180.144242 
L 640.636364 197.06301 
L 643.68 189.943944 
L 646.723636 166.279037 
L 649.767273 198.798504 
L 652.810909 194.203713 
L 655.854545 184.47487 
L 658.898182 209.143849 
L 661.941818 207.86026 
L 664.985455 210.406396 
L 668.029091 205.56174 
L 671.072727 199.808655 
L 674.116364 203.153766 
L 677.16 202.186076 
L 680.203636 212.721065 
L 683.247273 190.332629 
L 686.290909 204.640027 
L 692.378182 181.802357 
L 695.421818 182.824878 
L 698.465455 190.86902 
L 701.509091 208.705015 
L 704.552727 189.069673 
L 707.596364 196.637083 
L 710.64 186.982737 
L 713.683636 182.445195 
L 716.727273 180.844246 
L 719.770909 179.869009 
L 722.814545 192.186341 
L 725.858182 196.196341 
L 728.901818 191.723711 
L 731.945455 171.640723 
L 734.989091 199.567866 
L 738.032727 170.323104 
L 741.076364 199.050669 
L 744.12 197.06301 
L 744.12 197.06301 
" style="fill:none;stroke:#1f77b4;stroke-linecap:square;stroke-width:2.25;"/>
   </g>
   <g id="line2d_17">
    <path clip-path="url(#p6d40982451)" d="M 108 221.97974 
L 777.6 221.97974 
" style="fill:none;stroke:#000000;stroke-linecap:square;stroke-width:2.25;"/>
   </g>
   <g id="patch_3">
    <path d="M 108 378 
L 108 51.84 
" style="fill:none;stroke:#000000;stroke-linecap:square;stroke-linejoin:miter;stroke-width:1.875;"/>
   </g>
   <g id="patch_4">
    <path d="M 777.6 378 
L 777.6 51.84 
" style="fill:none;stroke:#000000;stroke-linecap:square;stroke-linejoin:miter;stroke-width:1.875;"/>
   </g>
   <g id="patch_5">
    <path d="M 108 378 
L 777.6 378 
" style="fill:none;stroke:#000000;stroke-linecap:square;stroke-linejoin:miter;stroke-width:1.875;"/>
   </g>
   <g id="patch_6">
    <path d="M 108 51.84 
L 777.6 51.84 
" style="fill:none;stroke:#000000;stroke-linecap:square;stroke-linejoin:miter;stroke-width:1.875;"/>
   </g>
  </g>
 </g>
 <defs>
  <clipPath id="p6d40982451">
   <rect height="326.16" width="669.6" x="108" y="51.84"/>
  </clipPath>
 </defs>
</svg>
