<?xml version="1.0" encoding="utf-8" standalone="no"?>
<!DOCTYPE svg PUBLIC "-//W3C//DTD SVG 1.1//EN"
  "http://www.w3.org/Graphics/SVG/1.1/DTD/svg11.dtd">
<!-- Created with matplotlib (https://matplotlib.org/) -->
<svg height="432pt" version="1.1" viewBox="0 0 864 432" width="864pt" xmlns="http://www.w3.org/2000/svg" xmlns:xlink="http://www.w3.org/1999/xlink">
 <metadata>
  <rdf:RDF xmlns:cc="http://creativecommons.org/ns#" xmlns:dc="http://purl.org/dc/elements/1.1/" xmlns:rdf="http://www.w3.org/1999/02/22-rdf-syntax-ns#">
   <cc:Work>
    <dc:type rdf:resource="http://purl.org/dc/dcmitype/StillImage"/>
    <dc:date>2023-04-16T12:00:14.211739</dc:date>
    <dc:format>image/svg+xml</dc:format>
    <dc:creator>
     <cc:Agent>
      <dc:title>Matplotlib v3.3.4, https://matplotlib.org/</dc:title>
     </cc:Agent>
    </dc:creator>
   </cc:Work>
  </rdf:RDF>
 </metadata>
 <defs>
  <style type="text/css">*{stroke-linecap:butt;stroke-linejoin:round;}</style>
 </defs>
 <g id="figure_1">
  <g id="patch_1">
   <path d="M 0 432 
L 864 432 
L 864 0 
L 0 0 
z
" style="fill:none;"/>
  </g>
  <g id="axes_1">
   <g id="patch_2">
    <path d="M 108 378 
L 777.6 378 
L 777.6 51.84 
L 108 51.84 
z
" style="fill:#ffffff;"/>
   </g>
   <g id="PolyCollection_1">
    <defs>
     <path d="M 276.513514 -68.825455 
L 274.286486 -68.825455 
L 273.971864 -71.820496 
L 273.583672 -74.815537 
L 273.109236 -77.810579 
L 272.534915 -80.80562 
L 271.846364 -83.800661 
L 271.028884 -86.795702 
L 270.067886 -89.790744 
L 268.949454 -92.785785 
L 267.66101 -95.780826 
L 266.192066 -98.775868 
L 264.535038 -101.770909 
L 262.686079 -104.76595 
L 260.645917 -107.760992 
L 258.420619 -110.756033 
L 256.02225 -113.751074 
L 253.469354 -116.746116 
L 250.787223 -119.741157 
L 248.00788 -122.736198 
L 245.169768 -125.73124 
L 242.31709 -128.726281 
L 239.498819 -131.721322 
L 236.767387 -134.716364 
L 234.177078 -137.711405 
L 231.782205 -140.706446 
L 229.635125 -143.701488 
L 227.78421 -146.696529 
L 226.271855 -149.69157 
L 225.13264 -152.686612 
L 224.391743 -155.681653 
L 224.063701 -158.676694 
L 224.151584 -161.671736 
L 224.646633 -164.666777 
L 225.528393 -167.661818 
L 226.765329 -170.65686 
L 228.315887 -173.651901 
L 230.129958 -176.646942 
L 232.150647 -179.641983 
L 234.316258 -182.637025 
L 236.56239 -185.632066 
L 238.824032 -188.627107 
L 241.037546 -191.622149 
L 243.14245 -194.61719 
L 245.082917 -197.612231 
L 246.808924 -200.607273 
L 248.277029 -203.602314 
L 249.45075 -206.597355 
L 250.300574 -209.592397 
L 250.803625 -212.587438 
L 250.94307 -215.582479 
L 250.707337 -218.577521 
L 250.089244 -221.572562 
L 249.085145 -224.567603 
L 247.694197 -227.562645 
L 245.917847 -230.557686 
L 243.75961 -233.552727 
L 241.225196 -236.547769 
L 238.323009 -239.54281 
L 235.065001 -242.537851 
L 231.467823 -245.532893 
L 227.554189 -248.527934 
L 223.354331 -251.522975 
L 218.907374 -254.518017 
L 214.2625 -257.513058 
L 209.479702 -260.508099 
L 204.630008 -263.50314 
L 199.795021 -266.498182 
L 195.06572 -269.493223 
L 190.540486 -272.488264 
L 186.322381 -275.483306 
L 182.515786 -278.478347 
L 179.222543 -281.473388 
L 176.537821 -284.46843 
L 174.545932 -287.463471 
L 173.316378 -290.458512 
L 172.900371 -293.453554 
L 173.328081 -296.448595 
L 174.606805 -299.443636 
L 176.720185 -302.438678 
L 179.628564 -305.433719 
L 183.270454 -308.42876 
L 187.565041 -311.423802 
L 192.415575 -314.418843 
L 197.713425 -317.413884 
L 203.34256 -320.408926 
L 209.184186 -323.403967 
L 215.121264 -326.399008 
L 221.042671 -329.39405 
L 226.846791 -332.389091 
L 232.444387 -335.384132 
L 237.760651 -338.379174 
L 242.736395 -341.374215 
L 247.328409 -344.369256 
L 251.509064 -347.364298 
L 255.265261 -350.359339 
L 258.596875 -353.35438 
L 261.514843 -356.349421 
L 264.039051 -359.344463 
L 266.196169 -362.339504 
L 268.017544 -365.334545 
L 282.782456 -365.334545 
L 282.782456 -365.334545 
L 284.603831 -362.339504 
L 286.760949 -359.344463 
L 289.285157 -356.349421 
L 292.203125 -353.35438 
L 295.534739 -350.359339 
L 299.290936 -347.364298 
L 303.471591 -344.369256 
L 308.063605 -341.374215 
L 313.039349 -338.379174 
L 318.355613 -335.384132 
L 323.953209 -332.389091 
L 329.757329 -329.39405 
L 335.678736 -326.399008 
L 341.615814 -323.403967 
L 347.45744 -320.408926 
L 353.086575 -317.413884 
L 358.384425 -314.418843 
L 363.234959 -311.423802 
L 367.529546 -308.42876 
L 371.171436 -305.433719 
L 374.079815 -302.438678 
L 376.193195 -299.443636 
L 377.471919 -296.448595 
L 377.899629 -293.453554 
L 377.483622 -290.458512 
L 376.254068 -287.463471 
L 374.262179 -284.46843 
L 371.577457 -281.473388 
L 368.284214 -278.478347 
L 364.477619 -275.483306 
L 360.259514 -272.488264 
L 355.73428 -269.493223 
L 351.004979 -266.498182 
L 346.169992 -263.50314 
L 341.320298 -260.508099 
L 336.5375 -257.513058 
L 331.892626 -254.518017 
L 327.445669 -251.522975 
L 323.245811 -248.527934 
L 319.332177 -245.532893 
L 315.734999 -242.537851 
L 312.476991 -239.54281 
L 309.574804 -236.547769 
L 307.04039 -233.552727 
L 304.882153 -230.557686 
L 303.105803 -227.562645 
L 301.714855 -224.567603 
L 300.710756 -221.572562 
L 300.092663 -218.577521 
L 299.85693 -215.582479 
L 299.996375 -212.587438 
L 300.499426 -209.592397 
L 301.34925 -206.597355 
L 302.522971 -203.602314 
L 303.991076 -200.607273 
L 305.717083 -197.612231 
L 307.65755 -194.61719 
L 309.762454 -191.622149 
L 311.975968 -188.627107 
L 314.23761 -185.632066 
L 316.483742 -182.637025 
L 318.649353 -179.641983 
L 320.670042 -176.646942 
L 322.484113 -173.651901 
L 324.034671 -170.65686 
L 325.271607 -167.661818 
L 326.153367 -164.666777 
L 326.648416 -161.671736 
L 326.736299 -158.676694 
L 326.408257 -155.681653 
L 325.66736 -152.686612 
L 324.528145 -149.69157 
L 323.01579 -146.696529 
L 321.164875 -143.701488 
L 319.017795 -140.706446 
L 316.622922 -137.711405 
L 314.032613 -134.716364 
L 311.301181 -131.721322 
L 308.48291 -128.726281 
L 305.630232 -125.73124 
L 302.79212 -122.736198 
L 300.012777 -119.741157 
L 297.330646 -116.746116 
L 294.77775 -113.751074 
L 292.379381 -110.756033 
L 290.154083 -107.760992 
L 288.113921 -104.76595 
L 286.264962 -101.770909 
L 284.607934 -98.775868 
L 283.13899 -95.780826 
L 281.850546 -92.785785 
L 280.732114 -89.790744 
L 279.771116 -86.795702 
L 278.953636 -83.800661 
L 278.265085 -80.80562 
L 277.690764 -77.810579 
L 277.216328 -74.815537 
L 276.828136 -71.820496 
L 276.513514 -68.825455 
z
" id="m4f4768fd7f" style="stroke:#3f3f3f;stroke-width:2.25;"/>
    </defs>
    <g clip-path="url(#pab4367e5d8)">
     <use style="fill:#3274a1;stroke:#3f3f3f;stroke-width:2.25;" x="0" xlink:href="#m4f4768fd7f" y="432"/>
    </g>
   </g>
   <g id="PolyCollection_2">
    <defs>
     <path d="M 611.547154 -80.000269 
L 608.852846 -80.000269 
L 608.336089 -82.686943 
L 607.658711 -85.373618 
L 606.784772 -88.060292 
L 605.674735 -90.746967 
L 604.286358 -93.433641 
L 602.57593 -96.120315 
L 600.499822 -98.80699 
L 598.016309 -101.493664 
L 595.087571 -104.180339 
L 591.681781 -106.867013 
L 587.775178 -109.553688 
L 583.354026 -112.240362 
L 578.416364 -114.927037 
L 572.97348 -117.613711 
L 567.051061 -120.300386 
L 560.689962 -122.98706 
L 553.946562 -125.673735 
L 546.892656 -128.360409 
L 539.614839 -131.047083 
L 532.213304 -133.733758 
L 524.800026 -136.420432 
L 517.496275 -139.107107 
L 510.429475 -141.793781 
L 503.729469 -144.480456 
L 497.524294 -147.16713 
L 491.935666 -149.853805 
L 487.074388 -152.540479 
L 483.035929 -155.227154 
L 479.896442 -157.913828 
L 477.709441 -160.600502 
L 476.50334 -163.287177 
L 476.28 -165.973851 
L 477.01439 -168.660526 
L 478.655417 -171.3472 
L 481.127945 -174.033875 
L 484.33597 -176.720549 
L 488.166874 -179.407224 
L 492.496615 -182.093898 
L 497.195624 -184.780573 
L 502.135113 -187.467247 
L 507.193394 -190.153921 
L 512.261758 -192.840596 
L 517.249447 -195.52727 
L 522.087241 -198.213945 
L 526.729318 -200.900619 
L 531.153137 -203.587294 
L 535.357329 -206.273968 
L 539.357765 -208.960643 
L 543.182189 -211.647317 
L 546.864002 -214.333992 
L 550.435862 -217.020666 
L 553.923829 -219.70734 
L 557.342709 -222.394015 
L 560.693121 -225.080689 
L 563.960596 -227.767364 
L 567.116787 -230.454038 
L 570.122592 -233.140713 
L 572.932779 -235.827387 
L 575.501532 -238.514062 
L 577.788216 -241.200736 
L 579.762649 -243.887411 
L 581.409258 -246.574085 
L 582.7296 -249.260759 
L 583.742985 -251.947434 
L 584.485146 -254.634108 
L 585.005148 -257.320783 
L 585.360966 -260.007457 
L 585.614302 -262.694132 
L 585.825287 -265.380806 
L 586.04773 -268.067481 
L 586.325434 -270.754155 
L 586.689957 -273.44083 
L 587.159962 -276.127504 
L 587.742055 -278.814179 
L 588.432836 -281.500853 
L 589.221707 -284.187527 
L 590.093943 -286.874202 
L 591.033543 -289.560876 
L 592.025464 -292.247551 
L 593.057016 -294.934225 
L 594.118349 -297.6209 
L 595.202129 -300.307574 
L 596.302645 -302.994249 
L 597.414634 -305.680923 
L 598.532126 -308.367598 
L 599.647581 -311.054272 
L 600.751462 -313.740946 
L 601.832324 -316.427621 
L 602.877364 -319.114295 
L 603.87331 -321.80097 
L 604.807482 -324.487644 
L 605.668838 -327.174319 
L 606.448845 -329.860993 
L 607.142067 -332.547668 
L 607.746416 -335.234342 
L 608.263064 -337.921017 
L 608.69607 -340.607691 
L 609.051804 -343.294365 
L 609.338257 -345.98104 
L 611.061743 -345.98104 
L 611.061743 -345.98104 
L 611.348196 -343.294365 
L 611.70393 -340.607691 
L 612.136936 -337.921017 
L 612.653584 -335.234342 
L 613.257933 -332.547668 
L 613.951155 -329.860993 
L 614.731162 -327.174319 
L 615.592518 -324.487644 
L 616.52669 -321.80097 
L 617.522636 -319.114295 
L 618.567676 -316.427621 
L 619.648538 -313.740946 
L 620.752419 -311.054272 
L 621.867874 -308.367598 
L 622.985366 -305.680923 
L 624.097355 -302.994249 
L 625.197871 -300.307574 
L 626.281651 -297.6209 
L 627.342984 -294.934225 
L 628.374536 -292.247551 
L 629.366457 -289.560876 
L 630.306057 -286.874202 
L 631.178293 -284.187527 
L 631.967164 -281.500853 
L 632.657945 -278.814179 
L 633.240038 -276.127504 
L 633.710043 -273.44083 
L 634.074566 -270.754155 
L 634.35227 -268.067481 
L 634.574713 -265.380806 
L 634.785698 -262.694132 
L 635.039034 -260.007457 
L 635.394852 -257.320783 
L 635.914854 -254.634108 
L 636.657015 -251.947434 
L 637.6704 -249.260759 
L 638.990742 -246.574085 
L 640.637351 -243.887411 
L 642.611784 -241.200736 
L 644.898468 -238.514062 
L 647.467221 -235.827387 
L 650.277408 -233.140713 
L 653.283213 -230.454038 
L 656.439404 -227.767364 
L 659.706879 -225.080689 
L 663.057291 -222.394015 
L 666.476171 -219.70734 
L 669.964138 -217.020666 
L 673.535998 -214.333992 
L 677.217811 -211.647317 
L 681.042235 -208.960643 
L 685.042671 -206.273968 
L 689.246863 -203.587294 
L 693.670682 -200.900619 
L 698.312759 -198.213945 
L 703.150553 -195.52727 
L 708.138242 -192.840596 
L 713.206606 -190.153921 
L 718.264887 -187.467247 
L 723.204376 -184.780573 
L 727.903385 -182.093898 
L 732.233126 -179.407224 
L 736.06403 -176.720549 
L 739.272055 -174.033875 
L 741.744583 -171.3472 
L 743.38561 -168.660526 
L 744.12 -165.973851 
L 743.89666 -163.287177 
L 742.690559 -160.600502 
L 740.503558 -157.913828 
L 737.364071 -155.227154 
L 733.325612 -152.540479 
L 728.464334 -149.853805 
L 722.875706 -147.16713 
L 716.670531 -144.480456 
L 709.970525 -141.793781 
L 702.903725 -139.107107 
L 695.599974 -136.420432 
L 688.186696 -133.733758 
L 680.785161 -131.047083 
L 673.507344 -128.360409 
L 666.453438 -125.673735 
L 659.710038 -122.98706 
L 653.348939 -120.300386 
L 647.42652 -117.613711 
L 641.983636 -114.927037 
L 637.045974 -112.240362 
L 632.624822 -109.553688 
L 628.718219 -106.867013 
L 625.312429 -104.180339 
L 622.383691 -101.493664 
L 619.900178 -98.80699 
L 617.82407 -96.120315 
L 616.113642 -93.433641 
L 614.725265 -90.746967 
L 613.615228 -88.060292 
L 612.741289 -85.373618 
L 612.063911 -82.686943 
L 611.547154 -80.000269 
z
" id="m1021060ab6" style="stroke:#3f3f3f;stroke-width:2.25;"/>
    </defs>
    <g clip-path="url(#pab4367e5d8)">
     <use style="fill:#e1812c;stroke:#3f3f3f;stroke-width:2.25;" x="0" xlink:href="#m1021060ab6" y="432"/>
    </g>
   </g>
   <g id="matplotlib.axis_1">
    <g id="xtick_1">
     <g id="line2d_1">
      <defs>
       <path d="M 0 0 
L 0 9 
" id="m0c57c864ea" style="stroke:#000000;stroke-width:1.875;"/>
      </defs>
      <g>
       <use style="stroke:#000000;stroke-width:1.875;" x="275.4" xlink:href="#m0c57c864ea" y="378"/>
      </g>
     </g>
     <g id="text_1">
      <!-- blocked -->
      <g transform="translate(243.494414 403.037422)scale(0.165 -0.165)">
       <defs>
        <path d="M 48.6875 27.296875 
Q 48.6875 37.203125 44.609375 42.84375 
Q 40.53125 48.484375 33.40625 48.484375 
Q 26.265625 48.484375 22.1875 42.84375 
Q 18.109375 37.203125 18.109375 27.296875 
Q 18.109375 17.390625 22.1875 11.75 
Q 26.265625 6.109375 33.40625 6.109375 
Q 40.53125 6.109375 44.609375 11.75 
Q 48.6875 17.390625 48.6875 27.296875 
z
M 18.109375 46.390625 
Q 20.953125 51.265625 25.265625 53.625 
Q 29.59375 56 35.59375 56 
Q 45.5625 56 51.78125 48.09375 
Q 58.015625 40.1875 58.015625 27.296875 
Q 58.015625 14.40625 51.78125 6.484375 
Q 45.5625 -1.421875 35.59375 -1.421875 
Q 29.59375 -1.421875 25.265625 0.953125 
Q 20.953125 3.328125 18.109375 8.203125 
L 18.109375 0 
L 9.078125 0 
L 9.078125 75.984375 
L 18.109375 75.984375 
z
" id="DejaVuSans-98"/>
        <path d="M 9.421875 75.984375 
L 18.40625 75.984375 
L 18.40625 0 
L 9.421875 0 
z
" id="DejaVuSans-108"/>
        <path d="M 30.609375 48.390625 
Q 23.390625 48.390625 19.1875 42.75 
Q 14.984375 37.109375 14.984375 27.296875 
Q 14.984375 17.484375 19.15625 11.84375 
Q 23.34375 6.203125 30.609375 6.203125 
Q 37.796875 6.203125 41.984375 11.859375 
Q 46.1875 17.53125 46.1875 27.296875 
Q 46.1875 37.015625 41.984375 42.703125 
Q 37.796875 48.390625 30.609375 48.390625 
z
M 30.609375 56 
Q 42.328125 56 49.015625 48.375 
Q 55.71875 40.765625 55.71875 27.296875 
Q 55.71875 13.875 49.015625 6.21875 
Q 42.328125 -1.421875 30.609375 -1.421875 
Q 18.84375 -1.421875 12.171875 6.21875 
Q 5.515625 13.875 5.515625 27.296875 
Q 5.515625 40.765625 12.171875 48.375 
Q 18.84375 56 30.609375 56 
z
" id="DejaVuSans-111"/>
        <path d="M 48.78125 52.59375 
L 48.78125 44.1875 
Q 44.96875 46.296875 41.140625 47.34375 
Q 37.3125 48.390625 33.40625 48.390625 
Q 24.65625 48.390625 19.8125 42.84375 
Q 14.984375 37.3125 14.984375 27.296875 
Q 14.984375 17.28125 19.8125 11.734375 
Q 24.65625 6.203125 33.40625 6.203125 
Q 37.3125 6.203125 41.140625 7.25 
Q 44.96875 8.296875 48.78125 10.40625 
L 48.78125 2.09375 
Q 45.015625 0.34375 40.984375 -0.53125 
Q 36.96875 -1.421875 32.421875 -1.421875 
Q 20.0625 -1.421875 12.78125 6.34375 
Q 5.515625 14.109375 5.515625 27.296875 
Q 5.515625 40.671875 12.859375 48.328125 
Q 20.21875 56 33.015625 56 
Q 37.15625 56 41.109375 55.140625 
Q 45.0625 54.296875 48.78125 52.59375 
z
" id="DejaVuSans-99"/>
        <path d="M 9.078125 75.984375 
L 18.109375 75.984375 
L 18.109375 31.109375 
L 44.921875 54.6875 
L 56.390625 54.6875 
L 27.390625 29.109375 
L 57.625 0 
L 45.90625 0 
L 18.109375 26.703125 
L 18.109375 0 
L 9.078125 0 
z
" id="DejaVuSans-107"/>
        <path d="M 56.203125 29.59375 
L 56.203125 25.203125 
L 14.890625 25.203125 
Q 15.484375 15.921875 20.484375 11.0625 
Q 25.484375 6.203125 34.421875 6.203125 
Q 39.59375 6.203125 44.453125 7.46875 
Q 49.3125 8.734375 54.109375 11.28125 
L 54.109375 2.78125 
Q 49.265625 0.734375 44.1875 -0.34375 
Q 39.109375 -1.421875 33.890625 -1.421875 
Q 20.796875 -1.421875 13.15625 6.1875 
Q 5.515625 13.8125 5.515625 26.8125 
Q 5.515625 40.234375 12.765625 48.109375 
Q 20.015625 56 32.328125 56 
Q 43.359375 56 49.78125 48.890625 
Q 56.203125 41.796875 56.203125 29.59375 
z
M 47.21875 32.234375 
Q 47.125 39.59375 43.09375 43.984375 
Q 39.0625 48.390625 32.421875 48.390625 
Q 24.90625 48.390625 20.390625 44.140625 
Q 15.875 39.890625 15.1875 32.171875 
z
" id="DejaVuSans-101"/>
        <path d="M 45.40625 46.390625 
L 45.40625 75.984375 
L 54.390625 75.984375 
L 54.390625 0 
L 45.40625 0 
L 45.40625 8.203125 
Q 42.578125 3.328125 38.25 0.953125 
Q 33.9375 -1.421875 27.875 -1.421875 
Q 17.96875 -1.421875 11.734375 6.484375 
Q 5.515625 14.40625 5.515625 27.296875 
Q 5.515625 40.1875 11.734375 48.09375 
Q 17.96875 56 27.875 56 
Q 33.9375 56 38.25 53.625 
Q 42.578125 51.265625 45.40625 46.390625 
z
M 14.796875 27.296875 
Q 14.796875 17.390625 18.875 11.75 
Q 22.953125 6.109375 30.078125 6.109375 
Q 37.203125 6.109375 41.296875 11.75 
Q 45.40625 17.390625 45.40625 27.296875 
Q 45.40625 37.203125 41.296875 42.84375 
Q 37.203125 48.484375 30.078125 48.484375 
Q 22.953125 48.484375 18.875 42.84375 
Q 14.796875 37.203125 14.796875 27.296875 
z
" id="DejaVuSans-100"/>
       </defs>
       <use xlink:href="#DejaVuSans-98"/>
       <use x="63.476562" xlink:href="#DejaVuSans-108"/>
       <use x="91.259766" xlink:href="#DejaVuSans-111"/>
       <use x="152.441406" xlink:href="#DejaVuSans-99"/>
       <use x="207.421875" xlink:href="#DejaVuSans-107"/>
       <use x="261.707031" xlink:href="#DejaVuSans-101"/>
       <use x="323.230469" xlink:href="#DejaVuSans-100"/>
      </g>
     </g>
    </g>
    <g id="xtick_2">
     <g id="line2d_2">
      <g>
       <use style="stroke:#000000;stroke-width:1.875;" x="610.2" xlink:href="#m0c57c864ea" y="378"/>
      </g>
     </g>
     <g id="text_2">
      <!-- interleaved -->
      <g transform="translate(563.356758 403.037422)scale(0.165 -0.165)">
       <defs>
        <path d="M 9.421875 54.6875 
L 18.40625 54.6875 
L 18.40625 0 
L 9.421875 0 
z
M 9.421875 75.984375 
L 18.40625 75.984375 
L 18.40625 64.59375 
L 9.421875 64.59375 
z
" id="DejaVuSans-105"/>
        <path d="M 54.890625 33.015625 
L 54.890625 0 
L 45.90625 0 
L 45.90625 32.71875 
Q 45.90625 40.484375 42.875 44.328125 
Q 39.84375 48.1875 33.796875 48.1875 
Q 26.515625 48.1875 22.3125 43.546875 
Q 18.109375 38.921875 18.109375 30.90625 
L 18.109375 0 
L 9.078125 0 
L 9.078125 54.6875 
L 18.109375 54.6875 
L 18.109375 46.1875 
Q 21.34375 51.125 25.703125 53.5625 
Q 30.078125 56 35.796875 56 
Q 45.21875 56 50.046875 50.171875 
Q 54.890625 44.34375 54.890625 33.015625 
z
" id="DejaVuSans-110"/>
        <path d="M 18.3125 70.21875 
L 18.3125 54.6875 
L 36.8125 54.6875 
L 36.8125 47.703125 
L 18.3125 47.703125 
L 18.3125 18.015625 
Q 18.3125 11.328125 20.140625 9.421875 
Q 21.96875 7.515625 27.59375 7.515625 
L 36.8125 7.515625 
L 36.8125 0 
L 27.59375 0 
Q 17.1875 0 13.234375 3.875 
Q 9.28125 7.765625 9.28125 18.015625 
L 9.28125 47.703125 
L 2.6875 47.703125 
L 2.6875 54.6875 
L 9.28125 54.6875 
L 9.28125 70.21875 
z
" id="DejaVuSans-116"/>
        <path d="M 41.109375 46.296875 
Q 39.59375 47.171875 37.8125 47.578125 
Q 36.03125 48 33.890625 48 
Q 26.265625 48 22.1875 43.046875 
Q 18.109375 38.09375 18.109375 28.8125 
L 18.109375 0 
L 9.078125 0 
L 9.078125 54.6875 
L 18.109375 54.6875 
L 18.109375 46.1875 
Q 20.953125 51.171875 25.484375 53.578125 
Q 30.03125 56 36.53125 56 
Q 37.453125 56 38.578125 55.875 
Q 39.703125 55.765625 41.0625 55.515625 
z
" id="DejaVuSans-114"/>
        <path d="M 34.28125 27.484375 
Q 23.390625 27.484375 19.1875 25 
Q 14.984375 22.515625 14.984375 16.5 
Q 14.984375 11.71875 18.140625 8.90625 
Q 21.296875 6.109375 26.703125 6.109375 
Q 34.1875 6.109375 38.703125 11.40625 
Q 43.21875 16.703125 43.21875 25.484375 
L 43.21875 27.484375 
z
M 52.203125 31.203125 
L 52.203125 0 
L 43.21875 0 
L 43.21875 8.296875 
Q 40.140625 3.328125 35.546875 0.953125 
Q 30.953125 -1.421875 24.3125 -1.421875 
Q 15.921875 -1.421875 10.953125 3.296875 
Q 6 8.015625 6 15.921875 
Q 6 25.140625 12.171875 29.828125 
Q 18.359375 34.515625 30.609375 34.515625 
L 43.21875 34.515625 
L 43.21875 35.40625 
Q 43.21875 41.609375 39.140625 45 
Q 35.0625 48.390625 27.6875 48.390625 
Q 23 48.390625 18.546875 47.265625 
Q 14.109375 46.140625 10.015625 43.890625 
L 10.015625 52.203125 
Q 14.9375 54.109375 19.578125 55.046875 
Q 24.21875 56 28.609375 56 
Q 40.484375 56 46.34375 49.84375 
Q 52.203125 43.703125 52.203125 31.203125 
z
" id="DejaVuSans-97"/>
        <path d="M 2.984375 54.6875 
L 12.5 54.6875 
L 29.59375 8.796875 
L 46.6875 54.6875 
L 56.203125 54.6875 
L 35.6875 0 
L 23.484375 0 
z
" id="DejaVuSans-118"/>
       </defs>
       <use xlink:href="#DejaVuSans-105"/>
       <use x="27.783203" xlink:href="#DejaVuSans-110"/>
       <use x="91.162109" xlink:href="#DejaVuSans-116"/>
       <use x="130.371094" xlink:href="#DejaVuSans-101"/>
       <use x="191.894531" xlink:href="#DejaVuSans-114"/>
       <use x="233.007812" xlink:href="#DejaVuSans-108"/>
       <use x="260.791016" xlink:href="#DejaVuSans-101"/>
       <use x="322.314453" xlink:href="#DejaVuSans-97"/>
       <use x="383.59375" xlink:href="#DejaVuSans-118"/>
       <use x="442.773438" xlink:href="#DejaVuSans-101"/>
       <use x="504.296875" xlink:href="#DejaVuSans-100"/>
      </g>
     </g>
    </g>
    <g id="text_3">
     <!-- condition -->
     <g transform="translate(401.187656 424.146094)scale(0.18 -0.18)">
      <use xlink:href="#DejaVuSans-99"/>
      <use x="54.980469" xlink:href="#DejaVuSans-111"/>
      <use x="116.162109" xlink:href="#DejaVuSans-110"/>
      <use x="179.541016" xlink:href="#DejaVuSans-100"/>
      <use x="243.017578" xlink:href="#DejaVuSans-105"/>
      <use x="270.800781" xlink:href="#DejaVuSans-116"/>
      <use x="310.009766" xlink:href="#DejaVuSans-105"/>
      <use x="337.792969" xlink:href="#DejaVuSans-111"/>
      <use x="398.974609" xlink:href="#DejaVuSans-110"/>
     </g>
    </g>
   </g>
   <g id="matplotlib.axis_2">
    <g id="ytick_1">
     <g id="line2d_3">
      <defs>
       <path d="M 0 0 
L -9 0 
" id="m915132869e" style="stroke:#000000;stroke-width:1.875;"/>
      </defs>
      <g>
       <use style="stroke:#000000;stroke-width:1.875;" x="108" xlink:href="#m915132869e" y="360.724544"/>
      </g>
     </g>
     <g id="text_4">
      <!-- 0.2 -->
      <g transform="translate(69.259844 366.993255)scale(0.165 -0.165)">
       <defs>
        <path d="M 31.78125 66.40625 
Q 24.171875 66.40625 20.328125 58.90625 
Q 16.5 51.421875 16.5 36.375 
Q 16.5 21.390625 20.328125 13.890625 
Q 24.171875 6.390625 31.78125 6.390625 
Q 39.453125 6.390625 43.28125 13.890625 
Q 47.125 21.390625 47.125 36.375 
Q 47.125 51.421875 43.28125 58.90625 
Q 39.453125 66.40625 31.78125 66.40625 
z
M 31.78125 74.21875 
Q 44.046875 74.21875 50.515625 64.515625 
Q 56.984375 54.828125 56.984375 36.375 
Q 56.984375 17.96875 50.515625 8.265625 
Q 44.046875 -1.421875 31.78125 -1.421875 
Q 19.53125 -1.421875 13.0625 8.265625 
Q 6.59375 17.96875 6.59375 36.375 
Q 6.59375 54.828125 13.0625 64.515625 
Q 19.53125 74.21875 31.78125 74.21875 
z
" id="DejaVuSans-48"/>
        <path d="M 10.6875 12.40625 
L 21 12.40625 
L 21 0 
L 10.6875 0 
z
" id="DejaVuSans-46"/>
        <path d="M 19.1875 8.296875 
L 53.609375 8.296875 
L 53.609375 0 
L 7.328125 0 
L 7.328125 8.296875 
Q 12.9375 14.109375 22.625 23.890625 
Q 32.328125 33.6875 34.8125 36.53125 
Q 39.546875 41.84375 41.421875 45.53125 
Q 43.3125 49.21875 43.3125 52.78125 
Q 43.3125 58.59375 39.234375 62.25 
Q 35.15625 65.921875 28.609375 65.921875 
Q 23.96875 65.921875 18.8125 64.3125 
Q 13.671875 62.703125 7.8125 59.421875 
L 7.8125 69.390625 
Q 13.765625 71.78125 18.9375 73 
Q 24.125 74.21875 28.421875 74.21875 
Q 39.75 74.21875 46.484375 68.546875 
Q 53.21875 62.890625 53.21875 53.421875 
Q 53.21875 48.921875 51.53125 44.890625 
Q 49.859375 40.875 45.40625 35.40625 
Q 44.1875 33.984375 37.640625 27.21875 
Q 31.109375 20.453125 19.1875 8.296875 
z
" id="DejaVuSans-50"/>
       </defs>
       <use xlink:href="#DejaVuSans-48"/>
       <use x="63.623047" xlink:href="#DejaVuSans-46"/>
       <use x="95.410156" xlink:href="#DejaVuSans-50"/>
      </g>
     </g>
    </g>
    <g id="ytick_2">
     <g id="line2d_4">
      <g>
       <use style="stroke:#000000;stroke-width:1.875;" x="108" xlink:href="#m915132869e" y="301.803529"/>
      </g>
     </g>
     <g id="text_5">
      <!-- 0.4 -->
      <g transform="translate(69.259844 308.07224)scale(0.165 -0.165)">
       <defs>
        <path d="M 37.796875 64.3125 
L 12.890625 25.390625 
L 37.796875 25.390625 
z
M 35.203125 72.90625 
L 47.609375 72.90625 
L 47.609375 25.390625 
L 58.015625 25.390625 
L 58.015625 17.1875 
L 47.609375 17.1875 
L 47.609375 0 
L 37.796875 0 
L 37.796875 17.1875 
L 4.890625 17.1875 
L 4.890625 26.703125 
z
" id="DejaVuSans-52"/>
       </defs>
       <use xlink:href="#DejaVuSans-48"/>
       <use x="63.623047" xlink:href="#DejaVuSans-46"/>
       <use x="95.410156" xlink:href="#DejaVuSans-52"/>
      </g>
     </g>
    </g>
    <g id="ytick_3">
     <g id="line2d_5">
      <g>
       <use style="stroke:#000000;stroke-width:1.875;" x="108" xlink:href="#m915132869e" y="242.882515"/>
      </g>
     </g>
     <g id="text_6">
      <!-- 0.6 -->
      <g transform="translate(69.259844 249.151226)scale(0.165 -0.165)">
       <defs>
        <path d="M 33.015625 40.375 
Q 26.375 40.375 22.484375 35.828125 
Q 18.609375 31.296875 18.609375 23.390625 
Q 18.609375 15.53125 22.484375 10.953125 
Q 26.375 6.390625 33.015625 6.390625 
Q 39.65625 6.390625 43.53125 10.953125 
Q 47.40625 15.53125 47.40625 23.390625 
Q 47.40625 31.296875 43.53125 35.828125 
Q 39.65625 40.375 33.015625 40.375 
z
M 52.59375 71.296875 
L 52.59375 62.3125 
Q 48.875 64.0625 45.09375 64.984375 
Q 41.3125 65.921875 37.59375 65.921875 
Q 27.828125 65.921875 22.671875 59.328125 
Q 17.53125 52.734375 16.796875 39.40625 
Q 19.671875 43.65625 24.015625 45.921875 
Q 28.375 48.1875 33.59375 48.1875 
Q 44.578125 48.1875 50.953125 41.515625 
Q 57.328125 34.859375 57.328125 23.390625 
Q 57.328125 12.15625 50.6875 5.359375 
Q 44.046875 -1.421875 33.015625 -1.421875 
Q 20.359375 -1.421875 13.671875 8.265625 
Q 6.984375 17.96875 6.984375 36.375 
Q 6.984375 53.65625 15.1875 63.9375 
Q 23.390625 74.21875 37.203125 74.21875 
Q 40.921875 74.21875 44.703125 73.484375 
Q 48.484375 72.75 52.59375 71.296875 
z
" id="DejaVuSans-54"/>
       </defs>
       <use xlink:href="#DejaVuSans-48"/>
       <use x="63.623047" xlink:href="#DejaVuSans-46"/>
       <use x="95.410156" xlink:href="#DejaVuSans-54"/>
      </g>
     </g>
    </g>
    <g id="ytick_4">
     <g id="line2d_6">
      <g>
       <use style="stroke:#000000;stroke-width:1.875;" x="108" xlink:href="#m915132869e" y="183.961501"/>
      </g>
     </g>
     <g id="text_7">
      <!-- 0.8 -->
      <g transform="translate(69.259844 190.230212)scale(0.165 -0.165)">
       <defs>
        <path d="M 31.78125 34.625 
Q 24.75 34.625 20.71875 30.859375 
Q 16.703125 27.09375 16.703125 20.515625 
Q 16.703125 13.921875 20.71875 10.15625 
Q 24.75 6.390625 31.78125 6.390625 
Q 38.8125 6.390625 42.859375 10.171875 
Q 46.921875 13.96875 46.921875 20.515625 
Q 46.921875 27.09375 42.890625 30.859375 
Q 38.875 34.625 31.78125 34.625 
z
M 21.921875 38.8125 
Q 15.578125 40.375 12.03125 44.71875 
Q 8.5 49.078125 8.5 55.328125 
Q 8.5 64.0625 14.71875 69.140625 
Q 20.953125 74.21875 31.78125 74.21875 
Q 42.671875 74.21875 48.875 69.140625 
Q 55.078125 64.0625 55.078125 55.328125 
Q 55.078125 49.078125 51.53125 44.71875 
Q 48 40.375 41.703125 38.8125 
Q 48.828125 37.15625 52.796875 32.3125 
Q 56.78125 27.484375 56.78125 20.515625 
Q 56.78125 9.90625 50.3125 4.234375 
Q 43.84375 -1.421875 31.78125 -1.421875 
Q 19.734375 -1.421875 13.25 4.234375 
Q 6.78125 9.90625 6.78125 20.515625 
Q 6.78125 27.484375 10.78125 32.3125 
Q 14.796875 37.15625 21.921875 38.8125 
z
M 18.3125 54.390625 
Q 18.3125 48.734375 21.84375 45.5625 
Q 25.390625 42.390625 31.78125 42.390625 
Q 38.140625 42.390625 41.71875 45.5625 
Q 45.3125 48.734375 45.3125 54.390625 
Q 45.3125 60.0625 41.71875 63.234375 
Q 38.140625 66.40625 31.78125 66.40625 
Q 25.390625 66.40625 21.84375 63.234375 
Q 18.3125 60.0625 18.3125 54.390625 
z
" id="DejaVuSans-56"/>
       </defs>
       <use xlink:href="#DejaVuSans-48"/>
       <use x="63.623047" xlink:href="#DejaVuSans-46"/>
       <use x="95.410156" xlink:href="#DejaVuSans-56"/>
      </g>
     </g>
    </g>
    <g id="ytick_5">
     <g id="line2d_7">
      <g>
       <use style="stroke:#000000;stroke-width:1.875;" x="108" xlink:href="#m915132869e" y="125.040487"/>
      </g>
     </g>
     <g id="text_8">
      <!-- 1.0 -->
      <g transform="translate(69.259844 131.309198)scale(0.165 -0.165)">
       <defs>
        <path d="M 12.40625 8.296875 
L 28.515625 8.296875 
L 28.515625 63.921875 
L 10.984375 60.40625 
L 10.984375 69.390625 
L 28.421875 72.90625 
L 38.28125 72.90625 
L 38.28125 8.296875 
L 54.390625 8.296875 
L 54.390625 0 
L 12.40625 0 
z
" id="DejaVuSans-49"/>
       </defs>
       <use xlink:href="#DejaVuSans-49"/>
       <use x="63.623047" xlink:href="#DejaVuSans-46"/>
       <use x="95.410156" xlink:href="#DejaVuSans-48"/>
      </g>
     </g>
    </g>
    <g id="ytick_6">
     <g id="line2d_8">
      <g>
       <use style="stroke:#000000;stroke-width:1.875;" x="108" xlink:href="#m915132869e" y="66.119473"/>
      </g>
     </g>
     <g id="text_9">
      <!-- 1.2 -->
      <g transform="translate(69.259844 72.388183)scale(0.165 -0.165)">
       <use xlink:href="#DejaVuSans-49"/>
       <use x="63.623047" xlink:href="#DejaVuSans-46"/>
       <use x="95.410156" xlink:href="#DejaVuSans-50"/>
      </g>
     </g>
    </g>
    <g id="text_10">
     <!-- prediction accuracy -->
     <g transform="translate(61.516406 303.537656)rotate(-90)scale(0.18 -0.18)">
      <defs>
       <path d="M 18.109375 8.203125 
L 18.109375 -20.796875 
L 9.078125 -20.796875 
L 9.078125 54.6875 
L 18.109375 54.6875 
L 18.109375 46.390625 
Q 20.953125 51.265625 25.265625 53.625 
Q 29.59375 56 35.59375 56 
Q 45.5625 56 51.78125 48.09375 
Q 58.015625 40.1875 58.015625 27.296875 
Q 58.015625 14.40625 51.78125 6.484375 
Q 45.5625 -1.421875 35.59375 -1.421875 
Q 29.59375 -1.421875 25.265625 0.953125 
Q 20.953125 3.328125 18.109375 8.203125 
z
M 48.6875 27.296875 
Q 48.6875 37.203125 44.609375 42.84375 
Q 40.53125 48.484375 33.40625 48.484375 
Q 26.265625 48.484375 22.1875 42.84375 
Q 18.109375 37.203125 18.109375 27.296875 
Q 18.109375 17.390625 22.1875 11.75 
Q 26.265625 6.109375 33.40625 6.109375 
Q 40.53125 6.109375 44.609375 11.75 
Q 48.6875 17.390625 48.6875 27.296875 
z
" id="DejaVuSans-112"/>
       <path id="DejaVuSans-32"/>
       <path d="M 8.5 21.578125 
L 8.5 54.6875 
L 17.484375 54.6875 
L 17.484375 21.921875 
Q 17.484375 14.15625 20.5 10.265625 
Q 23.53125 6.390625 29.59375 6.390625 
Q 36.859375 6.390625 41.078125 11.03125 
Q 45.3125 15.671875 45.3125 23.6875 
L 45.3125 54.6875 
L 54.296875 54.6875 
L 54.296875 0 
L 45.3125 0 
L 45.3125 8.40625 
Q 42.046875 3.421875 37.71875 1 
Q 33.40625 -1.421875 27.6875 -1.421875 
Q 18.265625 -1.421875 13.375 4.4375 
Q 8.5 10.296875 8.5 21.578125 
z
M 31.109375 56 
z
" id="DejaVuSans-117"/>
       <path d="M 32.171875 -5.078125 
Q 28.375 -14.84375 24.75 -17.8125 
Q 21.140625 -20.796875 15.09375 -20.796875 
L 7.90625 -20.796875 
L 7.90625 -13.28125 
L 13.1875 -13.28125 
Q 16.890625 -13.28125 18.9375 -11.515625 
Q 21 -9.765625 23.484375 -3.21875 
L 25.09375 0.875 
L 2.984375 54.6875 
L 12.5 54.6875 
L 29.59375 11.921875 
L 46.6875 54.6875 
L 56.203125 54.6875 
z
" id="DejaVuSans-121"/>
      </defs>
      <use xlink:href="#DejaVuSans-112"/>
      <use x="63.476562" xlink:href="#DejaVuSans-114"/>
      <use x="102.339844" xlink:href="#DejaVuSans-101"/>
      <use x="163.863281" xlink:href="#DejaVuSans-100"/>
      <use x="227.339844" xlink:href="#DejaVuSans-105"/>
      <use x="255.123047" xlink:href="#DejaVuSans-99"/>
      <use x="310.103516" xlink:href="#DejaVuSans-116"/>
      <use x="349.3125" xlink:href="#DejaVuSans-105"/>
      <use x="377.095703" xlink:href="#DejaVuSans-111"/>
      <use x="438.277344" xlink:href="#DejaVuSans-110"/>
      <use x="501.65625" xlink:href="#DejaVuSans-32"/>
      <use x="533.443359" xlink:href="#DejaVuSans-97"/>
      <use x="594.722656" xlink:href="#DejaVuSans-99"/>
      <use x="649.703125" xlink:href="#DejaVuSans-99"/>
      <use x="704.683594" xlink:href="#DejaVuSans-117"/>
      <use x="768.0625" xlink:href="#DejaVuSans-114"/>
      <use x="809.175781" xlink:href="#DejaVuSans-97"/>
      <use x="870.455078" xlink:href="#DejaVuSans-99"/>
      <use x="925.435547" xlink:href="#DejaVuSans-121"/>
     </g>
    </g>
   </g>
   <g id="line2d_9">
    <path clip-path="url(#pab4367e5d8)" d="M 275.4 304.799513 
L 275.4 125.040487 
" style="fill:none;stroke:#3f3f3f;stroke-linecap:square;stroke-width:2.25;"/>
   </g>
   <g id="line2d_10">
    <path clip-path="url(#pab4367e5d8)" d="M 275.4 260.723983 
L 275.4 130.213947 
" style="fill:none;stroke:#3f3f3f;stroke-linecap:square;stroke-width:6.75;"/>
   </g>
   <g id="line2d_11">
    <path clip-path="url(#pab4367e5d8)" d="M 610.2 312.978205 
L 610.2 155.367479 
" style="fill:none;stroke:#3f3f3f;stroke-linecap:square;stroke-width:2.25;"/>
   </g>
   <g id="line2d_12">
    <path clip-path="url(#pab4367e5d8)" d="M 610.2 277.428467 
L 610.2 224.130378 
" style="fill:none;stroke:#3f3f3f;stroke-linecap:square;stroke-width:6.75;"/>
   </g>
   <g id="patch_3">
    <path d="M 108 378 
L 108 51.84 
" style="fill:none;stroke:#000000;stroke-linecap:square;stroke-linejoin:miter;stroke-width:1.875;"/>
   </g>
   <g id="patch_4">
    <path d="M 777.6 378 
L 777.6 51.84 
" style="fill:none;stroke:#000000;stroke-linecap:square;stroke-linejoin:miter;stroke-width:1.875;"/>
   </g>
   <g id="patch_5">
    <path d="M 108 378 
L 777.6 378 
" style="fill:none;stroke:#000000;stroke-linecap:square;stroke-linejoin:miter;stroke-width:1.875;"/>
   </g>
   <g id="patch_6">
    <path d="M 108 51.84 
L 777.6 51.84 
" style="fill:none;stroke:#000000;stroke-linecap:square;stroke-linejoin:miter;stroke-width:1.875;"/>
   </g>
   <g id="PathCollection_1">
    <defs>
     <path d="M 0 2.25 
C 0.596707 2.25 1.169055 2.012926 1.59099 1.59099 
C 2.012926 1.169055 2.25 0.596707 2.25 0 
C 2.25 -0.596707 2.012926 -1.169055 1.59099 -1.59099 
C 1.169055 -2.012926 0.596707 -2.25 0 -2.25 
C -0.596707 -2.25 -1.169055 -2.012926 -1.59099 -1.59099 
C -2.012926 -1.169055 -2.25 -0.596707 -2.25 0 
C -2.25 0.596707 -2.012926 1.169055 -1.59099 1.59099 
C -1.169055 2.012926 -0.596707 2.25 0 2.25 
z
" id="m458980a043" style="stroke:#3f3f3f;stroke-width:1.5;"/>
    </defs>
    <g clip-path="url(#pab4367e5d8)">
     <use style="fill:#ffffff;stroke:#3f3f3f;stroke-width:1.5;" x="275.4" xlink:href="#m458980a043" y="151.378105"/>
    </g>
   </g>
   <g id="PathCollection_2">
    <g clip-path="url(#pab4367e5d8)">
     <use style="fill:#ffffff;stroke:#3f3f3f;stroke-width:1.5;" x="610.2" xlink:href="#m458980a043" y="258.951883"/>
    </g>
   </g>
  </g>
 </g>
 <defs>
  <clipPath id="pab4367e5d8">
   <rect height="326.16" width="669.6" x="108" y="51.84"/>
  </clipPath>
 </defs>
</svg>
