<?xml version="1.0" encoding="utf-8" standalone="no"?>
<!DOCTYPE svg PUBLIC "-//W3C//DTD SVG 1.1//EN"
  "http://www.w3.org/Graphics/SVG/1.1/DTD/svg11.dtd">
<!-- Created with matplotlib (https://matplotlib.org/) -->
<svg height="432pt" version="1.1" viewBox="0 0 864 432" width="864pt" xmlns="http://www.w3.org/2000/svg" xmlns:xlink="http://www.w3.org/1999/xlink">
 <metadata>
  <rdf:RDF xmlns:cc="http://creativecommons.org/ns#" xmlns:dc="http://purl.org/dc/elements/1.1/" xmlns:rdf="http://www.w3.org/1999/02/22-rdf-syntax-ns#">
   <cc:Work>
    <dc:type rdf:resource="http://purl.org/dc/dcmitype/StillImage"/>
    <dc:date>2023-04-16T12:00:24.137615</dc:date>
    <dc:format>image/svg+xml</dc:format>
    <dc:creator>
     <cc:Agent>
      <dc:title>Matplotlib v3.3.4, https://matplotlib.org/</dc:title>
     </cc:Agent>
    </dc:creator>
   </cc:Work>
  </rdf:RDF>
 </metadata>
 <defs>
  <style type="text/css">*{stroke-linecap:butt;stroke-linejoin:round;}</style>
 </defs>
 <g id="figure_1">
  <g id="patch_1">
   <path d="M 0 432 
L 864 432 
L 864 0 
L 0 0 
z
" style="fill:none;"/>
  </g>
  <g id="axes_1">
   <g id="patch_2">
    <path d="M 108 378 
L 777.6 378 
L 777.6 51.84 
L 108 51.84 
z
" style="fill:#ffffff;"/>
   </g>
   <g id="PolyCollection_1">
    <defs>
     <path d="M 276.358784 -116.37655 
L 274.441216 -116.37655 
L 274.197806 -118.723934 
L 273.912291 -121.071318 
L 273.582889 -123.418702 
L 273.209191 -125.766087 
L 272.792429 -128.113471 
L 272.335658 -130.460855 
L 271.843818 -132.808239 
L 271.323655 -135.155624 
L 270.783475 -137.503008 
L 270.232729 -139.850392 
L 269.681447 -142.197776 
L 269.139546 -144.545161 
L 268.616078 -146.892545 
L 268.118478 -149.239929 
L 267.651889 -151.587314 
L 267.218652 -153.934698 
L 266.818022 -156.282082 
L 266.446173 -158.629466 
L 266.096507 -160.976851 
L 265.760275 -163.324235 
L 265.427469 -165.671619 
L 265.087899 -168.019003 
L 264.732375 -170.366388 
L 264.353864 -172.713772 
L 263.948504 -175.061156 
L 263.516354 -177.40854 
L 263.061796 -179.755925 
L 262.593521 -182.103309 
L 262.124078 -184.450693 
L 261.66901 -186.798077 
L 261.245657 -189.145462 
L 260.871709 -191.492846 
L 260.563661 -193.84023 
L 260.335293 -196.187614 
L 260.196332 -198.534999 
L 260.151408 -200.882383 
L 260.199387 -203.229767 
L 260.333139 -205.577151 
L 260.539731 -207.924536 
L 260.800997 -210.27192 
L 261.094406 -212.619304 
L 261.394104 -214.966688 
L 261.672005 -217.314073 
L 261.89879 -219.661457 
L 262.044725 -222.008841 
L 262.080198 -224.356225 
L 261.975962 -226.70361 
L 261.70307 -229.050994 
L 261.232596 -231.398378 
L 260.535201 -233.745762 
L 259.5807 -236.093147 
L 258.337749 -238.440531 
L 256.773784 -240.787915 
L 254.855315 -243.135299 
L 252.548661 -245.482684 
L 249.821124 -247.830068 
L 246.642617 -250.177452 
L 242.98765 -252.524836 
L 238.837598 -254.872221 
L 234.183106 -257.219605 
L 229.026511 -259.566989 
L 223.384121 -261.914373 
L 217.288221 -264.261758 
L 210.78868 -266.609142 
L 203.954032 -268.956526 
L 196.871932 -271.30391 
L 189.64887 -273.651295 
L 182.409049 -275.998679 
L 175.292348 -278.346063 
L 168.451293 -280.693448 
L 162.047021 -283.040832 
L 156.244254 -285.388216 
L 151.205399 -287.7356 
L 147.083964 -290.082985 
L 144.017593 -292.430369 
L 142.121104 -294.777753 
L 141.48 -297.125137 
L 142.144932 -299.472522 
L 144.127626 -301.819906 
L 147.398664 -304.16729 
L 151.887446 -306.514674 
L 157.484451 -308.862059 
L 164.045747 -311.209443 
L 171.399514 -313.556827 
L 179.354118 -315.904211 
L 187.707206 -318.251596 
L 196.255121 -320.59898 
L 204.801999 -322.946364 
L 213.16791 -325.293748 
L 221.195527 -327.641133 
L 228.754965 -329.988517 
L 235.746616 -332.335901 
L 242.10197 -334.683285 
L 247.782597 -337.03067 
L 252.777575 -339.378054 
L 257.099767 -341.725438 
L 260.781351 -344.072822 
L 263.869035 -346.420207 
L 266.419326 -348.767591 
L 284.380674 -348.767591 
L 284.380674 -348.767591 
L 286.930965 -346.420207 
L 290.018649 -344.072822 
L 293.700233 -341.725438 
L 298.022425 -339.378054 
L 303.017403 -337.03067 
L 308.69803 -334.683285 
L 315.053384 -332.335901 
L 322.045035 -329.988517 
L 329.604473 -327.641133 
L 337.63209 -325.293748 
L 345.998001 -322.946364 
L 354.544879 -320.59898 
L 363.092794 -318.251596 
L 371.445882 -315.904211 
L 379.400486 -313.556827 
L 386.754253 -311.209443 
L 393.315549 -308.862059 
L 398.912554 -306.514674 
L 403.401336 -304.16729 
L 406.672374 -301.819906 
L 408.655068 -299.472522 
L 409.32 -297.125137 
L 408.678896 -294.777753 
L 406.782407 -292.430369 
L 403.716036 -290.082985 
L 399.594601 -287.7356 
L 394.555746 -285.388216 
L 388.752979 -283.040832 
L 382.348707 -280.693448 
L 375.507652 -278.346063 
L 368.390951 -275.998679 
L 361.15113 -273.651295 
L 353.928068 -271.30391 
L 346.845968 -268.956526 
L 340.01132 -266.609142 
L 333.511779 -264.261758 
L 327.415879 -261.914373 
L 321.773489 -259.566989 
L 316.616894 -257.219605 
L 311.962402 -254.872221 
L 307.81235 -252.524836 
L 304.157383 -250.177452 
L 300.978876 -247.830068 
L 298.251339 -245.482684 
L 295.944685 -243.135299 
L 294.026216 -240.787915 
L 292.462251 -238.440531 
L 291.2193 -236.093147 
L 290.264799 -233.745762 
L 289.567404 -231.398378 
L 289.09693 -229.050994 
L 288.824038 -226.70361 
L 288.719802 -224.356225 
L 288.755275 -222.008841 
L 288.90121 -219.661457 
L 289.127995 -217.314073 
L 289.405896 -214.966688 
L 289.705594 -212.619304 
L 289.999003 -210.27192 
L 290.260269 -207.924536 
L 290.466861 -205.577151 
L 290.600613 -203.229767 
L 290.648592 -200.882383 
L 290.603668 -198.534999 
L 290.464707 -196.187614 
L 290.236339 -193.84023 
L 289.928291 -191.492846 
L 289.554343 -189.145462 
L 289.13099 -186.798077 
L 288.675922 -184.450693 
L 288.206479 -182.103309 
L 287.738204 -179.755925 
L 287.283646 -177.40854 
L 286.851496 -175.061156 
L 286.446136 -172.713772 
L 286.067625 -170.366388 
L 285.712101 -168.019003 
L 285.372531 -165.671619 
L 285.039725 -163.324235 
L 284.703493 -160.976851 
L 284.353827 -158.629466 
L 283.981978 -156.282082 
L 283.581348 -153.934698 
L 283.148111 -151.587314 
L 282.681522 -149.239929 
L 282.183922 -146.892545 
L 281.660454 -144.545161 
L 281.118553 -142.197776 
L 280.567271 -139.850392 
L 280.016525 -137.503008 
L 279.476345 -135.155624 
L 278.956182 -132.808239 
L 278.464342 -130.460855 
L 278.007571 -128.113471 
L 277.590809 -125.766087 
L 277.217111 -123.418702 
L 276.887709 -121.071318 
L 276.602194 -118.723934 
L 276.358784 -116.37655 
z
" id="mb1fbe6f6fe" style="stroke:#3f3f3f;stroke-width:2.25;"/>
    </defs>
    <g clip-path="url(#p8efe1fdd98)">
     <use style="fill:#3274a1;stroke:#3f3f3f;stroke-width:2.25;" x="0" xlink:href="#mb1fbe6f6fe" y="432"/>
    </g>
   </g>
   <g id="PolyCollection_2">
    <defs>
     <path d="M 611.126895 -68.825455 
L 609.273105 -68.825455 
L 609.030592 -71.820496 
L 608.736306 -74.815537 
L 608.38199 -77.810579 
L 607.958604 -80.80562 
L 607.456332 -83.800661 
L 606.864602 -86.795702 
L 606.172129 -89.790744 
L 605.366993 -92.785785 
L 604.436753 -95.780826 
L 603.36862 -98.775868 
L 602.149703 -101.770909 
L 600.767323 -104.76595 
L 599.209433 -107.760992 
L 597.46513 -110.756033 
L 595.525255 -113.751074 
L 593.383087 -116.746116 
L 591.035092 -119.741157 
L 588.4817 -122.736198 
L 585.728066 -125.73124 
L 582.784766 -128.726281 
L 579.668356 -131.721322 
L 576.401757 -134.716364 
L 573.014395 -137.711405 
L 569.542049 -140.706446 
L 566.026404 -143.701488 
L 562.514261 -146.696529 
L 559.056449 -149.69157 
L 555.706455 -152.686612 
L 552.518835 -155.681653 
L 549.54748 -158.676694 
L 546.843817 -161.671736 
L 544.455056 -164.666777 
L 542.422556 -167.661818 
L 540.78041 -170.65686 
L 539.554313 -173.651901 
L 538.760774 -176.646942 
L 538.40669 -179.641983 
L 538.489306 -182.637025 
L 538.996527 -185.632066 
L 539.907557 -188.627107 
L 541.193813 -191.622149 
L 542.820035 -194.61719 
L 544.745546 -197.612231 
L 546.925562 -200.607273 
L 549.312518 -203.602314 
L 551.857334 -206.597355 
L 554.510585 -209.592397 
L 557.223547 -212.587438 
L 559.949109 -215.582479 
L 562.64255 -218.577521 
L 565.262178 -221.572562 
L 567.769877 -224.567603 
L 570.131557 -227.562645 
L 572.317547 -230.557686 
L 574.302937 -233.552727 
L 576.06789 -236.547769 
L 577.597925 -239.54281 
L 578.884165 -242.537851 
L 579.923533 -245.532893 
L 580.718879 -248.527934 
L 581.279019 -251.522975 
L 581.618638 -254.518017 
L 581.758062 -257.513058 
L 581.722843 -260.508099 
L 581.543179 -263.50314 
L 581.253143 -266.498182 
L 580.889735 -269.493223 
L 580.491787 -272.488264 
L 580.098741 -275.483306 
L 579.749362 -278.478347 
L 579.480418 -281.473388 
L 579.325402 -284.46843 
L 579.313352 -287.463471 
L 579.467826 -290.458512 
L 579.806094 -293.453554 
L 580.338578 -296.448595 
L 581.068586 -299.443636 
L 581.992355 -302.438678 
L 583.099387 -305.433719 
L 584.373083 -308.42876 
L 585.791617 -311.423802 
L 587.329021 -314.418843 
L 588.9564 -317.413884 
L 590.643221 -320.408926 
L 592.358603 -323.403967 
L 594.07254 -326.399008 
L 595.756989 -329.39405 
L 597.386784 -332.389091 
L 598.940339 -335.384132 
L 600.400114 -338.379174 
L 601.752851 -341.374215 
L 602.989584 -344.369256 
L 604.105449 -347.364298 
L 605.099337 -350.359339 
L 605.973417 -353.35438 
L 606.732583 -356.349421 
L 607.383858 -359.344463 
L 607.935805 -362.339504 
L 608.397959 -365.334545 
L 612.002041 -365.334545 
L 612.002041 -365.334545 
L 612.464195 -362.339504 
L 613.016142 -359.344463 
L 613.667417 -356.349421 
L 614.426583 -353.35438 
L 615.300663 -350.359339 
L 616.294551 -347.364298 
L 617.410416 -344.369256 
L 618.647149 -341.374215 
L 619.999886 -338.379174 
L 621.459661 -335.384132 
L 623.013216 -332.389091 
L 624.643011 -329.39405 
L 626.32746 -326.399008 
L 628.041397 -323.403967 
L 629.756779 -320.408926 
L 631.4436 -317.413884 
L 633.070979 -314.418843 
L 634.608383 -311.423802 
L 636.026917 -308.42876 
L 637.300613 -305.433719 
L 638.407645 -302.438678 
L 639.331414 -299.443636 
L 640.061422 -296.448595 
L 640.593906 -293.453554 
L 640.932174 -290.458512 
L 641.086648 -287.463471 
L 641.074598 -284.46843 
L 640.919582 -281.473388 
L 640.650638 -278.478347 
L 640.301259 -275.483306 
L 639.908213 -272.488264 
L 639.510265 -269.493223 
L 639.146857 -266.498182 
L 638.856821 -263.50314 
L 638.677157 -260.508099 
L 638.641938 -257.513058 
L 638.781362 -254.518017 
L 639.120981 -251.522975 
L 639.681121 -248.527934 
L 640.476467 -245.532893 
L 641.515835 -242.537851 
L 642.802075 -239.54281 
L 644.33211 -236.547769 
L 646.097063 -233.552727 
L 648.082453 -230.557686 
L 650.268443 -227.562645 
L 652.630123 -224.567603 
L 655.137822 -221.572562 
L 657.75745 -218.577521 
L 660.450891 -215.582479 
L 663.176453 -212.587438 
L 665.889415 -209.592397 
L 668.542666 -206.597355 
L 671.087482 -203.602314 
L 673.474438 -200.607273 
L 675.654454 -197.612231 
L 677.579965 -194.61719 
L 679.206187 -191.622149 
L 680.492443 -188.627107 
L 681.403473 -185.632066 
L 681.910694 -182.637025 
L 681.99331 -179.641983 
L 681.639226 -176.646942 
L 680.845687 -173.651901 
L 679.61959 -170.65686 
L 677.977444 -167.661818 
L 675.944944 -164.666777 
L 673.556183 -161.671736 
L 670.85252 -158.676694 
L 667.881165 -155.681653 
L 664.693545 -152.686612 
L 661.343551 -149.69157 
L 657.885739 -146.696529 
L 654.373596 -143.701488 
L 650.857951 -140.706446 
L 647.385605 -137.711405 
L 643.998243 -134.716364 
L 640.731644 -131.721322 
L 637.615234 -128.726281 
L 634.671934 -125.73124 
L 631.9183 -122.736198 
L 629.364908 -119.741157 
L 627.016913 -116.746116 
L 624.874745 -113.751074 
L 622.93487 -110.756033 
L 621.190567 -107.760992 
L 619.632677 -104.76595 
L 618.250297 -101.770909 
L 617.03138 -98.775868 
L 615.963247 -95.780826 
L 615.033007 -92.785785 
L 614.227871 -89.790744 
L 613.535398 -86.795702 
L 612.943668 -83.800661 
L 612.441396 -80.80562 
L 612.01801 -77.810579 
L 611.663694 -74.815537 
L 611.369408 -71.820496 
L 611.126895 -68.825455 
z
" id="m4871f62546" style="stroke:#3f3f3f;stroke-width:2.25;"/>
    </defs>
    <g clip-path="url(#p8efe1fdd98)">
     <use style="fill:#e1812c;stroke:#3f3f3f;stroke-width:2.25;" x="0" xlink:href="#m4871f62546" y="432"/>
    </g>
   </g>
   <g id="matplotlib.axis_1">
    <g id="xtick_1">
     <g id="line2d_1">
      <defs>
       <path d="M 0 0 
L 0 9 
" id="mfd73179b27" style="stroke:#000000;stroke-width:1.875;"/>
      </defs>
      <g>
       <use style="stroke:#000000;stroke-width:1.875;" x="275.4" xlink:href="#mfd73179b27" y="378"/>
      </g>
     </g>
     <g id="text_1">
      <!-- blocked_rep -->
      <g transform="translate(225.849727 403.037422)scale(0.165 -0.165)">
       <defs>
        <path d="M 48.6875 27.296875 
Q 48.6875 37.203125 44.609375 42.84375 
Q 40.53125 48.484375 33.40625 48.484375 
Q 26.265625 48.484375 22.1875 42.84375 
Q 18.109375 37.203125 18.109375 27.296875 
Q 18.109375 17.390625 22.1875 11.75 
Q 26.265625 6.109375 33.40625 6.109375 
Q 40.53125 6.109375 44.609375 11.75 
Q 48.6875 17.390625 48.6875 27.296875 
z
M 18.109375 46.390625 
Q 20.953125 51.265625 25.265625 53.625 
Q 29.59375 56 35.59375 56 
Q 45.5625 56 51.78125 48.09375 
Q 58.015625 40.1875 58.015625 27.296875 
Q 58.015625 14.40625 51.78125 6.484375 
Q 45.5625 -1.421875 35.59375 -1.421875 
Q 29.59375 -1.421875 25.265625 0.953125 
Q 20.953125 3.328125 18.109375 8.203125 
L 18.109375 0 
L 9.078125 0 
L 9.078125 75.984375 
L 18.109375 75.984375 
z
" id="DejaVuSans-98"/>
        <path d="M 9.421875 75.984375 
L 18.40625 75.984375 
L 18.40625 0 
L 9.421875 0 
z
" id="DejaVuSans-108"/>
        <path d="M 30.609375 48.390625 
Q 23.390625 48.390625 19.1875 42.75 
Q 14.984375 37.109375 14.984375 27.296875 
Q 14.984375 17.484375 19.15625 11.84375 
Q 23.34375 6.203125 30.609375 6.203125 
Q 37.796875 6.203125 41.984375 11.859375 
Q 46.1875 17.53125 46.1875 27.296875 
Q 46.1875 37.015625 41.984375 42.703125 
Q 37.796875 48.390625 30.609375 48.390625 
z
M 30.609375 56 
Q 42.328125 56 49.015625 48.375 
Q 55.71875 40.765625 55.71875 27.296875 
Q 55.71875 13.875 49.015625 6.21875 
Q 42.328125 -1.421875 30.609375 -1.421875 
Q 18.84375 -1.421875 12.171875 6.21875 
Q 5.515625 13.875 5.515625 27.296875 
Q 5.515625 40.765625 12.171875 48.375 
Q 18.84375 56 30.609375 56 
z
" id="DejaVuSans-111"/>
        <path d="M 48.78125 52.59375 
L 48.78125 44.1875 
Q 44.96875 46.296875 41.140625 47.34375 
Q 37.3125 48.390625 33.40625 48.390625 
Q 24.65625 48.390625 19.8125 42.84375 
Q 14.984375 37.3125 14.984375 27.296875 
Q 14.984375 17.28125 19.8125 11.734375 
Q 24.65625 6.203125 33.40625 6.203125 
Q 37.3125 6.203125 41.140625 7.25 
Q 44.96875 8.296875 48.78125 10.40625 
L 48.78125 2.09375 
Q 45.015625 0.34375 40.984375 -0.53125 
Q 36.96875 -1.421875 32.421875 -1.421875 
Q 20.0625 -1.421875 12.78125 6.34375 
Q 5.515625 14.109375 5.515625 27.296875 
Q 5.515625 40.671875 12.859375 48.328125 
Q 20.21875 56 33.015625 56 
Q 37.15625 56 41.109375 55.140625 
Q 45.0625 54.296875 48.78125 52.59375 
z
" id="DejaVuSans-99"/>
        <path d="M 9.078125 75.984375 
L 18.109375 75.984375 
L 18.109375 31.109375 
L 44.921875 54.6875 
L 56.390625 54.6875 
L 27.390625 29.109375 
L 57.625 0 
L 45.90625 0 
L 18.109375 26.703125 
L 18.109375 0 
L 9.078125 0 
z
" id="DejaVuSans-107"/>
        <path d="M 56.203125 29.59375 
L 56.203125 25.203125 
L 14.890625 25.203125 
Q 15.484375 15.921875 20.484375 11.0625 
Q 25.484375 6.203125 34.421875 6.203125 
Q 39.59375 6.203125 44.453125 7.46875 
Q 49.3125 8.734375 54.109375 11.28125 
L 54.109375 2.78125 
Q 49.265625 0.734375 44.1875 -0.34375 
Q 39.109375 -1.421875 33.890625 -1.421875 
Q 20.796875 -1.421875 13.15625 6.1875 
Q 5.515625 13.8125 5.515625 26.8125 
Q 5.515625 40.234375 12.765625 48.109375 
Q 20.015625 56 32.328125 56 
Q 43.359375 56 49.78125 48.890625 
Q 56.203125 41.796875 56.203125 29.59375 
z
M 47.21875 32.234375 
Q 47.125 39.59375 43.09375 43.984375 
Q 39.0625 48.390625 32.421875 48.390625 
Q 24.90625 48.390625 20.390625 44.140625 
Q 15.875 39.890625 15.1875 32.171875 
z
" id="DejaVuSans-101"/>
        <path d="M 45.40625 46.390625 
L 45.40625 75.984375 
L 54.390625 75.984375 
L 54.390625 0 
L 45.40625 0 
L 45.40625 8.203125 
Q 42.578125 3.328125 38.25 0.953125 
Q 33.9375 -1.421875 27.875 -1.421875 
Q 17.96875 -1.421875 11.734375 6.484375 
Q 5.515625 14.40625 5.515625 27.296875 
Q 5.515625 40.1875 11.734375 48.09375 
Q 17.96875 56 27.875 56 
Q 33.9375 56 38.25 53.625 
Q 42.578125 51.265625 45.40625 46.390625 
z
M 14.796875 27.296875 
Q 14.796875 17.390625 18.875 11.75 
Q 22.953125 6.109375 30.078125 6.109375 
Q 37.203125 6.109375 41.296875 11.75 
Q 45.40625 17.390625 45.40625 27.296875 
Q 45.40625 37.203125 41.296875 42.84375 
Q 37.203125 48.484375 30.078125 48.484375 
Q 22.953125 48.484375 18.875 42.84375 
Q 14.796875 37.203125 14.796875 27.296875 
z
" id="DejaVuSans-100"/>
        <path d="M 50.984375 -16.609375 
L 50.984375 -23.578125 
L -0.984375 -23.578125 
L -0.984375 -16.609375 
z
" id="DejaVuSans-95"/>
        <path d="M 41.109375 46.296875 
Q 39.59375 47.171875 37.8125 47.578125 
Q 36.03125 48 33.890625 48 
Q 26.265625 48 22.1875 43.046875 
Q 18.109375 38.09375 18.109375 28.8125 
L 18.109375 0 
L 9.078125 0 
L 9.078125 54.6875 
L 18.109375 54.6875 
L 18.109375 46.1875 
Q 20.953125 51.171875 25.484375 53.578125 
Q 30.03125 56 36.53125 56 
Q 37.453125 56 38.578125 55.875 
Q 39.703125 55.765625 41.0625 55.515625 
z
" id="DejaVuSans-114"/>
        <path d="M 18.109375 8.203125 
L 18.109375 -20.796875 
L 9.078125 -20.796875 
L 9.078125 54.6875 
L 18.109375 54.6875 
L 18.109375 46.390625 
Q 20.953125 51.265625 25.265625 53.625 
Q 29.59375 56 35.59375 56 
Q 45.5625 56 51.78125 48.09375 
Q 58.015625 40.1875 58.015625 27.296875 
Q 58.015625 14.40625 51.78125 6.484375 
Q 45.5625 -1.421875 35.59375 -1.421875 
Q 29.59375 -1.421875 25.265625 0.953125 
Q 20.953125 3.328125 18.109375 8.203125 
z
M 48.6875 27.296875 
Q 48.6875 37.203125 44.609375 42.84375 
Q 40.53125 48.484375 33.40625 48.484375 
Q 26.265625 48.484375 22.1875 42.84375 
Q 18.109375 37.203125 18.109375 27.296875 
Q 18.109375 17.390625 22.1875 11.75 
Q 26.265625 6.109375 33.40625 6.109375 
Q 40.53125 6.109375 44.609375 11.75 
Q 48.6875 17.390625 48.6875 27.296875 
z
" id="DejaVuSans-112"/>
       </defs>
       <use xlink:href="#DejaVuSans-98"/>
       <use x="63.476562" xlink:href="#DejaVuSans-108"/>
       <use x="91.259766" xlink:href="#DejaVuSans-111"/>
       <use x="152.441406" xlink:href="#DejaVuSans-99"/>
       <use x="207.421875" xlink:href="#DejaVuSans-107"/>
       <use x="261.707031" xlink:href="#DejaVuSans-101"/>
       <use x="323.230469" xlink:href="#DejaVuSans-100"/>
       <use x="386.707031" xlink:href="#DejaVuSans-95"/>
       <use x="436.707031" xlink:href="#DejaVuSans-114"/>
       <use x="475.570312" xlink:href="#DejaVuSans-101"/>
       <use x="537.09375" xlink:href="#DejaVuSans-112"/>
      </g>
     </g>
    </g>
    <g id="xtick_2">
     <g id="line2d_2">
      <g>
       <use style="stroke:#000000;stroke-width:1.875;" x="610.2" xlink:href="#mfd73179b27" y="378"/>
      </g>
     </g>
     <g id="text_2">
      <!-- interleaved_rep -->
      <g transform="translate(545.71207 403.037422)scale(0.165 -0.165)">
       <defs>
        <path d="M 9.421875 54.6875 
L 18.40625 54.6875 
L 18.40625 0 
L 9.421875 0 
z
M 9.421875 75.984375 
L 18.40625 75.984375 
L 18.40625 64.59375 
L 9.421875 64.59375 
z
" id="DejaVuSans-105"/>
        <path d="M 54.890625 33.015625 
L 54.890625 0 
L 45.90625 0 
L 45.90625 32.71875 
Q 45.90625 40.484375 42.875 44.328125 
Q 39.84375 48.1875 33.796875 48.1875 
Q 26.515625 48.1875 22.3125 43.546875 
Q 18.109375 38.921875 18.109375 30.90625 
L 18.109375 0 
L 9.078125 0 
L 9.078125 54.6875 
L 18.109375 54.6875 
L 18.109375 46.1875 
Q 21.34375 51.125 25.703125 53.5625 
Q 30.078125 56 35.796875 56 
Q 45.21875 56 50.046875 50.171875 
Q 54.890625 44.34375 54.890625 33.015625 
z
" id="DejaVuSans-110"/>
        <path d="M 18.3125 70.21875 
L 18.3125 54.6875 
L 36.8125 54.6875 
L 36.8125 47.703125 
L 18.3125 47.703125 
L 18.3125 18.015625 
Q 18.3125 11.328125 20.140625 9.421875 
Q 21.96875 7.515625 27.59375 7.515625 
L 36.8125 7.515625 
L 36.8125 0 
L 27.59375 0 
Q 17.1875 0 13.234375 3.875 
Q 9.28125 7.765625 9.28125 18.015625 
L 9.28125 47.703125 
L 2.6875 47.703125 
L 2.6875 54.6875 
L 9.28125 54.6875 
L 9.28125 70.21875 
z
" id="DejaVuSans-116"/>
        <path d="M 34.28125 27.484375 
Q 23.390625 27.484375 19.1875 25 
Q 14.984375 22.515625 14.984375 16.5 
Q 14.984375 11.71875 18.140625 8.90625 
Q 21.296875 6.109375 26.703125 6.109375 
Q 34.1875 6.109375 38.703125 11.40625 
Q 43.21875 16.703125 43.21875 25.484375 
L 43.21875 27.484375 
z
M 52.203125 31.203125 
L 52.203125 0 
L 43.21875 0 
L 43.21875 8.296875 
Q 40.140625 3.328125 35.546875 0.953125 
Q 30.953125 -1.421875 24.3125 -1.421875 
Q 15.921875 -1.421875 10.953125 3.296875 
Q 6 8.015625 6 15.921875 
Q 6 25.140625 12.171875 29.828125 
Q 18.359375 34.515625 30.609375 34.515625 
L 43.21875 34.515625 
L 43.21875 35.40625 
Q 43.21875 41.609375 39.140625 45 
Q 35.0625 48.390625 27.6875 48.390625 
Q 23 48.390625 18.546875 47.265625 
Q 14.109375 46.140625 10.015625 43.890625 
L 10.015625 52.203125 
Q 14.9375 54.109375 19.578125 55.046875 
Q 24.21875 56 28.609375 56 
Q 40.484375 56 46.34375 49.84375 
Q 52.203125 43.703125 52.203125 31.203125 
z
" id="DejaVuSans-97"/>
        <path d="M 2.984375 54.6875 
L 12.5 54.6875 
L 29.59375 8.796875 
L 46.6875 54.6875 
L 56.203125 54.6875 
L 35.6875 0 
L 23.484375 0 
z
" id="DejaVuSans-118"/>
       </defs>
       <use xlink:href="#DejaVuSans-105"/>
       <use x="27.783203" xlink:href="#DejaVuSans-110"/>
       <use x="91.162109" xlink:href="#DejaVuSans-116"/>
       <use x="130.371094" xlink:href="#DejaVuSans-101"/>
       <use x="191.894531" xlink:href="#DejaVuSans-114"/>
       <use x="233.007812" xlink:href="#DejaVuSans-108"/>
       <use x="260.791016" xlink:href="#DejaVuSans-101"/>
       <use x="322.314453" xlink:href="#DejaVuSans-97"/>
       <use x="383.59375" xlink:href="#DejaVuSans-118"/>
       <use x="442.773438" xlink:href="#DejaVuSans-101"/>
       <use x="504.296875" xlink:href="#DejaVuSans-100"/>
       <use x="567.773438" xlink:href="#DejaVuSans-95"/>
       <use x="617.773438" xlink:href="#DejaVuSans-114"/>
       <use x="656.636719" xlink:href="#DejaVuSans-101"/>
       <use x="718.160156" xlink:href="#DejaVuSans-112"/>
      </g>
     </g>
    </g>
    <g id="text_3">
     <!-- condition -->
     <g transform="translate(401.187656 424.605)scale(0.18 -0.18)">
      <use xlink:href="#DejaVuSans-99"/>
      <use x="54.980469" xlink:href="#DejaVuSans-111"/>
      <use x="116.162109" xlink:href="#DejaVuSans-110"/>
      <use x="179.541016" xlink:href="#DejaVuSans-100"/>
      <use x="243.017578" xlink:href="#DejaVuSans-105"/>
      <use x="270.800781" xlink:href="#DejaVuSans-116"/>
      <use x="310.009766" xlink:href="#DejaVuSans-105"/>
      <use x="337.792969" xlink:href="#DejaVuSans-111"/>
      <use x="398.974609" xlink:href="#DejaVuSans-110"/>
     </g>
    </g>
   </g>
   <g id="matplotlib.axis_2">
    <g id="ytick_1">
     <g id="line2d_3">
      <defs>
       <path d="M 0 0 
L -9 0 
" id="m1015c822f9" style="stroke:#000000;stroke-width:1.875;"/>
      </defs>
      <g>
       <use style="stroke:#000000;stroke-width:1.875;" x="108" xlink:href="#m1015c822f9" y="346.417366"/>
      </g>
     </g>
     <g id="text_4">
      <!-- 0.2 -->
      <g transform="translate(69.259844 352.686077)scale(0.165 -0.165)">
       <defs>
        <path d="M 31.78125 66.40625 
Q 24.171875 66.40625 20.328125 58.90625 
Q 16.5 51.421875 16.5 36.375 
Q 16.5 21.390625 20.328125 13.890625 
Q 24.171875 6.390625 31.78125 6.390625 
Q 39.453125 6.390625 43.28125 13.890625 
Q 47.125 21.390625 47.125 36.375 
Q 47.125 51.421875 43.28125 58.90625 
Q 39.453125 66.40625 31.78125 66.40625 
z
M 31.78125 74.21875 
Q 44.046875 74.21875 50.515625 64.515625 
Q 56.984375 54.828125 56.984375 36.375 
Q 56.984375 17.96875 50.515625 8.265625 
Q 44.046875 -1.421875 31.78125 -1.421875 
Q 19.53125 -1.421875 13.0625 8.265625 
Q 6.59375 17.96875 6.59375 36.375 
Q 6.59375 54.828125 13.0625 64.515625 
Q 19.53125 74.21875 31.78125 74.21875 
z
" id="DejaVuSans-48"/>
        <path d="M 10.6875 12.40625 
L 21 12.40625 
L 21 0 
L 10.6875 0 
z
" id="DejaVuSans-46"/>
        <path d="M 19.1875 8.296875 
L 53.609375 8.296875 
L 53.609375 0 
L 7.328125 0 
L 7.328125 8.296875 
Q 12.9375 14.109375 22.625 23.890625 
Q 32.328125 33.6875 34.8125 36.53125 
Q 39.546875 41.84375 41.421875 45.53125 
Q 43.3125 49.21875 43.3125 52.78125 
Q 43.3125 58.59375 39.234375 62.25 
Q 35.15625 65.921875 28.609375 65.921875 
Q 23.96875 65.921875 18.8125 64.3125 
Q 13.671875 62.703125 7.8125 59.421875 
L 7.8125 69.390625 
Q 13.765625 71.78125 18.9375 73 
Q 24.125 74.21875 28.421875 74.21875 
Q 39.75 74.21875 46.484375 68.546875 
Q 53.21875 62.890625 53.21875 53.421875 
Q 53.21875 48.921875 51.53125 44.890625 
Q 49.859375 40.875 45.40625 35.40625 
Q 44.1875 33.984375 37.640625 27.21875 
Q 31.109375 20.453125 19.1875 8.296875 
z
" id="DejaVuSans-50"/>
       </defs>
       <use xlink:href="#DejaVuSans-48"/>
       <use x="63.623047" xlink:href="#DejaVuSans-46"/>
       <use x="95.410156" xlink:href="#DejaVuSans-50"/>
      </g>
     </g>
    </g>
    <g id="ytick_2">
     <g id="line2d_4">
      <g>
       <use style="stroke:#000000;stroke-width:1.875;" x="108" xlink:href="#m1015c822f9" y="290.746948"/>
      </g>
     </g>
     <g id="text_5">
      <!-- 0.4 -->
      <g transform="translate(69.259844 297.015659)scale(0.165 -0.165)">
       <defs>
        <path d="M 37.796875 64.3125 
L 12.890625 25.390625 
L 37.796875 25.390625 
z
M 35.203125 72.90625 
L 47.609375 72.90625 
L 47.609375 25.390625 
L 58.015625 25.390625 
L 58.015625 17.1875 
L 47.609375 17.1875 
L 47.609375 0 
L 37.796875 0 
L 37.796875 17.1875 
L 4.890625 17.1875 
L 4.890625 26.703125 
z
" id="DejaVuSans-52"/>
       </defs>
       <use xlink:href="#DejaVuSans-48"/>
       <use x="63.623047" xlink:href="#DejaVuSans-46"/>
       <use x="95.410156" xlink:href="#DejaVuSans-52"/>
      </g>
     </g>
    </g>
    <g id="ytick_3">
     <g id="line2d_5">
      <g>
       <use style="stroke:#000000;stroke-width:1.875;" x="108" xlink:href="#m1015c822f9" y="235.076531"/>
      </g>
     </g>
     <g id="text_6">
      <!-- 0.6 -->
      <g transform="translate(69.259844 241.345242)scale(0.165 -0.165)">
       <defs>
        <path d="M 33.015625 40.375 
Q 26.375 40.375 22.484375 35.828125 
Q 18.609375 31.296875 18.609375 23.390625 
Q 18.609375 15.53125 22.484375 10.953125 
Q 26.375 6.390625 33.015625 6.390625 
Q 39.65625 6.390625 43.53125 10.953125 
Q 47.40625 15.53125 47.40625 23.390625 
Q 47.40625 31.296875 43.53125 35.828125 
Q 39.65625 40.375 33.015625 40.375 
z
M 52.59375 71.296875 
L 52.59375 62.3125 
Q 48.875 64.0625 45.09375 64.984375 
Q 41.3125 65.921875 37.59375 65.921875 
Q 27.828125 65.921875 22.671875 59.328125 
Q 17.53125 52.734375 16.796875 39.40625 
Q 19.671875 43.65625 24.015625 45.921875 
Q 28.375 48.1875 33.59375 48.1875 
Q 44.578125 48.1875 50.953125 41.515625 
Q 57.328125 34.859375 57.328125 23.390625 
Q 57.328125 12.15625 50.6875 5.359375 
Q 44.046875 -1.421875 33.015625 -1.421875 
Q 20.359375 -1.421875 13.671875 8.265625 
Q 6.984375 17.96875 6.984375 36.375 
Q 6.984375 53.65625 15.1875 63.9375 
Q 23.390625 74.21875 37.203125 74.21875 
Q 40.921875 74.21875 44.703125 73.484375 
Q 48.484375 72.75 52.59375 71.296875 
z
" id="DejaVuSans-54"/>
       </defs>
       <use xlink:href="#DejaVuSans-48"/>
       <use x="63.623047" xlink:href="#DejaVuSans-46"/>
       <use x="95.410156" xlink:href="#DejaVuSans-54"/>
      </g>
     </g>
    </g>
    <g id="ytick_4">
     <g id="line2d_6">
      <g>
       <use style="stroke:#000000;stroke-width:1.875;" x="108" xlink:href="#m1015c822f9" y="179.406113"/>
      </g>
     </g>
     <g id="text_7">
      <!-- 0.8 -->
      <g transform="translate(69.259844 185.674824)scale(0.165 -0.165)">
       <defs>
        <path d="M 31.78125 34.625 
Q 24.75 34.625 20.71875 30.859375 
Q 16.703125 27.09375 16.703125 20.515625 
Q 16.703125 13.921875 20.71875 10.15625 
Q 24.75 6.390625 31.78125 6.390625 
Q 38.8125 6.390625 42.859375 10.171875 
Q 46.921875 13.96875 46.921875 20.515625 
Q 46.921875 27.09375 42.890625 30.859375 
Q 38.875 34.625 31.78125 34.625 
z
M 21.921875 38.8125 
Q 15.578125 40.375 12.03125 44.71875 
Q 8.5 49.078125 8.5 55.328125 
Q 8.5 64.0625 14.71875 69.140625 
Q 20.953125 74.21875 31.78125 74.21875 
Q 42.671875 74.21875 48.875 69.140625 
Q 55.078125 64.0625 55.078125 55.328125 
Q 55.078125 49.078125 51.53125 44.71875 
Q 48 40.375 41.703125 38.8125 
Q 48.828125 37.15625 52.796875 32.3125 
Q 56.78125 27.484375 56.78125 20.515625 
Q 56.78125 9.90625 50.3125 4.234375 
Q 43.84375 -1.421875 31.78125 -1.421875 
Q 19.734375 -1.421875 13.25 4.234375 
Q 6.78125 9.90625 6.78125 20.515625 
Q 6.78125 27.484375 10.78125 32.3125 
Q 14.796875 37.15625 21.921875 38.8125 
z
M 18.3125 54.390625 
Q 18.3125 48.734375 21.84375 45.5625 
Q 25.390625 42.390625 31.78125 42.390625 
Q 38.140625 42.390625 41.71875 45.5625 
Q 45.3125 48.734375 45.3125 54.390625 
Q 45.3125 60.0625 41.71875 63.234375 
Q 38.140625 66.40625 31.78125 66.40625 
Q 25.390625 66.40625 21.84375 63.234375 
Q 18.3125 60.0625 18.3125 54.390625 
z
" id="DejaVuSans-56"/>
       </defs>
       <use xlink:href="#DejaVuSans-48"/>
       <use x="63.623047" xlink:href="#DejaVuSans-46"/>
       <use x="95.410156" xlink:href="#DejaVuSans-56"/>
      </g>
     </g>
    </g>
    <g id="ytick_5">
     <g id="line2d_7">
      <g>
       <use style="stroke:#000000;stroke-width:1.875;" x="108" xlink:href="#m1015c822f9" y="123.735695"/>
      </g>
     </g>
     <g id="text_8">
      <!-- 1.0 -->
      <g transform="translate(69.259844 130.004406)scale(0.165 -0.165)">
       <defs>
        <path d="M 12.40625 8.296875 
L 28.515625 8.296875 
L 28.515625 63.921875 
L 10.984375 60.40625 
L 10.984375 69.390625 
L 28.421875 72.90625 
L 38.28125 72.90625 
L 38.28125 8.296875 
L 54.390625 8.296875 
L 54.390625 0 
L 12.40625 0 
z
" id="DejaVuSans-49"/>
       </defs>
       <use xlink:href="#DejaVuSans-49"/>
       <use x="63.623047" xlink:href="#DejaVuSans-46"/>
       <use x="95.410156" xlink:href="#DejaVuSans-48"/>
      </g>
     </g>
    </g>
    <g id="ytick_6">
     <g id="line2d_8">
      <g>
       <use style="stroke:#000000;stroke-width:1.875;" x="108" xlink:href="#m1015c822f9" y="68.065277"/>
      </g>
     </g>
     <g id="text_9">
      <!-- 1.2 -->
      <g transform="translate(69.259844 74.333988)scale(0.165 -0.165)">
       <use xlink:href="#DejaVuSans-49"/>
       <use x="63.623047" xlink:href="#DejaVuSans-46"/>
       <use x="95.410156" xlink:href="#DejaVuSans-50"/>
      </g>
     </g>
    </g>
    <g id="text_10">
     <!-- prediction accuracy -->
     <g transform="translate(61.516406 303.537656)rotate(-90)scale(0.18 -0.18)">
      <defs>
       <path id="DejaVuSans-32"/>
       <path d="M 8.5 21.578125 
L 8.5 54.6875 
L 17.484375 54.6875 
L 17.484375 21.921875 
Q 17.484375 14.15625 20.5 10.265625 
Q 23.53125 6.390625 29.59375 6.390625 
Q 36.859375 6.390625 41.078125 11.03125 
Q 45.3125 15.671875 45.3125 23.6875 
L 45.3125 54.6875 
L 54.296875 54.6875 
L 54.296875 0 
L 45.3125 0 
L 45.3125 8.40625 
Q 42.046875 3.421875 37.71875 1 
Q 33.40625 -1.421875 27.6875 -1.421875 
Q 18.265625 -1.421875 13.375 4.4375 
Q 8.5 10.296875 8.5 21.578125 
z
M 31.109375 56 
z
" id="DejaVuSans-117"/>
       <path d="M 32.171875 -5.078125 
Q 28.375 -14.84375 24.75 -17.8125 
Q 21.140625 -20.796875 15.09375 -20.796875 
L 7.90625 -20.796875 
L 7.90625 -13.28125 
L 13.1875 -13.28125 
Q 16.890625 -13.28125 18.9375 -11.515625 
Q 21 -9.765625 23.484375 -3.21875 
L 25.09375 0.875 
L 2.984375 54.6875 
L 12.5 54.6875 
L 29.59375 11.921875 
L 46.6875 54.6875 
L 56.203125 54.6875 
z
" id="DejaVuSans-121"/>
      </defs>
      <use xlink:href="#DejaVuSans-112"/>
      <use x="63.476562" xlink:href="#DejaVuSans-114"/>
      <use x="102.339844" xlink:href="#DejaVuSans-101"/>
      <use x="163.863281" xlink:href="#DejaVuSans-100"/>
      <use x="227.339844" xlink:href="#DejaVuSans-105"/>
      <use x="255.123047" xlink:href="#DejaVuSans-99"/>
      <use x="310.103516" xlink:href="#DejaVuSans-116"/>
      <use x="349.3125" xlink:href="#DejaVuSans-105"/>
      <use x="377.095703" xlink:href="#DejaVuSans-111"/>
      <use x="438.277344" xlink:href="#DejaVuSans-110"/>
      <use x="501.65625" xlink:href="#DejaVuSans-32"/>
      <use x="533.443359" xlink:href="#DejaVuSans-97"/>
      <use x="594.722656" xlink:href="#DejaVuSans-99"/>
      <use x="649.703125" xlink:href="#DejaVuSans-99"/>
      <use x="704.683594" xlink:href="#DejaVuSans-117"/>
      <use x="768.0625" xlink:href="#DejaVuSans-114"/>
      <use x="809.175781" xlink:href="#DejaVuSans-97"/>
      <use x="870.455078" xlink:href="#DejaVuSans-99"/>
      <use x="925.435547" xlink:href="#DejaVuSans-121"/>
     </g>
    </g>
   </g>
   <g id="line2d_9">
    <path clip-path="url(#p8efe1fdd98)" d="M 275.4 190.010002 
L 275.4 123.735695 
" style="fill:none;stroke:#3f3f3f;stroke-linecap:square;stroke-width:2.25;"/>
   </g>
   <g id="line2d_10">
    <path clip-path="url(#p8efe1fdd98)" d="M 275.4 153.257886 
L 275.4 128.555918 
" style="fill:none;stroke:#3f3f3f;stroke-linecap:square;stroke-width:6.75;"/>
   </g>
   <g id="line2d_11">
    <path clip-path="url(#p8efe1fdd98)" d="M 610.2 306.104305 
L 610.2 123.735695 
" style="fill:none;stroke:#3f3f3f;stroke-linecap:square;stroke-width:2.25;"/>
   </g>
   <g id="line2d_12">
    <path clip-path="url(#p8efe1fdd98)" d="M 610.2 261.844611 
L 610.2 186.44657 
" style="fill:none;stroke:#3f3f3f;stroke-linecap:square;stroke-width:6.75;"/>
   </g>
   <g id="patch_3">
    <path d="M 108 378 
L 108 51.84 
" style="fill:none;stroke:#000000;stroke-linecap:square;stroke-linejoin:miter;stroke-width:1.875;"/>
   </g>
   <g id="patch_4">
    <path d="M 777.6 378 
L 777.6 51.84 
" style="fill:none;stroke:#000000;stroke-linecap:square;stroke-linejoin:miter;stroke-width:1.875;"/>
   </g>
   <g id="patch_5">
    <path d="M 108 378 
L 777.6 378 
" style="fill:none;stroke:#000000;stroke-linecap:square;stroke-linejoin:miter;stroke-width:1.875;"/>
   </g>
   <g id="patch_6">
    <path d="M 108 51.84 
L 777.6 51.84 
" style="fill:none;stroke:#000000;stroke-linecap:square;stroke-linejoin:miter;stroke-width:1.875;"/>
   </g>
   <g id="PathCollection_1">
    <defs>
     <path d="M 0 2.25 
C 0.596707 2.25 1.169055 2.012926 1.59099 1.59099 
C 2.012926 1.169055 2.25 0.596707 2.25 0 
C 2.25 -0.596707 2.012926 -1.169055 1.59099 -1.59099 
C 1.169055 -2.012926 0.596707 -2.25 0 -2.25 
C -0.596707 -2.25 -1.169055 -2.012926 -1.59099 -1.59099 
C -2.012926 -1.169055 -2.25 -0.596707 -2.25 0 
C -2.25 0.596707 -2.012926 1.169055 -1.59099 1.59099 
C -1.169055 2.012926 -0.596707 2.25 0 2.25 
z
" id="m76107f77eb" style="stroke:#3f3f3f;stroke-width:1.5;"/>
    </defs>
    <g clip-path="url(#p8efe1fdd98)">
     <use style="fill:#ffffff;stroke:#3f3f3f;stroke-width:1.5;" x="275.4" xlink:href="#m76107f77eb" y="134.059193"/>
    </g>
   </g>
   <g id="PathCollection_2">
    <g clip-path="url(#p8efe1fdd98)">
     <use style="fill:#ffffff;stroke:#3f3f3f;stroke-width:1.5;" x="610.2" xlink:href="#m76107f77eb" y="238.546246"/>
    </g>
   </g>
  </g>
 </g>
 <defs>
  <clipPath id="p8efe1fdd98">
   <rect height="326.16" width="669.6" x="108" y="51.84"/>
  </clipPath>
 </defs>
</svg>
