<?xml version="1.0" encoding="utf-8" standalone="no"?>
<!DOCTYPE svg PUBLIC "-//W3C//DTD SVG 1.1//EN"
  "http://www.w3.org/Graphics/SVG/1.1/DTD/svg11.dtd">
<!-- Created with matplotlib (https://matplotlib.org/) -->
<svg height="432pt" version="1.1" viewBox="0 0 864 432" width="864pt" xmlns="http://www.w3.org/2000/svg" xmlns:xlink="http://www.w3.org/1999/xlink">
 <metadata>
  <rdf:RDF xmlns:cc="http://creativecommons.org/ns#" xmlns:dc="http://purl.org/dc/elements/1.1/" xmlns:rdf="http://www.w3.org/1999/02/22-rdf-syntax-ns#">
   <cc:Work>
    <dc:type rdf:resource="http://purl.org/dc/dcmitype/StillImage"/>
    <dc:date>2023-04-16T12:02:58.232362</dc:date>
    <dc:format>image/svg+xml</dc:format>
    <dc:creator>
     <cc:Agent>
      <dc:title>Matplotlib v3.3.4, https://matplotlib.org/</dc:title>
     </cc:Agent>
    </dc:creator>
   </cc:Work>
  </rdf:RDF>
 </metadata>
 <defs>
  <style type="text/css">*{stroke-linecap:butt;stroke-linejoin:round;}</style>
 </defs>
 <g id="figure_1">
  <g id="patch_1">
   <path d="M 0 432 
L 864 432 
L 864 0 
L 0 0 
z
" style="fill:none;"/>
  </g>
  <g id="axes_1">
   <g id="patch_2">
    <path d="M 108 378 
L 777.6 378 
L 777.6 51.84 
L 108 51.84 
z
" style="fill:#ffffff;"/>
   </g>
   <g id="PolyCollection_1">
    <defs>
     <path d="M 220.792629 -68.825455 
L 218.407371 -68.825455 
L 218.087475 -71.820496 
L 217.697731 -74.815537 
L 217.2273 -77.810579 
L 216.664759 -80.80562 
L 215.998345 -83.800661 
L 215.216266 -86.795702 
L 214.307083 -89.790744 
L 213.260163 -92.785785 
L 212.066181 -95.780826 
L 210.717686 -98.775868 
L 209.209679 -101.770909 
L 207.540212 -104.76595 
L 205.710963 -107.760992 
L 203.727766 -110.756033 
L 201.601048 -113.751074 
L 199.346161 -116.746116 
L 196.983554 -119.741157 
L 194.538766 -122.736198 
L 192.042209 -125.73124 
L 189.528728 -128.726281 
L 187.036927 -131.721322 
L 184.608271 -134.716364 
L 182.285975 -137.711405 
L 180.11373 -140.706446 
L 178.134291 -143.701488 
L 176.388007 -146.696529 
L 174.911348 -149.69157 
L 173.735511 -152.686612 
L 172.885174 -155.681653 
L 172.377472 -158.676694 
L 172.22125 -161.671736 
L 172.416655 -164.666777 
L 172.955063 -167.661818 
L 173.819389 -170.65686 
L 174.984724 -173.651901 
L 176.41929 -176.646942 
L 178.085646 -179.641983 
L 179.94207 -182.637025 
L 181.944044 -185.632066 
L 184.04575 -188.627107 
L 186.201505 -191.622149 
L 188.367046 -194.61719 
L 190.500625 -197.612231 
L 192.563853 -200.607273 
L 194.522291 -203.602314 
L 196.345773 -206.597355 
L 198.008493 -209.592397 
L 199.488878 -212.587438 
L 200.769318 -215.582479 
L 201.835789 -218.577521 
L 202.677448 -221.572562 
L 203.286245 -224.567603 
L 203.65662 -227.562645 
L 203.785309 -230.557686 
L 203.671298 -233.552727 
L 203.315929 -236.547769 
L 202.723154 -239.54281 
L 201.899912 -242.537851 
L 200.856583 -245.532893 
L 199.607489 -248.527934 
L 198.171351 -251.522975 
L 196.571666 -254.518017 
L 194.836921 -257.513058 
L 193.0006 -260.508099 
L 191.100928 -263.50314 
L 189.180322 -266.498182 
L 187.284549 -269.493223 
L 185.461582 -272.488264 
L 183.760213 -275.483306 
L 182.228459 -278.478347 
L 180.911845 -281.473388 
L 179.851664 -284.46843 
L 179.0833 -287.463471 
L 178.634725 -290.458512 
L 178.525274 -293.453554 
L 178.764759 -296.448595 
L 179.353007 -299.443636 
L 180.279847 -302.438678 
L 181.525552 -305.433719 
L 183.061713 -308.42876 
L 184.852506 -311.423802 
L 186.856247 -314.418843 
L 189.027178 -317.413884 
L 191.317348 -320.408926 
L 193.678492 -323.403967 
L 196.063819 -326.399008 
L 198.429588 -329.39405 
L 200.736437 -332.389091 
L 202.950387 -335.384132 
L 205.043512 -338.379174 
L 206.994261 -341.374215 
L 208.787472 -344.369256 
L 210.414088 -347.364298 
L 211.87065 -350.359339 
L 213.158611 -353.35438 
L 214.283536 -356.349421 
L 215.254256 -359.344463 
L 216.082005 -362.339504 
L 216.779615 -365.334545 
L 222.420385 -365.334545 
L 222.420385 -365.334545 
L 223.117995 -362.339504 
L 223.945744 -359.344463 
L 224.916464 -356.349421 
L 226.041389 -353.35438 
L 227.32935 -350.359339 
L 228.785912 -347.364298 
L 230.412528 -344.369256 
L 232.205739 -341.374215 
L 234.156488 -338.379174 
L 236.249613 -335.384132 
L 238.463563 -332.389091 
L 240.770412 -329.39405 
L 243.136181 -326.399008 
L 245.521508 -323.403967 
L 247.882652 -320.408926 
L 250.172822 -317.413884 
L 252.343753 -314.418843 
L 254.347494 -311.423802 
L 256.138287 -308.42876 
L 257.674448 -305.433719 
L 258.920153 -302.438678 
L 259.846993 -299.443636 
L 260.435241 -296.448595 
L 260.674726 -293.453554 
L 260.565275 -290.458512 
L 260.1167 -287.463471 
L 259.348336 -284.46843 
L 258.288155 -281.473388 
L 256.971541 -278.478347 
L 255.439787 -275.483306 
L 253.738418 -272.488264 
L 251.915451 -269.493223 
L 250.019678 -266.498182 
L 248.099072 -263.50314 
L 246.1994 -260.508099 
L 244.363079 -257.513058 
L 242.628334 -254.518017 
L 241.028649 -251.522975 
L 239.592511 -248.527934 
L 238.343417 -245.532893 
L 237.300088 -242.537851 
L 236.476846 -239.54281 
L 235.884071 -236.547769 
L 235.528702 -233.552727 
L 235.414691 -230.557686 
L 235.54338 -227.562645 
L 235.913755 -224.567603 
L 236.522552 -221.572562 
L 237.364211 -218.577521 
L 238.430682 -215.582479 
L 239.711122 -212.587438 
L 241.191507 -209.592397 
L 242.854227 -206.597355 
L 244.677709 -203.602314 
L 246.636147 -200.607273 
L 248.699375 -197.612231 
L 250.832954 -194.61719 
L 252.998495 -191.622149 
L 255.15425 -188.627107 
L 257.255956 -185.632066 
L 259.25793 -182.637025 
L 261.114354 -179.641983 
L 262.78071 -176.646942 
L 264.215276 -173.651901 
L 265.380611 -170.65686 
L 266.244937 -167.661818 
L 266.783345 -164.666777 
L 266.97875 -161.671736 
L 266.822528 -158.676694 
L 266.314826 -155.681653 
L 265.464489 -152.686612 
L 264.288652 -149.69157 
L 262.811993 -146.696529 
L 261.065709 -143.701488 
L 259.08627 -140.706446 
L 256.914025 -137.711405 
L 254.591729 -134.716364 
L 252.163073 -131.721322 
L 249.671272 -128.726281 
L 247.157791 -125.73124 
L 244.661234 -122.736198 
L 242.216446 -119.741157 
L 239.853839 -116.746116 
L 237.598952 -113.751074 
L 235.472234 -110.756033 
L 233.489037 -107.760992 
L 231.659788 -104.76595 
L 229.990321 -101.770909 
L 228.482314 -98.775868 
L 227.133819 -95.780826 
L 225.939837 -92.785785 
L 224.892917 -89.790744 
L 223.983734 -86.795702 
L 223.201655 -83.800661 
L 222.535241 -80.80562 
L 221.9727 -77.810579 
L 221.502269 -74.815537 
L 221.112525 -71.820496 
L 220.792629 -68.825455 
z
" id="md24a1e97ce" style="stroke:#3d3d3d;stroke-width:2.25;"/>
    </defs>
    <g clip-path="url(#p5e0734f4ec)">
     <use style="fill:#3274a1;stroke:#3d3d3d;stroke-width:2.25;" x="0" xlink:href="#md24a1e97ce" y="432"/>
    </g>
   </g>
   <g id="PolyCollection_2">
    <defs>
     <path d="M 443.425402 -73.362523 
L 442.174598 -73.362523 
L 441.970412 -76.194954 
L 441.710606 -79.027385 
L 441.383484 -81.859816 
L 440.975844 -84.692247 
L 440.473026 -87.524678 
L 439.859044 -90.357109 
L 439.11681 -93.189539 
L 438.228478 -96.02197 
L 437.175908 -98.854401 
L 435.941267 -101.686832 
L 434.507768 -104.519263 
L 432.860527 -107.351694 
L 430.987525 -110.184125 
L 428.880616 -113.016556 
L 426.536552 -115.848987 
L 423.957922 -118.681418 
L 421.153962 -121.513848 
L 418.141114 -124.346279 
L 414.943307 -127.17871 
L 411.591854 -130.011141 
L 408.124963 -132.843572 
L 404.586854 -135.676003 
L 401.026505 -138.508434 
L 397.496116 -141.340865 
L 394.049374 -144.173296 
L 390.739666 -147.005727 
L 387.618346 -149.838157 
L 384.733195 -152.670588 
L 382.127174 -155.503019 
L 379.837528 -158.33545 
L 377.895266 -161.167881 
L 376.325006 -164.000312 
L 375.145106 -166.832743 
L 374.368004 -169.665174 
L 374.000649 -172.497605 
L 374.044931 -175.330036 
L 374.498005 -178.162467 
L 375.352462 -180.994897 
L 376.596322 -183.827328 
L 378.212866 -186.659759 
L 380.180371 -189.49219 
L 382.471818 -192.324621 
L 385.054683 -195.157052 
L 387.890903 -197.989483 
L 390.937096 -200.821914 
L 394.145099 -203.654345 
L 397.462838 -206.486776 
L 400.83552 -209.319206 
L 404.207081 -212.151637 
L 407.521826 -214.984068 
L 410.726128 -217.816499 
L 413.770088 -220.64893 
L 416.609036 -223.481361 
L 419.204775 -226.313792 
L 421.526487 -229.146223 
L 423.551274 -231.978654 
L 425.264308 -234.811085 
L 426.658638 -237.643515 
L 427.734704 -240.475946 
L 428.499639 -243.308377 
L 428.966467 -246.140808 
L 429.153268 -248.973239 
L 429.082419 -251.80567 
L 428.779946 -254.638101 
L 428.275026 -257.470532 
L 427.599626 -260.302963 
L 426.788243 -263.135394 
L 425.877667 -265.967825 
L 424.906688 -268.800255 
L 423.915672 -271.632686 
L 422.945911 -274.465117 
L 422.038729 -277.297548 
L 421.234316 -280.129979 
L 420.570345 -282.96241 
L 420.080447 -285.794841 
L 419.792661 -288.627272 
L 419.727993 -291.459703 
L 419.899246 -294.292134 
L 420.310224 -297.124564 
L 420.955444 -299.956995 
L 421.820381 -302.789426 
L 422.882267 -305.621857 
L 424.11139 -308.454288 
L 425.472794 -311.286719 
L 426.928239 -314.11915 
L 428.438277 -316.951581 
L 429.964271 -319.784012 
L 431.470221 -322.616443 
L 432.924268 -325.448873 
L 434.299804 -328.281304 
L 435.576142 -331.113735 
L 436.738747 -333.946166 
L 437.779076 -336.778597 
L 438.69408 -339.611028 
L 439.485466 -342.443459 
L 440.158802 -345.27589 
L 440.722561 -348.108321 
L 441.187171 -350.940752 
L 441.56415 -353.773183 
L 444.03585 -353.773183 
L 444.03585 -353.773183 
L 444.412829 -350.940752 
L 444.877439 -348.108321 
L 445.441198 -345.27589 
L 446.114534 -342.443459 
L 446.90592 -339.611028 
L 447.820924 -336.778597 
L 448.861253 -333.946166 
L 450.023858 -331.113735 
L 451.300196 -328.281304 
L 452.675732 -325.448873 
L 454.129779 -322.616443 
L 455.635729 -319.784012 
L 457.161723 -316.951581 
L 458.671761 -314.11915 
L 460.127206 -311.286719 
L 461.48861 -308.454288 
L 462.717733 -305.621857 
L 463.779619 -302.789426 
L 464.644556 -299.956995 
L 465.289776 -297.124564 
L 465.700754 -294.292134 
L 465.872007 -291.459703 
L 465.807339 -288.627272 
L 465.519553 -285.794841 
L 465.029655 -282.96241 
L 464.365684 -280.129979 
L 463.561271 -277.297548 
L 462.654089 -274.465117 
L 461.684328 -271.632686 
L 460.693312 -268.800255 
L 459.722333 -265.967825 
L 458.811757 -263.135394 
L 458.000374 -260.302963 
L 457.324974 -257.470532 
L 456.820054 -254.638101 
L 456.517581 -251.80567 
L 456.446732 -248.973239 
L 456.633533 -246.140808 
L 457.100361 -243.308377 
L 457.865296 -240.475946 
L 458.941362 -237.643515 
L 460.335692 -234.811085 
L 462.048726 -231.978654 
L 464.073513 -229.146223 
L 466.395225 -226.313792 
L 468.990964 -223.481361 
L 471.829912 -220.64893 
L 474.873872 -217.816499 
L 478.078174 -214.984068 
L 481.392919 -212.151637 
L 484.76448 -209.319206 
L 488.137162 -206.486776 
L 491.454901 -203.654345 
L 494.662904 -200.821914 
L 497.709097 -197.989483 
L 500.545317 -195.157052 
L 503.128182 -192.324621 
L 505.419629 -189.49219 
L 507.387134 -186.659759 
L 509.003678 -183.827328 
L 510.247538 -180.994897 
L 511.101995 -178.162467 
L 511.555069 -175.330036 
L 511.599351 -172.497605 
L 511.231996 -169.665174 
L 510.454894 -166.832743 
L 509.274994 -164.000312 
L 507.704734 -161.167881 
L 505.762472 -158.33545 
L 503.472826 -155.503019 
L 500.866805 -152.670588 
L 497.981654 -149.838157 
L 494.860334 -147.005727 
L 491.550626 -144.173296 
L 488.103884 -141.340865 
L 484.573495 -138.508434 
L 481.013146 -135.676003 
L 477.475037 -132.843572 
L 474.008146 -130.011141 
L 470.656693 -127.17871 
L 467.458886 -124.346279 
L 464.446038 -121.513848 
L 461.642078 -118.681418 
L 459.063448 -115.848987 
L 456.719384 -113.016556 
L 454.612475 -110.184125 
L 452.739473 -107.351694 
L 451.092232 -104.519263 
L 449.658733 -101.686832 
L 448.424092 -98.854401 
L 447.371522 -96.02197 
L 446.48319 -93.189539 
L 445.740956 -90.357109 
L 445.126974 -87.524678 
L 444.624156 -84.692247 
L 444.216516 -81.859816 
L 443.889394 -79.027385 
L 443.629588 -76.194954 
L 443.425402 -73.362523 
z
" id="m2ef26580c7" style="stroke:#3d3d3d;stroke-width:2.25;"/>
    </defs>
    <g clip-path="url(#p5e0734f4ec)">
     <use style="fill:#e1812c;stroke:#3d3d3d;stroke-width:2.25;" x="0" xlink:href="#m2ef26580c7" y="432"/>
    </g>
   </g>
   <g id="PolyCollection_3">
    <defs>
     <path d="M 667.067371 -86.465771 
L 664.932629 -86.465771 
L 664.541197 -89.01976 
L 664.033913 -91.573749 
L 663.386457 -94.127738 
L 662.572532 -96.681726 
L 661.564619 -99.235715 
L 660.334999 -101.789704 
L 658.857023 -104.343693 
L 657.106572 -106.897682 
L 655.06363 -109.45167 
L 652.713871 -112.005659 
L 650.050115 -114.559648 
L 647.073519 -117.113637 
L 643.794369 -119.667626 
L 640.232341 -122.221614 
L 636.416192 -124.775603 
L 632.382844 -127.329592 
L 628.17594 -129.883581 
L 623.844011 -132.43757 
L 619.438437 -134.991558 
L 615.011455 -137.545547 
L 610.614452 -140.099536 
L 606.296745 -142.653525 
L 602.105005 -145.207514 
L 598.083361 -147.761502 
L 594.274109 -150.315491 
L 590.718854 -152.86948 
L 587.45981 -155.423469 
L 584.540929 -157.977458 
L 582.008543 -160.531446 
L 579.911233 -163.085435 
L 578.298758 -165.639424 
L 577.219996 -168.193413 
L 576.72 -170.747401 
L 576.836442 -173.30139 
L 577.595791 -175.855379 
L 579.009682 -178.409368 
L 581.071932 -180.963357 
L 583.756609 -183.517345 
L 587.017451 -186.071334 
L 590.788803 -188.625323 
L 594.988051 -191.179312 
L 599.519377 -193.733301 
L 604.278504 -196.287289 
L 609.158018 -198.841278 
L 614.052767 -201.395267 
L 618.864898 -203.949256 
L 623.508117 -206.503245 
L 627.910883 -209.057233 
L 632.018357 -211.611222 
L 635.793077 -214.165211 
L 639.214451 -216.7192 
L 642.277225 -219.273189 
L 644.989205 -221.827177 
L 647.368466 -224.381166 
L 649.440362 -226.935155 
L 651.234548 -229.489144 
L 652.782237 -232.043133 
L 654.113827 -234.597121 
L 655.257022 -237.15111 
L 656.235461 -239.705099 
L 657.06791 -242.259088 
L 657.767954 -244.813076 
L 658.344173 -247.367065 
L 658.800729 -249.921054 
L 659.138278 -252.475043 
L 659.355145 -255.029032 
L 659.448656 -257.58302 
L 659.416542 -260.137009 
L 659.25833 -262.690998 
L 658.976627 -265.244987 
L 658.578202 -267.798976 
L 658.074803 -270.352964 
L 657.483607 -272.906953 
L 656.827262 -275.460942 
L 656.133462 -278.014931 
L 655.434038 -280.56892 
L 654.763592 -283.122908 
L 654.157721 -285.676897 
L 653.650959 -288.230886 
L 653.274583 -290.784875 
L 653.054467 -293.338864 
L 653.00921 -295.892852 
L 653.148717 -298.446841 
L 653.473414 -301.00083 
L 653.974188 -303.554819 
L 654.633082 -306.108808 
L 655.424695 -308.662796 
L 656.318125 -311.216785 
L 657.279281 -313.770774 
L 658.273304 -316.324763 
L 659.266868 -318.878751 
L 660.230158 -321.43274 
L 661.138353 -323.986729 
L 661.972538 -326.540718 
L 662.720036 -329.094707 
L 663.374195 -331.648695 
L 663.933756 -334.202684 
L 664.401912 -336.756673 
L 664.785224 -339.310662 
L 667.214776 -339.310662 
L 667.214776 -339.310662 
L 667.598088 -336.756673 
L 668.066244 -334.202684 
L 668.625805 -331.648695 
L 669.279964 -329.094707 
L 670.027462 -326.540718 
L 670.861647 -323.986729 
L 671.769842 -321.43274 
L 672.733132 -318.878751 
L 673.726696 -316.324763 
L 674.720719 -313.770774 
L 675.681875 -311.216785 
L 676.575305 -308.662796 
L 677.366918 -306.108808 
L 678.025812 -303.554819 
L 678.526586 -301.00083 
L 678.851283 -298.446841 
L 678.99079 -295.892852 
L 678.945533 -293.338864 
L 678.725417 -290.784875 
L 678.349041 -288.230886 
L 677.842279 -285.676897 
L 677.236408 -283.122908 
L 676.565962 -280.56892 
L 675.866538 -278.014931 
L 675.172738 -275.460942 
L 674.516393 -272.906953 
L 673.925197 -270.352964 
L 673.421798 -267.798976 
L 673.023373 -265.244987 
L 672.74167 -262.690998 
L 672.583458 -260.137009 
L 672.551344 -257.58302 
L 672.644855 -255.029032 
L 672.861722 -252.475043 
L 673.199271 -249.921054 
L 673.655827 -247.367065 
L 674.232046 -244.813076 
L 674.93209 -242.259088 
L 675.764539 -239.705099 
L 676.742978 -237.15111 
L 677.886173 -234.597121 
L 679.217763 -232.043133 
L 680.765452 -229.489144 
L 682.559638 -226.935155 
L 684.631534 -224.381166 
L 687.010795 -221.827177 
L 689.722775 -219.273189 
L 692.785549 -216.7192 
L 696.206923 -214.165211 
L 699.981643 -211.611222 
L 704.089117 -209.057233 
L 708.491883 -206.503245 
L 713.135102 -203.949256 
L 717.947233 -201.395267 
L 722.841982 -198.841278 
L 727.721496 -196.287289 
L 732.480623 -193.733301 
L 737.011949 -191.179312 
L 741.211197 -188.625323 
L 744.982549 -186.071334 
L 748.243391 -183.517345 
L 750.928068 -180.963357 
L 752.990318 -178.409368 
L 754.404209 -175.855379 
L 755.163558 -173.30139 
L 755.28 -170.747401 
L 754.780004 -168.193413 
L 753.701242 -165.639424 
L 752.088767 -163.085435 
L 749.991457 -160.531446 
L 747.459071 -157.977458 
L 744.54019 -155.423469 
L 741.281146 -152.86948 
L 737.725891 -150.315491 
L 733.916639 -147.761502 
L 729.894995 -145.207514 
L 725.703255 -142.653525 
L 721.385548 -140.099536 
L 716.988545 -137.545547 
L 712.561563 -134.991558 
L 708.155989 -132.43757 
L 703.82406 -129.883581 
L 699.617156 -127.329592 
L 695.583808 -124.775603 
L 691.767659 -122.221614 
L 688.205631 -119.667626 
L 684.926481 -117.113637 
L 681.949885 -114.559648 
L 679.286129 -112.005659 
L 676.93637 -109.45167 
L 674.893428 -106.897682 
L 673.142977 -104.343693 
L 671.665001 -101.789704 
L 670.435381 -99.235715 
L 669.427468 -96.681726 
L 668.613543 -94.127738 
L 667.966087 -91.573749 
L 667.458803 -89.01976 
L 667.067371 -86.465771 
z
" id="m8281467945" style="stroke:#3d3d3d;stroke-width:2.25;"/>
    </defs>
    <g clip-path="url(#p5e0734f4ec)">
     <use style="fill:#3a923a;stroke:#3d3d3d;stroke-width:2.25;" x="0" xlink:href="#m8281467945" y="432"/>
    </g>
   </g>
   <g id="matplotlib.axis_1">
    <g id="xtick_1">
     <g id="line2d_1">
      <defs>
       <path d="M 0 0 
L 0 9 
" id="m1ecc9643ca" style="stroke:#000000;stroke-width:1.875;"/>
      </defs>
      <g>
       <use style="stroke:#000000;stroke-width:1.875;" x="219.6" xlink:href="#m1ecc9643ca" y="378"/>
      </g>
     </g>
     <g id="text_1">
      <!-- inserted_early_rep -->
      <g transform="translate(143.297812 403.037422)scale(0.165 -0.165)">
       <defs>
        <path d="M 9.421875 54.6875 
L 18.40625 54.6875 
L 18.40625 0 
L 9.421875 0 
z
M 9.421875 75.984375 
L 18.40625 75.984375 
L 18.40625 64.59375 
L 9.421875 64.59375 
z
" id="DejaVuSans-105"/>
        <path d="M 54.890625 33.015625 
L 54.890625 0 
L 45.90625 0 
L 45.90625 32.71875 
Q 45.90625 40.484375 42.875 44.328125 
Q 39.84375 48.1875 33.796875 48.1875 
Q 26.515625 48.1875 22.3125 43.546875 
Q 18.109375 38.921875 18.109375 30.90625 
L 18.109375 0 
L 9.078125 0 
L 9.078125 54.6875 
L 18.109375 54.6875 
L 18.109375 46.1875 
Q 21.34375 51.125 25.703125 53.5625 
Q 30.078125 56 35.796875 56 
Q 45.21875 56 50.046875 50.171875 
Q 54.890625 44.34375 54.890625 33.015625 
z
" id="DejaVuSans-110"/>
        <path d="M 44.28125 53.078125 
L 44.28125 44.578125 
Q 40.484375 46.53125 36.375 47.5 
Q 32.28125 48.484375 27.875 48.484375 
Q 21.1875 48.484375 17.84375 46.4375 
Q 14.5 44.390625 14.5 40.28125 
Q 14.5 37.15625 16.890625 35.375 
Q 19.28125 33.59375 26.515625 31.984375 
L 29.59375 31.296875 
Q 39.15625 29.25 43.1875 25.515625 
Q 47.21875 21.78125 47.21875 15.09375 
Q 47.21875 7.46875 41.1875 3.015625 
Q 35.15625 -1.421875 24.609375 -1.421875 
Q 20.21875 -1.421875 15.453125 -0.5625 
Q 10.6875 0.296875 5.421875 2 
L 5.421875 11.28125 
Q 10.40625 8.6875 15.234375 7.390625 
Q 20.0625 6.109375 24.8125 6.109375 
Q 31.15625 6.109375 34.5625 8.28125 
Q 37.984375 10.453125 37.984375 14.40625 
Q 37.984375 18.0625 35.515625 20.015625 
Q 33.0625 21.96875 24.703125 23.78125 
L 21.578125 24.515625 
Q 13.234375 26.265625 9.515625 29.90625 
Q 5.8125 33.546875 5.8125 39.890625 
Q 5.8125 47.609375 11.28125 51.796875 
Q 16.75 56 26.8125 56 
Q 31.78125 56 36.171875 55.265625 
Q 40.578125 54.546875 44.28125 53.078125 
z
" id="DejaVuSans-115"/>
        <path d="M 56.203125 29.59375 
L 56.203125 25.203125 
L 14.890625 25.203125 
Q 15.484375 15.921875 20.484375 11.0625 
Q 25.484375 6.203125 34.421875 6.203125 
Q 39.59375 6.203125 44.453125 7.46875 
Q 49.3125 8.734375 54.109375 11.28125 
L 54.109375 2.78125 
Q 49.265625 0.734375 44.1875 -0.34375 
Q 39.109375 -1.421875 33.890625 -1.421875 
Q 20.796875 -1.421875 13.15625 6.1875 
Q 5.515625 13.8125 5.515625 26.8125 
Q 5.515625 40.234375 12.765625 48.109375 
Q 20.015625 56 32.328125 56 
Q 43.359375 56 49.78125 48.890625 
Q 56.203125 41.796875 56.203125 29.59375 
z
M 47.21875 32.234375 
Q 47.125 39.59375 43.09375 43.984375 
Q 39.0625 48.390625 32.421875 48.390625 
Q 24.90625 48.390625 20.390625 44.140625 
Q 15.875 39.890625 15.1875 32.171875 
z
" id="DejaVuSans-101"/>
        <path d="M 41.109375 46.296875 
Q 39.59375 47.171875 37.8125 47.578125 
Q 36.03125 48 33.890625 48 
Q 26.265625 48 22.1875 43.046875 
Q 18.109375 38.09375 18.109375 28.8125 
L 18.109375 0 
L 9.078125 0 
L 9.078125 54.6875 
L 18.109375 54.6875 
L 18.109375 46.1875 
Q 20.953125 51.171875 25.484375 53.578125 
Q 30.03125 56 36.53125 56 
Q 37.453125 56 38.578125 55.875 
Q 39.703125 55.765625 41.0625 55.515625 
z
" id="DejaVuSans-114"/>
        <path d="M 18.3125 70.21875 
L 18.3125 54.6875 
L 36.8125 54.6875 
L 36.8125 47.703125 
L 18.3125 47.703125 
L 18.3125 18.015625 
Q 18.3125 11.328125 20.140625 9.421875 
Q 21.96875 7.515625 27.59375 7.515625 
L 36.8125 7.515625 
L 36.8125 0 
L 27.59375 0 
Q 17.1875 0 13.234375 3.875 
Q 9.28125 7.765625 9.28125 18.015625 
L 9.28125 47.703125 
L 2.6875 47.703125 
L 2.6875 54.6875 
L 9.28125 54.6875 
L 9.28125 70.21875 
z
" id="DejaVuSans-116"/>
        <path d="M 45.40625 46.390625 
L 45.40625 75.984375 
L 54.390625 75.984375 
L 54.390625 0 
L 45.40625 0 
L 45.40625 8.203125 
Q 42.578125 3.328125 38.25 0.953125 
Q 33.9375 -1.421875 27.875 -1.421875 
Q 17.96875 -1.421875 11.734375 6.484375 
Q 5.515625 14.40625 5.515625 27.296875 
Q 5.515625 40.1875 11.734375 48.09375 
Q 17.96875 56 27.875 56 
Q 33.9375 56 38.25 53.625 
Q 42.578125 51.265625 45.40625 46.390625 
z
M 14.796875 27.296875 
Q 14.796875 17.390625 18.875 11.75 
Q 22.953125 6.109375 30.078125 6.109375 
Q 37.203125 6.109375 41.296875 11.75 
Q 45.40625 17.390625 45.40625 27.296875 
Q 45.40625 37.203125 41.296875 42.84375 
Q 37.203125 48.484375 30.078125 48.484375 
Q 22.953125 48.484375 18.875 42.84375 
Q 14.796875 37.203125 14.796875 27.296875 
z
" id="DejaVuSans-100"/>
        <path d="M 50.984375 -16.609375 
L 50.984375 -23.578125 
L -0.984375 -23.578125 
L -0.984375 -16.609375 
z
" id="DejaVuSans-95"/>
        <path d="M 34.28125 27.484375 
Q 23.390625 27.484375 19.1875 25 
Q 14.984375 22.515625 14.984375 16.5 
Q 14.984375 11.71875 18.140625 8.90625 
Q 21.296875 6.109375 26.703125 6.109375 
Q 34.1875 6.109375 38.703125 11.40625 
Q 43.21875 16.703125 43.21875 25.484375 
L 43.21875 27.484375 
z
M 52.203125 31.203125 
L 52.203125 0 
L 43.21875 0 
L 43.21875 8.296875 
Q 40.140625 3.328125 35.546875 0.953125 
Q 30.953125 -1.421875 24.3125 -1.421875 
Q 15.921875 -1.421875 10.953125 3.296875 
Q 6 8.015625 6 15.921875 
Q 6 25.140625 12.171875 29.828125 
Q 18.359375 34.515625 30.609375 34.515625 
L 43.21875 34.515625 
L 43.21875 35.40625 
Q 43.21875 41.609375 39.140625 45 
Q 35.0625 48.390625 27.6875 48.390625 
Q 23 48.390625 18.546875 47.265625 
Q 14.109375 46.140625 10.015625 43.890625 
L 10.015625 52.203125 
Q 14.9375 54.109375 19.578125 55.046875 
Q 24.21875 56 28.609375 56 
Q 40.484375 56 46.34375 49.84375 
Q 52.203125 43.703125 52.203125 31.203125 
z
" id="DejaVuSans-97"/>
        <path d="M 9.421875 75.984375 
L 18.40625 75.984375 
L 18.40625 0 
L 9.421875 0 
z
" id="DejaVuSans-108"/>
        <path d="M 32.171875 -5.078125 
Q 28.375 -14.84375 24.75 -17.8125 
Q 21.140625 -20.796875 15.09375 -20.796875 
L 7.90625 -20.796875 
L 7.90625 -13.28125 
L 13.1875 -13.28125 
Q 16.890625 -13.28125 18.9375 -11.515625 
Q 21 -9.765625 23.484375 -3.21875 
L 25.09375 0.875 
L 2.984375 54.6875 
L 12.5 54.6875 
L 29.59375 11.921875 
L 46.6875 54.6875 
L 56.203125 54.6875 
z
" id="DejaVuSans-121"/>
        <path d="M 18.109375 8.203125 
L 18.109375 -20.796875 
L 9.078125 -20.796875 
L 9.078125 54.6875 
L 18.109375 54.6875 
L 18.109375 46.390625 
Q 20.953125 51.265625 25.265625 53.625 
Q 29.59375 56 35.59375 56 
Q 45.5625 56 51.78125 48.09375 
Q 58.015625 40.1875 58.015625 27.296875 
Q 58.015625 14.40625 51.78125 6.484375 
Q 45.5625 -1.421875 35.59375 -1.421875 
Q 29.59375 -1.421875 25.265625 0.953125 
Q 20.953125 3.328125 18.109375 8.203125 
z
M 48.6875 27.296875 
Q 48.6875 37.203125 44.609375 42.84375 
Q 40.53125 48.484375 33.40625 48.484375 
Q 26.265625 48.484375 22.1875 42.84375 
Q 18.109375 37.203125 18.109375 27.296875 
Q 18.109375 17.390625 22.1875 11.75 
Q 26.265625 6.109375 33.40625 6.109375 
Q 40.53125 6.109375 44.609375 11.75 
Q 48.6875 17.390625 48.6875 27.296875 
z
" id="DejaVuSans-112"/>
       </defs>
       <use xlink:href="#DejaVuSans-105"/>
       <use x="27.783203" xlink:href="#DejaVuSans-110"/>
       <use x="91.162109" xlink:href="#DejaVuSans-115"/>
       <use x="143.261719" xlink:href="#DejaVuSans-101"/>
       <use x="204.785156" xlink:href="#DejaVuSans-114"/>
       <use x="245.898438" xlink:href="#DejaVuSans-116"/>
       <use x="285.107422" xlink:href="#DejaVuSans-101"/>
       <use x="346.630859" xlink:href="#DejaVuSans-100"/>
       <use x="410.107422" xlink:href="#DejaVuSans-95"/>
       <use x="460.107422" xlink:href="#DejaVuSans-101"/>
       <use x="521.630859" xlink:href="#DejaVuSans-97"/>
       <use x="582.910156" xlink:href="#DejaVuSans-114"/>
       <use x="624.023438" xlink:href="#DejaVuSans-108"/>
       <use x="651.806641" xlink:href="#DejaVuSans-121"/>
       <use x="710.986328" xlink:href="#DejaVuSans-95"/>
       <use x="760.986328" xlink:href="#DejaVuSans-114"/>
       <use x="799.849609" xlink:href="#DejaVuSans-101"/>
       <use x="861.373047" xlink:href="#DejaVuSans-112"/>
      </g>
     </g>
    </g>
    <g id="xtick_2">
     <g id="line2d_2">
      <g>
       <use style="stroke:#000000;stroke-width:1.875;" x="442.8" xlink:href="#m1ecc9643ca" y="378"/>
      </g>
     </g>
     <g id="text_2">
      <!-- inserted_middle_rep -->
      <g transform="translate(359.025117 403.037422)scale(0.165 -0.165)">
       <defs>
        <path d="M 52 44.1875 
Q 55.375 50.25 60.0625 53.125 
Q 64.75 56 71.09375 56 
Q 79.640625 56 84.28125 50.015625 
Q 88.921875 44.046875 88.921875 33.015625 
L 88.921875 0 
L 79.890625 0 
L 79.890625 32.71875 
Q 79.890625 40.578125 77.09375 44.375 
Q 74.3125 48.1875 68.609375 48.1875 
Q 61.625 48.1875 57.5625 43.546875 
Q 53.515625 38.921875 53.515625 30.90625 
L 53.515625 0 
L 44.484375 0 
L 44.484375 32.71875 
Q 44.484375 40.625 41.703125 44.40625 
Q 38.921875 48.1875 33.109375 48.1875 
Q 26.21875 48.1875 22.15625 43.53125 
Q 18.109375 38.875 18.109375 30.90625 
L 18.109375 0 
L 9.078125 0 
L 9.078125 54.6875 
L 18.109375 54.6875 
L 18.109375 46.1875 
Q 21.1875 51.21875 25.484375 53.609375 
Q 29.78125 56 35.6875 56 
Q 41.65625 56 45.828125 52.96875 
Q 50 49.953125 52 44.1875 
z
" id="DejaVuSans-109"/>
       </defs>
       <use xlink:href="#DejaVuSans-105"/>
       <use x="27.783203" xlink:href="#DejaVuSans-110"/>
       <use x="91.162109" xlink:href="#DejaVuSans-115"/>
       <use x="143.261719" xlink:href="#DejaVuSans-101"/>
       <use x="204.785156" xlink:href="#DejaVuSans-114"/>
       <use x="245.898438" xlink:href="#DejaVuSans-116"/>
       <use x="285.107422" xlink:href="#DejaVuSans-101"/>
       <use x="346.630859" xlink:href="#DejaVuSans-100"/>
       <use x="410.107422" xlink:href="#DejaVuSans-95"/>
       <use x="460.107422" xlink:href="#DejaVuSans-109"/>
       <use x="557.519531" xlink:href="#DejaVuSans-105"/>
       <use x="585.302734" xlink:href="#DejaVuSans-100"/>
       <use x="648.779297" xlink:href="#DejaVuSans-100"/>
       <use x="712.255859" xlink:href="#DejaVuSans-108"/>
       <use x="740.039062" xlink:href="#DejaVuSans-101"/>
       <use x="801.5625" xlink:href="#DejaVuSans-95"/>
       <use x="851.5625" xlink:href="#DejaVuSans-114"/>
       <use x="890.425781" xlink:href="#DejaVuSans-101"/>
       <use x="951.949219" xlink:href="#DejaVuSans-112"/>
      </g>
     </g>
    </g>
    <g id="xtick_3">
     <g id="line2d_3">
      <g>
       <use style="stroke:#000000;stroke-width:1.875;" x="666" xlink:href="#m1ecc9643ca" y="378"/>
      </g>
     </g>
     <g id="text_3">
      <!-- inserted_late_rep -->
      <g transform="translate(594.738047 403.037422)scale(0.165 -0.165)">
       <use xlink:href="#DejaVuSans-105"/>
       <use x="27.783203" xlink:href="#DejaVuSans-110"/>
       <use x="91.162109" xlink:href="#DejaVuSans-115"/>
       <use x="143.261719" xlink:href="#DejaVuSans-101"/>
       <use x="204.785156" xlink:href="#DejaVuSans-114"/>
       <use x="245.898438" xlink:href="#DejaVuSans-116"/>
       <use x="285.107422" xlink:href="#DejaVuSans-101"/>
       <use x="346.630859" xlink:href="#DejaVuSans-100"/>
       <use x="410.107422" xlink:href="#DejaVuSans-95"/>
       <use x="460.107422" xlink:href="#DejaVuSans-108"/>
       <use x="487.890625" xlink:href="#DejaVuSans-97"/>
       <use x="549.169922" xlink:href="#DejaVuSans-116"/>
       <use x="588.378906" xlink:href="#DejaVuSans-101"/>
       <use x="649.902344" xlink:href="#DejaVuSans-95"/>
       <use x="699.902344" xlink:href="#DejaVuSans-114"/>
       <use x="738.765625" xlink:href="#DejaVuSans-101"/>
       <use x="800.289062" xlink:href="#DejaVuSans-112"/>
      </g>
     </g>
    </g>
    <g id="text_4">
     <!-- condition -->
     <g transform="translate(401.187656 424.605)scale(0.18 -0.18)">
      <defs>
       <path d="M 48.78125 52.59375 
L 48.78125 44.1875 
Q 44.96875 46.296875 41.140625 47.34375 
Q 37.3125 48.390625 33.40625 48.390625 
Q 24.65625 48.390625 19.8125 42.84375 
Q 14.984375 37.3125 14.984375 27.296875 
Q 14.984375 17.28125 19.8125 11.734375 
Q 24.65625 6.203125 33.40625 6.203125 
Q 37.3125 6.203125 41.140625 7.25 
Q 44.96875 8.296875 48.78125 10.40625 
L 48.78125 2.09375 
Q 45.015625 0.34375 40.984375 -0.53125 
Q 36.96875 -1.421875 32.421875 -1.421875 
Q 20.0625 -1.421875 12.78125 6.34375 
Q 5.515625 14.109375 5.515625 27.296875 
Q 5.515625 40.671875 12.859375 48.328125 
Q 20.21875 56 33.015625 56 
Q 37.15625 56 41.109375 55.140625 
Q 45.0625 54.296875 48.78125 52.59375 
z
" id="DejaVuSans-99"/>
       <path d="M 30.609375 48.390625 
Q 23.390625 48.390625 19.1875 42.75 
Q 14.984375 37.109375 14.984375 27.296875 
Q 14.984375 17.484375 19.15625 11.84375 
Q 23.34375 6.203125 30.609375 6.203125 
Q 37.796875 6.203125 41.984375 11.859375 
Q 46.1875 17.53125 46.1875 27.296875 
Q 46.1875 37.015625 41.984375 42.703125 
Q 37.796875 48.390625 30.609375 48.390625 
z
M 30.609375 56 
Q 42.328125 56 49.015625 48.375 
Q 55.71875 40.765625 55.71875 27.296875 
Q 55.71875 13.875 49.015625 6.21875 
Q 42.328125 -1.421875 30.609375 -1.421875 
Q 18.84375 -1.421875 12.171875 6.21875 
Q 5.515625 13.875 5.515625 27.296875 
Q 5.515625 40.765625 12.171875 48.375 
Q 18.84375 56 30.609375 56 
z
" id="DejaVuSans-111"/>
      </defs>
      <use xlink:href="#DejaVuSans-99"/>
      <use x="54.980469" xlink:href="#DejaVuSans-111"/>
      <use x="116.162109" xlink:href="#DejaVuSans-110"/>
      <use x="179.541016" xlink:href="#DejaVuSans-100"/>
      <use x="243.017578" xlink:href="#DejaVuSans-105"/>
      <use x="270.800781" xlink:href="#DejaVuSans-116"/>
      <use x="310.009766" xlink:href="#DejaVuSans-105"/>
      <use x="337.792969" xlink:href="#DejaVuSans-111"/>
      <use x="398.974609" xlink:href="#DejaVuSans-110"/>
     </g>
    </g>
   </g>
   <g id="matplotlib.axis_2">
    <g id="ytick_1">
     <g id="line2d_4">
      <defs>
       <path d="M 0 0 
L -9 0 
" id="m25b92afaa0" style="stroke:#000000;stroke-width:1.875;"/>
      </defs>
      <g>
       <use style="stroke:#000000;stroke-width:1.875;" x="108" xlink:href="#m25b92afaa0" y="355.469745"/>
      </g>
     </g>
     <g id="text_5">
      <!-- 0.2 -->
      <g transform="translate(69.259844 361.738456)scale(0.165 -0.165)">
       <defs>
        <path d="M 31.78125 66.40625 
Q 24.171875 66.40625 20.328125 58.90625 
Q 16.5 51.421875 16.5 36.375 
Q 16.5 21.390625 20.328125 13.890625 
Q 24.171875 6.390625 31.78125 6.390625 
Q 39.453125 6.390625 43.28125 13.890625 
Q 47.125 21.390625 47.125 36.375 
Q 47.125 51.421875 43.28125 58.90625 
Q 39.453125 66.40625 31.78125 66.40625 
z
M 31.78125 74.21875 
Q 44.046875 74.21875 50.515625 64.515625 
Q 56.984375 54.828125 56.984375 36.375 
Q 56.984375 17.96875 50.515625 8.265625 
Q 44.046875 -1.421875 31.78125 -1.421875 
Q 19.53125 -1.421875 13.0625 8.265625 
Q 6.59375 17.96875 6.59375 36.375 
Q 6.59375 54.828125 13.0625 64.515625 
Q 19.53125 74.21875 31.78125 74.21875 
z
" id="DejaVuSans-48"/>
        <path d="M 10.6875 12.40625 
L 21 12.40625 
L 21 0 
L 10.6875 0 
z
" id="DejaVuSans-46"/>
        <path d="M 19.1875 8.296875 
L 53.609375 8.296875 
L 53.609375 0 
L 7.328125 0 
L 7.328125 8.296875 
Q 12.9375 14.109375 22.625 23.890625 
Q 32.328125 33.6875 34.8125 36.53125 
Q 39.546875 41.84375 41.421875 45.53125 
Q 43.3125 49.21875 43.3125 52.78125 
Q 43.3125 58.59375 39.234375 62.25 
Q 35.15625 65.921875 28.609375 65.921875 
Q 23.96875 65.921875 18.8125 64.3125 
Q 13.671875 62.703125 7.8125 59.421875 
L 7.8125 69.390625 
Q 13.765625 71.78125 18.9375 73 
Q 24.125 74.21875 28.421875 74.21875 
Q 39.75 74.21875 46.484375 68.546875 
Q 53.21875 62.890625 53.21875 53.421875 
Q 53.21875 48.921875 51.53125 44.890625 
Q 49.859375 40.875 45.40625 35.40625 
Q 44.1875 33.984375 37.640625 27.21875 
Q 31.109375 20.453125 19.1875 8.296875 
z
" id="DejaVuSans-50"/>
       </defs>
       <use xlink:href="#DejaVuSans-48"/>
       <use x="63.623047" xlink:href="#DejaVuSans-46"/>
       <use x="95.410156" xlink:href="#DejaVuSans-50"/>
      </g>
     </g>
    </g>
    <g id="ytick_2">
     <g id="line2d_5">
      <g>
       <use style="stroke:#000000;stroke-width:1.875;" x="108" xlink:href="#m25b92afaa0" y="298.062103"/>
      </g>
     </g>
     <g id="text_6">
      <!-- 0.4 -->
      <g transform="translate(69.259844 304.330814)scale(0.165 -0.165)">
       <defs>
        <path d="M 37.796875 64.3125 
L 12.890625 25.390625 
L 37.796875 25.390625 
z
M 35.203125 72.90625 
L 47.609375 72.90625 
L 47.609375 25.390625 
L 58.015625 25.390625 
L 58.015625 17.1875 
L 47.609375 17.1875 
L 47.609375 0 
L 37.796875 0 
L 37.796875 17.1875 
L 4.890625 17.1875 
L 4.890625 26.703125 
z
" id="DejaVuSans-52"/>
       </defs>
       <use xlink:href="#DejaVuSans-48"/>
       <use x="63.623047" xlink:href="#DejaVuSans-46"/>
       <use x="95.410156" xlink:href="#DejaVuSans-52"/>
      </g>
     </g>
    </g>
    <g id="ytick_3">
     <g id="line2d_6">
      <g>
       <use style="stroke:#000000;stroke-width:1.875;" x="108" xlink:href="#m25b92afaa0" y="240.65446"/>
      </g>
     </g>
     <g id="text_7">
      <!-- 0.6 -->
      <g transform="translate(69.259844 246.923171)scale(0.165 -0.165)">
       <defs>
        <path d="M 33.015625 40.375 
Q 26.375 40.375 22.484375 35.828125 
Q 18.609375 31.296875 18.609375 23.390625 
Q 18.609375 15.53125 22.484375 10.953125 
Q 26.375 6.390625 33.015625 6.390625 
Q 39.65625 6.390625 43.53125 10.953125 
Q 47.40625 15.53125 47.40625 23.390625 
Q 47.40625 31.296875 43.53125 35.828125 
Q 39.65625 40.375 33.015625 40.375 
z
M 52.59375 71.296875 
L 52.59375 62.3125 
Q 48.875 64.0625 45.09375 64.984375 
Q 41.3125 65.921875 37.59375 65.921875 
Q 27.828125 65.921875 22.671875 59.328125 
Q 17.53125 52.734375 16.796875 39.40625 
Q 19.671875 43.65625 24.015625 45.921875 
Q 28.375 48.1875 33.59375 48.1875 
Q 44.578125 48.1875 50.953125 41.515625 
Q 57.328125 34.859375 57.328125 23.390625 
Q 57.328125 12.15625 50.6875 5.359375 
Q 44.046875 -1.421875 33.015625 -1.421875 
Q 20.359375 -1.421875 13.671875 8.265625 
Q 6.984375 17.96875 6.984375 36.375 
Q 6.984375 53.65625 15.1875 63.9375 
Q 23.390625 74.21875 37.203125 74.21875 
Q 40.921875 74.21875 44.703125 73.484375 
Q 48.484375 72.75 52.59375 71.296875 
z
" id="DejaVuSans-54"/>
       </defs>
       <use xlink:href="#DejaVuSans-48"/>
       <use x="63.623047" xlink:href="#DejaVuSans-46"/>
       <use x="95.410156" xlink:href="#DejaVuSans-54"/>
      </g>
     </g>
    </g>
    <g id="ytick_4">
     <g id="line2d_7">
      <g>
       <use style="stroke:#000000;stroke-width:1.875;" x="108" xlink:href="#m25b92afaa0" y="183.246818"/>
      </g>
     </g>
     <g id="text_8">
      <!-- 0.8 -->
      <g transform="translate(69.259844 189.515529)scale(0.165 -0.165)">
       <defs>
        <path d="M 31.78125 34.625 
Q 24.75 34.625 20.71875 30.859375 
Q 16.703125 27.09375 16.703125 20.515625 
Q 16.703125 13.921875 20.71875 10.15625 
Q 24.75 6.390625 31.78125 6.390625 
Q 38.8125 6.390625 42.859375 10.171875 
Q 46.921875 13.96875 46.921875 20.515625 
Q 46.921875 27.09375 42.890625 30.859375 
Q 38.875 34.625 31.78125 34.625 
z
M 21.921875 38.8125 
Q 15.578125 40.375 12.03125 44.71875 
Q 8.5 49.078125 8.5 55.328125 
Q 8.5 64.0625 14.71875 69.140625 
Q 20.953125 74.21875 31.78125 74.21875 
Q 42.671875 74.21875 48.875 69.140625 
Q 55.078125 64.0625 55.078125 55.328125 
Q 55.078125 49.078125 51.53125 44.71875 
Q 48 40.375 41.703125 38.8125 
Q 48.828125 37.15625 52.796875 32.3125 
Q 56.78125 27.484375 56.78125 20.515625 
Q 56.78125 9.90625 50.3125 4.234375 
Q 43.84375 -1.421875 31.78125 -1.421875 
Q 19.734375 -1.421875 13.25 4.234375 
Q 6.78125 9.90625 6.78125 20.515625 
Q 6.78125 27.484375 10.78125 32.3125 
Q 14.796875 37.15625 21.921875 38.8125 
z
M 18.3125 54.390625 
Q 18.3125 48.734375 21.84375 45.5625 
Q 25.390625 42.390625 31.78125 42.390625 
Q 38.140625 42.390625 41.71875 45.5625 
Q 45.3125 48.734375 45.3125 54.390625 
Q 45.3125 60.0625 41.71875 63.234375 
Q 38.140625 66.40625 31.78125 66.40625 
Q 25.390625 66.40625 21.84375 63.234375 
Q 18.3125 60.0625 18.3125 54.390625 
z
" id="DejaVuSans-56"/>
       </defs>
       <use xlink:href="#DejaVuSans-48"/>
       <use x="63.623047" xlink:href="#DejaVuSans-46"/>
       <use x="95.410156" xlink:href="#DejaVuSans-56"/>
      </g>
     </g>
    </g>
    <g id="ytick_5">
     <g id="line2d_8">
      <g>
       <use style="stroke:#000000;stroke-width:1.875;" x="108" xlink:href="#m25b92afaa0" y="125.839176"/>
      </g>
     </g>
     <g id="text_9">
      <!-- 1.0 -->
      <g transform="translate(69.259844 132.107886)scale(0.165 -0.165)">
       <defs>
        <path d="M 12.40625 8.296875 
L 28.515625 8.296875 
L 28.515625 63.921875 
L 10.984375 60.40625 
L 10.984375 69.390625 
L 28.421875 72.90625 
L 38.28125 72.90625 
L 38.28125 8.296875 
L 54.390625 8.296875 
L 54.390625 0 
L 12.40625 0 
z
" id="DejaVuSans-49"/>
       </defs>
       <use xlink:href="#DejaVuSans-49"/>
       <use x="63.623047" xlink:href="#DejaVuSans-46"/>
       <use x="95.410156" xlink:href="#DejaVuSans-48"/>
      </g>
     </g>
    </g>
    <g id="ytick_6">
     <g id="line2d_9">
      <g>
       <use style="stroke:#000000;stroke-width:1.875;" x="108" xlink:href="#m25b92afaa0" y="68.431533"/>
      </g>
     </g>
     <g id="text_10">
      <!-- 1.2 -->
      <g transform="translate(69.259844 74.700244)scale(0.165 -0.165)">
       <use xlink:href="#DejaVuSans-49"/>
       <use x="63.623047" xlink:href="#DejaVuSans-46"/>
       <use x="95.410156" xlink:href="#DejaVuSans-50"/>
      </g>
     </g>
    </g>
    <g id="text_11">
     <!-- prediction accuracy -->
     <g transform="translate(61.516406 303.537656)rotate(-90)scale(0.18 -0.18)">
      <defs>
       <path id="DejaVuSans-32"/>
       <path d="M 8.5 21.578125 
L 8.5 54.6875 
L 17.484375 54.6875 
L 17.484375 21.921875 
Q 17.484375 14.15625 20.5 10.265625 
Q 23.53125 6.390625 29.59375 6.390625 
Q 36.859375 6.390625 41.078125 11.03125 
Q 45.3125 15.671875 45.3125 23.6875 
L 45.3125 54.6875 
L 54.296875 54.6875 
L 54.296875 0 
L 45.3125 0 
L 45.3125 8.40625 
Q 42.046875 3.421875 37.71875 1 
Q 33.40625 -1.421875 27.6875 -1.421875 
Q 18.265625 -1.421875 13.375 4.4375 
Q 8.5 10.296875 8.5 21.578125 
z
M 31.109375 56 
z
" id="DejaVuSans-117"/>
      </defs>
      <use xlink:href="#DejaVuSans-112"/>
      <use x="63.476562" xlink:href="#DejaVuSans-114"/>
      <use x="102.339844" xlink:href="#DejaVuSans-101"/>
      <use x="163.863281" xlink:href="#DejaVuSans-100"/>
      <use x="227.339844" xlink:href="#DejaVuSans-105"/>
      <use x="255.123047" xlink:href="#DejaVuSans-99"/>
      <use x="310.103516" xlink:href="#DejaVuSans-116"/>
      <use x="349.3125" xlink:href="#DejaVuSans-105"/>
      <use x="377.095703" xlink:href="#DejaVuSans-111"/>
      <use x="438.277344" xlink:href="#DejaVuSans-110"/>
      <use x="501.65625" xlink:href="#DejaVuSans-32"/>
      <use x="533.443359" xlink:href="#DejaVuSans-97"/>
      <use x="594.722656" xlink:href="#DejaVuSans-99"/>
      <use x="649.703125" xlink:href="#DejaVuSans-99"/>
      <use x="704.683594" xlink:href="#DejaVuSans-117"/>
      <use x="768.0625" xlink:href="#DejaVuSans-114"/>
      <use x="809.175781" xlink:href="#DejaVuSans-97"/>
      <use x="870.455078" xlink:href="#DejaVuSans-99"/>
      <use x="925.435547" xlink:href="#DejaVuSans-121"/>
     </g>
    </g>
   </g>
   <g id="line2d_10">
    <path clip-path="url(#p5e0734f4ec)" d="M 219.6 304.000824 
L 219.6 125.839176 
" style="fill:none;stroke:#3d3d3d;stroke-linecap:square;stroke-width:2.25;"/>
   </g>
   <g id="line2d_11">
    <path clip-path="url(#p5e0734f4ec)" d="M 219.6 271.96772 
L 219.6 140.434339 
" style="fill:none;stroke:#3d3d3d;stroke-linecap:square;stroke-width:6.75;"/>
   </g>
   <g id="line2d_12">
    <path clip-path="url(#p5e0734f4ec)" d="M 442.8 311.025119 
L 442.8 172.89462 
" style="fill:none;stroke:#3d3d3d;stroke-linecap:square;stroke-width:2.25;"/>
   </g>
   <g id="line2d_13">
    <path clip-path="url(#p5e0734f4ec)" d="M 442.8 273.049013 
L 442.8 224.441621 
" style="fill:none;stroke:#3d3d3d;stroke-linecap:square;stroke-width:6.75;"/>
   </g>
   <g id="line2d_14">
    <path clip-path="url(#p5e0734f4ec)" d="M 666 307.348633 
L 666 202.382699 
" style="fill:none;stroke:#3d3d3d;stroke-linecap:square;stroke-width:2.25;"/>
   </g>
   <g id="line2d_15">
    <path clip-path="url(#p5e0734f4ec)" d="M 666 272.442683 
L 666 241.641307 
" style="fill:none;stroke:#3d3d3d;stroke-linecap:square;stroke-width:6.75;"/>
   </g>
   <g id="patch_3">
    <path d="M 108 378 
L 108 51.84 
" style="fill:none;stroke:#000000;stroke-linecap:square;stroke-linejoin:miter;stroke-width:1.875;"/>
   </g>
   <g id="patch_4">
    <path d="M 777.6 378 
L 777.6 51.84 
" style="fill:none;stroke:#000000;stroke-linecap:square;stroke-linejoin:miter;stroke-width:1.875;"/>
   </g>
   <g id="patch_5">
    <path d="M 108 378 
L 777.6 378 
" style="fill:none;stroke:#000000;stroke-linecap:square;stroke-linejoin:miter;stroke-width:1.875;"/>
   </g>
   <g id="patch_6">
    <path d="M 108 51.84 
L 777.6 51.84 
" style="fill:none;stroke:#000000;stroke-linecap:square;stroke-linejoin:miter;stroke-width:1.875;"/>
   </g>
   <g id="PathCollection_1">
    <defs>
     <path d="M 0 2.25 
C 0.596707 2.25 1.169055 2.012926 1.59099 1.59099 
C 2.012926 1.169055 2.25 0.596707 2.25 0 
C 2.25 -0.596707 2.012926 -1.169055 1.59099 -1.59099 
C 1.169055 -2.012926 0.596707 -2.25 0 -2.25 
C -0.596707 -2.25 -1.169055 -2.012926 -1.59099 -1.59099 
C -2.012926 -1.169055 -2.25 -0.596707 -2.25 0 
C -2.25 0.596707 -2.012926 1.169055 -1.59099 1.59099 
C -1.169055 2.012926 -0.596707 2.25 0 2.25 
z
" id="m0ecd68945a" style="stroke:#3d3d3d;stroke-width:1.5;"/>
    </defs>
    <g clip-path="url(#p5e0734f4ec)">
     <use style="fill:#ffffff;stroke:#3d3d3d;stroke-width:1.5;" x="219.6" xlink:href="#m0ecd68945a" y="250.839687"/>
    </g>
   </g>
   <g id="PathCollection_2">
    <g clip-path="url(#p5e0734f4ec)">
     <use style="fill:#ffffff;stroke:#3d3d3d;stroke-width:1.5;" x="442.8" xlink:href="#m0ecd68945a" y="247.465537"/>
    </g>
   </g>
   <g id="PathCollection_3">
    <g clip-path="url(#p5e0734f4ec)">
     <use style="fill:#ffffff;stroke:#3d3d3d;stroke-width:1.5;" x="666" xlink:href="#m0ecd68945a" y="255.903365"/>
    </g>
   </g>
  </g>
 </g>
 <defs>
  <clipPath id="p5e0734f4ec">
   <rect height="326.16" width="669.6" x="108" y="51.84"/>
  </clipPath>
 </defs>
</svg>
