<?xml version="1.0" encoding="utf-8" standalone="no"?>
<!DOCTYPE svg PUBLIC "-//W3C//DTD SVG 1.1//EN"
  "http://www.w3.org/Graphics/SVG/1.1/DTD/svg11.dtd">
<!-- Created with matplotlib (https://matplotlib.org/) -->
<svg height="432pt" version="1.1" viewBox="0 0 864 432" width="864pt" xmlns="http://www.w3.org/2000/svg" xmlns:xlink="http://www.w3.org/1999/xlink">
 <metadata>
  <rdf:RDF xmlns:cc="http://creativecommons.org/ns#" xmlns:dc="http://purl.org/dc/elements/1.1/" xmlns:rdf="http://www.w3.org/1999/02/22-rdf-syntax-ns#">
   <cc:Work>
    <dc:type rdf:resource="http://purl.org/dc/dcmitype/StillImage"/>
    <dc:date>2023-04-16T12:02:57.970122</dc:date>
    <dc:format>image/svg+xml</dc:format>
    <dc:creator>
     <cc:Agent>
      <dc:title>Matplotlib v3.3.4, https://matplotlib.org/</dc:title>
     </cc:Agent>
    </dc:creator>
   </cc:Work>
  </rdf:RDF>
 </metadata>
 <defs>
  <style type="text/css">*{stroke-linecap:butt;stroke-linejoin:round;}</style>
 </defs>
 <g id="figure_1">
  <g id="patch_1">
   <path d="M 0 432 
L 864 432 
L 864 0 
L 0 0 
z
" style="fill:none;"/>
  </g>
  <g id="axes_1">
   <g id="patch_2">
    <path d="M 108 378 
L 777.6 378 
L 777.6 51.84 
L 108 51.84 
z
" style="fill:#ffffff;"/>
   </g>
   <g id="PolyCollection_1">
    <defs>
     <path d="M 220.330039 -114.810485 
L 218.869961 -114.810485 
L 218.676223 -117.110795 
L 218.448161 -119.411105 
L 218.184796 -121.711416 
L 217.886637 -124.011726 
L 217.555988 -126.312036 
L 217.19718 -128.612346 
L 216.816676 -130.912656 
L 216.423039 -133.212966 
L 216.02672 -135.513276 
L 215.639666 -137.813586 
L 215.274764 -140.113896 
L 214.945141 -142.414206 
L 214.663369 -144.714516 
L 214.440646 -147.014827 
L 214.286011 -149.315137 
L 214.205672 -151.615447 
L 214.202499 -153.915757 
L 214.275745 -156.216067 
L 214.421003 -158.516377 
L 214.630404 -160.816687 
L 214.893053 -163.116997 
L 215.195622 -165.417307 
L 215.523085 -167.717617 
L 215.859505 -170.017927 
L 216.188817 -172.318237 
L 216.49556 -174.618548 
L 216.765512 -176.918858 
L 216.986207 -179.219168 
L 217.147323 -181.519478 
L 217.240948 -183.819788 
L 217.261723 -186.120098 
L 217.206899 -188.420408 
L 217.076292 -190.720718 
L 216.872167 -193.021028 
L 216.599033 -195.321338 
L 216.263365 -197.621648 
L 215.873223 -199.921959 
L 215.437794 -202.222269 
L 214.966835 -204.522579 
L 214.470053 -206.822889 
L 213.956437 -209.123199 
L 213.433584 -211.423509 
L 212.907063 -213.723819 
L 212.379864 -216.024129 
L 211.851972 -218.324439 
L 211.320096 -220.624749 
L 210.777559 -222.925059 
L 210.214346 -225.22537 
L 209.617272 -227.52568 
L 208.970248 -229.82599 
L 208.254568 -232.1263 
L 207.449202 -234.42661 
L 206.531055 -236.72692 
L 205.475179 -239.02723 
L 204.254988 -241.32754 
L 202.84251 -243.62785 
L 201.208763 -245.92816 
L 199.324371 -248.22847 
L 197.160495 -250.52878 
L 194.690175 -252.829091 
L 191.890141 -255.129401 
L 188.743061 -257.429711 
L 185.240188 -259.730021 
L 181.384223 -262.030331 
L 177.192212 -264.330641 
L 172.698173 -266.630951 
L 167.95515 -268.931261 
L 163.036361 -271.231571 
L 158.03515 -273.531881 
L 153.063507 -275.832191 
L 148.24904 -278.132502 
L 143.730398 -280.432812 
L 139.651317 -282.733122 
L 136.153595 -285.033432 
L 133.369459 -287.333742 
L 131.413863 -289.634052 
L 130.377341 -291.934362 
L 130.32 -294.234672 
L 131.267191 -296.534982 
L 133.207259 -298.835292 
L 136.091601 -301.135602 
L 139.837061 -303.435913 
L 144.330482 -305.736223 
L 149.435047 -308.036533 
L 154.997895 -310.336843 
L 160.858399 -312.637153 
L 166.856459 -314.937463 
L 172.840207 -317.237773 
L 178.672592 -319.538083 
L 184.236474 -321.838393 
L 189.437998 -324.138703 
L 194.208185 -326.439013 
L 198.502849 -328.739323 
L 202.30106 -331.039634 
L 205.602471 -333.339944 
L 208.42387 -335.640254 
L 210.795333 -337.940564 
L 212.756313 -340.240874 
L 214.351942 -342.541184 
L 224.848058 -342.541184 
L 224.848058 -342.541184 
L 226.443687 -340.240874 
L 228.404667 -337.940564 
L 230.77613 -335.640254 
L 233.597529 -333.339944 
L 236.89894 -331.039634 
L 240.697151 -328.739323 
L 244.991815 -326.439013 
L 249.762002 -324.138703 
L 254.963526 -321.838393 
L 260.527408 -319.538083 
L 266.359793 -317.237773 
L 272.343541 -314.937463 
L 278.341601 -312.637153 
L 284.202105 -310.336843 
L 289.764953 -308.036533 
L 294.869518 -305.736223 
L 299.362939 -303.435913 
L 303.108399 -301.135602 
L 305.992741 -298.835292 
L 307.932809 -296.534982 
L 308.88 -294.234672 
L 308.822659 -291.934362 
L 307.786137 -289.634052 
L 305.830541 -287.333742 
L 303.046405 -285.033432 
L 299.548683 -282.733122 
L 295.469602 -280.432812 
L 290.95096 -278.132502 
L 286.136493 -275.832191 
L 281.16485 -273.531881 
L 276.163639 -271.231571 
L 271.24485 -268.931261 
L 266.501827 -266.630951 
L 262.007788 -264.330641 
L 257.815777 -262.030331 
L 253.959812 -259.730021 
L 250.456939 -257.429711 
L 247.309859 -255.129401 
L 244.509825 -252.829091 
L 242.039505 -250.52878 
L 239.875629 -248.22847 
L 237.991237 -245.92816 
L 236.35749 -243.62785 
L 234.945012 -241.32754 
L 233.724821 -239.02723 
L 232.668945 -236.72692 
L 231.750798 -234.42661 
L 230.945432 -232.1263 
L 230.229752 -229.82599 
L 229.582728 -227.52568 
L 228.985654 -225.22537 
L 228.422441 -222.925059 
L 227.879904 -220.624749 
L 227.348028 -218.324439 
L 226.820136 -216.024129 
L 226.292937 -213.723819 
L 225.766416 -211.423509 
L 225.243563 -209.123199 
L 224.729947 -206.822889 
L 224.233165 -204.522579 
L 223.762206 -202.222269 
L 223.326777 -199.921959 
L 222.936635 -197.621648 
L 222.600967 -195.321338 
L 222.327833 -193.021028 
L 222.123708 -190.720718 
L 221.993101 -188.420408 
L 221.938277 -186.120098 
L 221.959052 -183.819788 
L 222.052677 -181.519478 
L 222.213793 -179.219168 
L 222.434488 -176.918858 
L 222.70444 -174.618548 
L 223.011183 -172.318237 
L 223.340495 -170.017927 
L 223.676915 -167.717617 
L 224.004378 -165.417307 
L 224.306947 -163.116997 
L 224.569596 -160.816687 
L 224.778997 -158.516377 
L 224.924255 -156.216067 
L 224.997501 -153.915757 
L 224.994328 -151.615447 
L 224.913989 -149.315137 
L 224.759354 -147.014827 
L 224.536631 -144.714516 
L 224.254859 -142.414206 
L 223.925236 -140.113896 
L 223.560334 -137.813586 
L 223.17328 -135.513276 
L 222.776961 -133.212966 
L 222.383324 -130.912656 
L 222.00282 -128.612346 
L 221.644012 -126.312036 
L 221.313363 -124.011726 
L 221.015204 -121.711416 
L 220.751839 -119.411105 
L 220.523777 -117.110795 
L 220.330039 -114.810485 
z
" id="m5fe3d64455" style="stroke:#3d3d3d;stroke-width:2.25;"/>
    </defs>
    <g clip-path="url(#paf6b79a265)">
     <use style="fill:#3274a1;stroke:#3d3d3d;stroke-width:2.25;" x="0" xlink:href="#m5fe3d64455" y="432"/>
    </g>
   </g>
   <g id="PolyCollection_2">
    <defs>
     <path d="M 443.653783 -68.825455 
L 441.946217 -68.825455 
L 441.722267 -71.820496 
L 441.450311 -74.815537 
L 441.122996 -77.810579 
L 440.732565 -80.80562 
L 440.271015 -83.800661 
L 439.73029 -86.795702 
L 439.102524 -89.790744 
L 438.380312 -92.785785 
L 437.557022 -95.780826 
L 436.627111 -98.775868 
L 435.58647 -101.770909 
L 434.432741 -104.76595 
L 433.165622 -107.760992 
L 431.787122 -110.756033 
L 430.301762 -113.751074 
L 428.716695 -116.746116 
L 427.041741 -119.741157 
L 425.289326 -122.736198 
L 423.474328 -125.73124 
L 421.613824 -128.726281 
L 419.726756 -131.721322 
L 417.833529 -134.716364 
L 415.955566 -137.711405 
L 414.114828 -140.706446 
L 412.333341 -143.701488 
L 410.632739 -146.696529 
L 409.033846 -149.69157 
L 407.556312 -152.686612 
L 406.218305 -155.681653 
L 405.036265 -158.676694 
L 404.024711 -161.671736 
L 403.19609 -164.666777 
L 402.560651 -167.661818 
L 402.126338 -170.65686 
L 401.898679 -173.651901 
L 401.880661 -176.646942 
L 402.072596 -179.641983 
L 402.471975 -182.637025 
L 403.073321 -185.632066 
L 403.868058 -188.627107 
L 404.84442 -191.622149 
L 405.987413 -194.61719 
L 407.278877 -197.612231 
L 408.697635 -200.607273 
L 410.219772 -203.602314 
L 411.819028 -206.597355 
L 413.467321 -209.592397 
L 415.135363 -212.587438 
L 416.793373 -215.582479 
L 418.411844 -218.577521 
L 419.962329 -221.572562 
L 421.418227 -224.567603 
L 422.755522 -227.562645 
L 423.953446 -230.557686 
L 424.995054 -233.552727 
L 425.867672 -236.547769 
L 426.563227 -239.54281 
L 427.078432 -242.537851 
L 427.414844 -245.532893 
L 427.578784 -248.527934 
L 427.581128 -251.522975 
L 427.43699 -254.518017 
L 427.165275 -257.513058 
L 426.788153 -260.508099 
L 426.33042 -263.50314 
L 425.818797 -266.498182 
L 425.281152 -269.493223 
L 424.745684 -272.488264 
L 424.240072 -275.483306 
L 423.790629 -278.478347 
L 423.421486 -281.473388 
L 423.15383 -284.46843 
L 423.005243 -287.463471 
L 422.989158 -290.458512 
L 423.114475 -293.453554 
L 423.385347 -296.448595 
L 423.801155 -299.443636 
L 424.356673 -302.438678 
L 425.042422 -305.433719 
L 425.84518 -308.42876 
L 426.748641 -311.423802 
L 427.734168 -314.418843 
L 428.781613 -317.413884 
L 429.870147 -320.408926 
L 430.97907 -323.403967 
L 432.088554 -326.399008 
L 433.180284 -329.39405 
L 434.237984 -332.389091 
L 435.247797 -335.384132 
L 436.19852 -338.379174 
L 437.081701 -341.374215 
L 437.891605 -344.369256 
L 438.625067 -347.364298 
L 439.281252 -350.359339 
L 439.861349 -353.35438 
L 440.368235 -356.349421 
L 440.806103 -359.344463 
L 441.18011 -362.339504 
L 441.496039 -365.334545 
L 444.103961 -365.334545 
L 444.103961 -365.334545 
L 444.41989 -362.339504 
L 444.793897 -359.344463 
L 445.231765 -356.349421 
L 445.738651 -353.35438 
L 446.318748 -350.359339 
L 446.974933 -347.364298 
L 447.708395 -344.369256 
L 448.518299 -341.374215 
L 449.40148 -338.379174 
L 450.352203 -335.384132 
L 451.362016 -332.389091 
L 452.419716 -329.39405 
L 453.511446 -326.399008 
L 454.62093 -323.403967 
L 455.729853 -320.408926 
L 456.818387 -317.413884 
L 457.865832 -314.418843 
L 458.851359 -311.423802 
L 459.75482 -308.42876 
L 460.557578 -305.433719 
L 461.243327 -302.438678 
L 461.798845 -299.443636 
L 462.214653 -296.448595 
L 462.485525 -293.453554 
L 462.610842 -290.458512 
L 462.594757 -287.463471 
L 462.44617 -284.46843 
L 462.178514 -281.473388 
L 461.809371 -278.478347 
L 461.359928 -275.483306 
L 460.854316 -272.488264 
L 460.318848 -269.493223 
L 459.781203 -266.498182 
L 459.26958 -263.50314 
L 458.811847 -260.508099 
L 458.434725 -257.513058 
L 458.16301 -254.518017 
L 458.018872 -251.522975 
L 458.021216 -248.527934 
L 458.185156 -245.532893 
L 458.521568 -242.537851 
L 459.036773 -239.54281 
L 459.732328 -236.547769 
L 460.604946 -233.552727 
L 461.646554 -230.557686 
L 462.844478 -227.562645 
L 464.181773 -224.567603 
L 465.637671 -221.572562 
L 467.188156 -218.577521 
L 468.806627 -215.582479 
L 470.464637 -212.587438 
L 472.132679 -209.592397 
L 473.780972 -206.597355 
L 475.380228 -203.602314 
L 476.902365 -200.607273 
L 478.321123 -197.612231 
L 479.612587 -194.61719 
L 480.75558 -191.622149 
L 481.731942 -188.627107 
L 482.526679 -185.632066 
L 483.128025 -182.637025 
L 483.527404 -179.641983 
L 483.719339 -176.646942 
L 483.701321 -173.651901 
L 483.473662 -170.65686 
L 483.039349 -167.661818 
L 482.40391 -164.666777 
L 481.575289 -161.671736 
L 480.563735 -158.676694 
L 479.381695 -155.681653 
L 478.043688 -152.686612 
L 476.566154 -149.69157 
L 474.967261 -146.696529 
L 473.266659 -143.701488 
L 471.485172 -140.706446 
L 469.644434 -137.711405 
L 467.766471 -134.716364 
L 465.873244 -131.721322 
L 463.986176 -128.726281 
L 462.125672 -125.73124 
L 460.310674 -122.736198 
L 458.558259 -119.741157 
L 456.883305 -116.746116 
L 455.298238 -113.751074 
L 453.812878 -110.756033 
L 452.434378 -107.760992 
L 451.167259 -104.76595 
L 450.01353 -101.770909 
L 448.972889 -98.775868 
L 448.042978 -95.780826 
L 447.219688 -92.785785 
L 446.497476 -89.790744 
L 445.86971 -86.795702 
L 445.328985 -83.800661 
L 444.867435 -80.80562 
L 444.477004 -77.810579 
L 444.149689 -74.815537 
L 443.877733 -71.820496 
L 443.653783 -68.825455 
z
" id="md905b0edd7" style="stroke:#3d3d3d;stroke-width:2.25;"/>
    </defs>
    <g clip-path="url(#paf6b79a265)">
     <use style="fill:#e1812c;stroke:#3d3d3d;stroke-width:2.25;" x="0" xlink:href="#md905b0edd7" y="432"/>
    </g>
   </g>
   <g id="PolyCollection_3">
    <defs>
     <path d="M 667.420227 -91.671789 
L 664.579773 -91.671789 
L 664.279442 -94.434653 
L 663.928094 -97.197517 
L 663.51988 -99.96038 
L 663.048857 -102.723244 
L 662.509117 -105.486108 
L 661.894931 -108.248971 
L 661.200917 -111.011835 
L 660.422223 -113.774699 
L 659.554731 -116.537562 
L 658.595257 -119.300426 
L 657.541767 -122.06329 
L 656.393582 -124.826153 
L 655.151573 -127.589017 
L 653.818337 -130.351881 
L 652.398345 -133.114744 
L 650.898053 -135.877608 
L 649.325965 -138.640472 
L 647.692654 -141.403335 
L 646.010708 -144.166199 
L 644.294637 -146.929063 
L 642.560694 -149.691926 
L 640.826648 -152.45479 
L 639.111486 -155.217654 
L 637.435067 -157.980517 
L 635.817722 -160.743381 
L 634.279819 -163.506245 
L 632.841301 -166.269108 
L 631.521209 -169.031972 
L 630.337215 -171.794835 
L 629.305168 -174.557699 
L 628.438667 -177.320563 
L 627.748696 -180.083426 
L 627.243306 -182.84629 
L 626.927375 -185.609154 
L 626.802443 -188.372017 
L 626.866637 -191.134881 
L 627.114681 -193.897745 
L 627.537991 -196.660608 
L 628.124861 -199.423472 
L 628.860717 -202.186336 
L 629.72845 -204.949199 
L 630.708802 -207.712063 
L 631.780805 -210.474927 
L 632.922251 -213.23779 
L 634.110186 -216.000654 
L 635.321423 -218.763518 
L 636.533038 -221.526381 
L 637.722874 -224.289245 
L 638.870001 -227.052109 
L 639.955165 -229.814972 
L 640.96118 -232.577836 
L 641.873285 -235.3407 
L 642.679441 -238.103563 
L 643.370567 -240.866427 
L 643.940723 -243.629291 
L 644.387206 -246.392154 
L 644.71059 -249.155018 
L 644.914685 -251.917882 
L 645.006416 -254.680745 
L 644.995632 -257.443609 
L 644.894843 -260.206472 
L 644.718874 -262.969336 
L 644.484473 -265.7322 
L 644.209851 -268.495063 
L 643.914181 -271.257927 
L 643.617068 -274.020791 
L 643.338002 -276.783654 
L 643.095813 -279.546518 
L 642.908143 -282.309382 
L 642.790954 -285.072245 
L 642.758095 -287.835109 
L 642.820933 -290.597973 
L 642.988065 -293.360836 
L 643.265129 -296.1237 
L 643.654707 -298.886564 
L 644.156337 -301.649427 
L 644.766617 -304.412291 
L 645.479406 -307.175155 
L 646.286111 -309.938018 
L 647.176036 -312.700882 
L 648.136797 -315.463746 
L 649.154759 -318.226609 
L 650.215505 -320.989473 
L 651.304289 -323.752337 
L 652.406484 -326.5152 
L 653.507982 -329.278064 
L 654.595556 -332.040928 
L 655.65716 -334.803791 
L 656.682163 -337.566655 
L 657.661515 -340.329519 
L 658.587846 -343.092382 
L 659.455496 -345.855246 
L 660.26049 -348.61811 
L 661.000458 -351.380973 
L 661.674509 -354.143837 
L 662.28308 -356.9067 
L 662.82775 -359.669564 
L 663.311054 -362.432428 
L 663.736287 -365.195291 
L 668.263713 -365.195291 
L 668.263713 -365.195291 
L 668.688946 -362.432428 
L 669.17225 -359.669564 
L 669.71692 -356.9067 
L 670.325491 -354.143837 
L 670.999542 -351.380973 
L 671.73951 -348.61811 
L 672.544504 -345.855246 
L 673.412154 -343.092382 
L 674.338485 -340.329519 
L 675.317837 -337.566655 
L 676.34284 -334.803791 
L 677.404444 -332.040928 
L 678.492018 -329.278064 
L 679.593516 -326.5152 
L 680.695711 -323.752337 
L 681.784495 -320.989473 
L 682.845241 -318.226609 
L 683.863203 -315.463746 
L 684.823964 -312.700882 
L 685.713889 -309.938018 
L 686.520594 -307.175155 
L 687.233383 -304.412291 
L 687.843663 -301.649427 
L 688.345293 -298.886564 
L 688.734871 -296.1237 
L 689.011935 -293.360836 
L 689.179067 -290.597973 
L 689.241905 -287.835109 
L 689.209046 -285.072245 
L 689.091857 -282.309382 
L 688.904187 -279.546518 
L 688.661998 -276.783654 
L 688.382932 -274.020791 
L 688.085819 -271.257927 
L 687.790149 -268.495063 
L 687.515527 -265.7322 
L 687.281126 -262.969336 
L 687.105157 -260.206472 
L 687.004368 -257.443609 
L 686.993584 -254.680745 
L 687.085315 -251.917882 
L 687.28941 -249.155018 
L 687.612794 -246.392154 
L 688.059277 -243.629291 
L 688.629433 -240.866427 
L 689.320559 -238.103563 
L 690.126715 -235.3407 
L 691.03882 -232.577836 
L 692.044835 -229.814972 
L 693.129999 -227.052109 
L 694.277126 -224.289245 
L 695.466962 -221.526381 
L 696.678577 -218.763518 
L 697.889814 -216.000654 
L 699.077749 -213.23779 
L 700.219195 -210.474927 
L 701.291198 -207.712063 
L 702.27155 -204.949199 
L 703.139283 -202.186336 
L 703.875139 -199.423472 
L 704.462009 -196.660608 
L 704.885319 -193.897745 
L 705.133363 -191.134881 
L 705.197557 -188.372017 
L 705.072625 -185.609154 
L 704.756694 -182.84629 
L 704.251304 -180.083426 
L 703.561333 -177.320563 
L 702.694832 -174.557699 
L 701.662785 -171.794835 
L 700.478791 -169.031972 
L 699.158699 -166.269108 
L 697.720181 -163.506245 
L 696.182278 -160.743381 
L 694.564933 -157.980517 
L 692.888514 -155.217654 
L 691.173352 -152.45479 
L 689.439306 -149.691926 
L 687.705363 -146.929063 
L 685.989292 -144.166199 
L 684.307346 -141.403335 
L 682.674035 -138.640472 
L 681.101947 -135.877608 
L 679.601655 -133.114744 
L 678.181663 -130.351881 
L 676.848427 -127.589017 
L 675.606418 -124.826153 
L 674.458233 -122.06329 
L 673.404743 -119.300426 
L 672.445269 -116.537562 
L 671.577777 -113.774699 
L 670.799083 -111.011835 
L 670.105069 -108.248971 
L 669.490883 -105.486108 
L 668.951143 -102.723244 
L 668.48012 -99.96038 
L 668.071906 -97.197517 
L 667.720558 -94.434653 
L 667.420227 -91.671789 
z
" id="me5a14e33b1" style="stroke:#3d3d3d;stroke-width:2.25;"/>
    </defs>
    <g clip-path="url(#paf6b79a265)">
     <use style="fill:#3a923a;stroke:#3d3d3d;stroke-width:2.25;" x="0" xlink:href="#me5a14e33b1" y="432"/>
    </g>
   </g>
   <g id="matplotlib.axis_1">
    <g id="xtick_1">
     <g id="line2d_1">
      <defs>
       <path d="M 0 0 
L 0 9 
" id="md2bfb9dfb3" style="stroke:#000000;stroke-width:1.875;"/>
      </defs>
      <g>
       <use style="stroke:#000000;stroke-width:1.875;" x="219.6" xlink:href="#md2bfb9dfb3" y="378"/>
      </g>
     </g>
     <g id="text_1">
      <!-- inserted_early_rep -->
      <g transform="translate(143.297812 403.037422)scale(0.165 -0.165)">
       <defs>
        <path d="M 9.421875 54.6875 
L 18.40625 54.6875 
L 18.40625 0 
L 9.421875 0 
z
M 9.421875 75.984375 
L 18.40625 75.984375 
L 18.40625 64.59375 
L 9.421875 64.59375 
z
" id="DejaVuSans-105"/>
        <path d="M 54.890625 33.015625 
L 54.890625 0 
L 45.90625 0 
L 45.90625 32.71875 
Q 45.90625 40.484375 42.875 44.328125 
Q 39.84375 48.1875 33.796875 48.1875 
Q 26.515625 48.1875 22.3125 43.546875 
Q 18.109375 38.921875 18.109375 30.90625 
L 18.109375 0 
L 9.078125 0 
L 9.078125 54.6875 
L 18.109375 54.6875 
L 18.109375 46.1875 
Q 21.34375 51.125 25.703125 53.5625 
Q 30.078125 56 35.796875 56 
Q 45.21875 56 50.046875 50.171875 
Q 54.890625 44.34375 54.890625 33.015625 
z
" id="DejaVuSans-110"/>
        <path d="M 44.28125 53.078125 
L 44.28125 44.578125 
Q 40.484375 46.53125 36.375 47.5 
Q 32.28125 48.484375 27.875 48.484375 
Q 21.1875 48.484375 17.84375 46.4375 
Q 14.5 44.390625 14.5 40.28125 
Q 14.5 37.15625 16.890625 35.375 
Q 19.28125 33.59375 26.515625 31.984375 
L 29.59375 31.296875 
Q 39.15625 29.25 43.1875 25.515625 
Q 47.21875 21.78125 47.21875 15.09375 
Q 47.21875 7.46875 41.1875 3.015625 
Q 35.15625 -1.421875 24.609375 -1.421875 
Q 20.21875 -1.421875 15.453125 -0.5625 
Q 10.6875 0.296875 5.421875 2 
L 5.421875 11.28125 
Q 10.40625 8.6875 15.234375 7.390625 
Q 20.0625 6.109375 24.8125 6.109375 
Q 31.15625 6.109375 34.5625 8.28125 
Q 37.984375 10.453125 37.984375 14.40625 
Q 37.984375 18.0625 35.515625 20.015625 
Q 33.0625 21.96875 24.703125 23.78125 
L 21.578125 24.515625 
Q 13.234375 26.265625 9.515625 29.90625 
Q 5.8125 33.546875 5.8125 39.890625 
Q 5.8125 47.609375 11.28125 51.796875 
Q 16.75 56 26.8125 56 
Q 31.78125 56 36.171875 55.265625 
Q 40.578125 54.546875 44.28125 53.078125 
z
" id="DejaVuSans-115"/>
        <path d="M 56.203125 29.59375 
L 56.203125 25.203125 
L 14.890625 25.203125 
Q 15.484375 15.921875 20.484375 11.0625 
Q 25.484375 6.203125 34.421875 6.203125 
Q 39.59375 6.203125 44.453125 7.46875 
Q 49.3125 8.734375 54.109375 11.28125 
L 54.109375 2.78125 
Q 49.265625 0.734375 44.1875 -0.34375 
Q 39.109375 -1.421875 33.890625 -1.421875 
Q 20.796875 -1.421875 13.15625 6.1875 
Q 5.515625 13.8125 5.515625 26.8125 
Q 5.515625 40.234375 12.765625 48.109375 
Q 20.015625 56 32.328125 56 
Q 43.359375 56 49.78125 48.890625 
Q 56.203125 41.796875 56.203125 29.59375 
z
M 47.21875 32.234375 
Q 47.125 39.59375 43.09375 43.984375 
Q 39.0625 48.390625 32.421875 48.390625 
Q 24.90625 48.390625 20.390625 44.140625 
Q 15.875 39.890625 15.1875 32.171875 
z
" id="DejaVuSans-101"/>
        <path d="M 41.109375 46.296875 
Q 39.59375 47.171875 37.8125 47.578125 
Q 36.03125 48 33.890625 48 
Q 26.265625 48 22.1875 43.046875 
Q 18.109375 38.09375 18.109375 28.8125 
L 18.109375 0 
L 9.078125 0 
L 9.078125 54.6875 
L 18.109375 54.6875 
L 18.109375 46.1875 
Q 20.953125 51.171875 25.484375 53.578125 
Q 30.03125 56 36.53125 56 
Q 37.453125 56 38.578125 55.875 
Q 39.703125 55.765625 41.0625 55.515625 
z
" id="DejaVuSans-114"/>
        <path d="M 18.3125 70.21875 
L 18.3125 54.6875 
L 36.8125 54.6875 
L 36.8125 47.703125 
L 18.3125 47.703125 
L 18.3125 18.015625 
Q 18.3125 11.328125 20.140625 9.421875 
Q 21.96875 7.515625 27.59375 7.515625 
L 36.8125 7.515625 
L 36.8125 0 
L 27.59375 0 
Q 17.1875 0 13.234375 3.875 
Q 9.28125 7.765625 9.28125 18.015625 
L 9.28125 47.703125 
L 2.6875 47.703125 
L 2.6875 54.6875 
L 9.28125 54.6875 
L 9.28125 70.21875 
z
" id="DejaVuSans-116"/>
        <path d="M 45.40625 46.390625 
L 45.40625 75.984375 
L 54.390625 75.984375 
L 54.390625 0 
L 45.40625 0 
L 45.40625 8.203125 
Q 42.578125 3.328125 38.25 0.953125 
Q 33.9375 -1.421875 27.875 -1.421875 
Q 17.96875 -1.421875 11.734375 6.484375 
Q 5.515625 14.40625 5.515625 27.296875 
Q 5.515625 40.1875 11.734375 48.09375 
Q 17.96875 56 27.875 56 
Q 33.9375 56 38.25 53.625 
Q 42.578125 51.265625 45.40625 46.390625 
z
M 14.796875 27.296875 
Q 14.796875 17.390625 18.875 11.75 
Q 22.953125 6.109375 30.078125 6.109375 
Q 37.203125 6.109375 41.296875 11.75 
Q 45.40625 17.390625 45.40625 27.296875 
Q 45.40625 37.203125 41.296875 42.84375 
Q 37.203125 48.484375 30.078125 48.484375 
Q 22.953125 48.484375 18.875 42.84375 
Q 14.796875 37.203125 14.796875 27.296875 
z
" id="DejaVuSans-100"/>
        <path d="M 50.984375 -16.609375 
L 50.984375 -23.578125 
L -0.984375 -23.578125 
L -0.984375 -16.609375 
z
" id="DejaVuSans-95"/>
        <path d="M 34.28125 27.484375 
Q 23.390625 27.484375 19.1875 25 
Q 14.984375 22.515625 14.984375 16.5 
Q 14.984375 11.71875 18.140625 8.90625 
Q 21.296875 6.109375 26.703125 6.109375 
Q 34.1875 6.109375 38.703125 11.40625 
Q 43.21875 16.703125 43.21875 25.484375 
L 43.21875 27.484375 
z
M 52.203125 31.203125 
L 52.203125 0 
L 43.21875 0 
L 43.21875 8.296875 
Q 40.140625 3.328125 35.546875 0.953125 
Q 30.953125 -1.421875 24.3125 -1.421875 
Q 15.921875 -1.421875 10.953125 3.296875 
Q 6 8.015625 6 15.921875 
Q 6 25.140625 12.171875 29.828125 
Q 18.359375 34.515625 30.609375 34.515625 
L 43.21875 34.515625 
L 43.21875 35.40625 
Q 43.21875 41.609375 39.140625 45 
Q 35.0625 48.390625 27.6875 48.390625 
Q 23 48.390625 18.546875 47.265625 
Q 14.109375 46.140625 10.015625 43.890625 
L 10.015625 52.203125 
Q 14.9375 54.109375 19.578125 55.046875 
Q 24.21875 56 28.609375 56 
Q 40.484375 56 46.34375 49.84375 
Q 52.203125 43.703125 52.203125 31.203125 
z
" id="DejaVuSans-97"/>
        <path d="M 9.421875 75.984375 
L 18.40625 75.984375 
L 18.40625 0 
L 9.421875 0 
z
" id="DejaVuSans-108"/>
        <path d="M 32.171875 -5.078125 
Q 28.375 -14.84375 24.75 -17.8125 
Q 21.140625 -20.796875 15.09375 -20.796875 
L 7.90625 -20.796875 
L 7.90625 -13.28125 
L 13.1875 -13.28125 
Q 16.890625 -13.28125 18.9375 -11.515625 
Q 21 -9.765625 23.484375 -3.21875 
L 25.09375 0.875 
L 2.984375 54.6875 
L 12.5 54.6875 
L 29.59375 11.921875 
L 46.6875 54.6875 
L 56.203125 54.6875 
z
" id="DejaVuSans-121"/>
        <path d="M 18.109375 8.203125 
L 18.109375 -20.796875 
L 9.078125 -20.796875 
L 9.078125 54.6875 
L 18.109375 54.6875 
L 18.109375 46.390625 
Q 20.953125 51.265625 25.265625 53.625 
Q 29.59375 56 35.59375 56 
Q 45.5625 56 51.78125 48.09375 
Q 58.015625 40.1875 58.015625 27.296875 
Q 58.015625 14.40625 51.78125 6.484375 
Q 45.5625 -1.421875 35.59375 -1.421875 
Q 29.59375 -1.421875 25.265625 0.953125 
Q 20.953125 3.328125 18.109375 8.203125 
z
M 48.6875 27.296875 
Q 48.6875 37.203125 44.609375 42.84375 
Q 40.53125 48.484375 33.40625 48.484375 
Q 26.265625 48.484375 22.1875 42.84375 
Q 18.109375 37.203125 18.109375 27.296875 
Q 18.109375 17.390625 22.1875 11.75 
Q 26.265625 6.109375 33.40625 6.109375 
Q 40.53125 6.109375 44.609375 11.75 
Q 48.6875 17.390625 48.6875 27.296875 
z
" id="DejaVuSans-112"/>
       </defs>
       <use xlink:href="#DejaVuSans-105"/>
       <use x="27.783203" xlink:href="#DejaVuSans-110"/>
       <use x="91.162109" xlink:href="#DejaVuSans-115"/>
       <use x="143.261719" xlink:href="#DejaVuSans-101"/>
       <use x="204.785156" xlink:href="#DejaVuSans-114"/>
       <use x="245.898438" xlink:href="#DejaVuSans-116"/>
       <use x="285.107422" xlink:href="#DejaVuSans-101"/>
       <use x="346.630859" xlink:href="#DejaVuSans-100"/>
       <use x="410.107422" xlink:href="#DejaVuSans-95"/>
       <use x="460.107422" xlink:href="#DejaVuSans-101"/>
       <use x="521.630859" xlink:href="#DejaVuSans-97"/>
       <use x="582.910156" xlink:href="#DejaVuSans-114"/>
       <use x="624.023438" xlink:href="#DejaVuSans-108"/>
       <use x="651.806641" xlink:href="#DejaVuSans-121"/>
       <use x="710.986328" xlink:href="#DejaVuSans-95"/>
       <use x="760.986328" xlink:href="#DejaVuSans-114"/>
       <use x="799.849609" xlink:href="#DejaVuSans-101"/>
       <use x="861.373047" xlink:href="#DejaVuSans-112"/>
      </g>
     </g>
    </g>
    <g id="xtick_2">
     <g id="line2d_2">
      <g>
       <use style="stroke:#000000;stroke-width:1.875;" x="442.8" xlink:href="#md2bfb9dfb3" y="378"/>
      </g>
     </g>
     <g id="text_2">
      <!-- inserted_middle_rep -->
      <g transform="translate(359.025117 403.037422)scale(0.165 -0.165)">
       <defs>
        <path d="M 52 44.1875 
Q 55.375 50.25 60.0625 53.125 
Q 64.75 56 71.09375 56 
Q 79.640625 56 84.28125 50.015625 
Q 88.921875 44.046875 88.921875 33.015625 
L 88.921875 0 
L 79.890625 0 
L 79.890625 32.71875 
Q 79.890625 40.578125 77.09375 44.375 
Q 74.3125 48.1875 68.609375 48.1875 
Q 61.625 48.1875 57.5625 43.546875 
Q 53.515625 38.921875 53.515625 30.90625 
L 53.515625 0 
L 44.484375 0 
L 44.484375 32.71875 
Q 44.484375 40.625 41.703125 44.40625 
Q 38.921875 48.1875 33.109375 48.1875 
Q 26.21875 48.1875 22.15625 43.53125 
Q 18.109375 38.875 18.109375 30.90625 
L 18.109375 0 
L 9.078125 0 
L 9.078125 54.6875 
L 18.109375 54.6875 
L 18.109375 46.1875 
Q 21.1875 51.21875 25.484375 53.609375 
Q 29.78125 56 35.6875 56 
Q 41.65625 56 45.828125 52.96875 
Q 50 49.953125 52 44.1875 
z
" id="DejaVuSans-109"/>
       </defs>
       <use xlink:href="#DejaVuSans-105"/>
       <use x="27.783203" xlink:href="#DejaVuSans-110"/>
       <use x="91.162109" xlink:href="#DejaVuSans-115"/>
       <use x="143.261719" xlink:href="#DejaVuSans-101"/>
       <use x="204.785156" xlink:href="#DejaVuSans-114"/>
       <use x="245.898438" xlink:href="#DejaVuSans-116"/>
       <use x="285.107422" xlink:href="#DejaVuSans-101"/>
       <use x="346.630859" xlink:href="#DejaVuSans-100"/>
       <use x="410.107422" xlink:href="#DejaVuSans-95"/>
       <use x="460.107422" xlink:href="#DejaVuSans-109"/>
       <use x="557.519531" xlink:href="#DejaVuSans-105"/>
       <use x="585.302734" xlink:href="#DejaVuSans-100"/>
       <use x="648.779297" xlink:href="#DejaVuSans-100"/>
       <use x="712.255859" xlink:href="#DejaVuSans-108"/>
       <use x="740.039062" xlink:href="#DejaVuSans-101"/>
       <use x="801.5625" xlink:href="#DejaVuSans-95"/>
       <use x="851.5625" xlink:href="#DejaVuSans-114"/>
       <use x="890.425781" xlink:href="#DejaVuSans-101"/>
       <use x="951.949219" xlink:href="#DejaVuSans-112"/>
      </g>
     </g>
    </g>
    <g id="xtick_3">
     <g id="line2d_3">
      <g>
       <use style="stroke:#000000;stroke-width:1.875;" x="666" xlink:href="#md2bfb9dfb3" y="378"/>
      </g>
     </g>
     <g id="text_3">
      <!-- inserted_late_rep -->
      <g transform="translate(594.738047 403.037422)scale(0.165 -0.165)">
       <use xlink:href="#DejaVuSans-105"/>
       <use x="27.783203" xlink:href="#DejaVuSans-110"/>
       <use x="91.162109" xlink:href="#DejaVuSans-115"/>
       <use x="143.261719" xlink:href="#DejaVuSans-101"/>
       <use x="204.785156" xlink:href="#DejaVuSans-114"/>
       <use x="245.898438" xlink:href="#DejaVuSans-116"/>
       <use x="285.107422" xlink:href="#DejaVuSans-101"/>
       <use x="346.630859" xlink:href="#DejaVuSans-100"/>
       <use x="410.107422" xlink:href="#DejaVuSans-95"/>
       <use x="460.107422" xlink:href="#DejaVuSans-108"/>
       <use x="487.890625" xlink:href="#DejaVuSans-97"/>
       <use x="549.169922" xlink:href="#DejaVuSans-116"/>
       <use x="588.378906" xlink:href="#DejaVuSans-101"/>
       <use x="649.902344" xlink:href="#DejaVuSans-95"/>
       <use x="699.902344" xlink:href="#DejaVuSans-114"/>
       <use x="738.765625" xlink:href="#DejaVuSans-101"/>
       <use x="800.289062" xlink:href="#DejaVuSans-112"/>
      </g>
     </g>
    </g>
    <g id="text_4">
     <!-- condition -->
     <g transform="translate(401.187656 424.605)scale(0.18 -0.18)">
      <defs>
       <path d="M 48.78125 52.59375 
L 48.78125 44.1875 
Q 44.96875 46.296875 41.140625 47.34375 
Q 37.3125 48.390625 33.40625 48.390625 
Q 24.65625 48.390625 19.8125 42.84375 
Q 14.984375 37.3125 14.984375 27.296875 
Q 14.984375 17.28125 19.8125 11.734375 
Q 24.65625 6.203125 33.40625 6.203125 
Q 37.3125 6.203125 41.140625 7.25 
Q 44.96875 8.296875 48.78125 10.40625 
L 48.78125 2.09375 
Q 45.015625 0.34375 40.984375 -0.53125 
Q 36.96875 -1.421875 32.421875 -1.421875 
Q 20.0625 -1.421875 12.78125 6.34375 
Q 5.515625 14.109375 5.515625 27.296875 
Q 5.515625 40.671875 12.859375 48.328125 
Q 20.21875 56 33.015625 56 
Q 37.15625 56 41.109375 55.140625 
Q 45.0625 54.296875 48.78125 52.59375 
z
" id="DejaVuSans-99"/>
       <path d="M 30.609375 48.390625 
Q 23.390625 48.390625 19.1875 42.75 
Q 14.984375 37.109375 14.984375 27.296875 
Q 14.984375 17.484375 19.15625 11.84375 
Q 23.34375 6.203125 30.609375 6.203125 
Q 37.796875 6.203125 41.984375 11.859375 
Q 46.1875 17.53125 46.1875 27.296875 
Q 46.1875 37.015625 41.984375 42.703125 
Q 37.796875 48.390625 30.609375 48.390625 
z
M 30.609375 56 
Q 42.328125 56 49.015625 48.375 
Q 55.71875 40.765625 55.71875 27.296875 
Q 55.71875 13.875 49.015625 6.21875 
Q 42.328125 -1.421875 30.609375 -1.421875 
Q 18.84375 -1.421875 12.171875 6.21875 
Q 5.515625 13.875 5.515625 27.296875 
Q 5.515625 40.765625 12.171875 48.375 
Q 18.84375 56 30.609375 56 
z
" id="DejaVuSans-111"/>
      </defs>
      <use xlink:href="#DejaVuSans-99"/>
      <use x="54.980469" xlink:href="#DejaVuSans-111"/>
      <use x="116.162109" xlink:href="#DejaVuSans-110"/>
      <use x="179.541016" xlink:href="#DejaVuSans-100"/>
      <use x="243.017578" xlink:href="#DejaVuSans-105"/>
      <use x="270.800781" xlink:href="#DejaVuSans-116"/>
      <use x="310.009766" xlink:href="#DejaVuSans-105"/>
      <use x="337.792969" xlink:href="#DejaVuSans-111"/>
      <use x="398.974609" xlink:href="#DejaVuSans-110"/>
     </g>
    </g>
   </g>
   <g id="matplotlib.axis_2">
    <g id="ytick_1">
     <g id="line2d_4">
      <defs>
       <path d="M 0 0 
L -9 0 
" id="m89e88f27da" style="stroke:#000000;stroke-width:1.875;"/>
      </defs>
      <g>
       <use style="stroke:#000000;stroke-width:1.875;" x="108" xlink:href="#m89e88f27da" y="359.385859"/>
      </g>
     </g>
     <g id="text_5">
      <!-- 0.2 -->
      <g transform="translate(69.259844 365.65457)scale(0.165 -0.165)">
       <defs>
        <path d="M 31.78125 66.40625 
Q 24.171875 66.40625 20.328125 58.90625 
Q 16.5 51.421875 16.5 36.375 
Q 16.5 21.390625 20.328125 13.890625 
Q 24.171875 6.390625 31.78125 6.390625 
Q 39.453125 6.390625 43.28125 13.890625 
Q 47.125 21.390625 47.125 36.375 
Q 47.125 51.421875 43.28125 58.90625 
Q 39.453125 66.40625 31.78125 66.40625 
z
M 31.78125 74.21875 
Q 44.046875 74.21875 50.515625 64.515625 
Q 56.984375 54.828125 56.984375 36.375 
Q 56.984375 17.96875 50.515625 8.265625 
Q 44.046875 -1.421875 31.78125 -1.421875 
Q 19.53125 -1.421875 13.0625 8.265625 
Q 6.59375 17.96875 6.59375 36.375 
Q 6.59375 54.828125 13.0625 64.515625 
Q 19.53125 74.21875 31.78125 74.21875 
z
" id="DejaVuSans-48"/>
        <path d="M 10.6875 12.40625 
L 21 12.40625 
L 21 0 
L 10.6875 0 
z
" id="DejaVuSans-46"/>
        <path d="M 19.1875 8.296875 
L 53.609375 8.296875 
L 53.609375 0 
L 7.328125 0 
L 7.328125 8.296875 
Q 12.9375 14.109375 22.625 23.890625 
Q 32.328125 33.6875 34.8125 36.53125 
Q 39.546875 41.84375 41.421875 45.53125 
Q 43.3125 49.21875 43.3125 52.78125 
Q 43.3125 58.59375 39.234375 62.25 
Q 35.15625 65.921875 28.609375 65.921875 
Q 23.96875 65.921875 18.8125 64.3125 
Q 13.671875 62.703125 7.8125 59.421875 
L 7.8125 69.390625 
Q 13.765625 71.78125 18.9375 73 
Q 24.125 74.21875 28.421875 74.21875 
Q 39.75 74.21875 46.484375 68.546875 
Q 53.21875 62.890625 53.21875 53.421875 
Q 53.21875 48.921875 51.53125 44.890625 
Q 49.859375 40.875 45.40625 35.40625 
Q 44.1875 33.984375 37.640625 27.21875 
Q 31.109375 20.453125 19.1875 8.296875 
z
" id="DejaVuSans-50"/>
       </defs>
       <use xlink:href="#DejaVuSans-48"/>
       <use x="63.623047" xlink:href="#DejaVuSans-46"/>
       <use x="95.410156" xlink:href="#DejaVuSans-50"/>
      </g>
     </g>
    </g>
    <g id="ytick_2">
     <g id="line2d_5">
      <g>
       <use style="stroke:#000000;stroke-width:1.875;" x="108" xlink:href="#m89e88f27da" y="301.380628"/>
      </g>
     </g>
     <g id="text_6">
      <!-- 0.4 -->
      <g transform="translate(69.259844 307.649339)scale(0.165 -0.165)">
       <defs>
        <path d="M 37.796875 64.3125 
L 12.890625 25.390625 
L 37.796875 25.390625 
z
M 35.203125 72.90625 
L 47.609375 72.90625 
L 47.609375 25.390625 
L 58.015625 25.390625 
L 58.015625 17.1875 
L 47.609375 17.1875 
L 47.609375 0 
L 37.796875 0 
L 37.796875 17.1875 
L 4.890625 17.1875 
L 4.890625 26.703125 
z
" id="DejaVuSans-52"/>
       </defs>
       <use xlink:href="#DejaVuSans-48"/>
       <use x="63.623047" xlink:href="#DejaVuSans-46"/>
       <use x="95.410156" xlink:href="#DejaVuSans-52"/>
      </g>
     </g>
    </g>
    <g id="ytick_3">
     <g id="line2d_6">
      <g>
       <use style="stroke:#000000;stroke-width:1.875;" x="108" xlink:href="#m89e88f27da" y="243.375396"/>
      </g>
     </g>
     <g id="text_7">
      <!-- 0.6 -->
      <g transform="translate(69.259844 249.644107)scale(0.165 -0.165)">
       <defs>
        <path d="M 33.015625 40.375 
Q 26.375 40.375 22.484375 35.828125 
Q 18.609375 31.296875 18.609375 23.390625 
Q 18.609375 15.53125 22.484375 10.953125 
Q 26.375 6.390625 33.015625 6.390625 
Q 39.65625 6.390625 43.53125 10.953125 
Q 47.40625 15.53125 47.40625 23.390625 
Q 47.40625 31.296875 43.53125 35.828125 
Q 39.65625 40.375 33.015625 40.375 
z
M 52.59375 71.296875 
L 52.59375 62.3125 
Q 48.875 64.0625 45.09375 64.984375 
Q 41.3125 65.921875 37.59375 65.921875 
Q 27.828125 65.921875 22.671875 59.328125 
Q 17.53125 52.734375 16.796875 39.40625 
Q 19.671875 43.65625 24.015625 45.921875 
Q 28.375 48.1875 33.59375 48.1875 
Q 44.578125 48.1875 50.953125 41.515625 
Q 57.328125 34.859375 57.328125 23.390625 
Q 57.328125 12.15625 50.6875 5.359375 
Q 44.046875 -1.421875 33.015625 -1.421875 
Q 20.359375 -1.421875 13.671875 8.265625 
Q 6.984375 17.96875 6.984375 36.375 
Q 6.984375 53.65625 15.1875 63.9375 
Q 23.390625 74.21875 37.203125 74.21875 
Q 40.921875 74.21875 44.703125 73.484375 
Q 48.484375 72.75 52.59375 71.296875 
z
" id="DejaVuSans-54"/>
       </defs>
       <use xlink:href="#DejaVuSans-48"/>
       <use x="63.623047" xlink:href="#DejaVuSans-46"/>
       <use x="95.410156" xlink:href="#DejaVuSans-54"/>
      </g>
     </g>
    </g>
    <g id="ytick_4">
     <g id="line2d_7">
      <g>
       <use style="stroke:#000000;stroke-width:1.875;" x="108" xlink:href="#m89e88f27da" y="185.370165"/>
      </g>
     </g>
     <g id="text_8">
      <!-- 0.8 -->
      <g transform="translate(69.259844 191.638876)scale(0.165 -0.165)">
       <defs>
        <path d="M 31.78125 34.625 
Q 24.75 34.625 20.71875 30.859375 
Q 16.703125 27.09375 16.703125 20.515625 
Q 16.703125 13.921875 20.71875 10.15625 
Q 24.75 6.390625 31.78125 6.390625 
Q 38.8125 6.390625 42.859375 10.171875 
Q 46.921875 13.96875 46.921875 20.515625 
Q 46.921875 27.09375 42.890625 30.859375 
Q 38.875 34.625 31.78125 34.625 
z
M 21.921875 38.8125 
Q 15.578125 40.375 12.03125 44.71875 
Q 8.5 49.078125 8.5 55.328125 
Q 8.5 64.0625 14.71875 69.140625 
Q 20.953125 74.21875 31.78125 74.21875 
Q 42.671875 74.21875 48.875 69.140625 
Q 55.078125 64.0625 55.078125 55.328125 
Q 55.078125 49.078125 51.53125 44.71875 
Q 48 40.375 41.703125 38.8125 
Q 48.828125 37.15625 52.796875 32.3125 
Q 56.78125 27.484375 56.78125 20.515625 
Q 56.78125 9.90625 50.3125 4.234375 
Q 43.84375 -1.421875 31.78125 -1.421875 
Q 19.734375 -1.421875 13.25 4.234375 
Q 6.78125 9.90625 6.78125 20.515625 
Q 6.78125 27.484375 10.78125 32.3125 
Q 14.796875 37.15625 21.921875 38.8125 
z
M 18.3125 54.390625 
Q 18.3125 48.734375 21.84375 45.5625 
Q 25.390625 42.390625 31.78125 42.390625 
Q 38.140625 42.390625 41.71875 45.5625 
Q 45.3125 48.734375 45.3125 54.390625 
Q 45.3125 60.0625 41.71875 63.234375 
Q 38.140625 66.40625 31.78125 66.40625 
Q 25.390625 66.40625 21.84375 63.234375 
Q 18.3125 60.0625 18.3125 54.390625 
z
" id="DejaVuSans-56"/>
       </defs>
       <use xlink:href="#DejaVuSans-48"/>
       <use x="63.623047" xlink:href="#DejaVuSans-46"/>
       <use x="95.410156" xlink:href="#DejaVuSans-56"/>
      </g>
     </g>
    </g>
    <g id="ytick_5">
     <g id="line2d_8">
      <g>
       <use style="stroke:#000000;stroke-width:1.875;" x="108" xlink:href="#m89e88f27da" y="127.364934"/>
      </g>
     </g>
     <g id="text_9">
      <!-- 1.0 -->
      <g transform="translate(69.259844 133.633645)scale(0.165 -0.165)">
       <defs>
        <path d="M 12.40625 8.296875 
L 28.515625 8.296875 
L 28.515625 63.921875 
L 10.984375 60.40625 
L 10.984375 69.390625 
L 28.421875 72.90625 
L 38.28125 72.90625 
L 38.28125 8.296875 
L 54.390625 8.296875 
L 54.390625 0 
L 12.40625 0 
z
" id="DejaVuSans-49"/>
       </defs>
       <use xlink:href="#DejaVuSans-49"/>
       <use x="63.623047" xlink:href="#DejaVuSans-46"/>
       <use x="95.410156" xlink:href="#DejaVuSans-48"/>
      </g>
     </g>
    </g>
    <g id="ytick_6">
     <g id="line2d_9">
      <g>
       <use style="stroke:#000000;stroke-width:1.875;" x="108" xlink:href="#m89e88f27da" y="69.359703"/>
      </g>
     </g>
     <g id="text_10">
      <!-- 1.2 -->
      <g transform="translate(69.259844 75.628414)scale(0.165 -0.165)">
       <use xlink:href="#DejaVuSans-49"/>
       <use x="63.623047" xlink:href="#DejaVuSans-46"/>
       <use x="95.410156" xlink:href="#DejaVuSans-50"/>
      </g>
     </g>
    </g>
    <g id="text_11">
     <!-- prediction accuracy -->
     <g transform="translate(61.516406 303.537656)rotate(-90)scale(0.18 -0.18)">
      <defs>
       <path id="DejaVuSans-32"/>
       <path d="M 8.5 21.578125 
L 8.5 54.6875 
L 17.484375 54.6875 
L 17.484375 21.921875 
Q 17.484375 14.15625 20.5 10.265625 
Q 23.53125 6.390625 29.59375 6.390625 
Q 36.859375 6.390625 41.078125 11.03125 
Q 45.3125 15.671875 45.3125 23.6875 
L 45.3125 54.6875 
L 54.296875 54.6875 
L 54.296875 0 
L 45.3125 0 
L 45.3125 8.40625 
Q 42.046875 3.421875 37.71875 1 
Q 33.40625 -1.421875 27.6875 -1.421875 
Q 18.265625 -1.421875 13.375 4.4375 
Q 8.5 10.296875 8.5 21.578125 
z
M 31.109375 56 
z
" id="DejaVuSans-117"/>
      </defs>
      <use xlink:href="#DejaVuSans-112"/>
      <use x="63.476562" xlink:href="#DejaVuSans-114"/>
      <use x="102.339844" xlink:href="#DejaVuSans-101"/>
      <use x="163.863281" xlink:href="#DejaVuSans-100"/>
      <use x="227.339844" xlink:href="#DejaVuSans-105"/>
      <use x="255.123047" xlink:href="#DejaVuSans-99"/>
      <use x="310.103516" xlink:href="#DejaVuSans-116"/>
      <use x="349.3125" xlink:href="#DejaVuSans-105"/>
      <use x="377.095703" xlink:href="#DejaVuSans-111"/>
      <use x="438.277344" xlink:href="#DejaVuSans-110"/>
      <use x="501.65625" xlink:href="#DejaVuSans-32"/>
      <use x="533.443359" xlink:href="#DejaVuSans-97"/>
      <use x="594.722656" xlink:href="#DejaVuSans-99"/>
      <use x="649.703125" xlink:href="#DejaVuSans-99"/>
      <use x="704.683594" xlink:href="#DejaVuSans-117"/>
      <use x="768.0625" xlink:href="#DejaVuSans-114"/>
      <use x="809.175781" xlink:href="#DejaVuSans-97"/>
      <use x="870.455078" xlink:href="#DejaVuSans-99"/>
      <use x="925.435547" xlink:href="#DejaVuSans-121"/>
     </g>
    </g>
   </g>
   <g id="line2d_10">
    <path clip-path="url(#paf6b79a265)" d="M 219.6 170.155678 
L 219.6 127.364934 
" style="fill:none;stroke:#3d3d3d;stroke-linecap:square;stroke-width:2.25;"/>
   </g>
   <g id="line2d_11">
    <path clip-path="url(#paf6b79a265)" d="M 219.6 151.248269 
L 219.6 132.298877 
" style="fill:none;stroke:#3d3d3d;stroke-linecap:square;stroke-width:6.75;"/>
   </g>
   <g id="line2d_12">
    <path clip-path="url(#paf6b79a265)" d="M 442.8 302.475066 
L 442.8 127.364934 
" style="fill:none;stroke:#3d3d3d;stroke-linecap:square;stroke-width:2.25;"/>
   </g>
   <g id="line2d_13">
    <path clip-path="url(#paf6b79a265)" d="M 442.8 272.992474 
L 442.8 169.148363 
" style="fill:none;stroke:#3d3d3d;stroke-linecap:square;stroke-width:6.75;"/>
   </g>
   <g id="line2d_14">
    <path clip-path="url(#paf6b79a265)" d="M 666 274.679807 
L 666 132.453112 
" style="fill:none;stroke:#3d3d3d;stroke-linecap:square;stroke-width:2.25;"/>
   </g>
   <g id="line2d_15">
    <path clip-path="url(#paf6b79a265)" d="M 666 246.857618 
L 666 150.75414 
" style="fill:none;stroke:#3d3d3d;stroke-linecap:square;stroke-width:6.75;"/>
   </g>
   <g id="patch_3">
    <path d="M 108 378 
L 108 51.84 
" style="fill:none;stroke:#000000;stroke-linecap:square;stroke-linejoin:miter;stroke-width:1.875;"/>
   </g>
   <g id="patch_4">
    <path d="M 777.6 378 
L 777.6 51.84 
" style="fill:none;stroke:#000000;stroke-linecap:square;stroke-linejoin:miter;stroke-width:1.875;"/>
   </g>
   <g id="patch_5">
    <path d="M 108 378 
L 777.6 378 
" style="fill:none;stroke:#000000;stroke-linecap:square;stroke-linejoin:miter;stroke-width:1.875;"/>
   </g>
   <g id="patch_6">
    <path d="M 108 51.84 
L 777.6 51.84 
" style="fill:none;stroke:#000000;stroke-linecap:square;stroke-linejoin:miter;stroke-width:1.875;"/>
   </g>
   <g id="PathCollection_1">
    <defs>
     <path d="M 0 2.25 
C 0.596707 2.25 1.169055 2.012926 1.59099 1.59099 
C 2.012926 1.169055 2.25 0.596707 2.25 0 
C 2.25 -0.596707 2.012926 -1.169055 1.59099 -1.59099 
C 1.169055 -2.012926 0.596707 -2.25 0 -2.25 
C -0.596707 -2.25 -1.169055 -2.012926 -1.59099 -1.59099 
C -2.012926 -1.169055 -2.25 -0.596707 -2.25 0 
C -2.25 0.596707 -2.012926 1.169055 -1.59099 1.59099 
C -1.169055 2.012926 -0.596707 2.25 0 2.25 
z
" id="mda428d72b3" style="stroke:#3d3d3d;stroke-width:1.5;"/>
    </defs>
    <g clip-path="url(#paf6b79a265)">
     <use style="fill:#ffffff;stroke:#3d3d3d;stroke-width:1.5;" x="219.6" xlink:href="#mda428d72b3" y="141.755242"/>
    </g>
   </g>
   <g id="PathCollection_2">
    <g clip-path="url(#paf6b79a265)">
     <use style="fill:#ffffff;stroke:#3d3d3d;stroke-width:1.5;" x="442.8" xlink:href="#mda428d72b3" y="241.473586"/>
    </g>
   </g>
   <g id="PathCollection_3">
    <g clip-path="url(#paf6b79a265)">
     <use style="fill:#ffffff;stroke:#3d3d3d;stroke-width:1.5;" x="666" xlink:href="#mda428d72b3" y="230.509157"/>
    </g>
   </g>
  </g>
 </g>
 <defs>
  <clipPath id="paf6b79a265">
   <rect height="326.16" width="669.6" x="108" y="51.84"/>
  </clipPath>
 </defs>
</svg>
