<?xml version="1.0" encoding="utf-8" standalone="no"?>
<!DOCTYPE svg PUBLIC "-//W3C//DTD SVG 1.1//EN"
  "http://www.w3.org/Graphics/SVG/1.1/DTD/svg11.dtd">
<!-- Created with matplotlib (https://matplotlib.org/) -->
<svg height="432pt" version="1.1" viewBox="0 0 864 432" width="864pt" xmlns="http://www.w3.org/2000/svg" xmlns:xlink="http://www.w3.org/1999/xlink">
 <metadata>
  <rdf:RDF xmlns:cc="http://creativecommons.org/ns#" xmlns:dc="http://purl.org/dc/elements/1.1/" xmlns:rdf="http://www.w3.org/1999/02/22-rdf-syntax-ns#">
   <cc:Work>
    <dc:type rdf:resource="http://purl.org/dc/dcmitype/StillImage"/>
    <dc:date>2023-04-16T12:01:24.643734</dc:date>
    <dc:format>image/svg+xml</dc:format>
    <dc:creator>
     <cc:Agent>
      <dc:title>Matplotlib v3.3.4, https://matplotlib.org/</dc:title>
     </cc:Agent>
    </dc:creator>
   </cc:Work>
  </rdf:RDF>
 </metadata>
 <defs>
  <style type="text/css">*{stroke-linecap:butt;stroke-linejoin:round;}</style>
 </defs>
 <g id="figure_1">
  <g id="patch_1">
   <path d="M 0 432 
L 864 432 
L 864 0 
L 0 0 
z
" style="fill:none;"/>
  </g>
  <g id="axes_1">
   <g id="patch_2">
    <path d="M 108 378 
L 777.6 378 
L 777.6 51.84 
L 108 51.84 
z
" style="fill:#ffffff;"/>
   </g>
   <g id="PolyCollection_1">
    <defs>
     <path d="M 276.341224 -98.263636 
L 274.458776 -98.263636 
L 274.209814 -100.739211 
L 273.916849 -103.214785 
L 273.578591 -105.69036 
L 273.19563 -108.165934 
L 272.770817 -110.641509 
L 272.30954 -113.117083 
L 271.819858 -115.592658 
L 271.312432 -118.068233 
L 270.800243 -120.543807 
L 270.29807 -123.019382 
L 269.821745 -125.494956 
L 269.38723 -127.970531 
L 269.009568 -130.446105 
L 268.70179 -132.92168 
L 268.473875 -135.397254 
L 268.331859 -137.872829 
L 268.277172 -140.348403 
L 268.306282 -142.823978 
L 268.410685 -145.299552 
L 268.577249 -147.775127 
L 268.788897 -150.250701 
L 269.025573 -152.726276 
L 269.265413 -155.20185 
L 269.486029 -157.677425 
L 269.665798 -160.152999 
L 269.785069 -162.628574 
L 269.827178 -165.104148 
L 269.77923 -167.579723 
L 269.632581 -170.055297 
L 269.383014 -172.530872 
L 269.030621 -175.006446 
L 268.579428 -177.482021 
L 268.03682 -179.957596 
L 267.412853 -182.43317 
L 266.71952 -184.908745 
L 265.970064 -187.384319 
L 265.178389 -189.859894 
L 264.358624 -192.335468 
L 263.524837 -194.811043 
L 262.690889 -197.286617 
L 261.870357 -199.762192 
L 261.076454 -202.237766 
L 260.321847 -204.713341 
L 259.618281 -207.188915 
L 258.975923 -209.66449 
L 258.402414 -212.140064 
L 257.901613 -214.615639 
L 257.472116 -217.091213 
L 257.105663 -219.566788 
L 256.785601 -222.042362 
L 256.485586 -224.517937 
L 256.168712 -226.993511 
L 255.787257 -229.469086 
L 255.283151 -231.94466 
L 254.589261 -234.420235 
L 253.631492 -236.895809 
L 252.331635 -239.371384 
L 250.610858 -241.846959 
L 248.393661 -244.322533 
L 245.612104 -246.798108 
L 242.210095 -249.273682 
L 238.147544 -251.749257 
L 233.404173 -254.224831 
L 227.982831 -256.700406 
L 221.912132 -259.17598 
L 215.248302 -261.651555 
L 208.076086 -264.127129 
L 200.508591 -266.602704 
L 192.685952 -269.078278 
L 184.77272 -271.553853 
L 176.953892 -274.029427 
L 169.429562 -276.505002 
L 162.408263 -278.980576 
L 156.09914 -281.456151 
L 150.703237 -283.931725 
L 146.404307 -286.4073 
L 143.359641 -288.882874 
L 141.691532 -291.358449 
L 141.48 -293.834023 
L 142.757396 -296.309598 
L 145.505417 -298.785172 
L 149.654883 -301.260747 
L 155.088446 -303.736321 
L 161.646145 -306.211896 
L 169.133451 -308.687471 
L 177.33127 -311.163045 
L 186.007144 -313.63862 
L 194.926817 -316.114194 
L 203.865332 -318.589769 
L 212.616862 -321.065343 
L 221.002653 -323.540918 
L 228.876658 -326.016492 
L 236.128648 -328.492067 
L 242.684866 -330.967641 
L 248.506432 -333.443216 
L 253.585934 -335.91879 
L 257.942685 -338.394365 
L 261.6172 -340.869939 
L 264.665412 -343.345514 
L 286.134588 -343.345514 
L 286.134588 -343.345514 
L 289.1828 -340.869939 
L 292.857315 -338.394365 
L 297.214066 -335.91879 
L 302.293568 -333.443216 
L 308.115134 -330.967641 
L 314.671352 -328.492067 
L 321.923342 -326.016492 
L 329.797347 -323.540918 
L 338.183138 -321.065343 
L 346.934668 -318.589769 
L 355.873183 -316.114194 
L 364.792856 -313.63862 
L 373.46873 -311.163045 
L 381.666549 -308.687471 
L 389.153855 -306.211896 
L 395.711554 -303.736321 
L 401.145117 -301.260747 
L 405.294583 -298.785172 
L 408.042604 -296.309598 
L 409.32 -293.834023 
L 409.108468 -291.358449 
L 407.440359 -288.882874 
L 404.395693 -286.4073 
L 400.096763 -283.931725 
L 394.70086 -281.456151 
L 388.391737 -278.980576 
L 381.370438 -276.505002 
L 373.846108 -274.029427 
L 366.02728 -271.553853 
L 358.114048 -269.078278 
L 350.291409 -266.602704 
L 342.723914 -264.127129 
L 335.551698 -261.651555 
L 328.887868 -259.17598 
L 322.817169 -256.700406 
L 317.395827 -254.224831 
L 312.652456 -251.749257 
L 308.589905 -249.273682 
L 305.187896 -246.798108 
L 302.406339 -244.322533 
L 300.189142 -241.846959 
L 298.468365 -239.371384 
L 297.168508 -236.895809 
L 296.210739 -234.420235 
L 295.516849 -231.94466 
L 295.012743 -229.469086 
L 294.631288 -226.993511 
L 294.314414 -224.517937 
L 294.014399 -222.042362 
L 293.694337 -219.566788 
L 293.327884 -217.091213 
L 292.898387 -214.615639 
L 292.397586 -212.140064 
L 291.824077 -209.66449 
L 291.181719 -207.188915 
L 290.478153 -204.713341 
L 289.723546 -202.237766 
L 288.929643 -199.762192 
L 288.109111 -197.286617 
L 287.275163 -194.811043 
L 286.441376 -192.335468 
L 285.621611 -189.859894 
L 284.829936 -187.384319 
L 284.08048 -184.908745 
L 283.387147 -182.43317 
L 282.76318 -179.957596 
L 282.220572 -177.482021 
L 281.769379 -175.006446 
L 281.416986 -172.530872 
L 281.167419 -170.055297 
L 281.02077 -167.579723 
L 280.972822 -165.104148 
L 281.014931 -162.628574 
L 281.134202 -160.152999 
L 281.313971 -157.677425 
L 281.534587 -155.20185 
L 281.774427 -152.726276 
L 282.011103 -150.250701 
L 282.222751 -147.775127 
L 282.389315 -145.299552 
L 282.493718 -142.823978 
L 282.522828 -140.348403 
L 282.468141 -137.872829 
L 282.326125 -135.397254 
L 282.09821 -132.92168 
L 281.790432 -130.446105 
L 281.41277 -127.970531 
L 280.978255 -125.494956 
L 280.50193 -123.019382 
L 279.999757 -120.543807 
L 279.487568 -118.068233 
L 278.980142 -115.592658 
L 278.49046 -113.117083 
L 278.029183 -110.641509 
L 277.60437 -108.165934 
L 277.221409 -105.69036 
L 276.883151 -103.214785 
L 276.590186 -100.739211 
L 276.341224 -98.263636 
z
" id="mb8db455915" style="stroke:#3f3f3f;stroke-width:2.25;"/>
    </defs>
    <g clip-path="url(#p23a64ed9e9)">
     <use style="fill:#3274a1;stroke:#3f3f3f;stroke-width:2.25;" x="0" xlink:href="#mb8db455915" y="432"/>
    </g>
   </g>
   <g id="PolyCollection_2">
    <defs>
     <path d="M 611.83911 -68.825455 
L 608.56089 -68.825455 
L 608.161631 -71.820496 
L 607.684765 -74.815537 
L 607.120197 -77.810579 
L 606.457645 -80.80562 
L 605.6869 -83.800661 
L 604.798125 -86.795702 
L 603.782193 -89.790744 
L 602.631049 -92.785785 
L 601.338091 -95.780826 
L 599.898553 -98.775868 
L 598.309874 -101.770909 
L 596.572038 -104.76595 
L 594.687873 -107.760992 
L 592.663282 -110.756033 
L 590.507411 -113.751074 
L 588.232721 -116.746116 
L 585.854979 -119.741157 
L 583.39314 -122.736198 
L 580.869143 -125.73124 
L 578.3076 -128.726281 
L 575.735408 -131.721322 
L 573.181271 -134.716364 
L 570.675164 -137.711405 
L 568.24773 -140.706446 
L 565.929654 -143.701488 
L 563.750999 -146.696529 
L 561.74054 -149.69157 
L 559.925106 -152.686612 
L 558.328949 -155.681653 
L 556.973143 -158.676694 
L 555.875041 -161.671736 
L 555.047807 -164.666777 
L 554.500013 -167.661818 
L 554.23534 -170.65686 
L 554.25238 -173.651901 
L 554.544546 -176.646942 
L 555.100104 -179.641983 
L 555.902324 -182.637025 
L 556.929759 -185.632066 
L 558.156639 -188.627107 
L 559.553379 -191.622149 
L 561.087192 -194.61719 
L 562.722786 -197.612231 
L 564.423135 -200.607273 
L 566.150299 -203.602314 
L 567.866279 -206.597355 
L 569.53387 -209.592397 
L 571.117513 -212.587438 
L 572.584103 -215.582479 
L 573.903753 -218.577521 
L 575.050485 -221.572562 
L 576.002845 -224.567603 
L 576.74442 -227.562645 
L 577.264261 -230.557686 
L 577.557188 -233.552727 
L 577.623985 -236.547769 
L 577.471468 -239.54281 
L 577.112424 -242.537851 
L 576.565413 -245.532893 
L 575.854428 -248.527934 
L 575.0084 -251.522975 
L 574.060569 -254.518017 
L 573.047697 -257.513058 
L 572.009149 -260.508099 
L 570.985851 -263.50314 
L 570.019155 -266.498182 
L 569.149638 -269.493223 
L 568.415867 -272.488264 
L 567.853199 -275.483306 
L 567.492639 -278.478347 
L 567.359823 -281.473388 
L 567.474175 -284.46843 
L 567.84827 -287.463471 
L 568.487452 -290.458512 
L 569.389717 -293.453554 
L 570.545882 -296.448595 
L 571.94002 -299.443636 
L 573.55015 -302.438678 
L 575.349152 -305.433719 
L 577.305838 -308.42876 
L 579.386155 -311.423802 
L 581.554434 -314.418843 
L 583.774638 -317.413884 
L 586.011551 -320.408926 
L 588.231849 -323.403967 
L 590.405017 -326.399008 
L 592.504086 -329.39405 
L 594.506161 -332.389091 
L 596.392738 -335.384132 
L 598.149824 -338.379174 
L 599.767867 -341.374215 
L 601.241521 -344.369256 
L 602.569284 -347.364298 
L 603.753037 -350.359339 
L 604.797514 -353.35438 
L 605.709746 -356.349421 
L 606.498501 -359.344463 
L 607.173751 -362.339504 
L 607.746177 -365.334545 
L 612.653823 -365.334545 
L 612.653823 -365.334545 
L 613.226249 -362.339504 
L 613.901499 -359.344463 
L 614.690254 -356.349421 
L 615.602486 -353.35438 
L 616.646963 -350.359339 
L 617.830716 -347.364298 
L 619.158479 -344.369256 
L 620.632133 -341.374215 
L 622.250176 -338.379174 
L 624.007262 -335.384132 
L 625.893839 -332.389091 
L 627.895914 -329.39405 
L 629.994983 -326.399008 
L 632.168151 -323.403967 
L 634.388449 -320.408926 
L 636.625362 -317.413884 
L 638.845566 -314.418843 
L 641.013845 -311.423802 
L 643.094162 -308.42876 
L 645.050848 -305.433719 
L 646.84985 -302.438678 
L 648.45998 -299.443636 
L 649.854118 -296.448595 
L 651.010283 -293.453554 
L 651.912548 -290.458512 
L 652.55173 -287.463471 
L 652.925825 -284.46843 
L 653.040177 -281.473388 
L 652.907361 -278.478347 
L 652.546801 -275.483306 
L 651.984133 -272.488264 
L 651.250362 -269.493223 
L 650.380845 -266.498182 
L 649.414149 -263.50314 
L 648.390851 -260.508099 
L 647.352303 -257.513058 
L 646.339431 -254.518017 
L 645.3916 -251.522975 
L 644.545572 -248.527934 
L 643.834587 -245.532893 
L 643.287576 -242.537851 
L 642.928532 -239.54281 
L 642.776015 -236.547769 
L 642.842812 -233.552727 
L 643.135739 -230.557686 
L 643.65558 -227.562645 
L 644.397155 -224.567603 
L 645.349515 -221.572562 
L 646.496247 -218.577521 
L 647.815897 -215.582479 
L 649.282487 -212.587438 
L 650.86613 -209.592397 
L 652.533721 -206.597355 
L 654.249701 -203.602314 
L 655.976865 -200.607273 
L 657.677214 -197.612231 
L 659.312808 -194.61719 
L 660.846621 -191.622149 
L 662.243361 -188.627107 
L 663.470241 -185.632066 
L 664.497676 -182.637025 
L 665.299896 -179.641983 
L 665.855454 -176.646942 
L 666.14762 -173.651901 
L 666.16466 -170.65686 
L 665.899987 -167.661818 
L 665.352193 -164.666777 
L 664.524959 -161.671736 
L 663.426857 -158.676694 
L 662.071051 -155.681653 
L 660.474894 -152.686612 
L 658.65946 -149.69157 
L 656.649001 -146.696529 
L 654.470346 -143.701488 
L 652.15227 -140.706446 
L 649.724836 -137.711405 
L 647.218729 -134.716364 
L 644.664592 -131.721322 
L 642.0924 -128.726281 
L 639.530857 -125.73124 
L 637.00686 -122.736198 
L 634.545021 -119.741157 
L 632.167279 -116.746116 
L 629.892589 -113.751074 
L 627.736718 -110.756033 
L 625.712127 -107.760992 
L 623.827962 -104.76595 
L 622.090126 -101.770909 
L 620.501447 -98.775868 
L 619.061909 -95.780826 
L 617.768951 -92.785785 
L 616.617807 -89.790744 
L 615.601875 -86.795702 
L 614.7131 -83.800661 
L 613.942355 -80.80562 
L 613.279803 -77.810579 
L 612.715235 -74.815537 
L 612.238369 -71.820496 
L 611.83911 -68.825455 
z
" id="mccd00a848b" style="stroke:#3f3f3f;stroke-width:2.25;"/>
    </defs>
    <g clip-path="url(#p23a64ed9e9)">
     <use style="fill:#e1812c;stroke:#3f3f3f;stroke-width:2.25;" x="0" xlink:href="#mccd00a848b" y="432"/>
    </g>
   </g>
   <g id="matplotlib.axis_1">
    <g id="xtick_1">
     <g id="line2d_1">
      <defs>
       <path d="M 0 0 
L 0 9 
" id="m4421a4b385" style="stroke:#000000;stroke-width:1.875;"/>
      </defs>
      <g>
       <use style="stroke:#000000;stroke-width:1.875;" x="275.4" xlink:href="#m4421a4b385" y="378"/>
      </g>
     </g>
     <g id="text_1">
      <!-- blocked_rep -->
      <g transform="translate(225.849727 403.037422)scale(0.165 -0.165)">
       <defs>
        <path d="M 48.6875 27.296875 
Q 48.6875 37.203125 44.609375 42.84375 
Q 40.53125 48.484375 33.40625 48.484375 
Q 26.265625 48.484375 22.1875 42.84375 
Q 18.109375 37.203125 18.109375 27.296875 
Q 18.109375 17.390625 22.1875 11.75 
Q 26.265625 6.109375 33.40625 6.109375 
Q 40.53125 6.109375 44.609375 11.75 
Q 48.6875 17.390625 48.6875 27.296875 
z
M 18.109375 46.390625 
Q 20.953125 51.265625 25.265625 53.625 
Q 29.59375 56 35.59375 56 
Q 45.5625 56 51.78125 48.09375 
Q 58.015625 40.1875 58.015625 27.296875 
Q 58.015625 14.40625 51.78125 6.484375 
Q 45.5625 -1.421875 35.59375 -1.421875 
Q 29.59375 -1.421875 25.265625 0.953125 
Q 20.953125 3.328125 18.109375 8.203125 
L 18.109375 0 
L 9.078125 0 
L 9.078125 75.984375 
L 18.109375 75.984375 
z
" id="DejaVuSans-98"/>
        <path d="M 9.421875 75.984375 
L 18.40625 75.984375 
L 18.40625 0 
L 9.421875 0 
z
" id="DejaVuSans-108"/>
        <path d="M 30.609375 48.390625 
Q 23.390625 48.390625 19.1875 42.75 
Q 14.984375 37.109375 14.984375 27.296875 
Q 14.984375 17.484375 19.15625 11.84375 
Q 23.34375 6.203125 30.609375 6.203125 
Q 37.796875 6.203125 41.984375 11.859375 
Q 46.1875 17.53125 46.1875 27.296875 
Q 46.1875 37.015625 41.984375 42.703125 
Q 37.796875 48.390625 30.609375 48.390625 
z
M 30.609375 56 
Q 42.328125 56 49.015625 48.375 
Q 55.71875 40.765625 55.71875 27.296875 
Q 55.71875 13.875 49.015625 6.21875 
Q 42.328125 -1.421875 30.609375 -1.421875 
Q 18.84375 -1.421875 12.171875 6.21875 
Q 5.515625 13.875 5.515625 27.296875 
Q 5.515625 40.765625 12.171875 48.375 
Q 18.84375 56 30.609375 56 
z
" id="DejaVuSans-111"/>
        <path d="M 48.78125 52.59375 
L 48.78125 44.1875 
Q 44.96875 46.296875 41.140625 47.34375 
Q 37.3125 48.390625 33.40625 48.390625 
Q 24.65625 48.390625 19.8125 42.84375 
Q 14.984375 37.3125 14.984375 27.296875 
Q 14.984375 17.28125 19.8125 11.734375 
Q 24.65625 6.203125 33.40625 6.203125 
Q 37.3125 6.203125 41.140625 7.25 
Q 44.96875 8.296875 48.78125 10.40625 
L 48.78125 2.09375 
Q 45.015625 0.34375 40.984375 -0.53125 
Q 36.96875 -1.421875 32.421875 -1.421875 
Q 20.0625 -1.421875 12.78125 6.34375 
Q 5.515625 14.109375 5.515625 27.296875 
Q 5.515625 40.671875 12.859375 48.328125 
Q 20.21875 56 33.015625 56 
Q 37.15625 56 41.109375 55.140625 
Q 45.0625 54.296875 48.78125 52.59375 
z
" id="DejaVuSans-99"/>
        <path d="M 9.078125 75.984375 
L 18.109375 75.984375 
L 18.109375 31.109375 
L 44.921875 54.6875 
L 56.390625 54.6875 
L 27.390625 29.109375 
L 57.625 0 
L 45.90625 0 
L 18.109375 26.703125 
L 18.109375 0 
L 9.078125 0 
z
" id="DejaVuSans-107"/>
        <path d="M 56.203125 29.59375 
L 56.203125 25.203125 
L 14.890625 25.203125 
Q 15.484375 15.921875 20.484375 11.0625 
Q 25.484375 6.203125 34.421875 6.203125 
Q 39.59375 6.203125 44.453125 7.46875 
Q 49.3125 8.734375 54.109375 11.28125 
L 54.109375 2.78125 
Q 49.265625 0.734375 44.1875 -0.34375 
Q 39.109375 -1.421875 33.890625 -1.421875 
Q 20.796875 -1.421875 13.15625 6.1875 
Q 5.515625 13.8125 5.515625 26.8125 
Q 5.515625 40.234375 12.765625 48.109375 
Q 20.015625 56 32.328125 56 
Q 43.359375 56 49.78125 48.890625 
Q 56.203125 41.796875 56.203125 29.59375 
z
M 47.21875 32.234375 
Q 47.125 39.59375 43.09375 43.984375 
Q 39.0625 48.390625 32.421875 48.390625 
Q 24.90625 48.390625 20.390625 44.140625 
Q 15.875 39.890625 15.1875 32.171875 
z
" id="DejaVuSans-101"/>
        <path d="M 45.40625 46.390625 
L 45.40625 75.984375 
L 54.390625 75.984375 
L 54.390625 0 
L 45.40625 0 
L 45.40625 8.203125 
Q 42.578125 3.328125 38.25 0.953125 
Q 33.9375 -1.421875 27.875 -1.421875 
Q 17.96875 -1.421875 11.734375 6.484375 
Q 5.515625 14.40625 5.515625 27.296875 
Q 5.515625 40.1875 11.734375 48.09375 
Q 17.96875 56 27.875 56 
Q 33.9375 56 38.25 53.625 
Q 42.578125 51.265625 45.40625 46.390625 
z
M 14.796875 27.296875 
Q 14.796875 17.390625 18.875 11.75 
Q 22.953125 6.109375 30.078125 6.109375 
Q 37.203125 6.109375 41.296875 11.75 
Q 45.40625 17.390625 45.40625 27.296875 
Q 45.40625 37.203125 41.296875 42.84375 
Q 37.203125 48.484375 30.078125 48.484375 
Q 22.953125 48.484375 18.875 42.84375 
Q 14.796875 37.203125 14.796875 27.296875 
z
" id="DejaVuSans-100"/>
        <path d="M 50.984375 -16.609375 
L 50.984375 -23.578125 
L -0.984375 -23.578125 
L -0.984375 -16.609375 
z
" id="DejaVuSans-95"/>
        <path d="M 41.109375 46.296875 
Q 39.59375 47.171875 37.8125 47.578125 
Q 36.03125 48 33.890625 48 
Q 26.265625 48 22.1875 43.046875 
Q 18.109375 38.09375 18.109375 28.8125 
L 18.109375 0 
L 9.078125 0 
L 9.078125 54.6875 
L 18.109375 54.6875 
L 18.109375 46.1875 
Q 20.953125 51.171875 25.484375 53.578125 
Q 30.03125 56 36.53125 56 
Q 37.453125 56 38.578125 55.875 
Q 39.703125 55.765625 41.0625 55.515625 
z
" id="DejaVuSans-114"/>
        <path d="M 18.109375 8.203125 
L 18.109375 -20.796875 
L 9.078125 -20.796875 
L 9.078125 54.6875 
L 18.109375 54.6875 
L 18.109375 46.390625 
Q 20.953125 51.265625 25.265625 53.625 
Q 29.59375 56 35.59375 56 
Q 45.5625 56 51.78125 48.09375 
Q 58.015625 40.1875 58.015625 27.296875 
Q 58.015625 14.40625 51.78125 6.484375 
Q 45.5625 -1.421875 35.59375 -1.421875 
Q 29.59375 -1.421875 25.265625 0.953125 
Q 20.953125 3.328125 18.109375 8.203125 
z
M 48.6875 27.296875 
Q 48.6875 37.203125 44.609375 42.84375 
Q 40.53125 48.484375 33.40625 48.484375 
Q 26.265625 48.484375 22.1875 42.84375 
Q 18.109375 37.203125 18.109375 27.296875 
Q 18.109375 17.390625 22.1875 11.75 
Q 26.265625 6.109375 33.40625 6.109375 
Q 40.53125 6.109375 44.609375 11.75 
Q 48.6875 17.390625 48.6875 27.296875 
z
" id="DejaVuSans-112"/>
       </defs>
       <use xlink:href="#DejaVuSans-98"/>
       <use x="63.476562" xlink:href="#DejaVuSans-108"/>
       <use x="91.259766" xlink:href="#DejaVuSans-111"/>
       <use x="152.441406" xlink:href="#DejaVuSans-99"/>
       <use x="207.421875" xlink:href="#DejaVuSans-107"/>
       <use x="261.707031" xlink:href="#DejaVuSans-101"/>
       <use x="323.230469" xlink:href="#DejaVuSans-100"/>
       <use x="386.707031" xlink:href="#DejaVuSans-95"/>
       <use x="436.707031" xlink:href="#DejaVuSans-114"/>
       <use x="475.570312" xlink:href="#DejaVuSans-101"/>
       <use x="537.09375" xlink:href="#DejaVuSans-112"/>
      </g>
     </g>
    </g>
    <g id="xtick_2">
     <g id="line2d_2">
      <g>
       <use style="stroke:#000000;stroke-width:1.875;" x="610.2" xlink:href="#m4421a4b385" y="378"/>
      </g>
     </g>
     <g id="text_2">
      <!-- interleaved_rep -->
      <g transform="translate(545.71207 403.037422)scale(0.165 -0.165)">
       <defs>
        <path d="M 9.421875 54.6875 
L 18.40625 54.6875 
L 18.40625 0 
L 9.421875 0 
z
M 9.421875 75.984375 
L 18.40625 75.984375 
L 18.40625 64.59375 
L 9.421875 64.59375 
z
" id="DejaVuSans-105"/>
        <path d="M 54.890625 33.015625 
L 54.890625 0 
L 45.90625 0 
L 45.90625 32.71875 
Q 45.90625 40.484375 42.875 44.328125 
Q 39.84375 48.1875 33.796875 48.1875 
Q 26.515625 48.1875 22.3125 43.546875 
Q 18.109375 38.921875 18.109375 30.90625 
L 18.109375 0 
L 9.078125 0 
L 9.078125 54.6875 
L 18.109375 54.6875 
L 18.109375 46.1875 
Q 21.34375 51.125 25.703125 53.5625 
Q 30.078125 56 35.796875 56 
Q 45.21875 56 50.046875 50.171875 
Q 54.890625 44.34375 54.890625 33.015625 
z
" id="DejaVuSans-110"/>
        <path d="M 18.3125 70.21875 
L 18.3125 54.6875 
L 36.8125 54.6875 
L 36.8125 47.703125 
L 18.3125 47.703125 
L 18.3125 18.015625 
Q 18.3125 11.328125 20.140625 9.421875 
Q 21.96875 7.515625 27.59375 7.515625 
L 36.8125 7.515625 
L 36.8125 0 
L 27.59375 0 
Q 17.1875 0 13.234375 3.875 
Q 9.28125 7.765625 9.28125 18.015625 
L 9.28125 47.703125 
L 2.6875 47.703125 
L 2.6875 54.6875 
L 9.28125 54.6875 
L 9.28125 70.21875 
z
" id="DejaVuSans-116"/>
        <path d="M 34.28125 27.484375 
Q 23.390625 27.484375 19.1875 25 
Q 14.984375 22.515625 14.984375 16.5 
Q 14.984375 11.71875 18.140625 8.90625 
Q 21.296875 6.109375 26.703125 6.109375 
Q 34.1875 6.109375 38.703125 11.40625 
Q 43.21875 16.703125 43.21875 25.484375 
L 43.21875 27.484375 
z
M 52.203125 31.203125 
L 52.203125 0 
L 43.21875 0 
L 43.21875 8.296875 
Q 40.140625 3.328125 35.546875 0.953125 
Q 30.953125 -1.421875 24.3125 -1.421875 
Q 15.921875 -1.421875 10.953125 3.296875 
Q 6 8.015625 6 15.921875 
Q 6 25.140625 12.171875 29.828125 
Q 18.359375 34.515625 30.609375 34.515625 
L 43.21875 34.515625 
L 43.21875 35.40625 
Q 43.21875 41.609375 39.140625 45 
Q 35.0625 48.390625 27.6875 48.390625 
Q 23 48.390625 18.546875 47.265625 
Q 14.109375 46.140625 10.015625 43.890625 
L 10.015625 52.203125 
Q 14.9375 54.109375 19.578125 55.046875 
Q 24.21875 56 28.609375 56 
Q 40.484375 56 46.34375 49.84375 
Q 52.203125 43.703125 52.203125 31.203125 
z
" id="DejaVuSans-97"/>
        <path d="M 2.984375 54.6875 
L 12.5 54.6875 
L 29.59375 8.796875 
L 46.6875 54.6875 
L 56.203125 54.6875 
L 35.6875 0 
L 23.484375 0 
z
" id="DejaVuSans-118"/>
       </defs>
       <use xlink:href="#DejaVuSans-105"/>
       <use x="27.783203" xlink:href="#DejaVuSans-110"/>
       <use x="91.162109" xlink:href="#DejaVuSans-116"/>
       <use x="130.371094" xlink:href="#DejaVuSans-101"/>
       <use x="191.894531" xlink:href="#DejaVuSans-114"/>
       <use x="233.007812" xlink:href="#DejaVuSans-108"/>
       <use x="260.791016" xlink:href="#DejaVuSans-101"/>
       <use x="322.314453" xlink:href="#DejaVuSans-97"/>
       <use x="383.59375" xlink:href="#DejaVuSans-118"/>
       <use x="442.773438" xlink:href="#DejaVuSans-101"/>
       <use x="504.296875" xlink:href="#DejaVuSans-100"/>
       <use x="567.773438" xlink:href="#DejaVuSans-95"/>
       <use x="617.773438" xlink:href="#DejaVuSans-114"/>
       <use x="656.636719" xlink:href="#DejaVuSans-101"/>
       <use x="718.160156" xlink:href="#DejaVuSans-112"/>
      </g>
     </g>
    </g>
    <g id="text_3">
     <!-- condition -->
     <g transform="translate(401.187656 424.605)scale(0.18 -0.18)">
      <use xlink:href="#DejaVuSans-99"/>
      <use x="54.980469" xlink:href="#DejaVuSans-111"/>
      <use x="116.162109" xlink:href="#DejaVuSans-110"/>
      <use x="179.541016" xlink:href="#DejaVuSans-100"/>
      <use x="243.017578" xlink:href="#DejaVuSans-105"/>
      <use x="270.800781" xlink:href="#DejaVuSans-116"/>
      <use x="310.009766" xlink:href="#DejaVuSans-105"/>
      <use x="337.792969" xlink:href="#DejaVuSans-111"/>
      <use x="398.974609" xlink:href="#DejaVuSans-110"/>
     </g>
    </g>
   </g>
   <g id="matplotlib.axis_2">
    <g id="ytick_1">
     <g id="line2d_3">
      <defs>
       <path d="M 0 0 
L -9 0 
" id="mb2353ce13e" style="stroke:#000000;stroke-width:1.875;"/>
      </defs>
      <g>
       <use style="stroke:#000000;stroke-width:1.875;" x="108" xlink:href="#mb2353ce13e" y="354.478209"/>
      </g>
     </g>
     <g id="text_4">
      <!-- 0.2 -->
      <g transform="translate(69.259844 360.74692)scale(0.165 -0.165)">
       <defs>
        <path d="M 31.78125 66.40625 
Q 24.171875 66.40625 20.328125 58.90625 
Q 16.5 51.421875 16.5 36.375 
Q 16.5 21.390625 20.328125 13.890625 
Q 24.171875 6.390625 31.78125 6.390625 
Q 39.453125 6.390625 43.28125 13.890625 
Q 47.125 21.390625 47.125 36.375 
Q 47.125 51.421875 43.28125 58.90625 
Q 39.453125 66.40625 31.78125 66.40625 
z
M 31.78125 74.21875 
Q 44.046875 74.21875 50.515625 64.515625 
Q 56.984375 54.828125 56.984375 36.375 
Q 56.984375 17.96875 50.515625 8.265625 
Q 44.046875 -1.421875 31.78125 -1.421875 
Q 19.53125 -1.421875 13.0625 8.265625 
Q 6.59375 17.96875 6.59375 36.375 
Q 6.59375 54.828125 13.0625 64.515625 
Q 19.53125 74.21875 31.78125 74.21875 
z
" id="DejaVuSans-48"/>
        <path d="M 10.6875 12.40625 
L 21 12.40625 
L 21 0 
L 10.6875 0 
z
" id="DejaVuSans-46"/>
        <path d="M 19.1875 8.296875 
L 53.609375 8.296875 
L 53.609375 0 
L 7.328125 0 
L 7.328125 8.296875 
Q 12.9375 14.109375 22.625 23.890625 
Q 32.328125 33.6875 34.8125 36.53125 
Q 39.546875 41.84375 41.421875 45.53125 
Q 43.3125 49.21875 43.3125 52.78125 
Q 43.3125 58.59375 39.234375 62.25 
Q 35.15625 65.921875 28.609375 65.921875 
Q 23.96875 65.921875 18.8125 64.3125 
Q 13.671875 62.703125 7.8125 59.421875 
L 7.8125 69.390625 
Q 13.765625 71.78125 18.9375 73 
Q 24.125 74.21875 28.421875 74.21875 
Q 39.75 74.21875 46.484375 68.546875 
Q 53.21875 62.890625 53.21875 53.421875 
Q 53.21875 48.921875 51.53125 44.890625 
Q 49.859375 40.875 45.40625 35.40625 
Q 44.1875 33.984375 37.640625 27.21875 
Q 31.109375 20.453125 19.1875 8.296875 
z
" id="DejaVuSans-50"/>
       </defs>
       <use xlink:href="#DejaVuSans-48"/>
       <use x="63.623047" xlink:href="#DejaVuSans-46"/>
       <use x="95.410156" xlink:href="#DejaVuSans-50"/>
      </g>
     </g>
    </g>
    <g id="ytick_2">
     <g id="line2d_4">
      <g>
       <use style="stroke:#000000;stroke-width:1.875;" x="108" xlink:href="#mb2353ce13e" y="298.253319"/>
      </g>
     </g>
     <g id="text_5">
      <!-- 0.4 -->
      <g transform="translate(69.259844 304.52203)scale(0.165 -0.165)">
       <defs>
        <path d="M 37.796875 64.3125 
L 12.890625 25.390625 
L 37.796875 25.390625 
z
M 35.203125 72.90625 
L 47.609375 72.90625 
L 47.609375 25.390625 
L 58.015625 25.390625 
L 58.015625 17.1875 
L 47.609375 17.1875 
L 47.609375 0 
L 37.796875 0 
L 37.796875 17.1875 
L 4.890625 17.1875 
L 4.890625 26.703125 
z
" id="DejaVuSans-52"/>
       </defs>
       <use xlink:href="#DejaVuSans-48"/>
       <use x="63.623047" xlink:href="#DejaVuSans-46"/>
       <use x="95.410156" xlink:href="#DejaVuSans-52"/>
      </g>
     </g>
    </g>
    <g id="ytick_3">
     <g id="line2d_5">
      <g>
       <use style="stroke:#000000;stroke-width:1.875;" x="108" xlink:href="#mb2353ce13e" y="242.028429"/>
      </g>
     </g>
     <g id="text_6">
      <!-- 0.6 -->
      <g transform="translate(69.259844 248.29714)scale(0.165 -0.165)">
       <defs>
        <path d="M 33.015625 40.375 
Q 26.375 40.375 22.484375 35.828125 
Q 18.609375 31.296875 18.609375 23.390625 
Q 18.609375 15.53125 22.484375 10.953125 
Q 26.375 6.390625 33.015625 6.390625 
Q 39.65625 6.390625 43.53125 10.953125 
Q 47.40625 15.53125 47.40625 23.390625 
Q 47.40625 31.296875 43.53125 35.828125 
Q 39.65625 40.375 33.015625 40.375 
z
M 52.59375 71.296875 
L 52.59375 62.3125 
Q 48.875 64.0625 45.09375 64.984375 
Q 41.3125 65.921875 37.59375 65.921875 
Q 27.828125 65.921875 22.671875 59.328125 
Q 17.53125 52.734375 16.796875 39.40625 
Q 19.671875 43.65625 24.015625 45.921875 
Q 28.375 48.1875 33.59375 48.1875 
Q 44.578125 48.1875 50.953125 41.515625 
Q 57.328125 34.859375 57.328125 23.390625 
Q 57.328125 12.15625 50.6875 5.359375 
Q 44.046875 -1.421875 33.015625 -1.421875 
Q 20.359375 -1.421875 13.671875 8.265625 
Q 6.984375 17.96875 6.984375 36.375 
Q 6.984375 53.65625 15.1875 63.9375 
Q 23.390625 74.21875 37.203125 74.21875 
Q 40.921875 74.21875 44.703125 73.484375 
Q 48.484375 72.75 52.59375 71.296875 
z
" id="DejaVuSans-54"/>
       </defs>
       <use xlink:href="#DejaVuSans-48"/>
       <use x="63.623047" xlink:href="#DejaVuSans-46"/>
       <use x="95.410156" xlink:href="#DejaVuSans-54"/>
      </g>
     </g>
    </g>
    <g id="ytick_4">
     <g id="line2d_6">
      <g>
       <use style="stroke:#000000;stroke-width:1.875;" x="108" xlink:href="#mb2353ce13e" y="185.803539"/>
      </g>
     </g>
     <g id="text_7">
      <!-- 0.8 -->
      <g transform="translate(69.259844 192.07225)scale(0.165 -0.165)">
       <defs>
        <path d="M 31.78125 34.625 
Q 24.75 34.625 20.71875 30.859375 
Q 16.703125 27.09375 16.703125 20.515625 
Q 16.703125 13.921875 20.71875 10.15625 
Q 24.75 6.390625 31.78125 6.390625 
Q 38.8125 6.390625 42.859375 10.171875 
Q 46.921875 13.96875 46.921875 20.515625 
Q 46.921875 27.09375 42.890625 30.859375 
Q 38.875 34.625 31.78125 34.625 
z
M 21.921875 38.8125 
Q 15.578125 40.375 12.03125 44.71875 
Q 8.5 49.078125 8.5 55.328125 
Q 8.5 64.0625 14.71875 69.140625 
Q 20.953125 74.21875 31.78125 74.21875 
Q 42.671875 74.21875 48.875 69.140625 
Q 55.078125 64.0625 55.078125 55.328125 
Q 55.078125 49.078125 51.53125 44.71875 
Q 48 40.375 41.703125 38.8125 
Q 48.828125 37.15625 52.796875 32.3125 
Q 56.78125 27.484375 56.78125 20.515625 
Q 56.78125 9.90625 50.3125 4.234375 
Q 43.84375 -1.421875 31.78125 -1.421875 
Q 19.734375 -1.421875 13.25 4.234375 
Q 6.78125 9.90625 6.78125 20.515625 
Q 6.78125 27.484375 10.78125 32.3125 
Q 14.796875 37.15625 21.921875 38.8125 
z
M 18.3125 54.390625 
Q 18.3125 48.734375 21.84375 45.5625 
Q 25.390625 42.390625 31.78125 42.390625 
Q 38.140625 42.390625 41.71875 45.5625 
Q 45.3125 48.734375 45.3125 54.390625 
Q 45.3125 60.0625 41.71875 63.234375 
Q 38.140625 66.40625 31.78125 66.40625 
Q 25.390625 66.40625 21.84375 63.234375 
Q 18.3125 60.0625 18.3125 54.390625 
z
" id="DejaVuSans-56"/>
       </defs>
       <use xlink:href="#DejaVuSans-48"/>
       <use x="63.623047" xlink:href="#DejaVuSans-46"/>
       <use x="95.410156" xlink:href="#DejaVuSans-56"/>
      </g>
     </g>
    </g>
    <g id="ytick_5">
     <g id="line2d_7">
      <g>
       <use style="stroke:#000000;stroke-width:1.875;" x="108" xlink:href="#mb2353ce13e" y="129.578649"/>
      </g>
     </g>
     <g id="text_8">
      <!-- 1.0 -->
      <g transform="translate(69.259844 135.84736)scale(0.165 -0.165)">
       <defs>
        <path d="M 12.40625 8.296875 
L 28.515625 8.296875 
L 28.515625 63.921875 
L 10.984375 60.40625 
L 10.984375 69.390625 
L 28.421875 72.90625 
L 38.28125 72.90625 
L 38.28125 8.296875 
L 54.390625 8.296875 
L 54.390625 0 
L 12.40625 0 
z
" id="DejaVuSans-49"/>
       </defs>
       <use xlink:href="#DejaVuSans-49"/>
       <use x="63.623047" xlink:href="#DejaVuSans-46"/>
       <use x="95.410156" xlink:href="#DejaVuSans-48"/>
      </g>
     </g>
    </g>
    <g id="ytick_6">
     <g id="line2d_8">
      <g>
       <use style="stroke:#000000;stroke-width:1.875;" x="108" xlink:href="#mb2353ce13e" y="73.353759"/>
      </g>
     </g>
     <g id="text_9">
      <!-- 1.2 -->
      <g transform="translate(69.259844 79.62247)scale(0.165 -0.165)">
       <use xlink:href="#DejaVuSans-49"/>
       <use x="63.623047" xlink:href="#DejaVuSans-46"/>
       <use x="95.410156" xlink:href="#DejaVuSans-50"/>
      </g>
     </g>
    </g>
    <g id="text_10">
     <!-- prediction accuracy -->
     <g transform="translate(61.516406 303.537656)rotate(-90)scale(0.18 -0.18)">
      <defs>
       <path id="DejaVuSans-32"/>
       <path d="M 8.5 21.578125 
L 8.5 54.6875 
L 17.484375 54.6875 
L 17.484375 21.921875 
Q 17.484375 14.15625 20.5 10.265625 
Q 23.53125 6.390625 29.59375 6.390625 
Q 36.859375 6.390625 41.078125 11.03125 
Q 45.3125 15.671875 45.3125 23.6875 
L 45.3125 54.6875 
L 54.296875 54.6875 
L 54.296875 0 
L 45.3125 0 
L 45.3125 8.40625 
Q 42.046875 3.421875 37.71875 1 
Q 33.40625 -1.421875 27.6875 -1.421875 
Q 18.265625 -1.421875 13.375 4.4375 
Q 8.5 10.296875 8.5 21.578125 
z
M 31.109375 56 
z
" id="DejaVuSans-117"/>
       <path d="M 32.171875 -5.078125 
Q 28.375 -14.84375 24.75 -17.8125 
Q 21.140625 -20.796875 15.09375 -20.796875 
L 7.90625 -20.796875 
L 7.90625 -13.28125 
L 13.1875 -13.28125 
Q 16.890625 -13.28125 18.9375 -11.515625 
Q 21 -9.765625 23.484375 -3.21875 
L 25.09375 0.875 
L 2.984375 54.6875 
L 12.5 54.6875 
L 29.59375 11.921875 
L 46.6875 54.6875 
L 56.203125 54.6875 
z
" id="DejaVuSans-121"/>
      </defs>
      <use xlink:href="#DejaVuSans-112"/>
      <use x="63.476562" xlink:href="#DejaVuSans-114"/>
      <use x="102.339844" xlink:href="#DejaVuSans-101"/>
      <use x="163.863281" xlink:href="#DejaVuSans-100"/>
      <use x="227.339844" xlink:href="#DejaVuSans-105"/>
      <use x="255.123047" xlink:href="#DejaVuSans-99"/>
      <use x="310.103516" xlink:href="#DejaVuSans-116"/>
      <use x="349.3125" xlink:href="#DejaVuSans-105"/>
      <use x="377.095703" xlink:href="#DejaVuSans-111"/>
      <use x="438.277344" xlink:href="#DejaVuSans-110"/>
      <use x="501.65625" xlink:href="#DejaVuSans-32"/>
      <use x="533.443359" xlink:href="#DejaVuSans-97"/>
      <use x="594.722656" xlink:href="#DejaVuSans-99"/>
      <use x="649.703125" xlink:href="#DejaVuSans-99"/>
      <use x="704.683594" xlink:href="#DejaVuSans-117"/>
      <use x="768.0625" xlink:href="#DejaVuSans-114"/>
      <use x="809.175781" xlink:href="#DejaVuSans-97"/>
      <use x="870.455078" xlink:href="#DejaVuSans-99"/>
      <use x="925.435547" xlink:href="#DejaVuSans-121"/>
     </g>
    </g>
   </g>
   <g id="line2d_9">
    <path clip-path="url(#p23a64ed9e9)" d="M 275.4 165.852772 
L 275.4 129.578649 
" style="fill:none;stroke:#3f3f3f;stroke-linecap:square;stroke-width:2.25;"/>
   </g>
   <g id="line2d_10">
    <path clip-path="url(#p23a64ed9e9)" d="M 275.4 156.372035 
L 275.4 129.578649 
" style="fill:none;stroke:#3f3f3f;stroke-linecap:square;stroke-width:6.75;"/>
   </g>
   <g id="line2d_11">
    <path clip-path="url(#p23a64ed9e9)" d="M 610.2 300.261351 
L 610.2 129.578649 
" style="fill:none;stroke:#3f3f3f;stroke-linecap:square;stroke-width:2.25;"/>
   </g>
   <g id="line2d_12">
    <path clip-path="url(#p23a64ed9e9)" d="M 610.2 264.151701 
L 610.2 149.485861 
" style="fill:none;stroke:#3f3f3f;stroke-linecap:square;stroke-width:6.75;"/>
   </g>
   <g id="patch_3">
    <path d="M 108 378 
L 108 51.84 
" style="fill:none;stroke:#000000;stroke-linecap:square;stroke-linejoin:miter;stroke-width:1.875;"/>
   </g>
   <g id="patch_4">
    <path d="M 777.6 378 
L 777.6 51.84 
" style="fill:none;stroke:#000000;stroke-linecap:square;stroke-linejoin:miter;stroke-width:1.875;"/>
   </g>
   <g id="patch_5">
    <path d="M 108 378 
L 777.6 378 
" style="fill:none;stroke:#000000;stroke-linecap:square;stroke-linejoin:miter;stroke-width:1.875;"/>
   </g>
   <g id="patch_6">
    <path d="M 108 51.84 
L 777.6 51.84 
" style="fill:none;stroke:#000000;stroke-linecap:square;stroke-linejoin:miter;stroke-width:1.875;"/>
   </g>
   <g id="PathCollection_1">
    <defs>
     <path d="M 0 2.25 
C 0.596707 2.25 1.169055 2.012926 1.59099 1.59099 
C 2.012926 1.169055 2.25 0.596707 2.25 0 
C 2.25 -0.596707 2.012926 -1.169055 1.59099 -1.59099 
C 1.169055 -2.012926 0.596707 -2.25 0 -2.25 
C -0.596707 -2.25 -1.169055 -2.012926 -1.59099 -1.59099 
C -2.012926 -1.169055 -2.25 -0.596707 -2.25 0 
C -2.25 0.596707 -2.012926 1.169055 -1.59099 1.59099 
C -1.169055 2.012926 -0.596707 2.25 0 2.25 
z
" id="m20a38ebd58" style="stroke:#3f3f3f;stroke-width:1.5;"/>
    </defs>
    <g clip-path="url(#p23a64ed9e9)">
     <use style="fill:#ffffff;stroke:#3f3f3f;stroke-width:1.5;" x="275.4" xlink:href="#m20a38ebd58" y="140.190897"/>
    </g>
   </g>
   <g id="PathCollection_2">
    <g clip-path="url(#p23a64ed9e9)">
     <use style="fill:#ffffff;stroke:#3f3f3f;stroke-width:1.5;" x="610.2" xlink:href="#m20a38ebd58" y="238.052227"/>
    </g>
   </g>
  </g>
 </g>
 <defs>
  <clipPath id="p23a64ed9e9">
   <rect height="326.16" width="669.6" x="108" y="51.84"/>
  </clipPath>
 </defs>
</svg>
