<?xml version="1.0" encoding="utf-8" standalone="no"?>
<!DOCTYPE svg PUBLIC "-//W3C//DTD SVG 1.1//EN"
  "http://www.w3.org/Graphics/SVG/1.1/DTD/svg11.dtd">
<!-- Created with matplotlib (https://matplotlib.org/) -->
<svg height="432pt" version="1.1" viewBox="0 0 864 432" width="864pt" xmlns="http://www.w3.org/2000/svg" xmlns:xlink="http://www.w3.org/1999/xlink">
 <metadata>
  <rdf:RDF xmlns:cc="http://creativecommons.org/ns#" xmlns:dc="http://purl.org/dc/elements/1.1/" xmlns:rdf="http://www.w3.org/1999/02/22-rdf-syntax-ns#">
   <cc:Work>
    <dc:type rdf:resource="http://purl.org/dc/dcmitype/StillImage"/>
    <dc:date>2023-04-16T12:01:24.108840</dc:date>
    <dc:format>image/svg+xml</dc:format>
    <dc:creator>
     <cc:Agent>
      <dc:title>Matplotlib v3.3.4, https://matplotlib.org/</dc:title>
     </cc:Agent>
    </dc:creator>
   </cc:Work>
  </rdf:RDF>
 </metadata>
 <defs>
  <style type="text/css">*{stroke-linecap:butt;stroke-linejoin:round;}</style>
 </defs>
 <g id="figure_1">
  <g id="patch_1">
   <path d="M 0 432 
L 864 432 
L 864 0 
L 0 0 
z
" style="fill:none;"/>
  </g>
  <g id="axes_1">
   <g id="patch_2">
    <path d="M 108 378 
L 777.6 378 
L 777.6 51.84 
L 108 51.84 
z
" style="fill:#ffffff;"/>
   </g>
   <g id="PolyCollection_1">
    <defs>
     <path d="M 276.567573 -134.168044 
L 274.232427 -134.168044 
L 273.929291 -136.307864 
L 273.56892 -138.447684 
L 273.146521 -140.587505 
L 272.658464 -142.727325 
L 272.102696 -144.867145 
L 271.479149 -147.006966 
L 270.790098 -149.146786 
L 270.040446 -151.286606 
L 269.23789 -153.426427 
L 268.392953 -155.566247 
L 267.518844 -157.706067 
L 266.631143 -159.845888 
L 265.747304 -161.985708 
L 264.886001 -164.125528 
L 264.066326 -166.265349 
L 263.306908 -168.405169 
L 262.624979 -170.544989 
L 262.035471 -172.68481 
L 261.550193 -174.82463 
L 261.177162 -176.96445 
L 260.920133 -179.104271 
L 260.778382 -181.244091 
L 260.746749 -183.383911 
L 260.815962 -185.523732 
L 260.973216 -187.663552 
L 261.202956 -189.803372 
L 261.487825 -191.943193 
L 261.80967 -194.083013 
L 262.150548 -196.222833 
L 262.493625 -198.362654 
L 262.823894 -200.502474 
L 263.128649 -202.642294 
L 263.397659 -204.782115 
L 263.623048 -206.921935 
L 263.798867 -209.061755 
L 263.920431 -211.201576 
L 263.983472 -213.341396 
L 263.983215 -215.481216 
L 263.913463 -217.621037 
L 263.765816 -219.760857 
L 263.529088 -221.900677 
L 263.189023 -224.040498 
L 262.728314 -226.180318 
L 262.126969 -228.320138 
L 261.362964 -230.459959 
L 260.413127 -232.599779 
L 259.254174 -234.739599 
L 257.863774 -236.87942 
L 256.221545 -239.01924 
L 254.30988 -241.15906 
L 252.114517 -243.298881 
L 249.624822 -245.438701 
L 246.833775 -247.578521 
L 243.737698 -249.718342 
L 240.335801 -251.858162 
L 236.629677 -253.997982 
L 232.622858 -256.137803 
L 228.320582 -258.277623 
L 223.729903 -260.417443 
L 218.860222 -262.557264 
L 213.72431 -264.697084 
L 208.339792 -266.836904 
L 202.731025 -268.976725 
L 196.931223 -271.116545 
L 190.98461 -273.256365 
L 184.948378 -275.396186 
L 178.894133 -277.536006 
L 172.908601 -279.675826 
L 167.093309 -281.815647 
L 161.563097 -283.955467 
L 156.443353 -286.095287 
L 151.865979 -288.235108 
L 147.964255 -290.374928 
L 144.866816 -292.514748 
L 142.691135 -294.654569 
L 141.536932 -296.794389 
L 141.48 -298.934209 
L 142.566941 -301.07403 
L 144.81124 -303.21385 
L 148.19105 -305.35367 
L 152.648905 -307.493491 
L 158.093453 -309.633311 
L 164.403121 -311.773131 
L 171.431475 -313.912952 
L 179.013914 -316.052772 
L 186.975214 -318.192592 
L 195.137399 -320.332413 
L 203.327404 -322.472233 
L 211.384035 -324.612054 
L 219.163813 -326.751874 
L 226.545405 -328.891694 
L 233.432472 -331.031515 
L 239.754911 -333.171335 
L 245.46857 -335.311155 
L 250.553647 -337.450976 
L 255.012037 -339.590796 
L 258.863945 -341.730616 
L 262.144076 -343.870437 
L 264.897731 -346.010257 
L 285.902269 -346.010257 
L 285.902269 -346.010257 
L 288.655924 -343.870437 
L 291.936055 -341.730616 
L 295.787963 -339.590796 
L 300.246353 -337.450976 
L 305.33143 -335.311155 
L 311.045089 -333.171335 
L 317.367528 -331.031515 
L 324.254595 -328.891694 
L 331.636187 -326.751874 
L 339.415965 -324.612054 
L 347.472596 -322.472233 
L 355.662601 -320.332413 
L 363.824786 -318.192592 
L 371.786086 -316.052772 
L 379.368525 -313.912952 
L 386.396879 -311.773131 
L 392.706547 -309.633311 
L 398.151095 -307.493491 
L 402.60895 -305.35367 
L 405.98876 -303.21385 
L 408.233059 -301.07403 
L 409.32 -298.934209 
L 409.263068 -296.794389 
L 408.108865 -294.654569 
L 405.933184 -292.514748 
L 402.835745 -290.374928 
L 398.934021 -288.235108 
L 394.356647 -286.095287 
L 389.236903 -283.955467 
L 383.706691 -281.815647 
L 377.891399 -279.675826 
L 371.905867 -277.536006 
L 365.851622 -275.396186 
L 359.81539 -273.256365 
L 353.868777 -271.116545 
L 348.068975 -268.976725 
L 342.460208 -266.836904 
L 337.07569 -264.697084 
L 331.939778 -262.557264 
L 327.070097 -260.417443 
L 322.479418 -258.277623 
L 318.177142 -256.137803 
L 314.170323 -253.997982 
L 310.464199 -251.858162 
L 307.062302 -249.718342 
L 303.966225 -247.578521 
L 301.175178 -245.438701 
L 298.685483 -243.298881 
L 296.49012 -241.15906 
L 294.578455 -239.01924 
L 292.936226 -236.87942 
L 291.545826 -234.739599 
L 290.386873 -232.599779 
L 289.437036 -230.459959 
L 288.673031 -228.320138 
L 288.071686 -226.180318 
L 287.610977 -224.040498 
L 287.270912 -221.900677 
L 287.034184 -219.760857 
L 286.886537 -217.621037 
L 286.816785 -215.481216 
L 286.816528 -213.341396 
L 286.879569 -211.201576 
L 287.001133 -209.061755 
L 287.176952 -206.921935 
L 287.402341 -204.782115 
L 287.671351 -202.642294 
L 287.976106 -200.502474 
L 288.306375 -198.362654 
L 288.649452 -196.222833 
L 288.99033 -194.083013 
L 289.312175 -191.943193 
L 289.597044 -189.803372 
L 289.826784 -187.663552 
L 289.984038 -185.523732 
L 290.053251 -183.383911 
L 290.021618 -181.244091 
L 289.879867 -179.104271 
L 289.622838 -176.96445 
L 289.249807 -174.82463 
L 288.764529 -172.68481 
L 288.175021 -170.544989 
L 287.493092 -168.405169 
L 286.733674 -166.265349 
L 285.913999 -164.125528 
L 285.052696 -161.985708 
L 284.168857 -159.845888 
L 283.281156 -157.706067 
L 282.407047 -155.566247 
L 281.56211 -153.426427 
L 280.759554 -151.286606 
L 280.009902 -149.146786 
L 279.320851 -147.006966 
L 278.697304 -144.867145 
L 278.141536 -142.727325 
L 277.653479 -140.587505 
L 277.23108 -138.447684 
L 276.870709 -136.307864 
L 276.567573 -134.168044 
z
" id="mf8e73e96f9" style="stroke:#3f3f3f;stroke-width:2.25;"/>
    </defs>
    <g clip-path="url(#p1e61d0db33)">
     <use style="fill:#3274a1;stroke:#3f3f3f;stroke-width:2.25;" x="0" xlink:href="#mf8e73e96f9" y="432"/>
    </g>
   </g>
   <g id="PolyCollection_2">
    <defs>
     <path d="M 611.654435 -68.825455 
L 608.745565 -68.825455 
L 608.394106 -71.820496 
L 607.978934 -74.815537 
L 607.493666 -77.810579 
L 606.932298 -80.80562 
L 606.289385 -83.800661 
L 605.560175 -86.795702 
L 604.740706 -89.790744 
L 603.827839 -92.785785 
L 602.819218 -95.780826 
L 601.713167 -98.775868 
L 600.508511 -101.770909 
L 599.204346 -104.76595 
L 597.799777 -107.760992 
L 596.293659 -110.756033 
L 594.684366 -113.751074 
L 592.969641 -116.746116 
L 591.146554 -119.741157 
L 589.211597 -122.736198 
L 587.160951 -125.73124 
L 584.99092 -128.726281 
L 582.698537 -131.721322 
L 580.282303 -134.716364 
L 577.743042 -137.711405 
L 575.084791 -140.706446 
L 572.315687 -143.701488 
L 569.448751 -146.696529 
L 566.502528 -149.69157 
L 563.501484 -152.686612 
L 560.476136 -155.681653 
L 557.462844 -158.676694 
L 554.503263 -161.671736 
L 551.64345 -164.666777 
L 548.932643 -167.661818 
L 546.421759 -170.65686 
L 544.161682 -173.651901 
L 542.2014 -176.646942 
L 540.586099 -179.641983 
L 539.35531 -182.637025 
L 538.541182 -185.632066 
L 538.167005 -188.627107 
L 538.246031 -191.622149 
L 538.780682 -194.61719 
L 539.762169 -197.612231 
L 541.170558 -200.607273 
L 542.975276 -203.602314 
L 545.136039 -206.597355 
L 547.604146 -209.592397 
L 550.32409 -212.587438 
L 553.235401 -215.582479 
L 556.274628 -218.577521 
L 559.377385 -221.572562 
L 562.48036 -224.567603 
L 565.523199 -227.562645 
L 568.450205 -230.557686 
L 571.211793 -233.552727 
L 573.765642 -236.547769 
L 576.077547 -239.54281 
L 578.121945 -242.537851 
L 579.882138 -245.532893 
L 581.35023 -248.527934 
L 582.526819 -251.522975 
L 583.42047 -254.518017 
L 584.047033 -257.513058 
L 584.428826 -260.508099 
L 584.593719 -263.50314 
L 584.574165 -266.498182 
L 584.406173 -269.493223 
L 584.128256 -272.488264 
L 583.78036 -275.483306 
L 583.402773 -278.478347 
L 583.035034 -281.473388 
L 582.71485 -284.46843 
L 582.477043 -287.463471 
L 582.352553 -290.458512 
L 582.367531 -293.453554 
L 582.542565 -296.448595 
L 582.892075 -299.443636 
L 583.423926 -302.438678 
L 584.139273 -305.433719 
L 585.032688 -308.42876 
L 586.092542 -311.423802 
L 587.301657 -314.418843 
L 588.638184 -317.413884 
L 590.076666 -320.408926 
L 591.589226 -323.403967 
L 593.146817 -326.399008 
L 594.720454 -329.39405 
L 596.282368 -332.389091 
L 597.807014 -335.384132 
L 599.271901 -338.379174 
L 600.658186 -341.374215 
L 601.951048 -344.369256 
L 603.139821 -347.364298 
L 604.217913 -350.359339 
L 605.182541 -353.35438 
L 606.034322 -356.349421 
L 606.776761 -359.344463 
L 607.415678 -362.339504 
L 607.95862 -365.334545 
L 612.44138 -365.334545 
L 612.44138 -365.334545 
L 612.984322 -362.339504 
L 613.623239 -359.344463 
L 614.365678 -356.349421 
L 615.217459 -353.35438 
L 616.182087 -350.359339 
L 617.260179 -347.364298 
L 618.448952 -344.369256 
L 619.741814 -341.374215 
L 621.128099 -338.379174 
L 622.592986 -335.384132 
L 624.117632 -332.389091 
L 625.679546 -329.39405 
L 627.253183 -326.399008 
L 628.810774 -323.403967 
L 630.323334 -320.408926 
L 631.761816 -317.413884 
L 633.098343 -314.418843 
L 634.307458 -311.423802 
L 635.367312 -308.42876 
L 636.260727 -305.433719 
L 636.976074 -302.438678 
L 637.507925 -299.443636 
L 637.857435 -296.448595 
L 638.032469 -293.453554 
L 638.047447 -290.458512 
L 637.922957 -287.463471 
L 637.68515 -284.46843 
L 637.364966 -281.473388 
L 636.997227 -278.478347 
L 636.61964 -275.483306 
L 636.271744 -272.488264 
L 635.993827 -269.493223 
L 635.825835 -266.498182 
L 635.806281 -263.50314 
L 635.971174 -260.508099 
L 636.352967 -257.513058 
L 636.97953 -254.518017 
L 637.873181 -251.522975 
L 639.04977 -248.527934 
L 640.517862 -245.532893 
L 642.278055 -242.537851 
L 644.322453 -239.54281 
L 646.634358 -236.547769 
L 649.188207 -233.552727 
L 651.949795 -230.557686 
L 654.876801 -227.562645 
L 657.91964 -224.567603 
L 661.022615 -221.572562 
L 664.125372 -218.577521 
L 667.164599 -215.582479 
L 670.07591 -212.587438 
L 672.795854 -209.592397 
L 675.263961 -206.597355 
L 677.424724 -203.602314 
L 679.229442 -200.607273 
L 680.637831 -197.612231 
L 681.619318 -194.61719 
L 682.153969 -191.622149 
L 682.232995 -188.627107 
L 681.858818 -185.632066 
L 681.04469 -182.637025 
L 679.813901 -179.641983 
L 678.1986 -176.646942 
L 676.238318 -173.651901 
L 673.978241 -170.65686 
L 671.467357 -167.661818 
L 668.75655 -164.666777 
L 665.896737 -161.671736 
L 662.937156 -158.676694 
L 659.923864 -155.681653 
L 656.898516 -152.686612 
L 653.897472 -149.69157 
L 650.951249 -146.696529 
L 648.084313 -143.701488 
L 645.315209 -140.706446 
L 642.656958 -137.711405 
L 640.117697 -134.716364 
L 637.701463 -131.721322 
L 635.40908 -128.726281 
L 633.239049 -125.73124 
L 631.188403 -122.736198 
L 629.253446 -119.741157 
L 627.430359 -116.746116 
L 625.715634 -113.751074 
L 624.106341 -110.756033 
L 622.600223 -107.760992 
L 621.195654 -104.76595 
L 619.891489 -101.770909 
L 618.686833 -98.775868 
L 617.580782 -95.780826 
L 616.572161 -92.785785 
L 615.659294 -89.790744 
L 614.839825 -86.795702 
L 614.110615 -83.800661 
L 613.467702 -80.80562 
L 612.906334 -77.810579 
L 612.421066 -74.815537 
L 612.005894 -71.820496 
L 611.654435 -68.825455 
z
" id="m53760f5ed0" style="stroke:#3f3f3f;stroke-width:2.25;"/>
    </defs>
    <g clip-path="url(#p1e61d0db33)">
     <use style="fill:#e1812c;stroke:#3f3f3f;stroke-width:2.25;" x="0" xlink:href="#m53760f5ed0" y="432"/>
    </g>
   </g>
   <g id="matplotlib.axis_1">
    <g id="xtick_1">
     <g id="line2d_1">
      <defs>
       <path d="M 0 0 
L 0 9 
" id="m0f7d070d8e" style="stroke:#000000;stroke-width:1.875;"/>
      </defs>
      <g>
       <use style="stroke:#000000;stroke-width:1.875;" x="275.4" xlink:href="#m0f7d070d8e" y="378"/>
      </g>
     </g>
     <g id="text_1">
      <!-- blocked_rep -->
      <g transform="translate(225.849727 403.037422)scale(0.165 -0.165)">
       <defs>
        <path d="M 48.6875 27.296875 
Q 48.6875 37.203125 44.609375 42.84375 
Q 40.53125 48.484375 33.40625 48.484375 
Q 26.265625 48.484375 22.1875 42.84375 
Q 18.109375 37.203125 18.109375 27.296875 
Q 18.109375 17.390625 22.1875 11.75 
Q 26.265625 6.109375 33.40625 6.109375 
Q 40.53125 6.109375 44.609375 11.75 
Q 48.6875 17.390625 48.6875 27.296875 
z
M 18.109375 46.390625 
Q 20.953125 51.265625 25.265625 53.625 
Q 29.59375 56 35.59375 56 
Q 45.5625 56 51.78125 48.09375 
Q 58.015625 40.1875 58.015625 27.296875 
Q 58.015625 14.40625 51.78125 6.484375 
Q 45.5625 -1.421875 35.59375 -1.421875 
Q 29.59375 -1.421875 25.265625 0.953125 
Q 20.953125 3.328125 18.109375 8.203125 
L 18.109375 0 
L 9.078125 0 
L 9.078125 75.984375 
L 18.109375 75.984375 
z
" id="DejaVuSans-98"/>
        <path d="M 9.421875 75.984375 
L 18.40625 75.984375 
L 18.40625 0 
L 9.421875 0 
z
" id="DejaVuSans-108"/>
        <path d="M 30.609375 48.390625 
Q 23.390625 48.390625 19.1875 42.75 
Q 14.984375 37.109375 14.984375 27.296875 
Q 14.984375 17.484375 19.15625 11.84375 
Q 23.34375 6.203125 30.609375 6.203125 
Q 37.796875 6.203125 41.984375 11.859375 
Q 46.1875 17.53125 46.1875 27.296875 
Q 46.1875 37.015625 41.984375 42.703125 
Q 37.796875 48.390625 30.609375 48.390625 
z
M 30.609375 56 
Q 42.328125 56 49.015625 48.375 
Q 55.71875 40.765625 55.71875 27.296875 
Q 55.71875 13.875 49.015625 6.21875 
Q 42.328125 -1.421875 30.609375 -1.421875 
Q 18.84375 -1.421875 12.171875 6.21875 
Q 5.515625 13.875 5.515625 27.296875 
Q 5.515625 40.765625 12.171875 48.375 
Q 18.84375 56 30.609375 56 
z
" id="DejaVuSans-111"/>
        <path d="M 48.78125 52.59375 
L 48.78125 44.1875 
Q 44.96875 46.296875 41.140625 47.34375 
Q 37.3125 48.390625 33.40625 48.390625 
Q 24.65625 48.390625 19.8125 42.84375 
Q 14.984375 37.3125 14.984375 27.296875 
Q 14.984375 17.28125 19.8125 11.734375 
Q 24.65625 6.203125 33.40625 6.203125 
Q 37.3125 6.203125 41.140625 7.25 
Q 44.96875 8.296875 48.78125 10.40625 
L 48.78125 2.09375 
Q 45.015625 0.34375 40.984375 -0.53125 
Q 36.96875 -1.421875 32.421875 -1.421875 
Q 20.0625 -1.421875 12.78125 6.34375 
Q 5.515625 14.109375 5.515625 27.296875 
Q 5.515625 40.671875 12.859375 48.328125 
Q 20.21875 56 33.015625 56 
Q 37.15625 56 41.109375 55.140625 
Q 45.0625 54.296875 48.78125 52.59375 
z
" id="DejaVuSans-99"/>
        <path d="M 9.078125 75.984375 
L 18.109375 75.984375 
L 18.109375 31.109375 
L 44.921875 54.6875 
L 56.390625 54.6875 
L 27.390625 29.109375 
L 57.625 0 
L 45.90625 0 
L 18.109375 26.703125 
L 18.109375 0 
L 9.078125 0 
z
" id="DejaVuSans-107"/>
        <path d="M 56.203125 29.59375 
L 56.203125 25.203125 
L 14.890625 25.203125 
Q 15.484375 15.921875 20.484375 11.0625 
Q 25.484375 6.203125 34.421875 6.203125 
Q 39.59375 6.203125 44.453125 7.46875 
Q 49.3125 8.734375 54.109375 11.28125 
L 54.109375 2.78125 
Q 49.265625 0.734375 44.1875 -0.34375 
Q 39.109375 -1.421875 33.890625 -1.421875 
Q 20.796875 -1.421875 13.15625 6.1875 
Q 5.515625 13.8125 5.515625 26.8125 
Q 5.515625 40.234375 12.765625 48.109375 
Q 20.015625 56 32.328125 56 
Q 43.359375 56 49.78125 48.890625 
Q 56.203125 41.796875 56.203125 29.59375 
z
M 47.21875 32.234375 
Q 47.125 39.59375 43.09375 43.984375 
Q 39.0625 48.390625 32.421875 48.390625 
Q 24.90625 48.390625 20.390625 44.140625 
Q 15.875 39.890625 15.1875 32.171875 
z
" id="DejaVuSans-101"/>
        <path d="M 45.40625 46.390625 
L 45.40625 75.984375 
L 54.390625 75.984375 
L 54.390625 0 
L 45.40625 0 
L 45.40625 8.203125 
Q 42.578125 3.328125 38.25 0.953125 
Q 33.9375 -1.421875 27.875 -1.421875 
Q 17.96875 -1.421875 11.734375 6.484375 
Q 5.515625 14.40625 5.515625 27.296875 
Q 5.515625 40.1875 11.734375 48.09375 
Q 17.96875 56 27.875 56 
Q 33.9375 56 38.25 53.625 
Q 42.578125 51.265625 45.40625 46.390625 
z
M 14.796875 27.296875 
Q 14.796875 17.390625 18.875 11.75 
Q 22.953125 6.109375 30.078125 6.109375 
Q 37.203125 6.109375 41.296875 11.75 
Q 45.40625 17.390625 45.40625 27.296875 
Q 45.40625 37.203125 41.296875 42.84375 
Q 37.203125 48.484375 30.078125 48.484375 
Q 22.953125 48.484375 18.875 42.84375 
Q 14.796875 37.203125 14.796875 27.296875 
z
" id="DejaVuSans-100"/>
        <path d="M 50.984375 -16.609375 
L 50.984375 -23.578125 
L -0.984375 -23.578125 
L -0.984375 -16.609375 
z
" id="DejaVuSans-95"/>
        <path d="M 41.109375 46.296875 
Q 39.59375 47.171875 37.8125 47.578125 
Q 36.03125 48 33.890625 48 
Q 26.265625 48 22.1875 43.046875 
Q 18.109375 38.09375 18.109375 28.8125 
L 18.109375 0 
L 9.078125 0 
L 9.078125 54.6875 
L 18.109375 54.6875 
L 18.109375 46.1875 
Q 20.953125 51.171875 25.484375 53.578125 
Q 30.03125 56 36.53125 56 
Q 37.453125 56 38.578125 55.875 
Q 39.703125 55.765625 41.0625 55.515625 
z
" id="DejaVuSans-114"/>
        <path d="M 18.109375 8.203125 
L 18.109375 -20.796875 
L 9.078125 -20.796875 
L 9.078125 54.6875 
L 18.109375 54.6875 
L 18.109375 46.390625 
Q 20.953125 51.265625 25.265625 53.625 
Q 29.59375 56 35.59375 56 
Q 45.5625 56 51.78125 48.09375 
Q 58.015625 40.1875 58.015625 27.296875 
Q 58.015625 14.40625 51.78125 6.484375 
Q 45.5625 -1.421875 35.59375 -1.421875 
Q 29.59375 -1.421875 25.265625 0.953125 
Q 20.953125 3.328125 18.109375 8.203125 
z
M 48.6875 27.296875 
Q 48.6875 37.203125 44.609375 42.84375 
Q 40.53125 48.484375 33.40625 48.484375 
Q 26.265625 48.484375 22.1875 42.84375 
Q 18.109375 37.203125 18.109375 27.296875 
Q 18.109375 17.390625 22.1875 11.75 
Q 26.265625 6.109375 33.40625 6.109375 
Q 40.53125 6.109375 44.609375 11.75 
Q 48.6875 17.390625 48.6875 27.296875 
z
" id="DejaVuSans-112"/>
       </defs>
       <use xlink:href="#DejaVuSans-98"/>
       <use x="63.476562" xlink:href="#DejaVuSans-108"/>
       <use x="91.259766" xlink:href="#DejaVuSans-111"/>
       <use x="152.441406" xlink:href="#DejaVuSans-99"/>
       <use x="207.421875" xlink:href="#DejaVuSans-107"/>
       <use x="261.707031" xlink:href="#DejaVuSans-101"/>
       <use x="323.230469" xlink:href="#DejaVuSans-100"/>
       <use x="386.707031" xlink:href="#DejaVuSans-95"/>
       <use x="436.707031" xlink:href="#DejaVuSans-114"/>
       <use x="475.570312" xlink:href="#DejaVuSans-101"/>
       <use x="537.09375" xlink:href="#DejaVuSans-112"/>
      </g>
     </g>
    </g>
    <g id="xtick_2">
     <g id="line2d_2">
      <g>
       <use style="stroke:#000000;stroke-width:1.875;" x="610.2" xlink:href="#m0f7d070d8e" y="378"/>
      </g>
     </g>
     <g id="text_2">
      <!-- interleaved_rep -->
      <g transform="translate(545.71207 403.037422)scale(0.165 -0.165)">
       <defs>
        <path d="M 9.421875 54.6875 
L 18.40625 54.6875 
L 18.40625 0 
L 9.421875 0 
z
M 9.421875 75.984375 
L 18.40625 75.984375 
L 18.40625 64.59375 
L 9.421875 64.59375 
z
" id="DejaVuSans-105"/>
        <path d="M 54.890625 33.015625 
L 54.890625 0 
L 45.90625 0 
L 45.90625 32.71875 
Q 45.90625 40.484375 42.875 44.328125 
Q 39.84375 48.1875 33.796875 48.1875 
Q 26.515625 48.1875 22.3125 43.546875 
Q 18.109375 38.921875 18.109375 30.90625 
L 18.109375 0 
L 9.078125 0 
L 9.078125 54.6875 
L 18.109375 54.6875 
L 18.109375 46.1875 
Q 21.34375 51.125 25.703125 53.5625 
Q 30.078125 56 35.796875 56 
Q 45.21875 56 50.046875 50.171875 
Q 54.890625 44.34375 54.890625 33.015625 
z
" id="DejaVuSans-110"/>
        <path d="M 18.3125 70.21875 
L 18.3125 54.6875 
L 36.8125 54.6875 
L 36.8125 47.703125 
L 18.3125 47.703125 
L 18.3125 18.015625 
Q 18.3125 11.328125 20.140625 9.421875 
Q 21.96875 7.515625 27.59375 7.515625 
L 36.8125 7.515625 
L 36.8125 0 
L 27.59375 0 
Q 17.1875 0 13.234375 3.875 
Q 9.28125 7.765625 9.28125 18.015625 
L 9.28125 47.703125 
L 2.6875 47.703125 
L 2.6875 54.6875 
L 9.28125 54.6875 
L 9.28125 70.21875 
z
" id="DejaVuSans-116"/>
        <path d="M 34.28125 27.484375 
Q 23.390625 27.484375 19.1875 25 
Q 14.984375 22.515625 14.984375 16.5 
Q 14.984375 11.71875 18.140625 8.90625 
Q 21.296875 6.109375 26.703125 6.109375 
Q 34.1875 6.109375 38.703125 11.40625 
Q 43.21875 16.703125 43.21875 25.484375 
L 43.21875 27.484375 
z
M 52.203125 31.203125 
L 52.203125 0 
L 43.21875 0 
L 43.21875 8.296875 
Q 40.140625 3.328125 35.546875 0.953125 
Q 30.953125 -1.421875 24.3125 -1.421875 
Q 15.921875 -1.421875 10.953125 3.296875 
Q 6 8.015625 6 15.921875 
Q 6 25.140625 12.171875 29.828125 
Q 18.359375 34.515625 30.609375 34.515625 
L 43.21875 34.515625 
L 43.21875 35.40625 
Q 43.21875 41.609375 39.140625 45 
Q 35.0625 48.390625 27.6875 48.390625 
Q 23 48.390625 18.546875 47.265625 
Q 14.109375 46.140625 10.015625 43.890625 
L 10.015625 52.203125 
Q 14.9375 54.109375 19.578125 55.046875 
Q 24.21875 56 28.609375 56 
Q 40.484375 56 46.34375 49.84375 
Q 52.203125 43.703125 52.203125 31.203125 
z
" id="DejaVuSans-97"/>
        <path d="M 2.984375 54.6875 
L 12.5 54.6875 
L 29.59375 8.796875 
L 46.6875 54.6875 
L 56.203125 54.6875 
L 35.6875 0 
L 23.484375 0 
z
" id="DejaVuSans-118"/>
       </defs>
       <use xlink:href="#DejaVuSans-105"/>
       <use x="27.783203" xlink:href="#DejaVuSans-110"/>
       <use x="91.162109" xlink:href="#DejaVuSans-116"/>
       <use x="130.371094" xlink:href="#DejaVuSans-101"/>
       <use x="191.894531" xlink:href="#DejaVuSans-114"/>
       <use x="233.007812" xlink:href="#DejaVuSans-108"/>
       <use x="260.791016" xlink:href="#DejaVuSans-101"/>
       <use x="322.314453" xlink:href="#DejaVuSans-97"/>
       <use x="383.59375" xlink:href="#DejaVuSans-118"/>
       <use x="442.773438" xlink:href="#DejaVuSans-101"/>
       <use x="504.296875" xlink:href="#DejaVuSans-100"/>
       <use x="567.773438" xlink:href="#DejaVuSans-95"/>
       <use x="617.773438" xlink:href="#DejaVuSans-114"/>
       <use x="656.636719" xlink:href="#DejaVuSans-101"/>
       <use x="718.160156" xlink:href="#DejaVuSans-112"/>
      </g>
     </g>
    </g>
    <g id="text_3">
     <!-- condition -->
     <g transform="translate(401.187656 424.605)scale(0.18 -0.18)">
      <use xlink:href="#DejaVuSans-99"/>
      <use x="54.980469" xlink:href="#DejaVuSans-111"/>
      <use x="116.162109" xlink:href="#DejaVuSans-110"/>
      <use x="179.541016" xlink:href="#DejaVuSans-100"/>
      <use x="243.017578" xlink:href="#DejaVuSans-105"/>
      <use x="270.800781" xlink:href="#DejaVuSans-116"/>
      <use x="310.009766" xlink:href="#DejaVuSans-105"/>
      <use x="337.792969" xlink:href="#DejaVuSans-111"/>
      <use x="398.974609" xlink:href="#DejaVuSans-110"/>
     </g>
    </g>
   </g>
   <g id="matplotlib.axis_2">
    <g id="ytick_1">
     <g id="line2d_3">
      <defs>
       <path d="M 0 0 
L -9 0 
" id="m5aac288993" style="stroke:#000000;stroke-width:1.875;"/>
      </defs>
      <g>
       <use style="stroke:#000000;stroke-width:1.875;" x="108" xlink:href="#m5aac288993" y="366.295988"/>
      </g>
     </g>
     <g id="text_4">
      <!-- 0.0 -->
      <g transform="translate(69.259844 372.564699)scale(0.165 -0.165)">
       <defs>
        <path d="M 31.78125 66.40625 
Q 24.171875 66.40625 20.328125 58.90625 
Q 16.5 51.421875 16.5 36.375 
Q 16.5 21.390625 20.328125 13.890625 
Q 24.171875 6.390625 31.78125 6.390625 
Q 39.453125 6.390625 43.28125 13.890625 
Q 47.125 21.390625 47.125 36.375 
Q 47.125 51.421875 43.28125 58.90625 
Q 39.453125 66.40625 31.78125 66.40625 
z
M 31.78125 74.21875 
Q 44.046875 74.21875 50.515625 64.515625 
Q 56.984375 54.828125 56.984375 36.375 
Q 56.984375 17.96875 50.515625 8.265625 
Q 44.046875 -1.421875 31.78125 -1.421875 
Q 19.53125 -1.421875 13.0625 8.265625 
Q 6.59375 17.96875 6.59375 36.375 
Q 6.59375 54.828125 13.0625 64.515625 
Q 19.53125 74.21875 31.78125 74.21875 
z
" id="DejaVuSans-48"/>
        <path d="M 10.6875 12.40625 
L 21 12.40625 
L 21 0 
L 10.6875 0 
z
" id="DejaVuSans-46"/>
       </defs>
       <use xlink:href="#DejaVuSans-48"/>
       <use x="63.623047" xlink:href="#DejaVuSans-46"/>
       <use x="95.410156" xlink:href="#DejaVuSans-48"/>
      </g>
     </g>
    </g>
    <g id="ytick_2">
     <g id="line2d_4">
      <g>
       <use style="stroke:#000000;stroke-width:1.875;" x="108" xlink:href="#m5aac288993" y="317.855672"/>
      </g>
     </g>
     <g id="text_5">
      <!-- 0.2 -->
      <g transform="translate(69.259844 324.124383)scale(0.165 -0.165)">
       <defs>
        <path d="M 19.1875 8.296875 
L 53.609375 8.296875 
L 53.609375 0 
L 7.328125 0 
L 7.328125 8.296875 
Q 12.9375 14.109375 22.625 23.890625 
Q 32.328125 33.6875 34.8125 36.53125 
Q 39.546875 41.84375 41.421875 45.53125 
Q 43.3125 49.21875 43.3125 52.78125 
Q 43.3125 58.59375 39.234375 62.25 
Q 35.15625 65.921875 28.609375 65.921875 
Q 23.96875 65.921875 18.8125 64.3125 
Q 13.671875 62.703125 7.8125 59.421875 
L 7.8125 69.390625 
Q 13.765625 71.78125 18.9375 73 
Q 24.125 74.21875 28.421875 74.21875 
Q 39.75 74.21875 46.484375 68.546875 
Q 53.21875 62.890625 53.21875 53.421875 
Q 53.21875 48.921875 51.53125 44.890625 
Q 49.859375 40.875 45.40625 35.40625 
Q 44.1875 33.984375 37.640625 27.21875 
Q 31.109375 20.453125 19.1875 8.296875 
z
" id="DejaVuSans-50"/>
       </defs>
       <use xlink:href="#DejaVuSans-48"/>
       <use x="63.623047" xlink:href="#DejaVuSans-46"/>
       <use x="95.410156" xlink:href="#DejaVuSans-50"/>
      </g>
     </g>
    </g>
    <g id="ytick_3">
     <g id="line2d_5">
      <g>
       <use style="stroke:#000000;stroke-width:1.875;" x="108" xlink:href="#m5aac288993" y="269.415356"/>
      </g>
     </g>
     <g id="text_6">
      <!-- 0.4 -->
      <g transform="translate(69.259844 275.684067)scale(0.165 -0.165)">
       <defs>
        <path d="M 37.796875 64.3125 
L 12.890625 25.390625 
L 37.796875 25.390625 
z
M 35.203125 72.90625 
L 47.609375 72.90625 
L 47.609375 25.390625 
L 58.015625 25.390625 
L 58.015625 17.1875 
L 47.609375 17.1875 
L 47.609375 0 
L 37.796875 0 
L 37.796875 17.1875 
L 4.890625 17.1875 
L 4.890625 26.703125 
z
" id="DejaVuSans-52"/>
       </defs>
       <use xlink:href="#DejaVuSans-48"/>
       <use x="63.623047" xlink:href="#DejaVuSans-46"/>
       <use x="95.410156" xlink:href="#DejaVuSans-52"/>
      </g>
     </g>
    </g>
    <g id="ytick_4">
     <g id="line2d_6">
      <g>
       <use style="stroke:#000000;stroke-width:1.875;" x="108" xlink:href="#m5aac288993" y="220.97504"/>
      </g>
     </g>
     <g id="text_7">
      <!-- 0.6 -->
      <g transform="translate(69.259844 227.24375)scale(0.165 -0.165)">
       <defs>
        <path d="M 33.015625 40.375 
Q 26.375 40.375 22.484375 35.828125 
Q 18.609375 31.296875 18.609375 23.390625 
Q 18.609375 15.53125 22.484375 10.953125 
Q 26.375 6.390625 33.015625 6.390625 
Q 39.65625 6.390625 43.53125 10.953125 
Q 47.40625 15.53125 47.40625 23.390625 
Q 47.40625 31.296875 43.53125 35.828125 
Q 39.65625 40.375 33.015625 40.375 
z
M 52.59375 71.296875 
L 52.59375 62.3125 
Q 48.875 64.0625 45.09375 64.984375 
Q 41.3125 65.921875 37.59375 65.921875 
Q 27.828125 65.921875 22.671875 59.328125 
Q 17.53125 52.734375 16.796875 39.40625 
Q 19.671875 43.65625 24.015625 45.921875 
Q 28.375 48.1875 33.59375 48.1875 
Q 44.578125 48.1875 50.953125 41.515625 
Q 57.328125 34.859375 57.328125 23.390625 
Q 57.328125 12.15625 50.6875 5.359375 
Q 44.046875 -1.421875 33.015625 -1.421875 
Q 20.359375 -1.421875 13.671875 8.265625 
Q 6.984375 17.96875 6.984375 36.375 
Q 6.984375 53.65625 15.1875 63.9375 
Q 23.390625 74.21875 37.203125 74.21875 
Q 40.921875 74.21875 44.703125 73.484375 
Q 48.484375 72.75 52.59375 71.296875 
z
" id="DejaVuSans-54"/>
       </defs>
       <use xlink:href="#DejaVuSans-48"/>
       <use x="63.623047" xlink:href="#DejaVuSans-46"/>
       <use x="95.410156" xlink:href="#DejaVuSans-54"/>
      </g>
     </g>
    </g>
    <g id="ytick_5">
     <g id="line2d_7">
      <g>
       <use style="stroke:#000000;stroke-width:1.875;" x="108" xlink:href="#m5aac288993" y="172.534723"/>
      </g>
     </g>
     <g id="text_8">
      <!-- 0.8 -->
      <g transform="translate(69.259844 178.803434)scale(0.165 -0.165)">
       <defs>
        <path d="M 31.78125 34.625 
Q 24.75 34.625 20.71875 30.859375 
Q 16.703125 27.09375 16.703125 20.515625 
Q 16.703125 13.921875 20.71875 10.15625 
Q 24.75 6.390625 31.78125 6.390625 
Q 38.8125 6.390625 42.859375 10.171875 
Q 46.921875 13.96875 46.921875 20.515625 
Q 46.921875 27.09375 42.890625 30.859375 
Q 38.875 34.625 31.78125 34.625 
z
M 21.921875 38.8125 
Q 15.578125 40.375 12.03125 44.71875 
Q 8.5 49.078125 8.5 55.328125 
Q 8.5 64.0625 14.71875 69.140625 
Q 20.953125 74.21875 31.78125 74.21875 
Q 42.671875 74.21875 48.875 69.140625 
Q 55.078125 64.0625 55.078125 55.328125 
Q 55.078125 49.078125 51.53125 44.71875 
Q 48 40.375 41.703125 38.8125 
Q 48.828125 37.15625 52.796875 32.3125 
Q 56.78125 27.484375 56.78125 20.515625 
Q 56.78125 9.90625 50.3125 4.234375 
Q 43.84375 -1.421875 31.78125 -1.421875 
Q 19.734375 -1.421875 13.25 4.234375 
Q 6.78125 9.90625 6.78125 20.515625 
Q 6.78125 27.484375 10.78125 32.3125 
Q 14.796875 37.15625 21.921875 38.8125 
z
M 18.3125 54.390625 
Q 18.3125 48.734375 21.84375 45.5625 
Q 25.390625 42.390625 31.78125 42.390625 
Q 38.140625 42.390625 41.71875 45.5625 
Q 45.3125 48.734375 45.3125 54.390625 
Q 45.3125 60.0625 41.71875 63.234375 
Q 38.140625 66.40625 31.78125 66.40625 
Q 25.390625 66.40625 21.84375 63.234375 
Q 18.3125 60.0625 18.3125 54.390625 
z
" id="DejaVuSans-56"/>
       </defs>
       <use xlink:href="#DejaVuSans-48"/>
       <use x="63.623047" xlink:href="#DejaVuSans-46"/>
       <use x="95.410156" xlink:href="#DejaVuSans-56"/>
      </g>
     </g>
    </g>
    <g id="ytick_6">
     <g id="line2d_8">
      <g>
       <use style="stroke:#000000;stroke-width:1.875;" x="108" xlink:href="#m5aac288993" y="124.094407"/>
      </g>
     </g>
     <g id="text_9">
      <!-- 1.0 -->
      <g transform="translate(69.259844 130.363118)scale(0.165 -0.165)">
       <defs>
        <path d="M 12.40625 8.296875 
L 28.515625 8.296875 
L 28.515625 63.921875 
L 10.984375 60.40625 
L 10.984375 69.390625 
L 28.421875 72.90625 
L 38.28125 72.90625 
L 38.28125 8.296875 
L 54.390625 8.296875 
L 54.390625 0 
L 12.40625 0 
z
" id="DejaVuSans-49"/>
       </defs>
       <use xlink:href="#DejaVuSans-49"/>
       <use x="63.623047" xlink:href="#DejaVuSans-46"/>
       <use x="95.410156" xlink:href="#DejaVuSans-48"/>
      </g>
     </g>
    </g>
    <g id="ytick_7">
     <g id="line2d_9">
      <g>
       <use style="stroke:#000000;stroke-width:1.875;" x="108" xlink:href="#m5aac288993" y="75.654091"/>
      </g>
     </g>
     <g id="text_10">
      <!-- 1.2 -->
      <g transform="translate(69.259844 81.922802)scale(0.165 -0.165)">
       <use xlink:href="#DejaVuSans-49"/>
       <use x="63.623047" xlink:href="#DejaVuSans-46"/>
       <use x="95.410156" xlink:href="#DejaVuSans-50"/>
      </g>
     </g>
    </g>
    <g id="text_11">
     <!-- prediction accuracy -->
     <g transform="translate(61.516406 303.537656)rotate(-90)scale(0.18 -0.18)">
      <defs>
       <path id="DejaVuSans-32"/>
       <path d="M 8.5 21.578125 
L 8.5 54.6875 
L 17.484375 54.6875 
L 17.484375 21.921875 
Q 17.484375 14.15625 20.5 10.265625 
Q 23.53125 6.390625 29.59375 6.390625 
Q 36.859375 6.390625 41.078125 11.03125 
Q 45.3125 15.671875 45.3125 23.6875 
L 45.3125 54.6875 
L 54.296875 54.6875 
L 54.296875 0 
L 45.3125 0 
L 45.3125 8.40625 
Q 42.046875 3.421875 37.71875 1 
Q 33.40625 -1.421875 27.6875 -1.421875 
Q 18.265625 -1.421875 13.375 4.4375 
Q 8.5 10.296875 8.5 21.578125 
z
M 31.109375 56 
z
" id="DejaVuSans-117"/>
       <path d="M 32.171875 -5.078125 
Q 28.375 -14.84375 24.75 -17.8125 
Q 21.140625 -20.796875 15.09375 -20.796875 
L 7.90625 -20.796875 
L 7.90625 -13.28125 
L 13.1875 -13.28125 
Q 16.890625 -13.28125 18.9375 -11.515625 
Q 21 -9.765625 23.484375 -3.21875 
L 25.09375 0.875 
L 2.984375 54.6875 
L 12.5 54.6875 
L 29.59375 11.921875 
L 46.6875 54.6875 
L 56.203125 54.6875 
z
" id="DejaVuSans-121"/>
      </defs>
      <use xlink:href="#DejaVuSans-112"/>
      <use x="63.476562" xlink:href="#DejaVuSans-114"/>
      <use x="102.339844" xlink:href="#DejaVuSans-101"/>
      <use x="163.863281" xlink:href="#DejaVuSans-100"/>
      <use x="227.339844" xlink:href="#DejaVuSans-105"/>
      <use x="255.123047" xlink:href="#DejaVuSans-99"/>
      <use x="310.103516" xlink:href="#DejaVuSans-116"/>
      <use x="349.3125" xlink:href="#DejaVuSans-105"/>
      <use x="377.095703" xlink:href="#DejaVuSans-111"/>
      <use x="438.277344" xlink:href="#DejaVuSans-110"/>
      <use x="501.65625" xlink:href="#DejaVuSans-32"/>
      <use x="533.443359" xlink:href="#DejaVuSans-97"/>
      <use x="594.722656" xlink:href="#DejaVuSans-99"/>
      <use x="649.703125" xlink:href="#DejaVuSans-99"/>
      <use x="704.683594" xlink:href="#DejaVuSans-117"/>
      <use x="768.0625" xlink:href="#DejaVuSans-114"/>
      <use x="809.175781" xlink:href="#DejaVuSans-97"/>
      <use x="870.455078" xlink:href="#DejaVuSans-99"/>
      <use x="925.435547" xlink:href="#DejaVuSans-121"/>
     </g>
    </g>
   </g>
   <g id="line2d_10">
    <path clip-path="url(#p1e61d0db33)" d="M 275.4 173.959438 
L 275.4 124.094407 
" style="fill:none;stroke:#3f3f3f;stroke-linecap:square;stroke-width:2.25;"/>
   </g>
   <g id="line2d_11">
    <path clip-path="url(#p1e61d0db33)" d="M 275.4 157.384018 
L 275.4 124.094407 
" style="fill:none;stroke:#3f3f3f;stroke-linecap:square;stroke-width:6.75;"/>
   </g>
   <g id="line2d_12">
    <path clip-path="url(#p1e61d0db33)" d="M 610.2 305.745593 
L 610.2 124.094407 
" style="fill:none;stroke:#3f3f3f;stroke-linecap:square;stroke-width:2.25;"/>
   </g>
   <g id="line2d_13">
    <path clip-path="url(#p1e61d0db33)" d="M 610.2 254.814657 
L 610.2 200.324967 
" style="fill:none;stroke:#3f3f3f;stroke-linecap:square;stroke-width:6.75;"/>
   </g>
   <g id="patch_3">
    <path d="M 108 378 
L 108 51.84 
" style="fill:none;stroke:#000000;stroke-linecap:square;stroke-linejoin:miter;stroke-width:1.875;"/>
   </g>
   <g id="patch_4">
    <path d="M 777.6 378 
L 777.6 51.84 
" style="fill:none;stroke:#000000;stroke-linecap:square;stroke-linejoin:miter;stroke-width:1.875;"/>
   </g>
   <g id="patch_5">
    <path d="M 108 378 
L 777.6 378 
" style="fill:none;stroke:#000000;stroke-linecap:square;stroke-linejoin:miter;stroke-width:1.875;"/>
   </g>
   <g id="patch_6">
    <path d="M 108 51.84 
L 777.6 51.84 
" style="fill:none;stroke:#000000;stroke-linecap:square;stroke-linejoin:miter;stroke-width:1.875;"/>
   </g>
   <g id="PathCollection_1">
    <defs>
     <path d="M 0 2.25 
C 0.596707 2.25 1.169055 2.012926 1.59099 1.59099 
C 2.012926 1.169055 2.25 0.596707 2.25 0 
C 2.25 -0.596707 2.012926 -1.169055 1.59099 -1.59099 
C 1.169055 -2.012926 0.596707 -2.25 0 -2.25 
C -0.596707 -2.25 -1.169055 -2.012926 -1.59099 -1.59099 
C -2.012926 -1.169055 -2.25 -0.596707 -2.25 0 
C -2.25 0.596707 -2.012926 1.169055 -1.59099 1.59099 
C -1.169055 2.012926 -0.596707 2.25 0 2.25 
z
" id="m2f0f470b55" style="stroke:#3f3f3f;stroke-width:1.5;"/>
    </defs>
    <g clip-path="url(#p1e61d0db33)">
     <use style="fill:#ffffff;stroke:#3f3f3f;stroke-width:1.5;" x="275.4" xlink:href="#m2f0f470b55" y="136.507238"/>
    </g>
   </g>
   <g id="PathCollection_2">
    <g clip-path="url(#p1e61d0db33)">
     <use style="fill:#ffffff;stroke:#3f3f3f;stroke-width:1.5;" x="610.2" xlink:href="#m2f0f470b55" y="236.833476"/>
    </g>
   </g>
  </g>
 </g>
 <defs>
  <clipPath id="p1e61d0db33">
   <rect height="326.16" width="669.6" x="108" y="51.84"/>
  </clipPath>
 </defs>
</svg>
