<?xml version="1.0" encoding="utf-8" standalone="no"?>
<!DOCTYPE svg PUBLIC "-//W3C//DTD SVG 1.1//EN"
  "http://www.w3.org/Graphics/SVG/1.1/DTD/svg11.dtd">
<!-- Created with matplotlib (https://matplotlib.org/) -->
<svg height="432pt" version="1.1" viewBox="0 0 864 432" width="864pt" xmlns="http://www.w3.org/2000/svg" xmlns:xlink="http://www.w3.org/1999/xlink">
 <metadata>
  <rdf:RDF xmlns:cc="http://creativecommons.org/ns#" xmlns:dc="http://purl.org/dc/elements/1.1/" xmlns:rdf="http://www.w3.org/1999/02/22-rdf-syntax-ns#">
   <cc:Work>
    <dc:type rdf:resource="http://purl.org/dc/dcmitype/StillImage"/>
    <dc:date>2023-04-16T12:01:24.276369</dc:date>
    <dc:format>image/svg+xml</dc:format>
    <dc:creator>
     <cc:Agent>
      <dc:title>Matplotlib v3.3.4, https://matplotlib.org/</dc:title>
     </cc:Agent>
    </dc:creator>
   </cc:Work>
  </rdf:RDF>
 </metadata>
 <defs>
  <style type="text/css">*{stroke-linecap:butt;stroke-linejoin:round;}</style>
 </defs>
 <g id="figure_1">
  <g id="patch_1">
   <path d="M 0 432 
L 864 432 
L 864 0 
L 0 0 
z
" style="fill:none;"/>
  </g>
  <g id="axes_1">
   <g id="patch_2">
    <path d="M 108 378 
L 777.6 378 
L 777.6 51.84 
L 108 51.84 
z
" style="fill:#ffffff;"/>
   </g>
   <g id="PolyCollection_1">
    <defs>
     <path d="M 276.960594 -75.143544 
L 273.839406 -75.143544 
L 273.447091 -78.074766 
L 272.981732 -81.005988 
L 272.436676 -83.937211 
L 271.806387 -86.868433 
L 271.086899 -89.799655 
L 270.276268 -92.730877 
L 269.374984 -95.6621 
L 268.386306 -98.593322 
L 267.316505 -101.524544 
L 266.174956 -104.455766 
L 264.974077 -107.386988 
L 263.729092 -110.318211 
L 262.457619 -113.249433 
L 261.179096 -116.180655 
L 259.914073 -119.111877 
L 258.68342 -122.0431 
L 257.507485 -124.974322 
L 256.405281 -127.905544 
L 255.393736 -130.836766 
L 254.487083 -133.767989 
L 253.696409 -136.699211 
L 253.029408 -139.630433 
L 252.490335 -142.561655 
L 252.080157 -145.492878 
L 251.796868 -148.4241 
L 251.635935 -151.355322 
L 251.590805 -154.286544 
L 251.653439 -157.217767 
L 251.814798 -160.148989 
L 252.065232 -163.080211 
L 252.394753 -166.011433 
L 252.793149 -168.942655 
L 253.249941 -171.873878 
L 253.754203 -174.8051 
L 254.294254 -177.736322 
L 254.85727 -180.667544 
L 255.428865 -183.598767 
L 255.992678 -186.529989 
L 256.530026 -189.461211 
L 257.019669 -192.392433 
L 257.437709 -195.323656 
L 257.757669 -198.254878 
L 257.950756 -201.1861 
L 257.986308 -204.117322 
L 257.832419 -207.048545 
L 257.456715 -209.979767 
L 256.827247 -212.910989 
L 255.913452 -215.842211 
L 254.68714 -218.773434 
L 253.123451 -221.704656 
L 251.201732 -224.635878 
L 248.906302 -227.5671 
L 246.227056 -230.498322 
L 243.159922 -233.429545 
L 239.707144 -236.360767 
L 235.877434 -239.291989 
L 231.686013 -242.223211 
L 227.154593 -245.154434 
L 222.311361 -248.085656 
L 217.190987 -251.016878 
L 211.834716 -253.9481 
L 206.29054 -256.879323 
L 200.613438 -259.810545 
L 194.865632 -262.741767 
L 189.116774 -265.672989 
L 183.443969 -268.604212 
L 177.931482 -271.535434 
L 172.670025 -274.466656 
L 167.755502 -277.397878 
L 163.287125 -280.329101 
L 159.36489 -283.260323 
L 156.086438 -286.191545 
L 153.543415 -289.122767 
L 151.817505 -292.053989 
L 150.976381 -294.985212 
L 151.069848 -297.916434 
L 152.126479 -300.847656 
L 154.151035 -303.778878 
L 157.122917 -306.710101 
L 160.995826 -309.641323 
L 165.698722 -312.572545 
L 171.13809 -315.503767 
L 177.201383 -318.43499 
L 183.761448 -321.366212 
L 190.68166 -324.297434 
L 197.821421 -327.228656 
L 205.041679 -330.159879 
L 212.210131 -333.091101 
L 219.2058 -336.022323 
L 225.922744 -338.953545 
L 232.272753 -341.884768 
L 238.186934 -344.81599 
L 243.616219 -347.747212 
L 248.530854 -350.678434 
L 252.919043 -353.609657 
L 256.784906 -356.540879 
L 260.145985 -359.472101 
L 263.030489 -362.403323 
L 265.474485 -365.334545 
L 285.325515 -365.334545 
L 285.325515 -365.334545 
L 287.769511 -362.403323 
L 290.654015 -359.472101 
L 294.015094 -356.540879 
L 297.880957 -353.609657 
L 302.269146 -350.678434 
L 307.183781 -347.747212 
L 312.613066 -344.81599 
L 318.527247 -341.884768 
L 324.877256 -338.953545 
L 331.5942 -336.022323 
L 338.589869 -333.091101 
L 345.758321 -330.159879 
L 352.978579 -327.228656 
L 360.11834 -324.297434 
L 367.038552 -321.366212 
L 373.598617 -318.43499 
L 379.66191 -315.503767 
L 385.101278 -312.572545 
L 389.804174 -309.641323 
L 393.677083 -306.710101 
L 396.648965 -303.778878 
L 398.673521 -300.847656 
L 399.730152 -297.916434 
L 399.823619 -294.985212 
L 398.982495 -292.053989 
L 397.256585 -289.122767 
L 394.713562 -286.191545 
L 391.43511 -283.260323 
L 387.512875 -280.329101 
L 383.044498 -277.397878 
L 378.129975 -274.466656 
L 372.868518 -271.535434 
L 367.356031 -268.604212 
L 361.683226 -265.672989 
L 355.934368 -262.741767 
L 350.186562 -259.810545 
L 344.50946 -256.879323 
L 338.965284 -253.9481 
L 333.609013 -251.016878 
L 328.488639 -248.085656 
L 323.645407 -245.154434 
L 319.113987 -242.223211 
L 314.922566 -239.291989 
L 311.092856 -236.360767 
L 307.640078 -233.429545 
L 304.572944 -230.498322 
L 301.893698 -227.5671 
L 299.598268 -224.635878 
L 297.676549 -221.704656 
L 296.11286 -218.773434 
L 294.886548 -215.842211 
L 293.972753 -212.910989 
L 293.343285 -209.979767 
L 292.967581 -207.048545 
L 292.813692 -204.117322 
L 292.849244 -201.1861 
L 293.042331 -198.254878 
L 293.362291 -195.323656 
L 293.780331 -192.392433 
L 294.269974 -189.461211 
L 294.807322 -186.529989 
L 295.371135 -183.598767 
L 295.94273 -180.667544 
L 296.505746 -177.736322 
L 297.045797 -174.8051 
L 297.550059 -171.873878 
L 298.006851 -168.942655 
L 298.405247 -166.011433 
L 298.734768 -163.080211 
L 298.985202 -160.148989 
L 299.146561 -157.217767 
L 299.209195 -154.286544 
L 299.164065 -151.355322 
L 299.003132 -148.4241 
L 298.719843 -145.492878 
L 298.309665 -142.561655 
L 297.770592 -139.630433 
L 297.103591 -136.699211 
L 296.312917 -133.767989 
L 295.406264 -130.836766 
L 294.394719 -127.905544 
L 293.292515 -124.974322 
L 292.11658 -122.0431 
L 290.885927 -119.111877 
L 289.620904 -116.180655 
L 288.342381 -113.249433 
L 287.070908 -110.318211 
L 285.825923 -107.386988 
L 284.625044 -104.455766 
L 283.483495 -101.524544 
L 282.413694 -98.593322 
L 281.425016 -95.6621 
L 280.523732 -92.730877 
L 279.713101 -89.799655 
L 278.993613 -86.868433 
L 278.363324 -83.937211 
L 277.818268 -81.005988 
L 277.352909 -78.074766 
L 276.960594 -75.143544 
z
" id="m043a1ca033" style="stroke:#3f3f3f;stroke-width:2.25;"/>
    </defs>
    <g clip-path="url(#pb7f7c21636)">
     <use style="fill:#3274a1;stroke:#3f3f3f;stroke-width:2.25;" x="0" xlink:href="#m043a1ca033" y="432"/>
    </g>
   </g>
   <g id="PolyCollection_2">
    <defs>
     <path d="M 612.018147 -68.825455 
L 608.381853 -68.825455 
L 607.780804 -71.701627 
L 607.028673 -74.577799 
L 606.102866 -77.453971 
L 604.981405 -80.330143 
L 603.643804 -83.206315 
L 602.071797 -86.082487 
L 600.249802 -88.958659 
L 598.165016 -91.834831 
L 595.807047 -94.711003 
L 593.167115 -97.587175 
L 590.236894 -100.463347 
L 587.007185 -103.339519 
L 583.466698 -106.215691 
L 579.601266 -109.091863 
L 575.393825 -111.968035 
L 570.825449 -114.844207 
L 565.877602 -117.72038 
L 560.535632 -120.596552 
L 554.79329 -123.472724 
L 548.657906 -126.348896 
L 542.15564 -129.225068 
L 535.336145 -132.10124 
L 528.275941 -134.977412 
L 521.079872 -137.853584 
L 513.880192 -140.729756 
L 506.833054 -143.605928 
L 500.112452 -146.4821 
L 493.901969 -149.358272 
L 488.384895 -152.234444 
L 483.73352 -155.110616 
L 480.098446 -157.986788 
L 477.598842 -160.86296 
L 476.314447 -163.739132 
L 476.28 -166.615304 
L 477.482589 -169.491477 
L 479.862163 -172.367649 
L 483.315192 -175.243821 
L 487.701232 -178.119993 
L 492.851883 -180.996165 
L 498.581442 -183.872337 
L 504.698388 -186.748509 
L 511.016756 -189.624681 
L 517.366432 -192.500853 
L 523.601541 -195.377025 
L 529.606238 -198.253197 
L 535.29751 -201.129369 
L 540.624922 -204.005541 
L 545.567556 -206.881713 
L 550.128708 -209.757885 
L 554.329132 -212.634057 
L 558.19975 -215.510229 
L 561.77471 -218.386401 
L 565.08559 -221.262574 
L 568.157288 -224.138746 
L 571.005866 -227.014918 
L 573.638345 -229.89109 
L 576.05413 -232.767262 
L 578.247636 -235.643434 
L 580.211503 -238.519606 
L 581.93985 -241.395778 
L 583.431072 -244.27195 
L 584.689814 -247.148122 
L 585.727956 -250.024294 
L 586.564583 -252.900466 
L 587.225068 -255.776638 
L 587.739504 -258.65281 
L 588.140756 -261.528982 
L 588.462416 -264.405154 
L 588.736908 -267.281326 
L 588.993926 -270.157499 
L 589.259325 -273.033671 
L 589.554478 -275.909843 
L 589.896103 -278.786015 
L 590.296438 -281.662187 
L 590.76369 -284.538359 
L 591.30261 -287.414531 
L 591.915092 -290.290703 
L 592.600698 -293.166875 
L 593.357054 -296.043047 
L 594.180086 -298.919219 
L 595.064119 -301.795391 
L 596.00188 -304.671563 
L 596.984459 -307.547735 
L 598.001314 -310.423907 
L 599.040369 -313.300079 
L 600.08825 -316.176251 
L 601.130684 -319.052423 
L 602.153039 -321.928596 
L 603.140973 -324.804768 
L 604.081118 -327.68094 
L 604.961747 -330.557112 
L 605.773336 -333.433284 
L 606.508975 -336.309456 
L 607.164577 -339.185628 
L 607.738893 -342.0618 
L 608.23332 -344.937972 
L 608.651553 -347.814144 
L 608.999121 -350.690316 
L 609.282858 -353.566488 
L 611.117142 -353.566488 
L 611.117142 -353.566488 
L 611.400879 -350.690316 
L 611.748447 -347.814144 
L 612.16668 -344.937972 
L 612.661107 -342.0618 
L 613.235423 -339.185628 
L 613.891025 -336.309456 
L 614.626664 -333.433284 
L 615.438253 -330.557112 
L 616.318882 -327.68094 
L 617.259027 -324.804768 
L 618.246961 -321.928596 
L 619.269316 -319.052423 
L 620.31175 -316.176251 
L 621.359631 -313.300079 
L 622.398686 -310.423907 
L 623.415541 -307.547735 
L 624.39812 -304.671563 
L 625.335881 -301.795391 
L 626.219914 -298.919219 
L 627.042946 -296.043047 
L 627.799302 -293.166875 
L 628.484908 -290.290703 
L 629.09739 -287.414531 
L 629.63631 -284.538359 
L 630.103562 -281.662187 
L 630.503897 -278.786015 
L 630.845522 -275.909843 
L 631.140675 -273.033671 
L 631.406074 -270.157499 
L 631.663092 -267.281326 
L 631.937584 -264.405154 
L 632.259244 -261.528982 
L 632.660496 -258.65281 
L 633.174932 -255.776638 
L 633.835417 -252.900466 
L 634.672044 -250.024294 
L 635.710186 -247.148122 
L 636.968928 -244.27195 
L 638.46015 -241.395778 
L 640.188497 -238.519606 
L 642.152364 -235.643434 
L 644.34587 -232.767262 
L 646.761655 -229.89109 
L 649.394134 -227.014918 
L 652.242712 -224.138746 
L 655.31441 -221.262574 
L 658.62529 -218.386401 
L 662.20025 -215.510229 
L 666.070868 -212.634057 
L 670.271292 -209.757885 
L 674.832444 -206.881713 
L 679.775078 -204.005541 
L 685.10249 -201.129369 
L 690.793762 -198.253197 
L 696.798459 -195.377025 
L 703.033568 -192.500853 
L 709.383244 -189.624681 
L 715.701612 -186.748509 
L 721.818558 -183.872337 
L 727.548117 -180.996165 
L 732.698768 -178.119993 
L 737.084808 -175.243821 
L 740.537837 -172.367649 
L 742.917411 -169.491477 
L 744.12 -166.615304 
L 744.085553 -163.739132 
L 742.801158 -160.86296 
L 740.301554 -157.986788 
L 736.66648 -155.110616 
L 732.015105 -152.234444 
L 726.498031 -149.358272 
L 720.287548 -146.4821 
L 713.566946 -143.605928 
L 706.519808 -140.729756 
L 699.320128 -137.853584 
L 692.124059 -134.977412 
L 685.063855 -132.10124 
L 678.24436 -129.225068 
L 671.742094 -126.348896 
L 665.60671 -123.472724 
L 659.864368 -120.596552 
L 654.522398 -117.72038 
L 649.574551 -114.844207 
L 645.006175 -111.968035 
L 640.798734 -109.091863 
L 636.933302 -106.215691 
L 633.392815 -103.339519 
L 630.163106 -100.463347 
L 627.232885 -97.587175 
L 624.592953 -94.711003 
L 622.234984 -91.834831 
L 620.150198 -88.958659 
L 618.328203 -86.082487 
L 616.756196 -83.206315 
L 615.418595 -80.330143 
L 614.297134 -77.453971 
L 613.371327 -74.577799 
L 612.619196 -71.701627 
L 612.018147 -68.825455 
z
" id="m6a937c329f" style="stroke:#3f3f3f;stroke-width:2.25;"/>
    </defs>
    <g clip-path="url(#pb7f7c21636)">
     <use style="fill:#e1812c;stroke:#3f3f3f;stroke-width:2.25;" x="0" xlink:href="#m6a937c329f" y="432"/>
    </g>
   </g>
   <g id="matplotlib.axis_1">
    <g id="xtick_1">
     <g id="line2d_1">
      <defs>
       <path d="M 0 0 
L 0 9 
" id="md78172f5e2" style="stroke:#000000;stroke-width:1.875;"/>
      </defs>
      <g>
       <use style="stroke:#000000;stroke-width:1.875;" x="275.4" xlink:href="#md78172f5e2" y="378"/>
      </g>
     </g>
     <g id="text_1">
      <!-- blocked -->
      <g transform="translate(243.494414 403.037422)scale(0.165 -0.165)">
       <defs>
        <path d="M 48.6875 27.296875 
Q 48.6875 37.203125 44.609375 42.84375 
Q 40.53125 48.484375 33.40625 48.484375 
Q 26.265625 48.484375 22.1875 42.84375 
Q 18.109375 37.203125 18.109375 27.296875 
Q 18.109375 17.390625 22.1875 11.75 
Q 26.265625 6.109375 33.40625 6.109375 
Q 40.53125 6.109375 44.609375 11.75 
Q 48.6875 17.390625 48.6875 27.296875 
z
M 18.109375 46.390625 
Q 20.953125 51.265625 25.265625 53.625 
Q 29.59375 56 35.59375 56 
Q 45.5625 56 51.78125 48.09375 
Q 58.015625 40.1875 58.015625 27.296875 
Q 58.015625 14.40625 51.78125 6.484375 
Q 45.5625 -1.421875 35.59375 -1.421875 
Q 29.59375 -1.421875 25.265625 0.953125 
Q 20.953125 3.328125 18.109375 8.203125 
L 18.109375 0 
L 9.078125 0 
L 9.078125 75.984375 
L 18.109375 75.984375 
z
" id="DejaVuSans-98"/>
        <path d="M 9.421875 75.984375 
L 18.40625 75.984375 
L 18.40625 0 
L 9.421875 0 
z
" id="DejaVuSans-108"/>
        <path d="M 30.609375 48.390625 
Q 23.390625 48.390625 19.1875 42.75 
Q 14.984375 37.109375 14.984375 27.296875 
Q 14.984375 17.484375 19.15625 11.84375 
Q 23.34375 6.203125 30.609375 6.203125 
Q 37.796875 6.203125 41.984375 11.859375 
Q 46.1875 17.53125 46.1875 27.296875 
Q 46.1875 37.015625 41.984375 42.703125 
Q 37.796875 48.390625 30.609375 48.390625 
z
M 30.609375 56 
Q 42.328125 56 49.015625 48.375 
Q 55.71875 40.765625 55.71875 27.296875 
Q 55.71875 13.875 49.015625 6.21875 
Q 42.328125 -1.421875 30.609375 -1.421875 
Q 18.84375 -1.421875 12.171875 6.21875 
Q 5.515625 13.875 5.515625 27.296875 
Q 5.515625 40.765625 12.171875 48.375 
Q 18.84375 56 30.609375 56 
z
" id="DejaVuSans-111"/>
        <path d="M 48.78125 52.59375 
L 48.78125 44.1875 
Q 44.96875 46.296875 41.140625 47.34375 
Q 37.3125 48.390625 33.40625 48.390625 
Q 24.65625 48.390625 19.8125 42.84375 
Q 14.984375 37.3125 14.984375 27.296875 
Q 14.984375 17.28125 19.8125 11.734375 
Q 24.65625 6.203125 33.40625 6.203125 
Q 37.3125 6.203125 41.140625 7.25 
Q 44.96875 8.296875 48.78125 10.40625 
L 48.78125 2.09375 
Q 45.015625 0.34375 40.984375 -0.53125 
Q 36.96875 -1.421875 32.421875 -1.421875 
Q 20.0625 -1.421875 12.78125 6.34375 
Q 5.515625 14.109375 5.515625 27.296875 
Q 5.515625 40.671875 12.859375 48.328125 
Q 20.21875 56 33.015625 56 
Q 37.15625 56 41.109375 55.140625 
Q 45.0625 54.296875 48.78125 52.59375 
z
" id="DejaVuSans-99"/>
        <path d="M 9.078125 75.984375 
L 18.109375 75.984375 
L 18.109375 31.109375 
L 44.921875 54.6875 
L 56.390625 54.6875 
L 27.390625 29.109375 
L 57.625 0 
L 45.90625 0 
L 18.109375 26.703125 
L 18.109375 0 
L 9.078125 0 
z
" id="DejaVuSans-107"/>
        <path d="M 56.203125 29.59375 
L 56.203125 25.203125 
L 14.890625 25.203125 
Q 15.484375 15.921875 20.484375 11.0625 
Q 25.484375 6.203125 34.421875 6.203125 
Q 39.59375 6.203125 44.453125 7.46875 
Q 49.3125 8.734375 54.109375 11.28125 
L 54.109375 2.78125 
Q 49.265625 0.734375 44.1875 -0.34375 
Q 39.109375 -1.421875 33.890625 -1.421875 
Q 20.796875 -1.421875 13.15625 6.1875 
Q 5.515625 13.8125 5.515625 26.8125 
Q 5.515625 40.234375 12.765625 48.109375 
Q 20.015625 56 32.328125 56 
Q 43.359375 56 49.78125 48.890625 
Q 56.203125 41.796875 56.203125 29.59375 
z
M 47.21875 32.234375 
Q 47.125 39.59375 43.09375 43.984375 
Q 39.0625 48.390625 32.421875 48.390625 
Q 24.90625 48.390625 20.390625 44.140625 
Q 15.875 39.890625 15.1875 32.171875 
z
" id="DejaVuSans-101"/>
        <path d="M 45.40625 46.390625 
L 45.40625 75.984375 
L 54.390625 75.984375 
L 54.390625 0 
L 45.40625 0 
L 45.40625 8.203125 
Q 42.578125 3.328125 38.25 0.953125 
Q 33.9375 -1.421875 27.875 -1.421875 
Q 17.96875 -1.421875 11.734375 6.484375 
Q 5.515625 14.40625 5.515625 27.296875 
Q 5.515625 40.1875 11.734375 48.09375 
Q 17.96875 56 27.875 56 
Q 33.9375 56 38.25 53.625 
Q 42.578125 51.265625 45.40625 46.390625 
z
M 14.796875 27.296875 
Q 14.796875 17.390625 18.875 11.75 
Q 22.953125 6.109375 30.078125 6.109375 
Q 37.203125 6.109375 41.296875 11.75 
Q 45.40625 17.390625 45.40625 27.296875 
Q 45.40625 37.203125 41.296875 42.84375 
Q 37.203125 48.484375 30.078125 48.484375 
Q 22.953125 48.484375 18.875 42.84375 
Q 14.796875 37.203125 14.796875 27.296875 
z
" id="DejaVuSans-100"/>
       </defs>
       <use xlink:href="#DejaVuSans-98"/>
       <use x="63.476562" xlink:href="#DejaVuSans-108"/>
       <use x="91.259766" xlink:href="#DejaVuSans-111"/>
       <use x="152.441406" xlink:href="#DejaVuSans-99"/>
       <use x="207.421875" xlink:href="#DejaVuSans-107"/>
       <use x="261.707031" xlink:href="#DejaVuSans-101"/>
       <use x="323.230469" xlink:href="#DejaVuSans-100"/>
      </g>
     </g>
    </g>
    <g id="xtick_2">
     <g id="line2d_2">
      <g>
       <use style="stroke:#000000;stroke-width:1.875;" x="610.2" xlink:href="#md78172f5e2" y="378"/>
      </g>
     </g>
     <g id="text_2">
      <!-- interleaved -->
      <g transform="translate(563.356758 403.037422)scale(0.165 -0.165)">
       <defs>
        <path d="M 9.421875 54.6875 
L 18.40625 54.6875 
L 18.40625 0 
L 9.421875 0 
z
M 9.421875 75.984375 
L 18.40625 75.984375 
L 18.40625 64.59375 
L 9.421875 64.59375 
z
" id="DejaVuSans-105"/>
        <path d="M 54.890625 33.015625 
L 54.890625 0 
L 45.90625 0 
L 45.90625 32.71875 
Q 45.90625 40.484375 42.875 44.328125 
Q 39.84375 48.1875 33.796875 48.1875 
Q 26.515625 48.1875 22.3125 43.546875 
Q 18.109375 38.921875 18.109375 30.90625 
L 18.109375 0 
L 9.078125 0 
L 9.078125 54.6875 
L 18.109375 54.6875 
L 18.109375 46.1875 
Q 21.34375 51.125 25.703125 53.5625 
Q 30.078125 56 35.796875 56 
Q 45.21875 56 50.046875 50.171875 
Q 54.890625 44.34375 54.890625 33.015625 
z
" id="DejaVuSans-110"/>
        <path d="M 18.3125 70.21875 
L 18.3125 54.6875 
L 36.8125 54.6875 
L 36.8125 47.703125 
L 18.3125 47.703125 
L 18.3125 18.015625 
Q 18.3125 11.328125 20.140625 9.421875 
Q 21.96875 7.515625 27.59375 7.515625 
L 36.8125 7.515625 
L 36.8125 0 
L 27.59375 0 
Q 17.1875 0 13.234375 3.875 
Q 9.28125 7.765625 9.28125 18.015625 
L 9.28125 47.703125 
L 2.6875 47.703125 
L 2.6875 54.6875 
L 9.28125 54.6875 
L 9.28125 70.21875 
z
" id="DejaVuSans-116"/>
        <path d="M 41.109375 46.296875 
Q 39.59375 47.171875 37.8125 47.578125 
Q 36.03125 48 33.890625 48 
Q 26.265625 48 22.1875 43.046875 
Q 18.109375 38.09375 18.109375 28.8125 
L 18.109375 0 
L 9.078125 0 
L 9.078125 54.6875 
L 18.109375 54.6875 
L 18.109375 46.1875 
Q 20.953125 51.171875 25.484375 53.578125 
Q 30.03125 56 36.53125 56 
Q 37.453125 56 38.578125 55.875 
Q 39.703125 55.765625 41.0625 55.515625 
z
" id="DejaVuSans-114"/>
        <path d="M 34.28125 27.484375 
Q 23.390625 27.484375 19.1875 25 
Q 14.984375 22.515625 14.984375 16.5 
Q 14.984375 11.71875 18.140625 8.90625 
Q 21.296875 6.109375 26.703125 6.109375 
Q 34.1875 6.109375 38.703125 11.40625 
Q 43.21875 16.703125 43.21875 25.484375 
L 43.21875 27.484375 
z
M 52.203125 31.203125 
L 52.203125 0 
L 43.21875 0 
L 43.21875 8.296875 
Q 40.140625 3.328125 35.546875 0.953125 
Q 30.953125 -1.421875 24.3125 -1.421875 
Q 15.921875 -1.421875 10.953125 3.296875 
Q 6 8.015625 6 15.921875 
Q 6 25.140625 12.171875 29.828125 
Q 18.359375 34.515625 30.609375 34.515625 
L 43.21875 34.515625 
L 43.21875 35.40625 
Q 43.21875 41.609375 39.140625 45 
Q 35.0625 48.390625 27.6875 48.390625 
Q 23 48.390625 18.546875 47.265625 
Q 14.109375 46.140625 10.015625 43.890625 
L 10.015625 52.203125 
Q 14.9375 54.109375 19.578125 55.046875 
Q 24.21875 56 28.609375 56 
Q 40.484375 56 46.34375 49.84375 
Q 52.203125 43.703125 52.203125 31.203125 
z
" id="DejaVuSans-97"/>
        <path d="M 2.984375 54.6875 
L 12.5 54.6875 
L 29.59375 8.796875 
L 46.6875 54.6875 
L 56.203125 54.6875 
L 35.6875 0 
L 23.484375 0 
z
" id="DejaVuSans-118"/>
       </defs>
       <use xlink:href="#DejaVuSans-105"/>
       <use x="27.783203" xlink:href="#DejaVuSans-110"/>
       <use x="91.162109" xlink:href="#DejaVuSans-116"/>
       <use x="130.371094" xlink:href="#DejaVuSans-101"/>
       <use x="191.894531" xlink:href="#DejaVuSans-114"/>
       <use x="233.007812" xlink:href="#DejaVuSans-108"/>
       <use x="260.791016" xlink:href="#DejaVuSans-101"/>
       <use x="322.314453" xlink:href="#DejaVuSans-97"/>
       <use x="383.59375" xlink:href="#DejaVuSans-118"/>
       <use x="442.773438" xlink:href="#DejaVuSans-101"/>
       <use x="504.296875" xlink:href="#DejaVuSans-100"/>
      </g>
     </g>
    </g>
    <g id="text_3">
     <!-- condition -->
     <g transform="translate(401.187656 424.146094)scale(0.18 -0.18)">
      <use xlink:href="#DejaVuSans-99"/>
      <use x="54.980469" xlink:href="#DejaVuSans-111"/>
      <use x="116.162109" xlink:href="#DejaVuSans-110"/>
      <use x="179.541016" xlink:href="#DejaVuSans-100"/>
      <use x="243.017578" xlink:href="#DejaVuSans-105"/>
      <use x="270.800781" xlink:href="#DejaVuSans-116"/>
      <use x="310.009766" xlink:href="#DejaVuSans-105"/>
      <use x="337.792969" xlink:href="#DejaVuSans-111"/>
      <use x="398.974609" xlink:href="#DejaVuSans-110"/>
     </g>
    </g>
   </g>
   <g id="matplotlib.axis_2">
    <g id="ytick_1">
     <g id="line2d_3">
      <defs>
       <path d="M 0 0 
L -9 0 
" id="m9061901cd5" style="stroke:#000000;stroke-width:1.875;"/>
      </defs>
      <g>
       <use style="stroke:#000000;stroke-width:1.875;" x="108" xlink:href="#m9061901cd5" y="354.232016"/>
      </g>
     </g>
     <g id="text_4">
      <!-- 0.2 -->
      <g transform="translate(69.259844 360.500727)scale(0.165 -0.165)">
       <defs>
        <path d="M 31.78125 66.40625 
Q 24.171875 66.40625 20.328125 58.90625 
Q 16.5 51.421875 16.5 36.375 
Q 16.5 21.390625 20.328125 13.890625 
Q 24.171875 6.390625 31.78125 6.390625 
Q 39.453125 6.390625 43.28125 13.890625 
Q 47.125 21.390625 47.125 36.375 
Q 47.125 51.421875 43.28125 58.90625 
Q 39.453125 66.40625 31.78125 66.40625 
z
M 31.78125 74.21875 
Q 44.046875 74.21875 50.515625 64.515625 
Q 56.984375 54.828125 56.984375 36.375 
Q 56.984375 17.96875 50.515625 8.265625 
Q 44.046875 -1.421875 31.78125 -1.421875 
Q 19.53125 -1.421875 13.0625 8.265625 
Q 6.59375 17.96875 6.59375 36.375 
Q 6.59375 54.828125 13.0625 64.515625 
Q 19.53125 74.21875 31.78125 74.21875 
z
" id="DejaVuSans-48"/>
        <path d="M 10.6875 12.40625 
L 21 12.40625 
L 21 0 
L 10.6875 0 
z
" id="DejaVuSans-46"/>
        <path d="M 19.1875 8.296875 
L 53.609375 8.296875 
L 53.609375 0 
L 7.328125 0 
L 7.328125 8.296875 
Q 12.9375 14.109375 22.625 23.890625 
Q 32.328125 33.6875 34.8125 36.53125 
Q 39.546875 41.84375 41.421875 45.53125 
Q 43.3125 49.21875 43.3125 52.78125 
Q 43.3125 58.59375 39.234375 62.25 
Q 35.15625 65.921875 28.609375 65.921875 
Q 23.96875 65.921875 18.8125 64.3125 
Q 13.671875 62.703125 7.8125 59.421875 
L 7.8125 69.390625 
Q 13.765625 71.78125 18.9375 73 
Q 24.125 74.21875 28.421875 74.21875 
Q 39.75 74.21875 46.484375 68.546875 
Q 53.21875 62.890625 53.21875 53.421875 
Q 53.21875 48.921875 51.53125 44.890625 
Q 49.859375 40.875 45.40625 35.40625 
Q 44.1875 33.984375 37.640625 27.21875 
Q 31.109375 20.453125 19.1875 8.296875 
z
" id="DejaVuSans-50"/>
       </defs>
       <use xlink:href="#DejaVuSans-48"/>
       <use x="63.623047" xlink:href="#DejaVuSans-46"/>
       <use x="95.410156" xlink:href="#DejaVuSans-50"/>
      </g>
     </g>
    </g>
    <g id="ytick_2">
     <g id="line2d_4">
      <g>
       <use style="stroke:#000000;stroke-width:1.875;" x="108" xlink:href="#m9061901cd5" y="296.219848"/>
      </g>
     </g>
     <g id="text_5">
      <!-- 0.4 -->
      <g transform="translate(69.259844 302.488559)scale(0.165 -0.165)">
       <defs>
        <path d="M 37.796875 64.3125 
L 12.890625 25.390625 
L 37.796875 25.390625 
z
M 35.203125 72.90625 
L 47.609375 72.90625 
L 47.609375 25.390625 
L 58.015625 25.390625 
L 58.015625 17.1875 
L 47.609375 17.1875 
L 47.609375 0 
L 37.796875 0 
L 37.796875 17.1875 
L 4.890625 17.1875 
L 4.890625 26.703125 
z
" id="DejaVuSans-52"/>
       </defs>
       <use xlink:href="#DejaVuSans-48"/>
       <use x="63.623047" xlink:href="#DejaVuSans-46"/>
       <use x="95.410156" xlink:href="#DejaVuSans-52"/>
      </g>
     </g>
    </g>
    <g id="ytick_3">
     <g id="line2d_5">
      <g>
       <use style="stroke:#000000;stroke-width:1.875;" x="108" xlink:href="#m9061901cd5" y="238.207679"/>
      </g>
     </g>
     <g id="text_6">
      <!-- 0.6 -->
      <g transform="translate(69.259844 244.47639)scale(0.165 -0.165)">
       <defs>
        <path d="M 33.015625 40.375 
Q 26.375 40.375 22.484375 35.828125 
Q 18.609375 31.296875 18.609375 23.390625 
Q 18.609375 15.53125 22.484375 10.953125 
Q 26.375 6.390625 33.015625 6.390625 
Q 39.65625 6.390625 43.53125 10.953125 
Q 47.40625 15.53125 47.40625 23.390625 
Q 47.40625 31.296875 43.53125 35.828125 
Q 39.65625 40.375 33.015625 40.375 
z
M 52.59375 71.296875 
L 52.59375 62.3125 
Q 48.875 64.0625 45.09375 64.984375 
Q 41.3125 65.921875 37.59375 65.921875 
Q 27.828125 65.921875 22.671875 59.328125 
Q 17.53125 52.734375 16.796875 39.40625 
Q 19.671875 43.65625 24.015625 45.921875 
Q 28.375 48.1875 33.59375 48.1875 
Q 44.578125 48.1875 50.953125 41.515625 
Q 57.328125 34.859375 57.328125 23.390625 
Q 57.328125 12.15625 50.6875 5.359375 
Q 44.046875 -1.421875 33.015625 -1.421875 
Q 20.359375 -1.421875 13.671875 8.265625 
Q 6.984375 17.96875 6.984375 36.375 
Q 6.984375 53.65625 15.1875 63.9375 
Q 23.390625 74.21875 37.203125 74.21875 
Q 40.921875 74.21875 44.703125 73.484375 
Q 48.484375 72.75 52.59375 71.296875 
z
" id="DejaVuSans-54"/>
       </defs>
       <use xlink:href="#DejaVuSans-48"/>
       <use x="63.623047" xlink:href="#DejaVuSans-46"/>
       <use x="95.410156" xlink:href="#DejaVuSans-54"/>
      </g>
     </g>
    </g>
    <g id="ytick_4">
     <g id="line2d_6">
      <g>
       <use style="stroke:#000000;stroke-width:1.875;" x="108" xlink:href="#m9061901cd5" y="180.195511"/>
      </g>
     </g>
     <g id="text_7">
      <!-- 0.8 -->
      <g transform="translate(69.259844 186.464222)scale(0.165 -0.165)">
       <defs>
        <path d="M 31.78125 34.625 
Q 24.75 34.625 20.71875 30.859375 
Q 16.703125 27.09375 16.703125 20.515625 
Q 16.703125 13.921875 20.71875 10.15625 
Q 24.75 6.390625 31.78125 6.390625 
Q 38.8125 6.390625 42.859375 10.171875 
Q 46.921875 13.96875 46.921875 20.515625 
Q 46.921875 27.09375 42.890625 30.859375 
Q 38.875 34.625 31.78125 34.625 
z
M 21.921875 38.8125 
Q 15.578125 40.375 12.03125 44.71875 
Q 8.5 49.078125 8.5 55.328125 
Q 8.5 64.0625 14.71875 69.140625 
Q 20.953125 74.21875 31.78125 74.21875 
Q 42.671875 74.21875 48.875 69.140625 
Q 55.078125 64.0625 55.078125 55.328125 
Q 55.078125 49.078125 51.53125 44.71875 
Q 48 40.375 41.703125 38.8125 
Q 48.828125 37.15625 52.796875 32.3125 
Q 56.78125 27.484375 56.78125 20.515625 
Q 56.78125 9.90625 50.3125 4.234375 
Q 43.84375 -1.421875 31.78125 -1.421875 
Q 19.734375 -1.421875 13.25 4.234375 
Q 6.78125 9.90625 6.78125 20.515625 
Q 6.78125 27.484375 10.78125 32.3125 
Q 14.796875 37.15625 21.921875 38.8125 
z
M 18.3125 54.390625 
Q 18.3125 48.734375 21.84375 45.5625 
Q 25.390625 42.390625 31.78125 42.390625 
Q 38.140625 42.390625 41.71875 45.5625 
Q 45.3125 48.734375 45.3125 54.390625 
Q 45.3125 60.0625 41.71875 63.234375 
Q 38.140625 66.40625 31.78125 66.40625 
Q 25.390625 66.40625 21.84375 63.234375 
Q 18.3125 60.0625 18.3125 54.390625 
z
" id="DejaVuSans-56"/>
       </defs>
       <use xlink:href="#DejaVuSans-48"/>
       <use x="63.623047" xlink:href="#DejaVuSans-46"/>
       <use x="95.410156" xlink:href="#DejaVuSans-56"/>
      </g>
     </g>
    </g>
    <g id="ytick_5">
     <g id="line2d_7">
      <g>
       <use style="stroke:#000000;stroke-width:1.875;" x="108" xlink:href="#m9061901cd5" y="122.183342"/>
      </g>
     </g>
     <g id="text_8">
      <!-- 1.0 -->
      <g transform="translate(69.259844 128.452053)scale(0.165 -0.165)">
       <defs>
        <path d="M 12.40625 8.296875 
L 28.515625 8.296875 
L 28.515625 63.921875 
L 10.984375 60.40625 
L 10.984375 69.390625 
L 28.421875 72.90625 
L 38.28125 72.90625 
L 38.28125 8.296875 
L 54.390625 8.296875 
L 54.390625 0 
L 12.40625 0 
z
" id="DejaVuSans-49"/>
       </defs>
       <use xlink:href="#DejaVuSans-49"/>
       <use x="63.623047" xlink:href="#DejaVuSans-46"/>
       <use x="95.410156" xlink:href="#DejaVuSans-48"/>
      </g>
     </g>
    </g>
    <g id="ytick_6">
     <g id="line2d_8">
      <g>
       <use style="stroke:#000000;stroke-width:1.875;" x="108" xlink:href="#m9061901cd5" y="64.171174"/>
      </g>
     </g>
     <g id="text_9">
      <!-- 1.2 -->
      <g transform="translate(69.259844 70.439885)scale(0.165 -0.165)">
       <use xlink:href="#DejaVuSans-49"/>
       <use x="63.623047" xlink:href="#DejaVuSans-46"/>
       <use x="95.410156" xlink:href="#DejaVuSans-50"/>
      </g>
     </g>
    </g>
    <g id="text_10">
     <!-- prediction accuracy -->
     <g transform="translate(61.516406 303.537656)rotate(-90)scale(0.18 -0.18)">
      <defs>
       <path d="M 18.109375 8.203125 
L 18.109375 -20.796875 
L 9.078125 -20.796875 
L 9.078125 54.6875 
L 18.109375 54.6875 
L 18.109375 46.390625 
Q 20.953125 51.265625 25.265625 53.625 
Q 29.59375 56 35.59375 56 
Q 45.5625 56 51.78125 48.09375 
Q 58.015625 40.1875 58.015625 27.296875 
Q 58.015625 14.40625 51.78125 6.484375 
Q 45.5625 -1.421875 35.59375 -1.421875 
Q 29.59375 -1.421875 25.265625 0.953125 
Q 20.953125 3.328125 18.109375 8.203125 
z
M 48.6875 27.296875 
Q 48.6875 37.203125 44.609375 42.84375 
Q 40.53125 48.484375 33.40625 48.484375 
Q 26.265625 48.484375 22.1875 42.84375 
Q 18.109375 37.203125 18.109375 27.296875 
Q 18.109375 17.390625 22.1875 11.75 
Q 26.265625 6.109375 33.40625 6.109375 
Q 40.53125 6.109375 44.609375 11.75 
Q 48.6875 17.390625 48.6875 27.296875 
z
" id="DejaVuSans-112"/>
       <path id="DejaVuSans-32"/>
       <path d="M 8.5 21.578125 
L 8.5 54.6875 
L 17.484375 54.6875 
L 17.484375 21.921875 
Q 17.484375 14.15625 20.5 10.265625 
Q 23.53125 6.390625 29.59375 6.390625 
Q 36.859375 6.390625 41.078125 11.03125 
Q 45.3125 15.671875 45.3125 23.6875 
L 45.3125 54.6875 
L 54.296875 54.6875 
L 54.296875 0 
L 45.3125 0 
L 45.3125 8.40625 
Q 42.046875 3.421875 37.71875 1 
Q 33.40625 -1.421875 27.6875 -1.421875 
Q 18.265625 -1.421875 13.375 4.4375 
Q 8.5 10.296875 8.5 21.578125 
z
M 31.109375 56 
z
" id="DejaVuSans-117"/>
       <path d="M 32.171875 -5.078125 
Q 28.375 -14.84375 24.75 -17.8125 
Q 21.140625 -20.796875 15.09375 -20.796875 
L 7.90625 -20.796875 
L 7.90625 -13.28125 
L 13.1875 -13.28125 
Q 16.890625 -13.28125 18.9375 -11.515625 
Q 21 -9.765625 23.484375 -3.21875 
L 25.09375 0.875 
L 2.984375 54.6875 
L 12.5 54.6875 
L 29.59375 11.921875 
L 46.6875 54.6875 
L 56.203125 54.6875 
z
" id="DejaVuSans-121"/>
      </defs>
      <use xlink:href="#DejaVuSans-112"/>
      <use x="63.476562" xlink:href="#DejaVuSans-114"/>
      <use x="102.339844" xlink:href="#DejaVuSans-101"/>
      <use x="163.863281" xlink:href="#DejaVuSans-100"/>
      <use x="227.339844" xlink:href="#DejaVuSans-105"/>
      <use x="255.123047" xlink:href="#DejaVuSans-99"/>
      <use x="310.103516" xlink:href="#DejaVuSans-116"/>
      <use x="349.3125" xlink:href="#DejaVuSans-105"/>
      <use x="377.095703" xlink:href="#DejaVuSans-111"/>
      <use x="438.277344" xlink:href="#DejaVuSans-110"/>
      <use x="501.65625" xlink:href="#DejaVuSans-32"/>
      <use x="533.443359" xlink:href="#DejaVuSans-97"/>
      <use x="594.722656" xlink:href="#DejaVuSans-99"/>
      <use x="649.703125" xlink:href="#DejaVuSans-99"/>
      <use x="704.683594" xlink:href="#DejaVuSans-117"/>
      <use x="768.0625" xlink:href="#DejaVuSans-114"/>
      <use x="809.175781" xlink:href="#DejaVuSans-97"/>
      <use x="870.455078" xlink:href="#DejaVuSans-99"/>
      <use x="925.435547" xlink:href="#DejaVuSans-121"/>
     </g>
    </g>
   </g>
   <g id="line2d_9">
    <path clip-path="url(#pb7f7c21636)" d="M 275.4 232.20642 
L 275.4 122.183342 
" style="fill:none;stroke:#3f3f3f;stroke-linecap:square;stroke-width:2.25;"/>
   </g>
   <g id="line2d_10">
    <path clip-path="url(#pb7f7c21636)" d="M 275.4 170.526816 
L 275.4 122.183342 
" style="fill:none;stroke:#3f3f3f;stroke-linecap:square;stroke-width:6.75;"/>
   </g>
   <g id="line2d_11">
    <path clip-path="url(#pb7f7c21636)" d="M 610.2 319.424715 
L 610.2 168.967349 
" style="fill:none;stroke:#3f3f3f;stroke-linecap:square;stroke-width:2.25;"/>
   </g>
   <g id="line2d_12">
    <path clip-path="url(#pb7f7c21636)" d="M 610.2 278.985713 
L 610.2 233.013041 
" style="fill:none;stroke:#3f3f3f;stroke-linecap:square;stroke-width:6.75;"/>
   </g>
   <g id="patch_3">
    <path d="M 108 378 
L 108 51.84 
" style="fill:none;stroke:#000000;stroke-linecap:square;stroke-linejoin:miter;stroke-width:1.875;"/>
   </g>
   <g id="patch_4">
    <path d="M 777.6 378 
L 777.6 51.84 
" style="fill:none;stroke:#000000;stroke-linecap:square;stroke-linejoin:miter;stroke-width:1.875;"/>
   </g>
   <g id="patch_5">
    <path d="M 108 378 
L 777.6 378 
" style="fill:none;stroke:#000000;stroke-linecap:square;stroke-linejoin:miter;stroke-width:1.875;"/>
   </g>
   <g id="patch_6">
    <path d="M 108 51.84 
L 777.6 51.84 
" style="fill:none;stroke:#000000;stroke-linecap:square;stroke-linejoin:miter;stroke-width:1.875;"/>
   </g>
   <g id="PathCollection_1">
    <defs>
     <path d="M 0 2.25 
C 0.596707 2.25 1.169055 2.012926 1.59099 1.59099 
C 2.012926 1.169055 2.25 0.596707 2.25 0 
C 2.25 -0.596707 2.012926 -1.169055 1.59099 -1.59099 
C 1.169055 -2.012926 0.596707 -2.25 0 -2.25 
C -0.596707 -2.25 -1.169055 -2.012926 -1.59099 -1.59099 
C -2.012926 -1.169055 -2.25 -0.596707 -2.25 0 
C -2.25 0.596707 -2.012926 1.169055 -1.59099 1.59099 
C -1.169055 2.012926 -0.596707 2.25 0 2.25 
z
" id="m5d504d1d6f" style="stroke:#3f3f3f;stroke-width:1.5;"/>
    </defs>
    <g clip-path="url(#pb7f7c21636)">
     <use style="fill:#ffffff;stroke:#3f3f3f;stroke-width:1.5;" x="275.4" xlink:href="#m5d504d1d6f" y="133.785776"/>
    </g>
   </g>
   <g id="PathCollection_2">
    <g clip-path="url(#pb7f7c21636)">
     <use style="fill:#ffffff;stroke:#3f3f3f;stroke-width:1.5;" x="610.2" xlink:href="#m5d504d1d6f" y="261.842266"/>
    </g>
   </g>
  </g>
 </g>
 <defs>
  <clipPath id="pb7f7c21636">
   <rect height="326.16" width="669.6" x="108" y="51.84"/>
  </clipPath>
 </defs>
</svg>
