<?xml version="1.0" encoding="utf-8" standalone="no"?>
<!DOCTYPE svg PUBLIC "-//W3C//DTD SVG 1.1//EN"
  "http://www.w3.org/Graphics/SVG/1.1/DTD/svg11.dtd">
<!-- Created with matplotlib (https://matplotlib.org/) -->
<svg height="432pt" version="1.1" viewBox="0 0 864 432" width="864pt" xmlns="http://www.w3.org/2000/svg" xmlns:xlink="http://www.w3.org/1999/xlink">
 <metadata>
  <rdf:RDF xmlns:cc="http://creativecommons.org/ns#" xmlns:dc="http://purl.org/dc/elements/1.1/" xmlns:rdf="http://www.w3.org/1999/02/22-rdf-syntax-ns#">
   <cc:Work>
    <dc:type rdf:resource="http://purl.org/dc/dcmitype/StillImage"/>
    <dc:date>2023-04-16T12:01:24.803110</dc:date>
    <dc:format>image/svg+xml</dc:format>
    <dc:creator>
     <cc:Agent>
      <dc:title>Matplotlib v3.3.4, https://matplotlib.org/</dc:title>
     </cc:Agent>
    </dc:creator>
   </cc:Work>
  </rdf:RDF>
 </metadata>
 <defs>
  <style type="text/css">*{stroke-linecap:butt;stroke-linejoin:round;}</style>
 </defs>
 <g id="figure_1">
  <g id="patch_1">
   <path d="M 0 432 
L 864 432 
L 864 0 
L 0 0 
z
" style="fill:none;"/>
  </g>
  <g id="axes_1">
   <g id="patch_2">
    <path d="M 108 378 
L 777.6 378 
L 777.6 51.84 
L 108 51.84 
z
" style="fill:#ffffff;"/>
   </g>
   <g id="PolyCollection_1">
    <defs>
     <path d="M 276.134728 -76.306738 
L 274.665272 -76.306738 
L 274.470937 -79.191 
L 274.239335 -82.075262 
L 273.967211 -84.959524 
L 273.651964 -87.843786 
L 273.291859 -90.728048 
L 272.886206 -93.61231 
L 272.435501 -96.496572 
L 271.941496 -99.380834 
L 271.407201 -102.265096 
L 270.836801 -105.149358 
L 270.235487 -108.03362 
L 269.609233 -110.917882 
L 268.96451 -113.802144 
L 268.307985 -116.686406 
L 267.646236 -119.570668 
L 266.9855 -122.45493 
L 266.331503 -125.339192 
L 265.689386 -128.223454 
L 265.063733 -131.107716 
L 264.458715 -133.991978 
L 263.878321 -136.87624 
L 263.32665 -139.760502 
L 262.808226 -142.644764 
L 262.328287 -145.529026 
L 261.89299 -148.413288 
L 261.509504 -151.29755 
L 261.185933 -154.181812 
L 260.93107 -157.066074 
L 260.753966 -159.950336 
L 260.663347 -162.834598 
L 260.666911 -165.71886 
L 260.770573 -168.603122 
L 260.977714 -171.487384 
L 261.288532 -174.371646 
L 261.699542 -177.255908 
L 262.2033 -180.14017 
L 262.788385 -183.024432 
L 263.439658 -185.908694 
L 264.138784 -188.792956 
L 264.864975 -191.677218 
L 265.595907 -194.56148 
L 266.30871 -197.445742 
L 266.98095 -200.330004 
L 267.59151 -203.214266 
L 268.121271 -206.098528 
L 268.553522 -208.98279 
L 268.874036 -211.867052 
L 269.070784 -214.751314 
L 269.133271 -217.635576 
L 269.051538 -220.519838 
L 268.814871 -223.4041 
L 268.410313 -226.288362 
L 267.821112 -229.172624 
L 267.025228 -232.056886 
L 265.994088 -234.941148 
L 264.691758 -237.82541 
L 263.074713 -240.709671 
L 261.092365 -243.593933 
L 258.688494 -246.478195 
L 255.803657 -249.362457 
L 252.378595 -252.246719 
L 248.358574 -255.130981 
L 243.698491 -258.015243 
L 238.368493 -260.899505 
L 232.359734 -263.783767 
L 225.689846 -266.668029 
L 218.407614 -269.552291 
L 210.596351 -272.436553 
L 202.375485 -275.320815 
L 193.899957 -278.205077 
L 185.357163 -281.089339 
L 176.961351 -283.973601 
L 168.945579 -286.857863 
L 161.551609 -289.742125 
L 155.018264 -292.626387 
L 149.569023 -295.510649 
L 145.399706 -298.394911 
L 142.667184 -301.279173 
L 141.48 -304.163435 
L 141.89166 -307.047697 
L 143.897176 -309.931959 
L 147.433137 -312.816221 
L 152.381343 -315.700483 
L 158.575684 -318.584745 
L 165.811718 -321.469007 
L 173.858166 -324.353269 
L 182.469436 -327.237531 
L 191.398206 -330.121793 
L 200.407206 -333.006055 
L 209.279399 -335.890317 
L 217.826021 -338.774579 
L 225.892121 -341.658841 
L 233.359495 -344.543103 
L 240.147138 -347.427365 
L 246.209509 -350.311627 
L 251.533042 -353.195889 
L 256.131415 -356.080151 
L 260.040101 -358.964413 
L 263.310681 -361.848675 
L 287.489319 -361.848675 
L 287.489319 -361.848675 
L 290.759899 -358.964413 
L 294.668585 -356.080151 
L 299.266958 -353.195889 
L 304.590491 -350.311627 
L 310.652862 -347.427365 
L 317.440505 -344.543103 
L 324.907879 -341.658841 
L 332.973979 -338.774579 
L 341.520601 -335.890317 
L 350.392794 -333.006055 
L 359.401794 -330.121793 
L 368.330564 -327.237531 
L 376.941834 -324.353269 
L 384.988282 -321.469007 
L 392.224316 -318.584745 
L 398.418657 -315.700483 
L 403.366863 -312.816221 
L 406.902824 -309.931959 
L 408.90834 -307.047697 
L 409.32 -304.163435 
L 408.132816 -301.279173 
L 405.400294 -298.394911 
L 401.230977 -295.510649 
L 395.781736 -292.626387 
L 389.248391 -289.742125 
L 381.854421 -286.857863 
L 373.838649 -283.973601 
L 365.442837 -281.089339 
L 356.900043 -278.205077 
L 348.424515 -275.320815 
L 340.203649 -272.436553 
L 332.392386 -269.552291 
L 325.110154 -266.668029 
L 318.440266 -263.783767 
L 312.431507 -260.899505 
L 307.101509 -258.015243 
L 302.441426 -255.130981 
L 298.421405 -252.246719 
L 294.996343 -249.362457 
L 292.111506 -246.478195 
L 289.707635 -243.593933 
L 287.725287 -240.709671 
L 286.108242 -237.82541 
L 284.805912 -234.941148 
L 283.774772 -232.056886 
L 282.978888 -229.172624 
L 282.389687 -226.288362 
L 281.985129 -223.4041 
L 281.748462 -220.519838 
L 281.666729 -217.635576 
L 281.729216 -214.751314 
L 281.925964 -211.867052 
L 282.246478 -208.98279 
L 282.678729 -206.098528 
L 283.20849 -203.214266 
L 283.81905 -200.330004 
L 284.49129 -197.445742 
L 285.204093 -194.56148 
L 285.935025 -191.677218 
L 286.661216 -188.792956 
L 287.360342 -185.908694 
L 288.011615 -183.024432 
L 288.5967 -180.14017 
L 289.100458 -177.255908 
L 289.511468 -174.371646 
L 289.822286 -171.487384 
L 290.029427 -168.603122 
L 290.133089 -165.71886 
L 290.136653 -162.834598 
L 290.046034 -159.950336 
L 289.86893 -157.066074 
L 289.614067 -154.181812 
L 289.290496 -151.29755 
L 288.90701 -148.413288 
L 288.471713 -145.529026 
L 287.991774 -142.644764 
L 287.47335 -139.760502 
L 286.921679 -136.87624 
L 286.341285 -133.991978 
L 285.736267 -131.107716 
L 285.110614 -128.223454 
L 284.468497 -125.339192 
L 283.8145 -122.45493 
L 283.153764 -119.570668 
L 282.492015 -116.686406 
L 281.83549 -113.802144 
L 281.190767 -110.917882 
L 280.564513 -108.03362 
L 279.963199 -105.149358 
L 279.392799 -102.265096 
L 278.858504 -99.380834 
L 278.364499 -96.496572 
L 277.913794 -93.61231 
L 277.508141 -90.728048 
L 277.148036 -87.843786 
L 276.832789 -84.959524 
L 276.560665 -82.075262 
L 276.329063 -79.191 
L 276.134728 -76.306738 
z
" id="m4df50e1705" style="stroke:#3f3f3f;stroke-width:2.25;"/>
    </defs>
    <g clip-path="url(#pe69ffa3d92)">
     <use style="fill:#3274a1;stroke:#3f3f3f;stroke-width:2.25;" x="0" xlink:href="#m4df50e1705" y="432"/>
    </g>
   </g>
   <g id="PolyCollection_2">
    <defs>
     <path d="M 612.264599 -68.825455 
L 608.135401 -68.825455 
L 607.524057 -71.820496 
L 606.769555 -74.815537 
L 605.849972 -77.810579 
L 604.743176 -80.80562 
L 603.427721 -83.800661 
L 601.883884 -86.795702 
L 600.09483 -89.790744 
L 598.04782 -92.785785 
L 595.735424 -95.780826 
L 593.156631 -98.775868 
L 590.317791 -101.770909 
L 587.233297 -104.76595 
L 583.925934 -107.760992 
L 580.426846 -110.756033 
L 576.775082 -113.751074 
L 573.016725 -116.746116 
L 569.20363 -119.741157 
L 565.391825 -122.736198 
L 561.639663 -125.73124 
L 558.005827 -128.726281 
L 554.547301 -131.721322 
L 551.317416 -134.716364 
L 548.364085 -137.711405 
L 545.728305 -140.706446 
L 543.442999 -143.701488 
L 541.53224 -146.696529 
L 540.010851 -149.69157 
L 538.884397 -152.686612 
L 538.149505 -155.681653 
L 537.794497 -158.676694 
L 537.800248 -161.671736 
L 538.141242 -164.666777 
L 538.786738 -167.661818 
L 539.702027 -170.65686 
L 540.849699 -173.651901 
L 542.190913 -176.646942 
L 543.686607 -179.641983 
L 545.298637 -182.637025 
L 546.990807 -185.632066 
L 548.729755 -188.627107 
L 550.485689 -191.622149 
L 552.232931 -194.61719 
L 553.950262 -197.612231 
L 555.62105 -200.607273 
L 557.233168 -203.602314 
L 558.778699 -206.597355 
L 560.253466 -209.592397 
L 561.656412 -212.587438 
L 562.988874 -215.582479 
L 564.253821 -218.577521 
L 565.455098 -221.572562 
L 566.596753 -224.567603 
L 567.682483 -227.562645 
L 568.71526 -230.557686 
L 569.697148 -233.552727 
L 570.629326 -236.547769 
L 571.512308 -239.54281 
L 572.346316 -242.537851 
L 573.131762 -245.532893 
L 573.869779 -248.527934 
L 574.562734 -251.522975 
L 575.214651 -254.518017 
L 575.831498 -257.513058 
L 576.421293 -260.508099 
L 576.994009 -263.50314 
L 577.561283 -266.498182 
L 578.135951 -269.493223 
L 578.731445 -272.488264 
L 579.361116 -275.483306 
L 580.037528 -278.478347 
L 580.771794 -281.473388 
L 581.572996 -284.46843 
L 582.44773 -287.463471 
L 583.399805 -290.458512 
L 584.43009 -293.453554 
L 585.536521 -296.448595 
L 586.714242 -299.443636 
L 587.955847 -302.438678 
L 589.251723 -305.433719 
L 590.590431 -308.42876 
L 591.959141 -311.423802 
L 593.344067 -314.418843 
L 594.730915 -317.413884 
L 596.105319 -320.408926 
L 597.453255 -323.403967 
L 598.761438 -326.399008 
L 600.017685 -329.39405 
L 601.211226 -332.389091 
L 602.332975 -335.384132 
L 603.375727 -338.379174 
L 604.334289 -341.374215 
L 605.205524 -344.369256 
L 605.988323 -347.364298 
L 606.683489 -350.359339 
L 607.293555 -353.35438 
L 607.822543 -356.349421 
L 608.275684 -359.344463 
L 608.659107 -362.339504 
L 608.979534 -365.334545 
L 611.420466 -365.334545 
L 611.420466 -365.334545 
L 611.740893 -362.339504 
L 612.124316 -359.344463 
L 612.577457 -356.349421 
L 613.106445 -353.35438 
L 613.716511 -350.359339 
L 614.411677 -347.364298 
L 615.194476 -344.369256 
L 616.065711 -341.374215 
L 617.024273 -338.379174 
L 618.067025 -335.384132 
L 619.188774 -332.389091 
L 620.382315 -329.39405 
L 621.638562 -326.399008 
L 622.946745 -323.403967 
L 624.294681 -320.408926 
L 625.669085 -317.413884 
L 627.055933 -314.418843 
L 628.440859 -311.423802 
L 629.809569 -308.42876 
L 631.148277 -305.433719 
L 632.444153 -302.438678 
L 633.685758 -299.443636 
L 634.863479 -296.448595 
L 635.96991 -293.453554 
L 637.000195 -290.458512 
L 637.95227 -287.463471 
L 638.827004 -284.46843 
L 639.628206 -281.473388 
L 640.362472 -278.478347 
L 641.038884 -275.483306 
L 641.668555 -272.488264 
L 642.264049 -269.493223 
L 642.838717 -266.498182 
L 643.405991 -263.50314 
L 643.978707 -260.508099 
L 644.568502 -257.513058 
L 645.185349 -254.518017 
L 645.837266 -251.522975 
L 646.530221 -248.527934 
L 647.268238 -245.532893 
L 648.053684 -242.537851 
L 648.887692 -239.54281 
L 649.770674 -236.547769 
L 650.702852 -233.552727 
L 651.68474 -230.557686 
L 652.717517 -227.562645 
L 653.803247 -224.567603 
L 654.944902 -221.572562 
L 656.146179 -218.577521 
L 657.411126 -215.582479 
L 658.743588 -212.587438 
L 660.146534 -209.592397 
L 661.621301 -206.597355 
L 663.166832 -203.602314 
L 664.77895 -200.607273 
L 666.449738 -197.612231 
L 668.167069 -194.61719 
L 669.914311 -191.622149 
L 671.670245 -188.627107 
L 673.409193 -185.632066 
L 675.101363 -182.637025 
L 676.713393 -179.641983 
L 678.209087 -176.646942 
L 679.550301 -173.651901 
L 680.697973 -170.65686 
L 681.613262 -167.661818 
L 682.258758 -164.666777 
L 682.599752 -161.671736 
L 682.605503 -158.676694 
L 682.250495 -155.681653 
L 681.515603 -152.686612 
L 680.389149 -149.69157 
L 678.86776 -146.696529 
L 676.957001 -143.701488 
L 674.671695 -140.706446 
L 672.035915 -137.711405 
L 669.082584 -134.716364 
L 665.852699 -131.721322 
L 662.394173 -128.726281 
L 658.760337 -125.73124 
L 655.008175 -122.736198 
L 651.19637 -119.741157 
L 647.383275 -116.746116 
L 643.624918 -113.751074 
L 639.973154 -110.756033 
L 636.474066 -107.760992 
L 633.166703 -104.76595 
L 630.082209 -101.770909 
L 627.243369 -98.775868 
L 624.664576 -95.780826 
L 622.35218 -92.785785 
L 620.30517 -89.790744 
L 618.516116 -86.795702 
L 616.972279 -83.800661 
L 615.656824 -80.80562 
L 614.550028 -77.810579 
L 613.630445 -74.815537 
L 612.875943 -71.820496 
L 612.264599 -68.825455 
z
" id="mfa5a23a1b0" style="stroke:#3f3f3f;stroke-width:2.25;"/>
    </defs>
    <g clip-path="url(#pe69ffa3d92)">
     <use style="fill:#e1812c;stroke:#3f3f3f;stroke-width:2.25;" x="0" xlink:href="#mfa5a23a1b0" y="432"/>
    </g>
   </g>
   <g id="matplotlib.axis_1">
    <g id="xtick_1">
     <g id="line2d_1">
      <defs>
       <path d="M 0 0 
L 0 9 
" id="mb43de77fb5" style="stroke:#000000;stroke-width:1.875;"/>
      </defs>
      <g>
       <use style="stroke:#000000;stroke-width:1.875;" x="275.4" xlink:href="#mb43de77fb5" y="378"/>
      </g>
     </g>
     <g id="text_1">
      <!-- blocked -->
      <g transform="translate(243.494414 403.037422)scale(0.165 -0.165)">
       <defs>
        <path d="M 48.6875 27.296875 
Q 48.6875 37.203125 44.609375 42.84375 
Q 40.53125 48.484375 33.40625 48.484375 
Q 26.265625 48.484375 22.1875 42.84375 
Q 18.109375 37.203125 18.109375 27.296875 
Q 18.109375 17.390625 22.1875 11.75 
Q 26.265625 6.109375 33.40625 6.109375 
Q 40.53125 6.109375 44.609375 11.75 
Q 48.6875 17.390625 48.6875 27.296875 
z
M 18.109375 46.390625 
Q 20.953125 51.265625 25.265625 53.625 
Q 29.59375 56 35.59375 56 
Q 45.5625 56 51.78125 48.09375 
Q 58.015625 40.1875 58.015625 27.296875 
Q 58.015625 14.40625 51.78125 6.484375 
Q 45.5625 -1.421875 35.59375 -1.421875 
Q 29.59375 -1.421875 25.265625 0.953125 
Q 20.953125 3.328125 18.109375 8.203125 
L 18.109375 0 
L 9.078125 0 
L 9.078125 75.984375 
L 18.109375 75.984375 
z
" id="DejaVuSans-98"/>
        <path d="M 9.421875 75.984375 
L 18.40625 75.984375 
L 18.40625 0 
L 9.421875 0 
z
" id="DejaVuSans-108"/>
        <path d="M 30.609375 48.390625 
Q 23.390625 48.390625 19.1875 42.75 
Q 14.984375 37.109375 14.984375 27.296875 
Q 14.984375 17.484375 19.15625 11.84375 
Q 23.34375 6.203125 30.609375 6.203125 
Q 37.796875 6.203125 41.984375 11.859375 
Q 46.1875 17.53125 46.1875 27.296875 
Q 46.1875 37.015625 41.984375 42.703125 
Q 37.796875 48.390625 30.609375 48.390625 
z
M 30.609375 56 
Q 42.328125 56 49.015625 48.375 
Q 55.71875 40.765625 55.71875 27.296875 
Q 55.71875 13.875 49.015625 6.21875 
Q 42.328125 -1.421875 30.609375 -1.421875 
Q 18.84375 -1.421875 12.171875 6.21875 
Q 5.515625 13.875 5.515625 27.296875 
Q 5.515625 40.765625 12.171875 48.375 
Q 18.84375 56 30.609375 56 
z
" id="DejaVuSans-111"/>
        <path d="M 48.78125 52.59375 
L 48.78125 44.1875 
Q 44.96875 46.296875 41.140625 47.34375 
Q 37.3125 48.390625 33.40625 48.390625 
Q 24.65625 48.390625 19.8125 42.84375 
Q 14.984375 37.3125 14.984375 27.296875 
Q 14.984375 17.28125 19.8125 11.734375 
Q 24.65625 6.203125 33.40625 6.203125 
Q 37.3125 6.203125 41.140625 7.25 
Q 44.96875 8.296875 48.78125 10.40625 
L 48.78125 2.09375 
Q 45.015625 0.34375 40.984375 -0.53125 
Q 36.96875 -1.421875 32.421875 -1.421875 
Q 20.0625 -1.421875 12.78125 6.34375 
Q 5.515625 14.109375 5.515625 27.296875 
Q 5.515625 40.671875 12.859375 48.328125 
Q 20.21875 56 33.015625 56 
Q 37.15625 56 41.109375 55.140625 
Q 45.0625 54.296875 48.78125 52.59375 
z
" id="DejaVuSans-99"/>
        <path d="M 9.078125 75.984375 
L 18.109375 75.984375 
L 18.109375 31.109375 
L 44.921875 54.6875 
L 56.390625 54.6875 
L 27.390625 29.109375 
L 57.625 0 
L 45.90625 0 
L 18.109375 26.703125 
L 18.109375 0 
L 9.078125 0 
z
" id="DejaVuSans-107"/>
        <path d="M 56.203125 29.59375 
L 56.203125 25.203125 
L 14.890625 25.203125 
Q 15.484375 15.921875 20.484375 11.0625 
Q 25.484375 6.203125 34.421875 6.203125 
Q 39.59375 6.203125 44.453125 7.46875 
Q 49.3125 8.734375 54.109375 11.28125 
L 54.109375 2.78125 
Q 49.265625 0.734375 44.1875 -0.34375 
Q 39.109375 -1.421875 33.890625 -1.421875 
Q 20.796875 -1.421875 13.15625 6.1875 
Q 5.515625 13.8125 5.515625 26.8125 
Q 5.515625 40.234375 12.765625 48.109375 
Q 20.015625 56 32.328125 56 
Q 43.359375 56 49.78125 48.890625 
Q 56.203125 41.796875 56.203125 29.59375 
z
M 47.21875 32.234375 
Q 47.125 39.59375 43.09375 43.984375 
Q 39.0625 48.390625 32.421875 48.390625 
Q 24.90625 48.390625 20.390625 44.140625 
Q 15.875 39.890625 15.1875 32.171875 
z
" id="DejaVuSans-101"/>
        <path d="M 45.40625 46.390625 
L 45.40625 75.984375 
L 54.390625 75.984375 
L 54.390625 0 
L 45.40625 0 
L 45.40625 8.203125 
Q 42.578125 3.328125 38.25 0.953125 
Q 33.9375 -1.421875 27.875 -1.421875 
Q 17.96875 -1.421875 11.734375 6.484375 
Q 5.515625 14.40625 5.515625 27.296875 
Q 5.515625 40.1875 11.734375 48.09375 
Q 17.96875 56 27.875 56 
Q 33.9375 56 38.25 53.625 
Q 42.578125 51.265625 45.40625 46.390625 
z
M 14.796875 27.296875 
Q 14.796875 17.390625 18.875 11.75 
Q 22.953125 6.109375 30.078125 6.109375 
Q 37.203125 6.109375 41.296875 11.75 
Q 45.40625 17.390625 45.40625 27.296875 
Q 45.40625 37.203125 41.296875 42.84375 
Q 37.203125 48.484375 30.078125 48.484375 
Q 22.953125 48.484375 18.875 42.84375 
Q 14.796875 37.203125 14.796875 27.296875 
z
" id="DejaVuSans-100"/>
       </defs>
       <use xlink:href="#DejaVuSans-98"/>
       <use x="63.476562" xlink:href="#DejaVuSans-108"/>
       <use x="91.259766" xlink:href="#DejaVuSans-111"/>
       <use x="152.441406" xlink:href="#DejaVuSans-99"/>
       <use x="207.421875" xlink:href="#DejaVuSans-107"/>
       <use x="261.707031" xlink:href="#DejaVuSans-101"/>
       <use x="323.230469" xlink:href="#DejaVuSans-100"/>
      </g>
     </g>
    </g>
    <g id="xtick_2">
     <g id="line2d_2">
      <g>
       <use style="stroke:#000000;stroke-width:1.875;" x="610.2" xlink:href="#mb43de77fb5" y="378"/>
      </g>
     </g>
     <g id="text_2">
      <!-- interleaved -->
      <g transform="translate(563.356758 403.037422)scale(0.165 -0.165)">
       <defs>
        <path d="M 9.421875 54.6875 
L 18.40625 54.6875 
L 18.40625 0 
L 9.421875 0 
z
M 9.421875 75.984375 
L 18.40625 75.984375 
L 18.40625 64.59375 
L 9.421875 64.59375 
z
" id="DejaVuSans-105"/>
        <path d="M 54.890625 33.015625 
L 54.890625 0 
L 45.90625 0 
L 45.90625 32.71875 
Q 45.90625 40.484375 42.875 44.328125 
Q 39.84375 48.1875 33.796875 48.1875 
Q 26.515625 48.1875 22.3125 43.546875 
Q 18.109375 38.921875 18.109375 30.90625 
L 18.109375 0 
L 9.078125 0 
L 9.078125 54.6875 
L 18.109375 54.6875 
L 18.109375 46.1875 
Q 21.34375 51.125 25.703125 53.5625 
Q 30.078125 56 35.796875 56 
Q 45.21875 56 50.046875 50.171875 
Q 54.890625 44.34375 54.890625 33.015625 
z
" id="DejaVuSans-110"/>
        <path d="M 18.3125 70.21875 
L 18.3125 54.6875 
L 36.8125 54.6875 
L 36.8125 47.703125 
L 18.3125 47.703125 
L 18.3125 18.015625 
Q 18.3125 11.328125 20.140625 9.421875 
Q 21.96875 7.515625 27.59375 7.515625 
L 36.8125 7.515625 
L 36.8125 0 
L 27.59375 0 
Q 17.1875 0 13.234375 3.875 
Q 9.28125 7.765625 9.28125 18.015625 
L 9.28125 47.703125 
L 2.6875 47.703125 
L 2.6875 54.6875 
L 9.28125 54.6875 
L 9.28125 70.21875 
z
" id="DejaVuSans-116"/>
        <path d="M 41.109375 46.296875 
Q 39.59375 47.171875 37.8125 47.578125 
Q 36.03125 48 33.890625 48 
Q 26.265625 48 22.1875 43.046875 
Q 18.109375 38.09375 18.109375 28.8125 
L 18.109375 0 
L 9.078125 0 
L 9.078125 54.6875 
L 18.109375 54.6875 
L 18.109375 46.1875 
Q 20.953125 51.171875 25.484375 53.578125 
Q 30.03125 56 36.53125 56 
Q 37.453125 56 38.578125 55.875 
Q 39.703125 55.765625 41.0625 55.515625 
z
" id="DejaVuSans-114"/>
        <path d="M 34.28125 27.484375 
Q 23.390625 27.484375 19.1875 25 
Q 14.984375 22.515625 14.984375 16.5 
Q 14.984375 11.71875 18.140625 8.90625 
Q 21.296875 6.109375 26.703125 6.109375 
Q 34.1875 6.109375 38.703125 11.40625 
Q 43.21875 16.703125 43.21875 25.484375 
L 43.21875 27.484375 
z
M 52.203125 31.203125 
L 52.203125 0 
L 43.21875 0 
L 43.21875 8.296875 
Q 40.140625 3.328125 35.546875 0.953125 
Q 30.953125 -1.421875 24.3125 -1.421875 
Q 15.921875 -1.421875 10.953125 3.296875 
Q 6 8.015625 6 15.921875 
Q 6 25.140625 12.171875 29.828125 
Q 18.359375 34.515625 30.609375 34.515625 
L 43.21875 34.515625 
L 43.21875 35.40625 
Q 43.21875 41.609375 39.140625 45 
Q 35.0625 48.390625 27.6875 48.390625 
Q 23 48.390625 18.546875 47.265625 
Q 14.109375 46.140625 10.015625 43.890625 
L 10.015625 52.203125 
Q 14.9375 54.109375 19.578125 55.046875 
Q 24.21875 56 28.609375 56 
Q 40.484375 56 46.34375 49.84375 
Q 52.203125 43.703125 52.203125 31.203125 
z
" id="DejaVuSans-97"/>
        <path d="M 2.984375 54.6875 
L 12.5 54.6875 
L 29.59375 8.796875 
L 46.6875 54.6875 
L 56.203125 54.6875 
L 35.6875 0 
L 23.484375 0 
z
" id="DejaVuSans-118"/>
       </defs>
       <use xlink:href="#DejaVuSans-105"/>
       <use x="27.783203" xlink:href="#DejaVuSans-110"/>
       <use x="91.162109" xlink:href="#DejaVuSans-116"/>
       <use x="130.371094" xlink:href="#DejaVuSans-101"/>
       <use x="191.894531" xlink:href="#DejaVuSans-114"/>
       <use x="233.007812" xlink:href="#DejaVuSans-108"/>
       <use x="260.791016" xlink:href="#DejaVuSans-101"/>
       <use x="322.314453" xlink:href="#DejaVuSans-97"/>
       <use x="383.59375" xlink:href="#DejaVuSans-118"/>
       <use x="442.773438" xlink:href="#DejaVuSans-101"/>
       <use x="504.296875" xlink:href="#DejaVuSans-100"/>
      </g>
     </g>
    </g>
    <g id="text_3">
     <!-- condition -->
     <g transform="translate(401.187656 424.146094)scale(0.18 -0.18)">
      <use xlink:href="#DejaVuSans-99"/>
      <use x="54.980469" xlink:href="#DejaVuSans-111"/>
      <use x="116.162109" xlink:href="#DejaVuSans-110"/>
      <use x="179.541016" xlink:href="#DejaVuSans-100"/>
      <use x="243.017578" xlink:href="#DejaVuSans-105"/>
      <use x="270.800781" xlink:href="#DejaVuSans-116"/>
      <use x="310.009766" xlink:href="#DejaVuSans-105"/>
      <use x="337.792969" xlink:href="#DejaVuSans-111"/>
      <use x="398.974609" xlink:href="#DejaVuSans-110"/>
     </g>
    </g>
   </g>
   <g id="matplotlib.axis_2">
    <g id="ytick_1">
     <g id="line2d_3">
      <defs>
       <path d="M 0 0 
L -9 0 
" id="mc6dafdc08a" style="stroke:#000000;stroke-width:1.875;"/>
      </defs>
      <g>
       <use style="stroke:#000000;stroke-width:1.875;" x="108" xlink:href="#mc6dafdc08a" y="367.744554"/>
      </g>
     </g>
     <g id="text_4">
      <!-- 0.2 -->
      <g transform="translate(69.259844 374.013265)scale(0.165 -0.165)">
       <defs>
        <path d="M 31.78125 66.40625 
Q 24.171875 66.40625 20.328125 58.90625 
Q 16.5 51.421875 16.5 36.375 
Q 16.5 21.390625 20.328125 13.890625 
Q 24.171875 6.390625 31.78125 6.390625 
Q 39.453125 6.390625 43.28125 13.890625 
Q 47.125 21.390625 47.125 36.375 
Q 47.125 51.421875 43.28125 58.90625 
Q 39.453125 66.40625 31.78125 66.40625 
z
M 31.78125 74.21875 
Q 44.046875 74.21875 50.515625 64.515625 
Q 56.984375 54.828125 56.984375 36.375 
Q 56.984375 17.96875 50.515625 8.265625 
Q 44.046875 -1.421875 31.78125 -1.421875 
Q 19.53125 -1.421875 13.0625 8.265625 
Q 6.59375 17.96875 6.59375 36.375 
Q 6.59375 54.828125 13.0625 64.515625 
Q 19.53125 74.21875 31.78125 74.21875 
z
" id="DejaVuSans-48"/>
        <path d="M 10.6875 12.40625 
L 21 12.40625 
L 21 0 
L 10.6875 0 
z
" id="DejaVuSans-46"/>
        <path d="M 19.1875 8.296875 
L 53.609375 8.296875 
L 53.609375 0 
L 7.328125 0 
L 7.328125 8.296875 
Q 12.9375 14.109375 22.625 23.890625 
Q 32.328125 33.6875 34.8125 36.53125 
Q 39.546875 41.84375 41.421875 45.53125 
Q 43.3125 49.21875 43.3125 52.78125 
Q 43.3125 58.59375 39.234375 62.25 
Q 35.15625 65.921875 28.609375 65.921875 
Q 23.96875 65.921875 18.8125 64.3125 
Q 13.671875 62.703125 7.8125 59.421875 
L 7.8125 69.390625 
Q 13.765625 71.78125 18.9375 73 
Q 24.125 74.21875 28.421875 74.21875 
Q 39.75 74.21875 46.484375 68.546875 
Q 53.21875 62.890625 53.21875 53.421875 
Q 53.21875 48.921875 51.53125 44.890625 
Q 49.859375 40.875 45.40625 35.40625 
Q 44.1875 33.984375 37.640625 27.21875 
Q 31.109375 20.453125 19.1875 8.296875 
z
" id="DejaVuSans-50"/>
       </defs>
       <use xlink:href="#DejaVuSans-48"/>
       <use x="63.623047" xlink:href="#DejaVuSans-46"/>
       <use x="95.410156" xlink:href="#DejaVuSans-50"/>
      </g>
     </g>
    </g>
    <g id="ytick_2">
     <g id="line2d_4">
      <g>
       <use style="stroke:#000000;stroke-width:1.875;" x="108" xlink:href="#mc6dafdc08a" y="305.81565"/>
      </g>
     </g>
     <g id="text_5">
      <!-- 0.4 -->
      <g transform="translate(69.259844 312.08436)scale(0.165 -0.165)">
       <defs>
        <path d="M 37.796875 64.3125 
L 12.890625 25.390625 
L 37.796875 25.390625 
z
M 35.203125 72.90625 
L 47.609375 72.90625 
L 47.609375 25.390625 
L 58.015625 25.390625 
L 58.015625 17.1875 
L 47.609375 17.1875 
L 47.609375 0 
L 37.796875 0 
L 37.796875 17.1875 
L 4.890625 17.1875 
L 4.890625 26.703125 
z
" id="DejaVuSans-52"/>
       </defs>
       <use xlink:href="#DejaVuSans-48"/>
       <use x="63.623047" xlink:href="#DejaVuSans-46"/>
       <use x="95.410156" xlink:href="#DejaVuSans-52"/>
      </g>
     </g>
    </g>
    <g id="ytick_3">
     <g id="line2d_5">
      <g>
       <use style="stroke:#000000;stroke-width:1.875;" x="108" xlink:href="#mc6dafdc08a" y="243.886745"/>
      </g>
     </g>
     <g id="text_6">
      <!-- 0.6 -->
      <g transform="translate(69.259844 250.155456)scale(0.165 -0.165)">
       <defs>
        <path d="M 33.015625 40.375 
Q 26.375 40.375 22.484375 35.828125 
Q 18.609375 31.296875 18.609375 23.390625 
Q 18.609375 15.53125 22.484375 10.953125 
Q 26.375 6.390625 33.015625 6.390625 
Q 39.65625 6.390625 43.53125 10.953125 
Q 47.40625 15.53125 47.40625 23.390625 
Q 47.40625 31.296875 43.53125 35.828125 
Q 39.65625 40.375 33.015625 40.375 
z
M 52.59375 71.296875 
L 52.59375 62.3125 
Q 48.875 64.0625 45.09375 64.984375 
Q 41.3125 65.921875 37.59375 65.921875 
Q 27.828125 65.921875 22.671875 59.328125 
Q 17.53125 52.734375 16.796875 39.40625 
Q 19.671875 43.65625 24.015625 45.921875 
Q 28.375 48.1875 33.59375 48.1875 
Q 44.578125 48.1875 50.953125 41.515625 
Q 57.328125 34.859375 57.328125 23.390625 
Q 57.328125 12.15625 50.6875 5.359375 
Q 44.046875 -1.421875 33.015625 -1.421875 
Q 20.359375 -1.421875 13.671875 8.265625 
Q 6.984375 17.96875 6.984375 36.375 
Q 6.984375 53.65625 15.1875 63.9375 
Q 23.390625 74.21875 37.203125 74.21875 
Q 40.921875 74.21875 44.703125 73.484375 
Q 48.484375 72.75 52.59375 71.296875 
z
" id="DejaVuSans-54"/>
       </defs>
       <use xlink:href="#DejaVuSans-48"/>
       <use x="63.623047" xlink:href="#DejaVuSans-46"/>
       <use x="95.410156" xlink:href="#DejaVuSans-54"/>
      </g>
     </g>
    </g>
    <g id="ytick_4">
     <g id="line2d_6">
      <g>
       <use style="stroke:#000000;stroke-width:1.875;" x="108" xlink:href="#mc6dafdc08a" y="181.957841"/>
      </g>
     </g>
     <g id="text_7">
      <!-- 0.8 -->
      <g transform="translate(69.259844 188.226552)scale(0.165 -0.165)">
       <defs>
        <path d="M 31.78125 34.625 
Q 24.75 34.625 20.71875 30.859375 
Q 16.703125 27.09375 16.703125 20.515625 
Q 16.703125 13.921875 20.71875 10.15625 
Q 24.75 6.390625 31.78125 6.390625 
Q 38.8125 6.390625 42.859375 10.171875 
Q 46.921875 13.96875 46.921875 20.515625 
Q 46.921875 27.09375 42.890625 30.859375 
Q 38.875 34.625 31.78125 34.625 
z
M 21.921875 38.8125 
Q 15.578125 40.375 12.03125 44.71875 
Q 8.5 49.078125 8.5 55.328125 
Q 8.5 64.0625 14.71875 69.140625 
Q 20.953125 74.21875 31.78125 74.21875 
Q 42.671875 74.21875 48.875 69.140625 
Q 55.078125 64.0625 55.078125 55.328125 
Q 55.078125 49.078125 51.53125 44.71875 
Q 48 40.375 41.703125 38.8125 
Q 48.828125 37.15625 52.796875 32.3125 
Q 56.78125 27.484375 56.78125 20.515625 
Q 56.78125 9.90625 50.3125 4.234375 
Q 43.84375 -1.421875 31.78125 -1.421875 
Q 19.734375 -1.421875 13.25 4.234375 
Q 6.78125 9.90625 6.78125 20.515625 
Q 6.78125 27.484375 10.78125 32.3125 
Q 14.796875 37.15625 21.921875 38.8125 
z
M 18.3125 54.390625 
Q 18.3125 48.734375 21.84375 45.5625 
Q 25.390625 42.390625 31.78125 42.390625 
Q 38.140625 42.390625 41.71875 45.5625 
Q 45.3125 48.734375 45.3125 54.390625 
Q 45.3125 60.0625 41.71875 63.234375 
Q 38.140625 66.40625 31.78125 66.40625 
Q 25.390625 66.40625 21.84375 63.234375 
Q 18.3125 60.0625 18.3125 54.390625 
z
" id="DejaVuSans-56"/>
       </defs>
       <use xlink:href="#DejaVuSans-48"/>
       <use x="63.623047" xlink:href="#DejaVuSans-46"/>
       <use x="95.410156" xlink:href="#DejaVuSans-56"/>
      </g>
     </g>
    </g>
    <g id="ytick_5">
     <g id="line2d_7">
      <g>
       <use style="stroke:#000000;stroke-width:1.875;" x="108" xlink:href="#mc6dafdc08a" y="120.028937"/>
      </g>
     </g>
     <g id="text_8">
      <!-- 1.0 -->
      <g transform="translate(69.259844 126.297648)scale(0.165 -0.165)">
       <defs>
        <path d="M 12.40625 8.296875 
L 28.515625 8.296875 
L 28.515625 63.921875 
L 10.984375 60.40625 
L 10.984375 69.390625 
L 28.421875 72.90625 
L 38.28125 72.90625 
L 38.28125 8.296875 
L 54.390625 8.296875 
L 54.390625 0 
L 12.40625 0 
z
" id="DejaVuSans-49"/>
       </defs>
       <use xlink:href="#DejaVuSans-49"/>
       <use x="63.623047" xlink:href="#DejaVuSans-46"/>
       <use x="95.410156" xlink:href="#DejaVuSans-48"/>
      </g>
     </g>
    </g>
    <g id="ytick_6">
     <g id="line2d_8">
      <g>
       <use style="stroke:#000000;stroke-width:1.875;" x="108" xlink:href="#mc6dafdc08a" y="58.100033"/>
      </g>
     </g>
     <g id="text_9">
      <!-- 1.2 -->
      <g transform="translate(69.259844 64.368744)scale(0.165 -0.165)">
       <use xlink:href="#DejaVuSans-49"/>
       <use x="63.623047" xlink:href="#DejaVuSans-46"/>
       <use x="95.410156" xlink:href="#DejaVuSans-50"/>
      </g>
     </g>
    </g>
    <g id="text_10">
     <!-- prediction accuracy -->
     <g transform="translate(61.516406 303.537656)rotate(-90)scale(0.18 -0.18)">
      <defs>
       <path d="M 18.109375 8.203125 
L 18.109375 -20.796875 
L 9.078125 -20.796875 
L 9.078125 54.6875 
L 18.109375 54.6875 
L 18.109375 46.390625 
Q 20.953125 51.265625 25.265625 53.625 
Q 29.59375 56 35.59375 56 
Q 45.5625 56 51.78125 48.09375 
Q 58.015625 40.1875 58.015625 27.296875 
Q 58.015625 14.40625 51.78125 6.484375 
Q 45.5625 -1.421875 35.59375 -1.421875 
Q 29.59375 -1.421875 25.265625 0.953125 
Q 20.953125 3.328125 18.109375 8.203125 
z
M 48.6875 27.296875 
Q 48.6875 37.203125 44.609375 42.84375 
Q 40.53125 48.484375 33.40625 48.484375 
Q 26.265625 48.484375 22.1875 42.84375 
Q 18.109375 37.203125 18.109375 27.296875 
Q 18.109375 17.390625 22.1875 11.75 
Q 26.265625 6.109375 33.40625 6.109375 
Q 40.53125 6.109375 44.609375 11.75 
Q 48.6875 17.390625 48.6875 27.296875 
z
" id="DejaVuSans-112"/>
       <path id="DejaVuSans-32"/>
       <path d="M 8.5 21.578125 
L 8.5 54.6875 
L 17.484375 54.6875 
L 17.484375 21.921875 
Q 17.484375 14.15625 20.5 10.265625 
Q 23.53125 6.390625 29.59375 6.390625 
Q 36.859375 6.390625 41.078125 11.03125 
Q 45.3125 15.671875 45.3125 23.6875 
L 45.3125 54.6875 
L 54.296875 54.6875 
L 54.296875 0 
L 45.3125 0 
L 45.3125 8.40625 
Q 42.046875 3.421875 37.71875 1 
Q 33.40625 -1.421875 27.6875 -1.421875 
Q 18.265625 -1.421875 13.375 4.4375 
Q 8.5 10.296875 8.5 21.578125 
z
M 31.109375 56 
z
" id="DejaVuSans-117"/>
       <path d="M 32.171875 -5.078125 
Q 28.375 -14.84375 24.75 -17.8125 
Q 21.140625 -20.796875 15.09375 -20.796875 
L 7.90625 -20.796875 
L 7.90625 -13.28125 
L 13.1875 -13.28125 
Q 16.890625 -13.28125 18.9375 -11.515625 
Q 21 -9.765625 23.484375 -3.21875 
L 25.09375 0.875 
L 2.984375 54.6875 
L 12.5 54.6875 
L 29.59375 11.921875 
L 46.6875 54.6875 
L 56.203125 54.6875 
z
" id="DejaVuSans-121"/>
      </defs>
      <use xlink:href="#DejaVuSans-112"/>
      <use x="63.476562" xlink:href="#DejaVuSans-114"/>
      <use x="102.339844" xlink:href="#DejaVuSans-101"/>
      <use x="163.863281" xlink:href="#DejaVuSans-100"/>
      <use x="227.339844" xlink:href="#DejaVuSans-105"/>
      <use x="255.123047" xlink:href="#DejaVuSans-99"/>
      <use x="310.103516" xlink:href="#DejaVuSans-116"/>
      <use x="349.3125" xlink:href="#DejaVuSans-105"/>
      <use x="377.095703" xlink:href="#DejaVuSans-111"/>
      <use x="438.277344" xlink:href="#DejaVuSans-110"/>
      <use x="501.65625" xlink:href="#DejaVuSans-32"/>
      <use x="533.443359" xlink:href="#DejaVuSans-97"/>
      <use x="594.722656" xlink:href="#DejaVuSans-99"/>
      <use x="649.703125" xlink:href="#DejaVuSans-99"/>
      <use x="704.683594" xlink:href="#DejaVuSans-117"/>
      <use x="768.0625" xlink:href="#DejaVuSans-114"/>
      <use x="809.175781" xlink:href="#DejaVuSans-97"/>
      <use x="870.455078" xlink:href="#DejaVuSans-99"/>
      <use x="925.435547" xlink:href="#DejaVuSans-121"/>
     </g>
    </g>
   </g>
   <g id="line2d_9">
    <path clip-path="url(#pe69ffa3d92)" d="M 275.4 149.994536 
L 275.4 120.028937 
" style="fill:none;stroke:#3f3f3f;stroke-linecap:square;stroke-width:2.25;"/>
   </g>
   <g id="line2d_10">
    <path clip-path="url(#pe69ffa3d92)" d="M 275.4 138.795272 
L 275.4 120.028937 
" style="fill:none;stroke:#3f3f3f;stroke-linecap:square;stroke-width:6.75;"/>
   </g>
   <g id="line2d_11">
    <path clip-path="url(#pe69ffa3d92)" d="M 610.2 309.811063 
L 610.2 120.028937 
" style="fill:none;stroke:#3f3f3f;stroke-linecap:square;stroke-width:2.25;"/>
   </g>
   <g id="line2d_12">
    <path clip-path="url(#pe69ffa3d92)" d="M 610.2 282.358742 
L 610.2 196.267171 
" style="fill:none;stroke:#3f3f3f;stroke-linecap:square;stroke-width:6.75;"/>
   </g>
   <g id="patch_3">
    <path d="M 108 378 
L 108 51.84 
" style="fill:none;stroke:#000000;stroke-linecap:square;stroke-linejoin:miter;stroke-width:1.875;"/>
   </g>
   <g id="patch_4">
    <path d="M 777.6 378 
L 777.6 51.84 
" style="fill:none;stroke:#000000;stroke-linecap:square;stroke-linejoin:miter;stroke-width:1.875;"/>
   </g>
   <g id="patch_5">
    <path d="M 108 378 
L 777.6 378 
" style="fill:none;stroke:#000000;stroke-linecap:square;stroke-linejoin:miter;stroke-width:1.875;"/>
   </g>
   <g id="patch_6">
    <path d="M 108 51.84 
L 777.6 51.84 
" style="fill:none;stroke:#000000;stroke-linecap:square;stroke-linejoin:miter;stroke-width:1.875;"/>
   </g>
   <g id="PathCollection_1">
    <defs>
     <path d="M 0 2.25 
C 0.596707 2.25 1.169055 2.012926 1.59099 1.59099 
C 2.012926 1.169055 2.25 0.596707 2.25 0 
C 2.25 -0.596707 2.012926 -1.169055 1.59099 -1.59099 
C 1.169055 -2.012926 0.596707 -2.25 0 -2.25 
C -0.596707 -2.25 -1.169055 -2.012926 -1.59099 -1.59099 
C -2.012926 -1.169055 -2.25 -0.596707 -2.25 0 
C -2.25 0.596707 -2.012926 1.169055 -1.59099 1.59099 
C -1.169055 2.012926 -0.596707 2.25 0 2.25 
z
" id="ma136114d71" style="stroke:#3f3f3f;stroke-width:1.5;"/>
    </defs>
    <g clip-path="url(#pe69ffa3d92)">
     <use style="fill:#ffffff;stroke:#3f3f3f;stroke-width:1.5;" x="275.4" xlink:href="#ma136114d71" y="130.01747"/>
    </g>
   </g>
   <g id="PathCollection_2">
    <g clip-path="url(#pe69ffa3d92)">
     <use style="fill:#ffffff;stroke:#3f3f3f;stroke-width:1.5;" x="610.2" xlink:href="#ma136114d71" y="249.879865"/>
    </g>
   </g>
  </g>
 </g>
 <defs>
  <clipPath id="pe69ffa3d92">
   <rect height="326.16" width="669.6" x="108" y="51.84"/>
  </clipPath>
 </defs>
</svg>
