<?xml version="1.0" encoding="utf-8" standalone="no"?>
<!DOCTYPE svg PUBLIC "-//W3C//DTD SVG 1.1//EN"
  "http://www.w3.org/Graphics/SVG/1.1/DTD/svg11.dtd">
<!-- Created with matplotlib (https://matplotlib.org/) -->
<svg height="432pt" version="1.1" viewBox="0 0 864 432" width="864pt" xmlns="http://www.w3.org/2000/svg" xmlns:xlink="http://www.w3.org/1999/xlink">
 <metadata>
  <rdf:RDF xmlns:cc="http://creativecommons.org/ns#" xmlns:dc="http://purl.org/dc/elements/1.1/" xmlns:rdf="http://www.w3.org/1999/02/22-rdf-syntax-ns#">
   <cc:Work>
    <dc:type rdf:resource="http://purl.org/dc/dcmitype/StillImage"/>
    <dc:date>2023-04-16T12:01:08.726458</dc:date>
    <dc:format>image/svg+xml</dc:format>
    <dc:creator>
     <cc:Agent>
      <dc:title>Matplotlib v3.3.4, https://matplotlib.org/</dc:title>
     </cc:Agent>
    </dc:creator>
   </cc:Work>
  </rdf:RDF>
 </metadata>
 <defs>
  <style type="text/css">*{stroke-linecap:butt;stroke-linejoin:round;}</style>
 </defs>
 <g id="figure_1">
  <g id="patch_1">
   <path d="M 0 432 
L 864 432 
L 864 0 
L 0 0 
z
" style="fill:none;"/>
  </g>
  <g id="axes_1">
   <g id="patch_2">
    <path d="M 108 378 
L 777.6 378 
L 777.6 51.84 
L 108 51.84 
z
" style="fill:#ffffff;"/>
   </g>
   <g id="PolyCollection_1">
    <defs>
     <path d="M 138.436364 -304.15013 
L 138.436364 -245.318961 
L 141.48 -147.894545 
L 144.523636 -207.871643 
L 147.567273 -191.801575 
L 150.610909 -194.331948 
L 153.654545 -201.462999 
L 156.698182 -216.342415 
L 159.741818 -205.741629 
L 162.785455 -219.129602 
L 165.829091 -236.494286 
L 168.872727 -212.127645 
L 171.916364 -200.910917 
L 174.96 -212.334929 
L 178.003636 -242.293358 
L 181.047273 -197.184368 
L 184.090909 -196.842078 
L 187.134545 -230.190946 
L 190.178182 -232.529577 
L 193.221818 -234.93699 
L 196.265455 -216.536943 
L 199.309091 -222.122672 
L 202.352727 -186.125754 
L 205.396364 -219.433247 
L 208.44 -233.201496 
L 211.483636 -216.342415 
L 214.527273 -175.791216 
L 217.570909 -235.16454 
L 220.614545 -226.523549 
L 223.658182 -222.122672 
L 226.701818 -185.676328 
L 229.745455 -173.092388 
L 232.789091 -193.883711 
L 235.832727 -230.190946 
L 238.876364 -252.261039 
L 241.92 -229.100639 
L 244.963636 -241.631037 
L 248.007273 -150.677516 
L 251.050909 -226.105744 
L 254.094545 -188.627107 
L 257.138182 -210.02026 
L 260.181818 -225.708571 
L 263.225455 -198.572032 
L 266.269091 -243.461135 
L 269.312727 -191.501231 
L 272.356364 -239.970673 
L 275.4 -191.349105 
L 278.443636 -208.031601 
L 281.487273 -214.054397 
L 284.530909 -215.986237 
L 287.574545 -218.577521 
L 290.618182 -201.304531 
L 293.661818 -199.159121 
L 296.705455 -232.793615 
L 299.749091 -184.01069 
L 302.792727 -233.552727 
L 305.836364 -185.676328 
L 308.88 -268.67041 
L 311.923636 -214.726753 
L 314.967273 -210.02026 
L 318.010909 -221.786494 
L 321.054545 -233.552727 
L 324.098182 -214.054397 
L 327.141818 -199.159121 
L 330.185455 -182.692233 
L 333.229091 -239.850148 
L 336.272727 -206.304607 
L 339.316364 -196.356246 
L 342.36 -208.031601 
L 345.403636 -183.307729 
L 348.447273 -186.125754 
L 351.490909 -196.099645 
L 354.534545 -201.951985 
L 357.578182 -216.342415 
L 360.621818 -221.468487 
L 363.665455 -212.008919 
L 366.709091 -169.402576 
L 369.752727 -230.784202 
L 372.796364 -186.125754 
L 375.84 -227.134782 
L 378.883636 -250.112612 
L 381.927273 -208.137662 
L 384.970909 -198.572032 
L 388.014545 -210.02026 
L 391.058182 -169.927908 
L 394.101818 -257.085195 
L 397.145455 -204.121025 
L 400.189091 -249.554805 
L 403.232727 -186.487792 
L 406.276364 -251.782104 
L 409.32 -159.033247 
L 412.363636 -206.304607 
L 415.407273 -190.939881 
L 418.450909 -218.95664 
L 421.494545 -177.747161 
L 424.538182 -231.796078 
L 427.581818 -228.505632 
L 430.625455 -238.259221 
L 433.669091 -197.816994 
L 436.712727 -213.953544 
L 439.756364 -188.482069 
L 442.8 -204.977588 
L 445.843636 -187.726343 
L 448.887273 -243.827467 
L 451.930909 -262.858003 
L 454.974545 -238.259221 
L 458.018182 -205.741629 
L 461.061818 -237.474805 
L 464.105455 -237.416267 
L 467.149091 -227.918193 
L 470.192727 -189.849573 
L 473.236364 -188.74433 
L 476.28 -212.334929 
L 479.323636 -221.468487 
L 482.367273 -185.255139 
L 485.410909 -243.461135 
L 488.454545 -195.900779 
L 491.498182 -196.099645 
L 494.541818 -205.867471 
L 497.585455 -243.461135 
L 500.629091 -177.139278 
L 503.672727 -242.856261 
L 506.716364 -197.561895 
L 509.76 -266.864922 
L 512.803636 -202.176104 
L 515.847273 -216.342415 
L 518.890909 -188.145008 
L 521.934545 -226.156809 
L 524.978182 -221.786494 
L 528.021818 -217.261019 
L 531.065455 -190.939881 
L 534.109091 -245.318961 
L 537.152727 -203.881355 
L 540.196364 -239.032891 
L 543.24 -222.441828 
L 546.283636 -221.226197 
L 549.327273 -238.983297 
L 552.370909 -243.242567 
L 555.414545 -220.60987 
L 558.458182 -243.638071 
L 561.501818 -193.817577 
L 564.545455 -210.02026 
L 567.589091 -202.388108 
L 570.632727 -233.552727 
L 573.676364 -233.766659 
L 576.72 -209.924858 
L 579.763636 -195.268564 
L 582.807273 -201.514549 
L 585.850909 -211.954435 
L 588.894545 -244.740294 
L 591.938182 -228.436973 
L 594.981818 -283.77874 
L 598.025455 -180.090938 
L 601.069091 -170.309221 
L 604.112727 -223.940874 
L 607.156364 -212.008919 
L 610.2 -195.696149 
L 613.243636 -240.548866 
L 616.287273 -196.481032 
L 619.330909 -215.986237 
L 622.374545 -231.55845 
L 625.418182 -196.481032 
L 628.461818 -226.105744 
L 631.505455 -263.445321 
L 634.549091 -181.057223 
L 637.592727 -223.940874 
L 640.636364 -174.721558 
L 643.68 -196.842078 
L 646.723636 -184.806902 
L 649.767273 -240.906623 
L 652.810909 -185.815436 
L 655.854545 -193.076883 
L 658.898182 -190.844479 
L 661.941818 -217.652411 
L 664.985455 -207.848032 
L 668.029091 -227.134782 
L 671.072727 -229.100639 
L 674.116364 -212.008919 
L 677.16 -204.217733 
L 680.203636 -169.02822 
L 683.247273 -208.031601 
L 686.290909 -226.222942 
L 689.334545 -198.814323 
L 692.378182 -216.159164 
L 695.421818 -231.296189 
L 698.465455 -190.40987 
L 701.509091 -207.848032 
L 704.552727 -218.844935 
L 707.596364 -222.22228 
L 710.64 -225.708571 
L 713.683636 -223.684273 
L 716.727273 -225.284563 
L 719.770909 -191.441996 
L 722.814545 -221.167218 
L 725.858182 -186.182176 
L 728.901818 -219.691137 
L 731.945455 -243.242567 
L 734.989091 -193.883711 
L 738.032727 -235.362917 
L 741.076364 -223.559488 
L 744.12 -243.978504 
L 744.12 -301.171337 
L 744.12 -301.171337 
L 741.076364 -281.58475 
L 738.032727 -293.288991 
L 734.989091 -258.429907 
L 731.945455 -305.534393 
L 728.901818 -281.58475 
L 725.858182 -248.527934 
L 722.814545 -280.617662 
L 719.770909 -250.985332 
L 716.727273 -286.341776 
L 713.683636 -292.00434 
L 710.64 -288.461818 
L 707.596364 -281.489235 
L 704.552727 -280.617662 
L 701.509091 -268.67041 
L 698.465455 -253.163117 
L 695.421818 -293.189803 
L 692.378182 -285.733416 
L 689.334545 -270.532319 
L 686.290909 -291.033673 
L 683.247273 -271.668696 
L 680.203636 -241.902958 
L 677.16 -266.111347 
L 674.116364 -275.646014 
L 671.072727 -286.341776 
L 668.029091 -291.314238 
L 664.985455 -273.014865 
L 661.941818 -278.709624 
L 658.898182 -251.997094 
L 655.854545 -257.179325 
L 652.810909 -250.361633 
L 649.767273 -302.679351 
L 646.723636 -255.404304 
L 643.68 -260.85039 
L 640.636364 -245.318961 
L 637.592727 -287.57797 
L 634.549091 -249.844436 
L 631.505455 -316.870383 
L 628.461818 -286.873128 
L 625.418182 -258.374645 
L 622.374545 -298.566155 
L 619.330909 -275.646014 
L 616.287273 -262.242996 
L 613.243636 -297.790004 
L 610.2 -261.177798 
L 607.156364 -275.646014 
L 604.112727 -283.700084 
L 601.069091 -240.906623 
L 598.025455 -243.827467 
L 594.981818 -330.141213 
L 591.938182 -293.918622 
L 588.894545 -309.551024 
L 585.850909 -269.979698 
L 582.807273 -259.353384 
L 579.763636 -262.810258 
L 576.72 -271.077473 
L 573.676364 -292.536704 
L 570.632727 -292.383896 
L 567.589091 -267.261397 
L 564.545455 -276.205325 
L 561.501818 -267.886983 
L 558.458182 -302.021002 
L 555.414545 -280.617662 
L 552.370909 -305.534393 
L 549.327273 -293.288991 
L 546.283636 -288.461818 
L 543.24 -279.724024 
L 540.196364 -297.058153 
L 537.152727 -269.465319 
L 534.109091 -302.679351 
L 531.065455 -255.81317 
L 528.021818 -278.807473 
L 524.978182 -280.617662 
L 521.934545 -290.703006 
L 518.890909 -255.759422 
L 515.847273 -283.77874 
L 512.803636 -268.851429 
L 509.76 -318.208487 
L 506.716364 -264.006509 
L 503.672727 -295.393863 
L 500.629091 -242.901242 
L 497.585455 -299.195926 
L 494.541818 -268.159297 
L 491.498182 -259.836173 
L 488.454545 -266.498182 
L 485.410909 -299.195926 
L 482.367273 -252.60282 
L 479.323636 -278.709624 
L 476.28 -281.774997 
L 473.236364 -250.637943 
L 470.192727 -255.862729 
L 467.149091 -287.677403 
L 464.105455 -300.637821 
L 461.061818 -296.305974 
L 458.018182 -278.478347 
L 454.974545 -298.77128 
L 451.930909 -315.916364 
L 448.887273 -299.509925 
L 445.843636 -262.039398 
L 442.8 -275.574991 
L 439.756364 -260.276038 
L 436.712727 -270.532319 
L 433.669091 -262.464045 
L 430.625455 -294.737143 
L 427.581818 -291.764621 
L 424.538182 -295.532607 
L 421.494545 -242.293358 
L 418.450909 -279.724024 
L 415.407273 -255.81317 
L 412.363636 -269.470704 
L 409.32 -221.786494 
L 406.276364 -307.464562 
L 403.232727 -249.241039 
L 400.189091 -311.680519 
L 397.145455 -266.111347 
L 394.101818 -309.797922 
L 391.058182 -232.768312 
L 388.014545 -280.617662 
L 384.970909 -259.629245 
L 381.927273 -264.615584 
L 378.883636 -298.920693 
L 375.84 -291.314238 
L 372.796364 -251.292587 
L 369.752727 -293.076028 
L 366.709091 -235.16454 
L 363.665455 -271.668696 
L 360.621818 -278.709624 
L 357.578182 -283.77874 
L 354.534545 -266.498182 
L 351.490909 -259.73674 
L 348.447273 -255.637043 
L 345.403636 -248.181018 
L 342.36 -271.668696 
L 339.316364 -260.121642 
L 336.272727 -265.755051 
L 333.229091 -299.509925 
L 330.185455 -255.566971 
L 327.141818 -268.67041 
L 324.098182 -278.600594 
L 321.054545 -292.481948 
L 318.010909 -284.53974 
L 314.967273 -280.617662 
L 311.923636 -280.617662 
L 308.88 -320.803876 
L 305.836364 -258.708124 
L 302.792727 -299.443636 
L 299.749091 -243.461135 
L 296.705455 -296.559011 
L 293.661818 -260.705574 
L 290.618182 -264.057778 
L 287.574545 -282.756978 
L 284.530909 -279.623333 
L 281.487273 -278.600594 
L 278.443636 -271.668696 
L 275.4 -250.89244 
L 272.356364 -299.871499 
L 269.312727 -257.085195 
L 266.269091 -302.911579 
L 263.225455 -259.629245 
L 260.181818 -284.975527 
L 257.138182 -271.077473 
L 254.094545 -257.085195 
L 251.050909 -283.298576 
L 248.007273 -220.251767 
L 244.963636 -300.637821 
L 241.92 -290.157852 
L 238.876364 -308.856623 
L 235.832727 -290.803859 
L 232.789091 -258.530761 
L 229.745455 -238.259221 
L 226.701818 -253.839337 
L 223.658182 -286.668868 
L 220.614545 -288.869307 
L 217.570909 -297.058153 
L 214.527273 -239.970673 
L 211.483636 -283.77874 
L 208.44 -292.208281 
L 205.396364 -285.324156 
L 202.352727 -259.981499 
L 199.309091 -286.668868 
L 196.265455 -286.048232 
L 193.221818 -297.228816 
L 190.178182 -289.928334 
L 187.134545 -288.869307 
L 184.090909 -260.85039 
L 181.047273 -265.642456 
L 178.003636 -298.77128 
L 174.96 -281.774997 
L 171.916364 -269.230984 
L 168.872727 -275.454569 
L 165.829091 -298.267013 
L 162.785455 -287.449669 
L 159.741818 -265.642456 
L 156.698182 -279.56397 
L 153.654545 -269.921086 
L 150.610909 -257.085195 
L 147.567273 -260.121642 
L 144.523636 -277.54821 
L 141.48 -211.902857 
L 138.436364 -304.15013 
z
" id="m5ab4182d2e" style="stroke:#800080;stroke-opacity:0.2;stroke-width:1.5;"/>
    </defs>
    <g clip-path="url(#p9cf042ad3b)">
     <use style="fill:#800080;fill-opacity:0.2;stroke:#800080;stroke-opacity:0.2;stroke-width:1.5;" x="0" xlink:href="#m5ab4182d2e" y="432"/>
    </g>
   </g>
   <g id="PolyCollection_2">
    <defs>
     <path d="M 138.436364 -365.334545 
L 138.436364 -68.825455 
L 141.48 -68.825455 
L 144.523636 -68.825455 
L 147.567273 -68.825455 
L 150.610909 -68.825455 
L 153.654545 -68.825455 
L 156.698182 -68.825455 
L 159.741818 -68.825455 
L 162.785455 -68.825455 
L 165.829091 -68.825455 
L 168.872727 -68.825455 
L 171.916364 -68.825455 
L 174.96 -68.825455 
L 178.003636 -68.825455 
L 181.047273 -68.825455 
L 184.090909 -68.825455 
L 187.134545 -68.825455 
L 190.178182 -68.825455 
L 193.221818 -68.825455 
L 196.265455 -68.825455 
L 199.309091 -68.825455 
L 202.352727 -68.825455 
L 205.396364 -68.825455 
L 208.44 -68.825455 
L 211.483636 -68.825455 
L 214.527273 -68.825455 
L 217.570909 -68.825455 
L 220.614545 -68.825455 
L 223.658182 -68.825455 
L 226.701818 -68.825455 
L 229.745455 -68.825455 
L 232.789091 -68.825455 
L 235.832727 -68.825455 
L 238.876364 -68.825455 
L 241.92 -68.825455 
L 244.963636 -68.825455 
L 248.007273 -68.825455 
L 251.050909 -68.825455 
L 254.094545 -68.825455 
L 257.138182 -68.825455 
L 260.181818 -68.825455 
L 260.181818 -365.334545 
L 260.181818 -365.334545 
L 257.138182 -365.334545 
L 254.094545 -365.334545 
L 251.050909 -365.334545 
L 248.007273 -365.334545 
L 244.963636 -365.334545 
L 241.92 -365.334545 
L 238.876364 -365.334545 
L 235.832727 -365.334545 
L 232.789091 -365.334545 
L 229.745455 -365.334545 
L 226.701818 -365.334545 
L 223.658182 -365.334545 
L 220.614545 -365.334545 
L 217.570909 -365.334545 
L 214.527273 -365.334545 
L 211.483636 -365.334545 
L 208.44 -365.334545 
L 205.396364 -365.334545 
L 202.352727 -365.334545 
L 199.309091 -365.334545 
L 196.265455 -365.334545 
L 193.221818 -365.334545 
L 190.178182 -365.334545 
L 187.134545 -365.334545 
L 184.090909 -365.334545 
L 181.047273 -365.334545 
L 178.003636 -365.334545 
L 174.96 -365.334545 
L 171.916364 -365.334545 
L 168.872727 -365.334545 
L 165.829091 -365.334545 
L 162.785455 -365.334545 
L 159.741818 -365.334545 
L 156.698182 -365.334545 
L 153.654545 -365.334545 
L 150.610909 -365.334545 
L 147.567273 -365.334545 
L 144.523636 -365.334545 
L 141.48 -365.334545 
L 138.436364 -365.334545 
z
" id="m9817be736d" style="stroke:#ffd700;stroke-opacity:0.2;stroke-width:1.5;"/>
    </defs>
    <g clip-path="url(#p9cf042ad3b)">
     <use style="fill:#ffd700;fill-opacity:0.2;stroke:#ffd700;stroke-opacity:0.2;stroke-width:1.5;" x="0" xlink:href="#m9817be736d" y="432"/>
    </g>
   </g>
   <g id="PolyCollection_3">
    <defs>
     <path d="M 260.181818 -365.334545 
L 260.181818 -68.825455 
L 263.225455 -68.825455 
L 266.269091 -68.825455 
L 269.312727 -68.825455 
L 272.356364 -68.825455 
L 275.4 -68.825455 
L 278.443636 -68.825455 
L 281.487273 -68.825455 
L 284.530909 -68.825455 
L 287.574545 -68.825455 
L 290.618182 -68.825455 
L 293.661818 -68.825455 
L 296.705455 -68.825455 
L 299.749091 -68.825455 
L 302.792727 -68.825455 
L 305.836364 -68.825455 
L 308.88 -68.825455 
L 311.923636 -68.825455 
L 314.967273 -68.825455 
L 318.010909 -68.825455 
L 321.054545 -68.825455 
L 324.098182 -68.825455 
L 327.141818 -68.825455 
L 330.185455 -68.825455 
L 333.229091 -68.825455 
L 336.272727 -68.825455 
L 339.316364 -68.825455 
L 342.36 -68.825455 
L 345.403636 -68.825455 
L 348.447273 -68.825455 
L 351.490909 -68.825455 
L 354.534545 -68.825455 
L 357.578182 -68.825455 
L 360.621818 -68.825455 
L 363.665455 -68.825455 
L 366.709091 -68.825455 
L 369.752727 -68.825455 
L 372.796364 -68.825455 
L 375.84 -68.825455 
L 378.883636 -68.825455 
L 381.927273 -68.825455 
L 381.927273 -365.334545 
L 381.927273 -365.334545 
L 378.883636 -365.334545 
L 375.84 -365.334545 
L 372.796364 -365.334545 
L 369.752727 -365.334545 
L 366.709091 -365.334545 
L 363.665455 -365.334545 
L 360.621818 -365.334545 
L 357.578182 -365.334545 
L 354.534545 -365.334545 
L 351.490909 -365.334545 
L 348.447273 -365.334545 
L 345.403636 -365.334545 
L 342.36 -365.334545 
L 339.316364 -365.334545 
L 336.272727 -365.334545 
L 333.229091 -365.334545 
L 330.185455 -365.334545 
L 327.141818 -365.334545 
L 324.098182 -365.334545 
L 321.054545 -365.334545 
L 318.010909 -365.334545 
L 314.967273 -365.334545 
L 311.923636 -365.334545 
L 308.88 -365.334545 
L 305.836364 -365.334545 
L 302.792727 -365.334545 
L 299.749091 -365.334545 
L 296.705455 -365.334545 
L 293.661818 -365.334545 
L 290.618182 -365.334545 
L 287.574545 -365.334545 
L 284.530909 -365.334545 
L 281.487273 -365.334545 
L 278.443636 -365.334545 
L 275.4 -365.334545 
L 272.356364 -365.334545 
L 269.312727 -365.334545 
L 266.269091 -365.334545 
L 263.225455 -365.334545 
L 260.181818 -365.334545 
z
" id="mc3a2f126b8" style="stroke:#ffd700;stroke-opacity:0.2;stroke-width:1.5;"/>
    </defs>
    <g clip-path="url(#p9cf042ad3b)">
     <use style="fill:#ffd700;fill-opacity:0.2;stroke:#ffd700;stroke-opacity:0.2;stroke-width:1.5;" x="0" xlink:href="#mc3a2f126b8" y="432"/>
    </g>
   </g>
   <g id="PolyCollection_4">
    <defs>
     <path d="M 381.927273 -365.334545 
L 381.927273 -68.825455 
L 384.970909 -68.825455 
L 388.014545 -68.825455 
L 391.058182 -68.825455 
L 394.101818 -68.825455 
L 397.145455 -68.825455 
L 400.189091 -68.825455 
L 403.232727 -68.825455 
L 406.276364 -68.825455 
L 409.32 -68.825455 
L 412.363636 -68.825455 
L 415.407273 -68.825455 
L 418.450909 -68.825455 
L 421.494545 -68.825455 
L 424.538182 -68.825455 
L 427.581818 -68.825455 
L 430.625455 -68.825455 
L 433.669091 -68.825455 
L 436.712727 -68.825455 
L 439.756364 -68.825455 
L 442.8 -68.825455 
L 445.843636 -68.825455 
L 448.887273 -68.825455 
L 451.930909 -68.825455 
L 454.974545 -68.825455 
L 458.018182 -68.825455 
L 461.061818 -68.825455 
L 464.105455 -68.825455 
L 467.149091 -68.825455 
L 470.192727 -68.825455 
L 473.236364 -68.825455 
L 476.28 -68.825455 
L 479.323636 -68.825455 
L 482.367273 -68.825455 
L 485.410909 -68.825455 
L 488.454545 -68.825455 
L 491.498182 -68.825455 
L 494.541818 -68.825455 
L 497.585455 -68.825455 
L 500.629091 -68.825455 
L 503.672727 -68.825455 
L 503.672727 -365.334545 
L 503.672727 -365.334545 
L 500.629091 -365.334545 
L 497.585455 -365.334545 
L 494.541818 -365.334545 
L 491.498182 -365.334545 
L 488.454545 -365.334545 
L 485.410909 -365.334545 
L 482.367273 -365.334545 
L 479.323636 -365.334545 
L 476.28 -365.334545 
L 473.236364 -365.334545 
L 470.192727 -365.334545 
L 467.149091 -365.334545 
L 464.105455 -365.334545 
L 461.061818 -365.334545 
L 458.018182 -365.334545 
L 454.974545 -365.334545 
L 451.930909 -365.334545 
L 448.887273 -365.334545 
L 445.843636 -365.334545 
L 442.8 -365.334545 
L 439.756364 -365.334545 
L 436.712727 -365.334545 
L 433.669091 -365.334545 
L 430.625455 -365.334545 
L 427.581818 -365.334545 
L 424.538182 -365.334545 
L 421.494545 -365.334545 
L 418.450909 -365.334545 
L 415.407273 -365.334545 
L 412.363636 -365.334545 
L 409.32 -365.334545 
L 406.276364 -365.334545 
L 403.232727 -365.334545 
L 400.189091 -365.334545 
L 397.145455 -365.334545 
L 394.101818 -365.334545 
L 391.058182 -365.334545 
L 388.014545 -365.334545 
L 384.970909 -365.334545 
L 381.927273 -365.334545 
z
" id="m56edba5f29" style="stroke:#ffd700;stroke-opacity:0.2;stroke-width:1.5;"/>
    </defs>
    <g clip-path="url(#p9cf042ad3b)">
     <use style="fill:#ffd700;fill-opacity:0.2;stroke:#ffd700;stroke-opacity:0.2;stroke-width:1.5;" x="0" xlink:href="#m56edba5f29" y="432"/>
    </g>
   </g>
   <g id="PolyCollection_5">
    <defs>
     <path d="M 503.672727 -365.334545 
L 503.672727 -68.825455 
L 506.716364 -68.825455 
L 509.76 -68.825455 
L 512.803636 -68.825455 
L 515.847273 -68.825455 
L 518.890909 -68.825455 
L 521.934545 -68.825455 
L 524.978182 -68.825455 
L 528.021818 -68.825455 
L 531.065455 -68.825455 
L 534.109091 -68.825455 
L 537.152727 -68.825455 
L 540.196364 -68.825455 
L 543.24 -68.825455 
L 546.283636 -68.825455 
L 549.327273 -68.825455 
L 552.370909 -68.825455 
L 555.414545 -68.825455 
L 558.458182 -68.825455 
L 561.501818 -68.825455 
L 564.545455 -68.825455 
L 567.589091 -68.825455 
L 570.632727 -68.825455 
L 573.676364 -68.825455 
L 576.72 -68.825455 
L 579.763636 -68.825455 
L 582.807273 -68.825455 
L 585.850909 -68.825455 
L 588.894545 -68.825455 
L 591.938182 -68.825455 
L 594.981818 -68.825455 
L 598.025455 -68.825455 
L 601.069091 -68.825455 
L 604.112727 -68.825455 
L 607.156364 -68.825455 
L 610.2 -68.825455 
L 613.243636 -68.825455 
L 616.287273 -68.825455 
L 619.330909 -68.825455 
L 622.374545 -68.825455 
L 625.418182 -68.825455 
L 625.418182 -365.334545 
L 625.418182 -365.334545 
L 622.374545 -365.334545 
L 619.330909 -365.334545 
L 616.287273 -365.334545 
L 613.243636 -365.334545 
L 610.2 -365.334545 
L 607.156364 -365.334545 
L 604.112727 -365.334545 
L 601.069091 -365.334545 
L 598.025455 -365.334545 
L 594.981818 -365.334545 
L 591.938182 -365.334545 
L 588.894545 -365.334545 
L 585.850909 -365.334545 
L 582.807273 -365.334545 
L 579.763636 -365.334545 
L 576.72 -365.334545 
L 573.676364 -365.334545 
L 570.632727 -365.334545 
L 567.589091 -365.334545 
L 564.545455 -365.334545 
L 561.501818 -365.334545 
L 558.458182 -365.334545 
L 555.414545 -365.334545 
L 552.370909 -365.334545 
L 549.327273 -365.334545 
L 546.283636 -365.334545 
L 543.24 -365.334545 
L 540.196364 -365.334545 
L 537.152727 -365.334545 
L 534.109091 -365.334545 
L 531.065455 -365.334545 
L 528.021818 -365.334545 
L 524.978182 -365.334545 
L 521.934545 -365.334545 
L 518.890909 -365.334545 
L 515.847273 -365.334545 
L 512.803636 -365.334545 
L 509.76 -365.334545 
L 506.716364 -365.334545 
L 503.672727 -365.334545 
z
" id="m0bc51782d6" style="stroke:#ffd700;stroke-opacity:0.2;stroke-width:1.5;"/>
    </defs>
    <g clip-path="url(#p9cf042ad3b)">
     <use style="fill:#ffd700;fill-opacity:0.2;stroke:#ffd700;stroke-opacity:0.2;stroke-width:1.5;" x="0" xlink:href="#m0bc51782d6" y="432"/>
    </g>
   </g>
   <g id="PolyCollection_6">
    <defs>
     <path d="M 625.418182 -365.334545 
L 625.418182 -68.825455 
L 628.461818 -68.825455 
L 631.505455 -68.825455 
L 634.549091 -68.825455 
L 637.592727 -68.825455 
L 640.636364 -68.825455 
L 643.68 -68.825455 
L 646.723636 -68.825455 
L 649.767273 -68.825455 
L 652.810909 -68.825455 
L 655.854545 -68.825455 
L 658.898182 -68.825455 
L 661.941818 -68.825455 
L 664.985455 -68.825455 
L 668.029091 -68.825455 
L 671.072727 -68.825455 
L 674.116364 -68.825455 
L 677.16 -68.825455 
L 680.203636 -68.825455 
L 683.247273 -68.825455 
L 686.290909 -68.825455 
L 689.334545 -68.825455 
L 692.378182 -68.825455 
L 695.421818 -68.825455 
L 698.465455 -68.825455 
L 701.509091 -68.825455 
L 704.552727 -68.825455 
L 707.596364 -68.825455 
L 710.64 -68.825455 
L 713.683636 -68.825455 
L 716.727273 -68.825455 
L 719.770909 -68.825455 
L 722.814545 -68.825455 
L 725.858182 -68.825455 
L 728.901818 -68.825455 
L 731.945455 -68.825455 
L 734.989091 -68.825455 
L 738.032727 -68.825455 
L 741.076364 -68.825455 
L 744.12 -68.825455 
L 747.163636 -68.825455 
L 747.163636 -365.334545 
L 747.163636 -365.334545 
L 744.12 -365.334545 
L 741.076364 -365.334545 
L 738.032727 -365.334545 
L 734.989091 -365.334545 
L 731.945455 -365.334545 
L 728.901818 -365.334545 
L 725.858182 -365.334545 
L 722.814545 -365.334545 
L 719.770909 -365.334545 
L 716.727273 -365.334545 
L 713.683636 -365.334545 
L 710.64 -365.334545 
L 707.596364 -365.334545 
L 704.552727 -365.334545 
L 701.509091 -365.334545 
L 698.465455 -365.334545 
L 695.421818 -365.334545 
L 692.378182 -365.334545 
L 689.334545 -365.334545 
L 686.290909 -365.334545 
L 683.247273 -365.334545 
L 680.203636 -365.334545 
L 677.16 -365.334545 
L 674.116364 -365.334545 
L 671.072727 -365.334545 
L 668.029091 -365.334545 
L 664.985455 -365.334545 
L 661.941818 -365.334545 
L 658.898182 -365.334545 
L 655.854545 -365.334545 
L 652.810909 -365.334545 
L 649.767273 -365.334545 
L 646.723636 -365.334545 
L 643.68 -365.334545 
L 640.636364 -365.334545 
L 637.592727 -365.334545 
L 634.549091 -365.334545 
L 631.505455 -365.334545 
L 628.461818 -365.334545 
L 625.418182 -365.334545 
z
" id="m95861e5938" style="stroke:#ff0000;stroke-opacity:0.2;stroke-width:1.5;"/>
    </defs>
    <g clip-path="url(#p9cf042ad3b)">
     <use style="fill:#ff0000;fill-opacity:0.2;stroke:#ff0000;stroke-opacity:0.2;stroke-width:1.5;" x="0" xlink:href="#m95861e5938" y="432"/>
    </g>
   </g>
   <g id="matplotlib.axis_1">
    <g id="xtick_1">
     <g id="line2d_1">
      <defs>
       <path d="M 0 0 
L 0 9 
" id="mb4afe0d150" style="stroke:#000000;stroke-width:1.875;"/>
      </defs>
      <g>
       <use style="stroke:#000000;stroke-width:1.875;" x="138.436364" xlink:href="#mb4afe0d150" y="378"/>
      </g>
     </g>
     <g id="text_1">
      <!-- 0 -->
      <g transform="translate(133.187301 403.037422)scale(0.165 -0.165)">
       <defs>
        <path d="M 31.78125 66.40625 
Q 24.171875 66.40625 20.328125 58.90625 
Q 16.5 51.421875 16.5 36.375 
Q 16.5 21.390625 20.328125 13.890625 
Q 24.171875 6.390625 31.78125 6.390625 
Q 39.453125 6.390625 43.28125 13.890625 
Q 47.125 21.390625 47.125 36.375 
Q 47.125 51.421875 43.28125 58.90625 
Q 39.453125 66.40625 31.78125 66.40625 
z
M 31.78125 74.21875 
Q 44.046875 74.21875 50.515625 64.515625 
Q 56.984375 54.828125 56.984375 36.375 
Q 56.984375 17.96875 50.515625 8.265625 
Q 44.046875 -1.421875 31.78125 -1.421875 
Q 19.53125 -1.421875 13.0625 8.265625 
Q 6.59375 17.96875 6.59375 36.375 
Q 6.59375 54.828125 13.0625 64.515625 
Q 19.53125 74.21875 31.78125 74.21875 
z
" id="DejaVuSans-48"/>
       </defs>
       <use xlink:href="#DejaVuSans-48"/>
      </g>
     </g>
    </g>
    <g id="xtick_2">
     <g id="line2d_2">
      <g>
       <use style="stroke:#000000;stroke-width:1.875;" x="214.527273" xlink:href="#mb4afe0d150" y="378"/>
      </g>
     </g>
     <g id="text_2">
      <!-- 25 -->
      <g transform="translate(204.029148 403.037422)scale(0.165 -0.165)">
       <defs>
        <path d="M 19.1875 8.296875 
L 53.609375 8.296875 
L 53.609375 0 
L 7.328125 0 
L 7.328125 8.296875 
Q 12.9375 14.109375 22.625 23.890625 
Q 32.328125 33.6875 34.8125 36.53125 
Q 39.546875 41.84375 41.421875 45.53125 
Q 43.3125 49.21875 43.3125 52.78125 
Q 43.3125 58.59375 39.234375 62.25 
Q 35.15625 65.921875 28.609375 65.921875 
Q 23.96875 65.921875 18.8125 64.3125 
Q 13.671875 62.703125 7.8125 59.421875 
L 7.8125 69.390625 
Q 13.765625 71.78125 18.9375 73 
Q 24.125 74.21875 28.421875 74.21875 
Q 39.75 74.21875 46.484375 68.546875 
Q 53.21875 62.890625 53.21875 53.421875 
Q 53.21875 48.921875 51.53125 44.890625 
Q 49.859375 40.875 45.40625 35.40625 
Q 44.1875 33.984375 37.640625 27.21875 
Q 31.109375 20.453125 19.1875 8.296875 
z
" id="DejaVuSans-50"/>
        <path d="M 10.796875 72.90625 
L 49.515625 72.90625 
L 49.515625 64.59375 
L 19.828125 64.59375 
L 19.828125 46.734375 
Q 21.96875 47.46875 24.109375 47.828125 
Q 26.265625 48.1875 28.421875 48.1875 
Q 40.625 48.1875 47.75 41.5 
Q 54.890625 34.8125 54.890625 23.390625 
Q 54.890625 11.625 47.5625 5.09375 
Q 40.234375 -1.421875 26.90625 -1.421875 
Q 22.3125 -1.421875 17.546875 -0.640625 
Q 12.796875 0.140625 7.71875 1.703125 
L 7.71875 11.625 
Q 12.109375 9.234375 16.796875 8.0625 
Q 21.484375 6.890625 26.703125 6.890625 
Q 35.15625 6.890625 40.078125 11.328125 
Q 45.015625 15.765625 45.015625 23.390625 
Q 45.015625 31 40.078125 35.4375 
Q 35.15625 39.890625 26.703125 39.890625 
Q 22.75 39.890625 18.8125 39.015625 
Q 14.890625 38.140625 10.796875 36.28125 
z
" id="DejaVuSans-53"/>
       </defs>
       <use xlink:href="#DejaVuSans-50"/>
       <use x="63.623047" xlink:href="#DejaVuSans-53"/>
      </g>
     </g>
    </g>
    <g id="xtick_3">
     <g id="line2d_3">
      <g>
       <use style="stroke:#000000;stroke-width:1.875;" x="290.618182" xlink:href="#mb4afe0d150" y="378"/>
      </g>
     </g>
     <g id="text_3">
      <!-- 50 -->
      <g transform="translate(280.120057 403.037422)scale(0.165 -0.165)">
       <use xlink:href="#DejaVuSans-53"/>
       <use x="63.623047" xlink:href="#DejaVuSans-48"/>
      </g>
     </g>
    </g>
    <g id="xtick_4">
     <g id="line2d_4">
      <g>
       <use style="stroke:#000000;stroke-width:1.875;" x="366.709091" xlink:href="#mb4afe0d150" y="378"/>
      </g>
     </g>
     <g id="text_4">
      <!-- 75 -->
      <g transform="translate(356.210966 403.037422)scale(0.165 -0.165)">
       <defs>
        <path d="M 8.203125 72.90625 
L 55.078125 72.90625 
L 55.078125 68.703125 
L 28.609375 0 
L 18.3125 0 
L 43.21875 64.59375 
L 8.203125 64.59375 
z
" id="DejaVuSans-55"/>
       </defs>
       <use xlink:href="#DejaVuSans-55"/>
       <use x="63.623047" xlink:href="#DejaVuSans-53"/>
      </g>
     </g>
    </g>
    <g id="xtick_5">
     <g id="line2d_5">
      <g>
       <use style="stroke:#000000;stroke-width:1.875;" x="442.8" xlink:href="#mb4afe0d150" y="378"/>
      </g>
     </g>
     <g id="text_5">
      <!-- 100 -->
      <g transform="translate(427.052813 403.037422)scale(0.165 -0.165)">
       <defs>
        <path d="M 12.40625 8.296875 
L 28.515625 8.296875 
L 28.515625 63.921875 
L 10.984375 60.40625 
L 10.984375 69.390625 
L 28.421875 72.90625 
L 38.28125 72.90625 
L 38.28125 8.296875 
L 54.390625 8.296875 
L 54.390625 0 
L 12.40625 0 
z
" id="DejaVuSans-49"/>
       </defs>
       <use xlink:href="#DejaVuSans-49"/>
       <use x="63.623047" xlink:href="#DejaVuSans-48"/>
       <use x="127.246094" xlink:href="#DejaVuSans-48"/>
      </g>
     </g>
    </g>
    <g id="xtick_6">
     <g id="line2d_6">
      <g>
       <use style="stroke:#000000;stroke-width:1.875;" x="518.890909" xlink:href="#mb4afe0d150" y="378"/>
      </g>
     </g>
     <g id="text_6">
      <!-- 125 -->
      <g transform="translate(503.143722 403.037422)scale(0.165 -0.165)">
       <use xlink:href="#DejaVuSans-49"/>
       <use x="63.623047" xlink:href="#DejaVuSans-50"/>
       <use x="127.246094" xlink:href="#DejaVuSans-53"/>
      </g>
     </g>
    </g>
    <g id="xtick_7">
     <g id="line2d_7">
      <g>
       <use style="stroke:#000000;stroke-width:1.875;" x="594.981818" xlink:href="#mb4afe0d150" y="378"/>
      </g>
     </g>
     <g id="text_7">
      <!-- 150 -->
      <g transform="translate(579.234631 403.037422)scale(0.165 -0.165)">
       <use xlink:href="#DejaVuSans-49"/>
       <use x="63.623047" xlink:href="#DejaVuSans-53"/>
       <use x="127.246094" xlink:href="#DejaVuSans-48"/>
      </g>
     </g>
    </g>
    <g id="xtick_8">
     <g id="line2d_8">
      <g>
       <use style="stroke:#000000;stroke-width:1.875;" x="671.072727" xlink:href="#mb4afe0d150" y="378"/>
      </g>
     </g>
     <g id="text_8">
      <!-- 175 -->
      <g transform="translate(655.32554 403.037422)scale(0.165 -0.165)">
       <use xlink:href="#DejaVuSans-49"/>
       <use x="63.623047" xlink:href="#DejaVuSans-55"/>
       <use x="127.246094" xlink:href="#DejaVuSans-53"/>
      </g>
     </g>
    </g>
    <g id="xtick_9">
     <g id="line2d_9">
      <g>
       <use style="stroke:#000000;stroke-width:1.875;" x="747.163636" xlink:href="#mb4afe0d150" y="378"/>
      </g>
     </g>
     <g id="text_9">
      <!-- 200 -->
      <g transform="translate(731.416449 403.037422)scale(0.165 -0.165)">
       <use xlink:href="#DejaVuSans-50"/>
       <use x="63.623047" xlink:href="#DejaVuSans-48"/>
       <use x="127.246094" xlink:href="#DejaVuSans-48"/>
      </g>
     </g>
    </g>
    <g id="text_10">
     <!-- trial -->
     <g transform="translate(425.055938 424.146094)scale(0.18 -0.18)">
      <defs>
       <path d="M 18.3125 70.21875 
L 18.3125 54.6875 
L 36.8125 54.6875 
L 36.8125 47.703125 
L 18.3125 47.703125 
L 18.3125 18.015625 
Q 18.3125 11.328125 20.140625 9.421875 
Q 21.96875 7.515625 27.59375 7.515625 
L 36.8125 7.515625 
L 36.8125 0 
L 27.59375 0 
Q 17.1875 0 13.234375 3.875 
Q 9.28125 7.765625 9.28125 18.015625 
L 9.28125 47.703125 
L 2.6875 47.703125 
L 2.6875 54.6875 
L 9.28125 54.6875 
L 9.28125 70.21875 
z
" id="DejaVuSans-116"/>
       <path d="M 41.109375 46.296875 
Q 39.59375 47.171875 37.8125 47.578125 
Q 36.03125 48 33.890625 48 
Q 26.265625 48 22.1875 43.046875 
Q 18.109375 38.09375 18.109375 28.8125 
L 18.109375 0 
L 9.078125 0 
L 9.078125 54.6875 
L 18.109375 54.6875 
L 18.109375 46.1875 
Q 20.953125 51.171875 25.484375 53.578125 
Q 30.03125 56 36.53125 56 
Q 37.453125 56 38.578125 55.875 
Q 39.703125 55.765625 41.0625 55.515625 
z
" id="DejaVuSans-114"/>
       <path d="M 9.421875 54.6875 
L 18.40625 54.6875 
L 18.40625 0 
L 9.421875 0 
z
M 9.421875 75.984375 
L 18.40625 75.984375 
L 18.40625 64.59375 
L 9.421875 64.59375 
z
" id="DejaVuSans-105"/>
       <path d="M 34.28125 27.484375 
Q 23.390625 27.484375 19.1875 25 
Q 14.984375 22.515625 14.984375 16.5 
Q 14.984375 11.71875 18.140625 8.90625 
Q 21.296875 6.109375 26.703125 6.109375 
Q 34.1875 6.109375 38.703125 11.40625 
Q 43.21875 16.703125 43.21875 25.484375 
L 43.21875 27.484375 
z
M 52.203125 31.203125 
L 52.203125 0 
L 43.21875 0 
L 43.21875 8.296875 
Q 40.140625 3.328125 35.546875 0.953125 
Q 30.953125 -1.421875 24.3125 -1.421875 
Q 15.921875 -1.421875 10.953125 3.296875 
Q 6 8.015625 6 15.921875 
Q 6 25.140625 12.171875 29.828125 
Q 18.359375 34.515625 30.609375 34.515625 
L 43.21875 34.515625 
L 43.21875 35.40625 
Q 43.21875 41.609375 39.140625 45 
Q 35.0625 48.390625 27.6875 48.390625 
Q 23 48.390625 18.546875 47.265625 
Q 14.109375 46.140625 10.015625 43.890625 
L 10.015625 52.203125 
Q 14.9375 54.109375 19.578125 55.046875 
Q 24.21875 56 28.609375 56 
Q 40.484375 56 46.34375 49.84375 
Q 52.203125 43.703125 52.203125 31.203125 
z
" id="DejaVuSans-97"/>
       <path d="M 9.421875 75.984375 
L 18.40625 75.984375 
L 18.40625 0 
L 9.421875 0 
z
" id="DejaVuSans-108"/>
      </defs>
      <use xlink:href="#DejaVuSans-116"/>
      <use x="39.208984" xlink:href="#DejaVuSans-114"/>
      <use x="80.322266" xlink:href="#DejaVuSans-105"/>
      <use x="108.105469" xlink:href="#DejaVuSans-97"/>
      <use x="169.384766" xlink:href="#DejaVuSans-108"/>
     </g>
    </g>
   </g>
   <g id="matplotlib.axis_2">
    <g id="ytick_1">
     <g id="line2d_10">
      <defs>
       <path d="M 0 0 
L -9 0 
" id="mc8af9c28ae" style="stroke:#000000;stroke-width:1.875;"/>
      </defs>
      <g>
       <use style="stroke:#000000;stroke-width:1.875;" x="108" xlink:href="#mc8af9c28ae" y="363.174545"/>
      </g>
     </g>
     <g id="text_11">
      <!-- 0.0 -->
      <g transform="translate(69.259844 369.443256)scale(0.165 -0.165)">
       <defs>
        <path d="M 10.6875 12.40625 
L 21 12.40625 
L 21 0 
L 10.6875 0 
z
" id="DejaVuSans-46"/>
       </defs>
       <use xlink:href="#DejaVuSans-48"/>
       <use x="63.623047" xlink:href="#DejaVuSans-46"/>
       <use x="95.410156" xlink:href="#DejaVuSans-48"/>
      </g>
     </g>
    </g>
    <g id="ytick_2">
     <g id="line2d_11">
      <g>
       <use style="stroke:#000000;stroke-width:1.875;" x="108" xlink:href="#mc8af9c28ae" y="306.696623"/>
      </g>
     </g>
     <g id="text_12">
      <!-- 0.2 -->
      <g transform="translate(69.259844 312.965334)scale(0.165 -0.165)">
       <use xlink:href="#DejaVuSans-48"/>
       <use x="63.623047" xlink:href="#DejaVuSans-46"/>
       <use x="95.410156" xlink:href="#DejaVuSans-50"/>
      </g>
     </g>
    </g>
    <g id="ytick_3">
     <g id="line2d_12">
      <g>
       <use style="stroke:#000000;stroke-width:1.875;" x="108" xlink:href="#mc8af9c28ae" y="250.218701"/>
      </g>
     </g>
     <g id="text_13">
      <!-- 0.4 -->
      <g transform="translate(69.259844 256.487412)scale(0.165 -0.165)">
       <defs>
        <path d="M 37.796875 64.3125 
L 12.890625 25.390625 
L 37.796875 25.390625 
z
M 35.203125 72.90625 
L 47.609375 72.90625 
L 47.609375 25.390625 
L 58.015625 25.390625 
L 58.015625 17.1875 
L 47.609375 17.1875 
L 47.609375 0 
L 37.796875 0 
L 37.796875 17.1875 
L 4.890625 17.1875 
L 4.890625 26.703125 
z
" id="DejaVuSans-52"/>
       </defs>
       <use xlink:href="#DejaVuSans-48"/>
       <use x="63.623047" xlink:href="#DejaVuSans-46"/>
       <use x="95.410156" xlink:href="#DejaVuSans-52"/>
      </g>
     </g>
    </g>
    <g id="ytick_4">
     <g id="line2d_13">
      <g>
       <use style="stroke:#000000;stroke-width:1.875;" x="108" xlink:href="#mc8af9c28ae" y="193.740779"/>
      </g>
     </g>
     <g id="text_14">
      <!-- 0.6 -->
      <g transform="translate(69.259844 200.00949)scale(0.165 -0.165)">
       <defs>
        <path d="M 33.015625 40.375 
Q 26.375 40.375 22.484375 35.828125 
Q 18.609375 31.296875 18.609375 23.390625 
Q 18.609375 15.53125 22.484375 10.953125 
Q 26.375 6.390625 33.015625 6.390625 
Q 39.65625 6.390625 43.53125 10.953125 
Q 47.40625 15.53125 47.40625 23.390625 
Q 47.40625 31.296875 43.53125 35.828125 
Q 39.65625 40.375 33.015625 40.375 
z
M 52.59375 71.296875 
L 52.59375 62.3125 
Q 48.875 64.0625 45.09375 64.984375 
Q 41.3125 65.921875 37.59375 65.921875 
Q 27.828125 65.921875 22.671875 59.328125 
Q 17.53125 52.734375 16.796875 39.40625 
Q 19.671875 43.65625 24.015625 45.921875 
Q 28.375 48.1875 33.59375 48.1875 
Q 44.578125 48.1875 50.953125 41.515625 
Q 57.328125 34.859375 57.328125 23.390625 
Q 57.328125 12.15625 50.6875 5.359375 
Q 44.046875 -1.421875 33.015625 -1.421875 
Q 20.359375 -1.421875 13.671875 8.265625 
Q 6.984375 17.96875 6.984375 36.375 
Q 6.984375 53.65625 15.1875 63.9375 
Q 23.390625 74.21875 37.203125 74.21875 
Q 40.921875 74.21875 44.703125 73.484375 
Q 48.484375 72.75 52.59375 71.296875 
z
" id="DejaVuSans-54"/>
       </defs>
       <use xlink:href="#DejaVuSans-48"/>
       <use x="63.623047" xlink:href="#DejaVuSans-46"/>
       <use x="95.410156" xlink:href="#DejaVuSans-54"/>
      </g>
     </g>
    </g>
    <g id="ytick_5">
     <g id="line2d_14">
      <g>
       <use style="stroke:#000000;stroke-width:1.875;" x="108" xlink:href="#mc8af9c28ae" y="137.262857"/>
      </g>
     </g>
     <g id="text_15">
      <!-- 0.8 -->
      <g transform="translate(69.259844 143.531568)scale(0.165 -0.165)">
       <defs>
        <path d="M 31.78125 34.625 
Q 24.75 34.625 20.71875 30.859375 
Q 16.703125 27.09375 16.703125 20.515625 
Q 16.703125 13.921875 20.71875 10.15625 
Q 24.75 6.390625 31.78125 6.390625 
Q 38.8125 6.390625 42.859375 10.171875 
Q 46.921875 13.96875 46.921875 20.515625 
Q 46.921875 27.09375 42.890625 30.859375 
Q 38.875 34.625 31.78125 34.625 
z
M 21.921875 38.8125 
Q 15.578125 40.375 12.03125 44.71875 
Q 8.5 49.078125 8.5 55.328125 
Q 8.5 64.0625 14.71875 69.140625 
Q 20.953125 74.21875 31.78125 74.21875 
Q 42.671875 74.21875 48.875 69.140625 
Q 55.078125 64.0625 55.078125 55.328125 
Q 55.078125 49.078125 51.53125 44.71875 
Q 48 40.375 41.703125 38.8125 
Q 48.828125 37.15625 52.796875 32.3125 
Q 56.78125 27.484375 56.78125 20.515625 
Q 56.78125 9.90625 50.3125 4.234375 
Q 43.84375 -1.421875 31.78125 -1.421875 
Q 19.734375 -1.421875 13.25 4.234375 
Q 6.78125 9.90625 6.78125 20.515625 
Q 6.78125 27.484375 10.78125 32.3125 
Q 14.796875 37.15625 21.921875 38.8125 
z
M 18.3125 54.390625 
Q 18.3125 48.734375 21.84375 45.5625 
Q 25.390625 42.390625 31.78125 42.390625 
Q 38.140625 42.390625 41.71875 45.5625 
Q 45.3125 48.734375 45.3125 54.390625 
Q 45.3125 60.0625 41.71875 63.234375 
Q 38.140625 66.40625 31.78125 66.40625 
Q 25.390625 66.40625 21.84375 63.234375 
Q 18.3125 60.0625 18.3125 54.390625 
z
" id="DejaVuSans-56"/>
       </defs>
       <use xlink:href="#DejaVuSans-48"/>
       <use x="63.623047" xlink:href="#DejaVuSans-46"/>
       <use x="95.410156" xlink:href="#DejaVuSans-56"/>
      </g>
     </g>
    </g>
    <g id="ytick_6">
     <g id="line2d_15">
      <g>
       <use style="stroke:#000000;stroke-width:1.875;" x="108" xlink:href="#mc8af9c28ae" y="80.784935"/>
      </g>
     </g>
     <g id="text_16">
      <!-- 1.0 -->
      <g transform="translate(69.259844 87.053646)scale(0.165 -0.165)">
       <use xlink:href="#DejaVuSans-49"/>
       <use x="63.623047" xlink:href="#DejaVuSans-46"/>
       <use x="95.410156" xlink:href="#DejaVuSans-48"/>
      </g>
     </g>
    </g>
    <g id="text_17">
     <!-- prediction accuracy -->
     <g transform="translate(61.516406 303.537656)rotate(-90)scale(0.18 -0.18)">
      <defs>
       <path d="M 18.109375 8.203125 
L 18.109375 -20.796875 
L 9.078125 -20.796875 
L 9.078125 54.6875 
L 18.109375 54.6875 
L 18.109375 46.390625 
Q 20.953125 51.265625 25.265625 53.625 
Q 29.59375 56 35.59375 56 
Q 45.5625 56 51.78125 48.09375 
Q 58.015625 40.1875 58.015625 27.296875 
Q 58.015625 14.40625 51.78125 6.484375 
Q 45.5625 -1.421875 35.59375 -1.421875 
Q 29.59375 -1.421875 25.265625 0.953125 
Q 20.953125 3.328125 18.109375 8.203125 
z
M 48.6875 27.296875 
Q 48.6875 37.203125 44.609375 42.84375 
Q 40.53125 48.484375 33.40625 48.484375 
Q 26.265625 48.484375 22.1875 42.84375 
Q 18.109375 37.203125 18.109375 27.296875 
Q 18.109375 17.390625 22.1875 11.75 
Q 26.265625 6.109375 33.40625 6.109375 
Q 40.53125 6.109375 44.609375 11.75 
Q 48.6875 17.390625 48.6875 27.296875 
z
" id="DejaVuSans-112"/>
       <path d="M 56.203125 29.59375 
L 56.203125 25.203125 
L 14.890625 25.203125 
Q 15.484375 15.921875 20.484375 11.0625 
Q 25.484375 6.203125 34.421875 6.203125 
Q 39.59375 6.203125 44.453125 7.46875 
Q 49.3125 8.734375 54.109375 11.28125 
L 54.109375 2.78125 
Q 49.265625 0.734375 44.1875 -0.34375 
Q 39.109375 -1.421875 33.890625 -1.421875 
Q 20.796875 -1.421875 13.15625 6.1875 
Q 5.515625 13.8125 5.515625 26.8125 
Q 5.515625 40.234375 12.765625 48.109375 
Q 20.015625 56 32.328125 56 
Q 43.359375 56 49.78125 48.890625 
Q 56.203125 41.796875 56.203125 29.59375 
z
M 47.21875 32.234375 
Q 47.125 39.59375 43.09375 43.984375 
Q 39.0625 48.390625 32.421875 48.390625 
Q 24.90625 48.390625 20.390625 44.140625 
Q 15.875 39.890625 15.1875 32.171875 
z
" id="DejaVuSans-101"/>
       <path d="M 45.40625 46.390625 
L 45.40625 75.984375 
L 54.390625 75.984375 
L 54.390625 0 
L 45.40625 0 
L 45.40625 8.203125 
Q 42.578125 3.328125 38.25 0.953125 
Q 33.9375 -1.421875 27.875 -1.421875 
Q 17.96875 -1.421875 11.734375 6.484375 
Q 5.515625 14.40625 5.515625 27.296875 
Q 5.515625 40.1875 11.734375 48.09375 
Q 17.96875 56 27.875 56 
Q 33.9375 56 38.25 53.625 
Q 42.578125 51.265625 45.40625 46.390625 
z
M 14.796875 27.296875 
Q 14.796875 17.390625 18.875 11.75 
Q 22.953125 6.109375 30.078125 6.109375 
Q 37.203125 6.109375 41.296875 11.75 
Q 45.40625 17.390625 45.40625 27.296875 
Q 45.40625 37.203125 41.296875 42.84375 
Q 37.203125 48.484375 30.078125 48.484375 
Q 22.953125 48.484375 18.875 42.84375 
Q 14.796875 37.203125 14.796875 27.296875 
z
" id="DejaVuSans-100"/>
       <path d="M 48.78125 52.59375 
L 48.78125 44.1875 
Q 44.96875 46.296875 41.140625 47.34375 
Q 37.3125 48.390625 33.40625 48.390625 
Q 24.65625 48.390625 19.8125 42.84375 
Q 14.984375 37.3125 14.984375 27.296875 
Q 14.984375 17.28125 19.8125 11.734375 
Q 24.65625 6.203125 33.40625 6.203125 
Q 37.3125 6.203125 41.140625 7.25 
Q 44.96875 8.296875 48.78125 10.40625 
L 48.78125 2.09375 
Q 45.015625 0.34375 40.984375 -0.53125 
Q 36.96875 -1.421875 32.421875 -1.421875 
Q 20.0625 -1.421875 12.78125 6.34375 
Q 5.515625 14.109375 5.515625 27.296875 
Q 5.515625 40.671875 12.859375 48.328125 
Q 20.21875 56 33.015625 56 
Q 37.15625 56 41.109375 55.140625 
Q 45.0625 54.296875 48.78125 52.59375 
z
" id="DejaVuSans-99"/>
       <path d="M 30.609375 48.390625 
Q 23.390625 48.390625 19.1875 42.75 
Q 14.984375 37.109375 14.984375 27.296875 
Q 14.984375 17.484375 19.15625 11.84375 
Q 23.34375 6.203125 30.609375 6.203125 
Q 37.796875 6.203125 41.984375 11.859375 
Q 46.1875 17.53125 46.1875 27.296875 
Q 46.1875 37.015625 41.984375 42.703125 
Q 37.796875 48.390625 30.609375 48.390625 
z
M 30.609375 56 
Q 42.328125 56 49.015625 48.375 
Q 55.71875 40.765625 55.71875 27.296875 
Q 55.71875 13.875 49.015625 6.21875 
Q 42.328125 -1.421875 30.609375 -1.421875 
Q 18.84375 -1.421875 12.171875 6.21875 
Q 5.515625 13.875 5.515625 27.296875 
Q 5.515625 40.765625 12.171875 48.375 
Q 18.84375 56 30.609375 56 
z
" id="DejaVuSans-111"/>
       <path d="M 54.890625 33.015625 
L 54.890625 0 
L 45.90625 0 
L 45.90625 32.71875 
Q 45.90625 40.484375 42.875 44.328125 
Q 39.84375 48.1875 33.796875 48.1875 
Q 26.515625 48.1875 22.3125 43.546875 
Q 18.109375 38.921875 18.109375 30.90625 
L 18.109375 0 
L 9.078125 0 
L 9.078125 54.6875 
L 18.109375 54.6875 
L 18.109375 46.1875 
Q 21.34375 51.125 25.703125 53.5625 
Q 30.078125 56 35.796875 56 
Q 45.21875 56 50.046875 50.171875 
Q 54.890625 44.34375 54.890625 33.015625 
z
" id="DejaVuSans-110"/>
       <path id="DejaVuSans-32"/>
       <path d="M 8.5 21.578125 
L 8.5 54.6875 
L 17.484375 54.6875 
L 17.484375 21.921875 
Q 17.484375 14.15625 20.5 10.265625 
Q 23.53125 6.390625 29.59375 6.390625 
Q 36.859375 6.390625 41.078125 11.03125 
Q 45.3125 15.671875 45.3125 23.6875 
L 45.3125 54.6875 
L 54.296875 54.6875 
L 54.296875 0 
L 45.3125 0 
L 45.3125 8.40625 
Q 42.046875 3.421875 37.71875 1 
Q 33.40625 -1.421875 27.6875 -1.421875 
Q 18.265625 -1.421875 13.375 4.4375 
Q 8.5 10.296875 8.5 21.578125 
z
M 31.109375 56 
z
" id="DejaVuSans-117"/>
       <path d="M 32.171875 -5.078125 
Q 28.375 -14.84375 24.75 -17.8125 
Q 21.140625 -20.796875 15.09375 -20.796875 
L 7.90625 -20.796875 
L 7.90625 -13.28125 
L 13.1875 -13.28125 
Q 16.890625 -13.28125 18.9375 -11.515625 
Q 21 -9.765625 23.484375 -3.21875 
L 25.09375 0.875 
L 2.984375 54.6875 
L 12.5 54.6875 
L 29.59375 11.921875 
L 46.6875 54.6875 
L 56.203125 54.6875 
z
" id="DejaVuSans-121"/>
      </defs>
      <use xlink:href="#DejaVuSans-112"/>
      <use x="63.476562" xlink:href="#DejaVuSans-114"/>
      <use x="102.339844" xlink:href="#DejaVuSans-101"/>
      <use x="163.863281" xlink:href="#DejaVuSans-100"/>
      <use x="227.339844" xlink:href="#DejaVuSans-105"/>
      <use x="255.123047" xlink:href="#DejaVuSans-99"/>
      <use x="310.103516" xlink:href="#DejaVuSans-116"/>
      <use x="349.3125" xlink:href="#DejaVuSans-105"/>
      <use x="377.095703" xlink:href="#DejaVuSans-111"/>
      <use x="438.277344" xlink:href="#DejaVuSans-110"/>
      <use x="501.65625" xlink:href="#DejaVuSans-32"/>
      <use x="533.443359" xlink:href="#DejaVuSans-97"/>
      <use x="594.722656" xlink:href="#DejaVuSans-99"/>
      <use x="649.703125" xlink:href="#DejaVuSans-99"/>
      <use x="704.683594" xlink:href="#DejaVuSans-117"/>
      <use x="768.0625" xlink:href="#DejaVuSans-114"/>
      <use x="809.175781" xlink:href="#DejaVuSans-97"/>
      <use x="870.455078" xlink:href="#DejaVuSans-99"/>
      <use x="925.435547" xlink:href="#DejaVuSans-121"/>
     </g>
    </g>
   </g>
   <g id="line2d_16">
    <path clip-path="url(#p9cf042ad3b)" d="M 138.436364 155.304416 
L 141.48 253.983896 
L 144.523636 191.285217 
L 147.567273 203.761056 
L 150.610909 206.291429 
L 156.698182 186.154193 
L 159.741818 196.307957 
L 162.785455 180.9877 
L 165.829091 164.619351 
L 168.872727 186.154193 
L 171.916364 194.651713 
L 174.96 182.630368 
L 178.003636 161.467681 
L 181.047273 200.586588 
L 184.090909 201.271169 
L 187.134545 172.469874 
L 190.178182 170.822202 
L 193.221818 163.840703 
L 196.265455 180.707413 
L 199.309091 177.60423 
L 202.352727 206.774146 
L 205.396364 179.621299 
L 208.44 169.295111 
L 211.483636 181.939422 
L 214.527273 221.97974 
L 217.570909 165.888653 
L 220.614545 176.137271 
L 223.658182 177.60423 
L 226.701818 212.242167 
L 229.745455 224.151968 
L 232.789091 205.843191 
L 235.832727 169.535955 
L 238.876364 151.382338 
L 241.92 172.370755 
L 244.963636 156.650801 
L 248.007273 248.58166 
L 251.050909 177.29784 
L 254.094545 209.143849 
L 257.138182 191.451134 
L 260.181818 178.401097 
L 263.225455 202.899361 
L 266.269091 158.813643 
L 269.312727 207.65563 
L 272.356364 162.078914 
L 275.4 210.832782 
L 278.443636 192.149852 
L 281.487273 185.672505 
L 284.530909 184.195215 
L 287.574545 179.193436 
L 290.618182 199.318846 
L 293.661818 200.257463 
L 296.705455 167.323687 
L 299.749091 218.264087 
L 302.792727 165.501818 
L 305.836364 212.242167 
L 308.88 137.262857 
L 311.923636 184.327792 
L 314.967273 186.681039 
L 318.010909 178.836883 
L 321.054545 167.070649 
L 324.098182 185.672505 
L 327.141818 198.085235 
L 330.185455 212.870398 
L 333.229091 164.308623 
L 336.272727 195.970171 
L 339.316364 203.761056 
L 342.36 192.149852 
L 345.403636 214.347589 
L 348.447273 211.118601 
L 351.490909 204.081807 
L 354.534545 197.774917 
L 357.578182 181.939422 
L 360.621818 180.002906 
L 363.665455 188.172533 
L 366.709091 231.650617 
L 369.752727 172.14628 
L 372.796364 211.118601 
L 375.84 170.636175 
L 378.883636 157.483348 
L 381.927273 193.740779 
L 384.970909 202.899361 
L 388.014545 186.681039 
L 391.058182 230.695469 
L 394.101818 148.558442 
L 397.145455 196.83546 
L 400.189091 148.558442 
L 403.232727 214.135584 
L 406.276364 152.376667 
L 409.32 241.59013 
L 412.363636 195.970171 
L 415.407273 206.715437 
L 418.450909 180.872392 
L 421.494545 221.97974 
L 424.538182 168.285941 
L 427.581818 173.676254 
L 430.625455 165.501818 
L 433.669091 201.809054 
L 436.712727 189.706642 
L 439.756364 205.227814 
L 442.8 191.723711 
L 445.843636 209.594231 
L 448.887273 160.331304 
L 451.930909 142.557662 
L 454.974545 161.467681 
L 458.018182 187.750697 
L 461.061818 167.070649 
L 464.105455 160.865571 
L 467.149091 172.26326 
L 470.192727 209.143849 
L 473.236364 212.308863 
L 476.28 187.259706 
L 479.323636 180.002906 
L 482.367273 215.256178 
L 485.410909 158.813643 
L 488.454545 203.153766 
L 491.498182 204.081807 
L 494.541818 192.910222 
L 497.585455 158.813643 
L 500.629091 223.913916 
L 503.672727 162.874938 
L 506.716364 201.215798 
L 509.76 139.463296 
L 512.803636 194.525195 
L 515.847273 181.939422 
L 518.890909 208.059126 
L 521.934545 173.570093 
L 524.978182 182.758961 
L 528.021818 182.155564 
L 531.065455 206.715437 
L 534.109091 155.794675 
L 537.152727 195.37782 
L 540.196364 162.020302 
L 543.24 180.872392 
L 546.283636 174.914805 
L 549.327273 164.053666 
L 552.370909 155.535126 
L 555.414545 183.151169 
L 558.458182 156.985306 
L 561.501818 201.14772 
L 564.545455 186.681039 
L 567.589091 195.26721 
L 570.632727 167.070649 
L 573.676364 168.802476 
L 576.72 191.451134 
L 579.763636 203.013274 
L 582.807273 199.864891 
L 585.850909 189.098758 
L 588.894545 154.854341 
L 591.938182 170.822202 
L 594.981818 122.932638 
L 598.025455 219.991081 
L 601.069091 226.392078 
L 604.112727 176.240578 
L 607.156364 188.172533 
L 610.2 203.563027 
L 613.243636 160.922527 
L 616.287273 200.703811 
L 619.330909 184.195215 
L 622.374545 166.937698 
L 625.418182 204.572162 
L 631.505455 141.842148 
L 634.549091 214.738981 
L 637.592727 176.240578 
L 640.636364 221.97974 
L 643.68 201.271169 
L 646.723636 211.894397 
L 649.767273 160.207013 
L 652.810909 213.911466 
L 655.854545 205.036364 
L 658.898182 210.531513 
L 661.941818 183.818982 
L 664.985455 189.396324 
L 668.029091 170.636175 
L 671.072727 172.370755 
L 674.116364 188.172533 
L 677.16 196.83546 
L 680.203636 226.534411 
L 683.247273 192.149852 
L 686.290909 173.371693 
L 689.334545 197.326679 
L 692.378182 179.007408 
L 695.421818 169.757004 
L 698.465455 210.213506 
L 701.509091 193.740779 
L 704.552727 182.268701 
L 707.596364 178.401097 
L 710.64 174.914805 
L 713.683636 176.433029 
L 716.727273 176.18683 
L 719.770909 210.832782 
L 722.814545 181.10756 
L 725.858182 212.811246 
L 728.901818 181.362057 
L 731.945455 155.535126 
L 734.989091 205.843191 
L 738.032727 167.674046 
L 741.076364 177.493706 
L 744.12 159.42508 
L 744.12 159.42508 
" style="fill:none;stroke:#800080;stroke-linecap:square;stroke-width:2.25;"/>
   </g>
   <g id="line2d_17">
    <path clip-path="url(#p9cf042ad3b)" d="M 108 221.97974 
L 777.6 221.97974 
" style="fill:none;stroke:#000000;stroke-linecap:square;stroke-width:2.25;"/>
   </g>
   <g id="patch_3">
    <path d="M 108 378 
L 108 51.84 
" style="fill:none;stroke:#000000;stroke-linecap:square;stroke-linejoin:miter;stroke-width:1.875;"/>
   </g>
   <g id="patch_4">
    <path d="M 777.6 378 
L 777.6 51.84 
" style="fill:none;stroke:#000000;stroke-linecap:square;stroke-linejoin:miter;stroke-width:1.875;"/>
   </g>
   <g id="patch_5">
    <path d="M 108 378 
L 777.6 378 
" style="fill:none;stroke:#000000;stroke-linecap:square;stroke-linejoin:miter;stroke-width:1.875;"/>
   </g>
   <g id="patch_6">
    <path d="M 108 51.84 
L 777.6 51.84 
" style="fill:none;stroke:#000000;stroke-linecap:square;stroke-linejoin:miter;stroke-width:1.875;"/>
   </g>
  </g>
 </g>
 <defs>
  <clipPath id="p9cf042ad3b">
   <rect height="326.16" width="669.6" x="108" y="51.84"/>
  </clipPath>
 </defs>
</svg>
