<?xml version="1.0" encoding="utf-8" standalone="no"?>
<!DOCTYPE svg PUBLIC "-//W3C//DTD SVG 1.1//EN"
  "http://www.w3.org/Graphics/SVG/1.1/DTD/svg11.dtd">
<!-- Created with matplotlib (https://matplotlib.org/) -->
<svg height="432pt" version="1.1" viewBox="0 0 864 432" width="864pt" xmlns="http://www.w3.org/2000/svg" xmlns:xlink="http://www.w3.org/1999/xlink">
 <metadata>
  <rdf:RDF xmlns:cc="http://creativecommons.org/ns#" xmlns:dc="http://purl.org/dc/elements/1.1/" xmlns:rdf="http://www.w3.org/1999/02/22-rdf-syntax-ns#">
   <cc:Work>
    <dc:type rdf:resource="http://purl.org/dc/dcmitype/StillImage"/>
    <dc:date>2023-04-16T12:00:46.902126</dc:date>
    <dc:format>image/svg+xml</dc:format>
    <dc:creator>
     <cc:Agent>
      <dc:title>Matplotlib v3.3.4, https://matplotlib.org/</dc:title>
     </cc:Agent>
    </dc:creator>
   </cc:Work>
  </rdf:RDF>
 </metadata>
 <defs>
  <style type="text/css">*{stroke-linecap:butt;stroke-linejoin:round;}</style>
 </defs>
 <g id="figure_1">
  <g id="patch_1">
   <path d="M 0 432 
L 864 432 
L 864 0 
L 0 0 
z
" style="fill:none;"/>
  </g>
  <g id="axes_1">
   <g id="patch_2">
    <path d="M 108 378 
L 777.6 378 
L 777.6 51.84 
L 108 51.84 
z
" style="fill:#ffffff;"/>
   </g>
   <g id="PolyCollection_1">
    <defs>
     <path d="M 138.436364 -284.53974 
L 138.436364 -221.786494 
L 141.48 -133.371651 
L 144.523636 -158.47295 
L 147.567273 -188.74433 
L 150.610909 -152.094186 
L 153.654545 -141.85725 
L 156.698182 -239.089778 
L 159.741818 -146.192471 
L 162.785455 -193.076883 
L 165.829091 -202.588954 
L 168.872727 -187.246904 
L 171.916364 -172.863732 
L 174.96 -174.194712 
L 178.003636 -203.881355 
L 181.047273 -189.188239 
L 184.090909 -185.103529 
L 187.134545 -167.047928 
L 190.178182 -188.841039 
L 193.221818 -187.246904 
L 196.265455 -127.250891 
L 199.309091 -221.593604 
L 202.352727 -180.190371 
L 205.396364 -181.007629 
L 208.44 -141.562172 
L 211.483636 -225.148275 
L 214.527273 -174.721558 
L 217.570909 -185.546494 
L 220.614545 -193.782857 
L 223.658182 -194.233896 
L 226.701818 -151.189091 
L 229.745455 -204.217733 
L 232.789091 -136.808139 
L 235.832727 -190.40987 
L 238.876364 -187.123805 
L 241.92 -184.558901 
L 244.963636 -177.747161 
L 248.007273 -165.432427 
L 251.050909 -216.536943 
L 254.094545 -194.814665 
L 257.138182 -201.462999 
L 260.181818 -193.516971 
L 263.225455 -169.979942 
L 266.269091 -190.311818 
L 269.312727 -201.951985 
L 272.356364 -180.295038 
L 275.4 -201.304531 
L 278.443636 -239.089778 
L 281.487273 -154.770119 
L 284.530909 -206.098182 
L 287.574545 -186.125754 
L 290.618182 -202.588954 
L 293.661818 -218.95664 
L 296.705455 -197.184368 
L 299.749091 -189.849573 
L 302.792727 -171.920074 
L 305.836364 -197.077403 
L 308.88 -200.076964 
L 311.923636 -176.213053 
L 314.967273 -161.484545 
L 318.010909 -181.781299 
L 321.054545 -190.40987 
L 324.098182 -199.159121 
L 327.141818 -183.546234 
L 330.185455 -180.069847 
L 333.229091 -209.922208 
L 336.272727 -180.295038 
L 339.316364 -186.487792 
L 342.36 -168.492376 
L 345.403636 -212.413392 
L 348.447273 -214.726753 
L 351.490909 -178.643636 
L 354.534545 -218.867276 
L 357.578182 -204.519163 
L 360.621818 -157.072208 
L 363.665455 -193.883711 
L 366.709091 -173.092388 
L 369.752727 -184.875979 
L 372.796364 -190.40987 
L 375.84 -194.755956 
L 378.883636 -183.695805 
L 381.927273 -188.145008 
L 384.970909 -168.258416 
L 388.014545 -208.031601 
L 391.058182 -206.304607 
L 394.101818 -227.918193 
L 397.145455 -245.845807 
L 400.189091 -178.251429 
L 403.232727 -187.123805 
L 406.276364 -185.546494 
L 409.32 -175.675577 
L 412.363636 -197.561895 
L 415.407273 -228.238944 
L 418.450909 -189.849573 
L 421.494545 -181.781299 
L 424.538182 -217.652411 
L 427.581818 -196.783247 
L 430.625455 -223.940874 
L 433.669091 -210.02026 
L 436.712727 -226.527594 
L 439.756364 -154.978217 
L 442.8 -197.184368 
L 445.843636 -135.402727 
L 448.887273 -168.043426 
L 451.930909 -176.797953 
L 454.974545 -217.08 
L 458.018182 -204.054282 
L 461.061818 -201.714683 
L 464.105455 -208.137662 
L 467.149091 -173.713024 
L 470.192727 -226.523549 
L 473.236364 -170.670888 
L 476.28 -197.917848 
L 479.323636 -182.624253 
L 482.367273 -192.370909 
L 485.410909 -194.331948 
L 488.454545 -205.465589 
L 491.498182 -199.483334 
L 494.541818 -166.877403 
L 497.585455 -192.122327 
L 500.629091 -217.451565 
L 503.672727 -190.939881 
L 506.716364 -174.623506 
L 509.76 -188.145008 
L 512.803636 -217.864416 
L 515.847273 -173.713024 
L 518.890909 -228.334658 
L 521.934545 -208.232984 
L 524.978182 -177.139278 
L 528.021818 -189.849573 
L 531.065455 -160.082979 
L 534.109091 -202.388108 
L 537.152727 -126.185844 
L 540.196364 -191.801575 
L 543.24 -204.519163 
L 546.283636 -195.783117 
L 549.327273 -183.546234 
L 552.370909 -186.487792 
L 555.414545 -172.235734 
L 558.458182 -221.786494 
L 561.501818 -172.487463 
L 564.545455 -180.190371 
L 567.589091 -205.465589 
L 570.632727 -184.01069 
L 573.676364 -202.840863 
L 576.72 -178.643636 
L 579.763636 -196.099645 
L 582.807273 -190.47021 
L 585.850909 -188.74433 
L 588.894545 -197.184368 
L 591.938182 -189.849573 
L 594.981818 -233.201496 
L 598.025455 -191.441996 
L 601.069091 -164.473548 
L 604.112727 -210.02026 
L 607.156364 -223.684273 
L 610.2 -169.678887 
L 613.243636 -175.179983 
L 616.287273 -215.668052 
L 619.330909 -243.140029 
L 622.374545 -194.755956 
L 625.418182 -184.348477 
L 628.461818 -195.900779 
L 631.505455 -189.152498 
L 634.549091 -181.781299 
L 637.592727 -176.213053 
L 640.636364 -215.521356 
L 643.68 -181.781299 
L 646.723636 -187.429091 
L 649.767273 -171.140531 
L 652.810909 -179.396251 
L 655.854545 -165.64475 
L 658.898182 -184.068257 
L 661.941818 -214.29889 
L 664.985455 -158.189255 
L 668.029091 -207.973958 
L 671.072727 -200.349383 
L 674.116364 -216.907811 
L 677.16 -180.715678 
L 680.203636 -212.008919 
L 683.247273 -191.801575 
L 686.290909 -168.043426 
L 689.334545 -169.979942 
L 692.378182 -203.076253 
L 695.421818 -183.316025 
L 698.465455 -185.367199 
L 701.509091 -201.714683 
L 704.552727 -182.624253 
L 707.596364 -203.698104 
L 710.64 -210.02026 
L 713.683636 -204.121025 
L 716.727273 -228.238944 
L 719.770909 -145.405688 
L 722.814545 -184.348477 
L 725.858182 -198.254026 
L 728.901818 -241.193139 
L 731.945455 -193.409106 
L 734.989091 -247.804785 
L 738.032727 -223.559488 
L 741.076364 -165.64475 
L 744.12 -193.817577 
L 744.12 -263.257645 
L 744.12 -263.257645 
L 741.076364 -226.156809 
L 738.032727 -285.453101 
L 734.989091 -303.487243 
L 731.945455 -259.85372 
L 728.901818 -299.871499 
L 725.858182 -261.007273 
L 722.814545 -252.91353 
L 719.770909 -217.199657 
L 716.727273 -292.00434 
L 713.683636 -269.979698 
L 710.64 -280.617662 
L 707.596364 -271.134429 
L 704.552727 -250.060578 
L 701.509091 -268.159297 
L 698.465455 -257.085195 
L 695.421818 -248.899989 
L 692.378182 -267.886983 
L 689.334545 -237.416267 
L 686.290909 -229.100639 
L 683.247273 -264.676313 
L 680.203636 -279.623333 
L 677.16 -255.30916 
L 674.116364 -278.895774 
L 671.072727 -262.242996 
L 668.029091 -269.363004 
L 664.985455 -215.471452 
L 661.941818 -278.585313 
L 658.898182 -251.782104 
L 655.854545 -230.190946 
L 652.810909 -240.644268 
L 649.767273 -236.62218 
L 646.723636 -266.498182 
L 643.68 -255.637043 
L 640.636364 -277.867114 
L 637.592727 -243.827467 
L 634.549091 -251.292587 
L 631.505455 -255.700932 
L 628.461818 -259.438442 
L 625.418182 -252.806564 
L 622.374545 -259.629245 
L 619.330909 -298.920693 
L 616.287273 -275.911169 
L 613.243636 -237.525741 
L 610.2 -230.190946 
L 607.156364 -287.449669 
L 604.112727 -280.617662 
L 601.069091 -237.348287 
L 598.025455 -254.608093 
L 594.981818 -292.208281 
L 591.938182 -250.361633 
L 588.894545 -265.642456 
L 585.850909 -254.506294 
L 582.807273 -259.981499 
L 579.763636 -259.73674 
L 576.72 -241.396883 
L 573.676364 -274.634832 
L 570.632727 -247.176787 
L 567.589091 -273.785656 
L 564.545455 -243.827467 
L 561.501818 -236.8294 
L 558.458182 -284.53974 
L 555.414545 -239.850148 
L 552.370909 -249.241039 
L 549.327273 -254.143636 
L 546.283636 -261.791688 
L 543.24 -266.864922 
L 540.196364 -260.235509 
L 537.152727 -192.370909 
L 534.109091 -263.445321 
L 531.065455 -222.478625 
L 528.021818 -258.429907 
L 524.978182 -242.901242 
L 521.934545 -269.000368 
L 518.890909 -285.733416 
L 515.847273 -242.293358 
L 512.803636 -280.617662 
L 509.76 -251.881536 
L 506.716364 -237.474805 
L 503.672727 -248.181018 
L 500.629091 -276.90201 
L 497.585455 -255.858855 
L 494.541818 -233.552727 
L 491.498182 -258.490118 
L 488.454545 -273.785656 
L 485.410909 -266.049944 
L 482.367273 -262.968312 
L 479.323636 -250.060578 
L 476.28 -262.464045 
L 473.236364 -244.740294 
L 470.192727 -285.201909 
L 467.149091 -238.259221 
L 464.105455 -268.380779 
L 461.061818 -268.159297 
L 458.018182 -267.691377 
L 454.974545 -277.087792 
L 451.930909 -247.395355 
L 448.887273 -229.100639 
L 445.843636 -194.331948 
L 442.8 -265.642456 
L 439.756364 -226.772186 
L 436.712727 -284.770451 
L 433.669091 -273.279248 
L 430.625455 -283.600651 
L 427.581818 -262.968312 
L 424.538182 -278.709624 
L 421.494545 -251.292587 
L 418.450909 -255.862729 
L 415.407273 -292.00434 
L 412.363636 -264.006509 
L 409.32 -236.73279 
L 406.276364 -253.32 
L 403.232727 -248.181018 
L 400.189091 -238.259221 
L 397.145455 -304.852592 
L 394.101818 -291.555288 
L 391.058182 -269.470704 
L 388.014545 -271.668696 
L 384.970909 -231.895511 
L 381.927273 -251.782104 
L 378.883636 -255.489773 
L 375.84 -255.81317 
L 372.796364 -253.163117 
L 369.752727 -246.769593 
L 366.709091 -238.259221 
L 363.665455 -258.429907 
L 360.621818 -227.66961 
L 357.578182 -263.197524 
L 354.534545 -276.149472 
L 351.490909 -241.396883 
L 348.447273 -280.617662 
L 345.403636 -284.207361 
L 342.36 -234.93699 
L 339.316364 -249.241039 
L 336.272727 -243.554026 
L 333.229091 -272.871558 
L 330.185455 -252.806564 
L 327.141818 -245.318961 
L 324.098182 -268.67041 
L 321.054545 -253.163117 
L 318.010909 -238.259221 
L 314.967273 -227.66961 
L 311.923636 -243.827467 
L 308.88 -263.714059 
L 305.836364 -265.642456 
L 302.792727 -243.638071 
L 299.749091 -254.39577 
L 296.705455 -255.954414 
L 293.661818 -279.724024 
L 290.618182 -262.039398 
L 287.574545 -255.637043 
L 284.530909 -272.773506 
L 281.487273 -220.251767 
L 278.443636 -297.228816 
L 275.4 -260.571486 
L 272.356364 -247.176787 
L 269.312727 -266.498182 
L 266.269091 -253.163117 
L 263.225455 -237.416267 
L 260.181818 -255.954414 
L 257.138182 -269.921086 
L 254.094545 -264.325954 
L 251.050909 -286.048232 
L 248.007273 -228.598524 
L 244.963636 -246.327495 
L 241.92 -258.628307 
L 238.876364 -251.997094 
L 235.832727 -257.085195 
L 232.789091 -210.02026 
L 229.745455 -266.111347 
L 226.701818 -221.786494 
L 223.658182 -257.085195 
L 220.614545 -258.429907 
L 217.570909 -249.554805 
L 214.527273 -237.474805 
L 211.483636 -295.745677 
L 208.44 -205.741629 
L 205.396364 -242.901242 
L 202.352727 -243.827467 
L 199.309091 -286.404335 
L 196.265455 -195.413901 
L 193.221818 -255.566971 
L 190.178182 -255.908571 
L 187.134545 -232.529577 
L 184.090909 -251.548144 
L 181.047273 -263.257645 
L 178.003636 -269.363004 
L 174.96 -241.631037 
L 171.916364 -236.029829 
L 168.872727 -260.121642 
L 165.829091 -262.039398 
L 162.785455 -260.85039 
L 159.741818 -208.086084 
L 156.698182 -297.228816 
L 153.654545 -210.02026 
L 150.610909 -213.640639 
L 147.567273 -250.734652 
L 144.523636 -230.190946 
L 141.48 -197.917848 
L 138.436364 -284.53974 
z
" id="ma8b45ef8fe" style="stroke:#008000;stroke-opacity:0.2;stroke-width:1.5;"/>
    </defs>
    <g clip-path="url(#pda93bdcafc)">
     <use style="fill:#008000;fill-opacity:0.2;stroke:#008000;stroke-opacity:0.2;stroke-width:1.5;" x="0" xlink:href="#ma8b45ef8fe" y="432"/>
    </g>
   </g>
   <g id="PolyCollection_2">
    <defs>
     <path d="M 138.436364 -365.334545 
L 138.436364 -68.825455 
L 141.48 -68.825455 
L 144.523636 -68.825455 
L 147.567273 -68.825455 
L 150.610909 -68.825455 
L 153.654545 -68.825455 
L 156.698182 -68.825455 
L 159.741818 -68.825455 
L 162.785455 -68.825455 
L 165.829091 -68.825455 
L 168.872727 -68.825455 
L 171.916364 -68.825455 
L 174.96 -68.825455 
L 178.003636 -68.825455 
L 181.047273 -68.825455 
L 184.090909 -68.825455 
L 187.134545 -68.825455 
L 190.178182 -68.825455 
L 193.221818 -68.825455 
L 196.265455 -68.825455 
L 199.309091 -68.825455 
L 202.352727 -68.825455 
L 205.396364 -68.825455 
L 208.44 -68.825455 
L 211.483636 -68.825455 
L 214.527273 -68.825455 
L 217.570909 -68.825455 
L 220.614545 -68.825455 
L 223.658182 -68.825455 
L 226.701818 -68.825455 
L 229.745455 -68.825455 
L 232.789091 -68.825455 
L 235.832727 -68.825455 
L 238.876364 -68.825455 
L 241.92 -68.825455 
L 244.963636 -68.825455 
L 248.007273 -68.825455 
L 251.050909 -68.825455 
L 254.094545 -68.825455 
L 257.138182 -68.825455 
L 260.181818 -68.825455 
L 260.181818 -365.334545 
L 260.181818 -365.334545 
L 257.138182 -365.334545 
L 254.094545 -365.334545 
L 251.050909 -365.334545 
L 248.007273 -365.334545 
L 244.963636 -365.334545 
L 241.92 -365.334545 
L 238.876364 -365.334545 
L 235.832727 -365.334545 
L 232.789091 -365.334545 
L 229.745455 -365.334545 
L 226.701818 -365.334545 
L 223.658182 -365.334545 
L 220.614545 -365.334545 
L 217.570909 -365.334545 
L 214.527273 -365.334545 
L 211.483636 -365.334545 
L 208.44 -365.334545 
L 205.396364 -365.334545 
L 202.352727 -365.334545 
L 199.309091 -365.334545 
L 196.265455 -365.334545 
L 193.221818 -365.334545 
L 190.178182 -365.334545 
L 187.134545 -365.334545 
L 184.090909 -365.334545 
L 181.047273 -365.334545 
L 178.003636 -365.334545 
L 174.96 -365.334545 
L 171.916364 -365.334545 
L 168.872727 -365.334545 
L 165.829091 -365.334545 
L 162.785455 -365.334545 
L 159.741818 -365.334545 
L 156.698182 -365.334545 
L 153.654545 -365.334545 
L 150.610909 -365.334545 
L 147.567273 -365.334545 
L 144.523636 -365.334545 
L 141.48 -365.334545 
L 138.436364 -365.334545 
z
" id="m0354f1d299" style="stroke:#ffd700;stroke-opacity:0.2;stroke-width:1.5;"/>
    </defs>
    <g clip-path="url(#pda93bdcafc)">
     <use style="fill:#ffd700;fill-opacity:0.2;stroke:#ffd700;stroke-opacity:0.2;stroke-width:1.5;" x="0" xlink:href="#m0354f1d299" y="432"/>
    </g>
   </g>
   <g id="PolyCollection_3">
    <defs>
     <path d="M 260.181818 -365.334545 
L 260.181818 -68.825455 
L 263.225455 -68.825455 
L 266.269091 -68.825455 
L 269.312727 -68.825455 
L 272.356364 -68.825455 
L 275.4 -68.825455 
L 278.443636 -68.825455 
L 281.487273 -68.825455 
L 284.530909 -68.825455 
L 287.574545 -68.825455 
L 290.618182 -68.825455 
L 293.661818 -68.825455 
L 296.705455 -68.825455 
L 299.749091 -68.825455 
L 302.792727 -68.825455 
L 305.836364 -68.825455 
L 308.88 -68.825455 
L 311.923636 -68.825455 
L 314.967273 -68.825455 
L 318.010909 -68.825455 
L 321.054545 -68.825455 
L 324.098182 -68.825455 
L 327.141818 -68.825455 
L 330.185455 -68.825455 
L 333.229091 -68.825455 
L 336.272727 -68.825455 
L 339.316364 -68.825455 
L 342.36 -68.825455 
L 345.403636 -68.825455 
L 348.447273 -68.825455 
L 351.490909 -68.825455 
L 354.534545 -68.825455 
L 357.578182 -68.825455 
L 360.621818 -68.825455 
L 363.665455 -68.825455 
L 366.709091 -68.825455 
L 369.752727 -68.825455 
L 372.796364 -68.825455 
L 375.84 -68.825455 
L 378.883636 -68.825455 
L 381.927273 -68.825455 
L 381.927273 -365.334545 
L 381.927273 -365.334545 
L 378.883636 -365.334545 
L 375.84 -365.334545 
L 372.796364 -365.334545 
L 369.752727 -365.334545 
L 366.709091 -365.334545 
L 363.665455 -365.334545 
L 360.621818 -365.334545 
L 357.578182 -365.334545 
L 354.534545 -365.334545 
L 351.490909 -365.334545 
L 348.447273 -365.334545 
L 345.403636 -365.334545 
L 342.36 -365.334545 
L 339.316364 -365.334545 
L 336.272727 -365.334545 
L 333.229091 -365.334545 
L 330.185455 -365.334545 
L 327.141818 -365.334545 
L 324.098182 -365.334545 
L 321.054545 -365.334545 
L 318.010909 -365.334545 
L 314.967273 -365.334545 
L 311.923636 -365.334545 
L 308.88 -365.334545 
L 305.836364 -365.334545 
L 302.792727 -365.334545 
L 299.749091 -365.334545 
L 296.705455 -365.334545 
L 293.661818 -365.334545 
L 290.618182 -365.334545 
L 287.574545 -365.334545 
L 284.530909 -365.334545 
L 281.487273 -365.334545 
L 278.443636 -365.334545 
L 275.4 -365.334545 
L 272.356364 -365.334545 
L 269.312727 -365.334545 
L 266.269091 -365.334545 
L 263.225455 -365.334545 
L 260.181818 -365.334545 
z
" id="m9af34191b7" style="stroke:#ffd700;stroke-opacity:0.2;stroke-width:1.5;"/>
    </defs>
    <g clip-path="url(#pda93bdcafc)">
     <use style="fill:#ffd700;fill-opacity:0.2;stroke:#ffd700;stroke-opacity:0.2;stroke-width:1.5;" x="0" xlink:href="#m9af34191b7" y="432"/>
    </g>
   </g>
   <g id="PolyCollection_4">
    <defs>
     <path d="M 381.927273 -365.334545 
L 381.927273 -68.825455 
L 384.970909 -68.825455 
L 388.014545 -68.825455 
L 391.058182 -68.825455 
L 394.101818 -68.825455 
L 397.145455 -68.825455 
L 400.189091 -68.825455 
L 403.232727 -68.825455 
L 406.276364 -68.825455 
L 409.32 -68.825455 
L 412.363636 -68.825455 
L 415.407273 -68.825455 
L 418.450909 -68.825455 
L 421.494545 -68.825455 
L 424.538182 -68.825455 
L 427.581818 -68.825455 
L 430.625455 -68.825455 
L 433.669091 -68.825455 
L 436.712727 -68.825455 
L 439.756364 -68.825455 
L 442.8 -68.825455 
L 445.843636 -68.825455 
L 448.887273 -68.825455 
L 451.930909 -68.825455 
L 454.974545 -68.825455 
L 458.018182 -68.825455 
L 461.061818 -68.825455 
L 464.105455 -68.825455 
L 467.149091 -68.825455 
L 470.192727 -68.825455 
L 473.236364 -68.825455 
L 476.28 -68.825455 
L 479.323636 -68.825455 
L 482.367273 -68.825455 
L 485.410909 -68.825455 
L 488.454545 -68.825455 
L 491.498182 -68.825455 
L 494.541818 -68.825455 
L 497.585455 -68.825455 
L 500.629091 -68.825455 
L 503.672727 -68.825455 
L 503.672727 -365.334545 
L 503.672727 -365.334545 
L 500.629091 -365.334545 
L 497.585455 -365.334545 
L 494.541818 -365.334545 
L 491.498182 -365.334545 
L 488.454545 -365.334545 
L 485.410909 -365.334545 
L 482.367273 -365.334545 
L 479.323636 -365.334545 
L 476.28 -365.334545 
L 473.236364 -365.334545 
L 470.192727 -365.334545 
L 467.149091 -365.334545 
L 464.105455 -365.334545 
L 461.061818 -365.334545 
L 458.018182 -365.334545 
L 454.974545 -365.334545 
L 451.930909 -365.334545 
L 448.887273 -365.334545 
L 445.843636 -365.334545 
L 442.8 -365.334545 
L 439.756364 -365.334545 
L 436.712727 -365.334545 
L 433.669091 -365.334545 
L 430.625455 -365.334545 
L 427.581818 -365.334545 
L 424.538182 -365.334545 
L 421.494545 -365.334545 
L 418.450909 -365.334545 
L 415.407273 -365.334545 
L 412.363636 -365.334545 
L 409.32 -365.334545 
L 406.276364 -365.334545 
L 403.232727 -365.334545 
L 400.189091 -365.334545 
L 397.145455 -365.334545 
L 394.101818 -365.334545 
L 391.058182 -365.334545 
L 388.014545 -365.334545 
L 384.970909 -365.334545 
L 381.927273 -365.334545 
z
" id="m8e61adb0db" style="stroke:#ffd700;stroke-opacity:0.2;stroke-width:1.5;"/>
    </defs>
    <g clip-path="url(#pda93bdcafc)">
     <use style="fill:#ffd700;fill-opacity:0.2;stroke:#ffd700;stroke-opacity:0.2;stroke-width:1.5;" x="0" xlink:href="#m8e61adb0db" y="432"/>
    </g>
   </g>
   <g id="PolyCollection_5">
    <defs>
     <path d="M 503.672727 -365.334545 
L 503.672727 -68.825455 
L 506.716364 -68.825455 
L 509.76 -68.825455 
L 512.803636 -68.825455 
L 515.847273 -68.825455 
L 518.890909 -68.825455 
L 521.934545 -68.825455 
L 524.978182 -68.825455 
L 528.021818 -68.825455 
L 531.065455 -68.825455 
L 534.109091 -68.825455 
L 537.152727 -68.825455 
L 540.196364 -68.825455 
L 543.24 -68.825455 
L 546.283636 -68.825455 
L 549.327273 -68.825455 
L 552.370909 -68.825455 
L 555.414545 -68.825455 
L 558.458182 -68.825455 
L 561.501818 -68.825455 
L 564.545455 -68.825455 
L 567.589091 -68.825455 
L 570.632727 -68.825455 
L 573.676364 -68.825455 
L 576.72 -68.825455 
L 579.763636 -68.825455 
L 582.807273 -68.825455 
L 585.850909 -68.825455 
L 588.894545 -68.825455 
L 591.938182 -68.825455 
L 594.981818 -68.825455 
L 598.025455 -68.825455 
L 601.069091 -68.825455 
L 604.112727 -68.825455 
L 607.156364 -68.825455 
L 610.2 -68.825455 
L 613.243636 -68.825455 
L 616.287273 -68.825455 
L 619.330909 -68.825455 
L 622.374545 -68.825455 
L 625.418182 -68.825455 
L 625.418182 -365.334545 
L 625.418182 -365.334545 
L 622.374545 -365.334545 
L 619.330909 -365.334545 
L 616.287273 -365.334545 
L 613.243636 -365.334545 
L 610.2 -365.334545 
L 607.156364 -365.334545 
L 604.112727 -365.334545 
L 601.069091 -365.334545 
L 598.025455 -365.334545 
L 594.981818 -365.334545 
L 591.938182 -365.334545 
L 588.894545 -365.334545 
L 585.850909 -365.334545 
L 582.807273 -365.334545 
L 579.763636 -365.334545 
L 576.72 -365.334545 
L 573.676364 -365.334545 
L 570.632727 -365.334545 
L 567.589091 -365.334545 
L 564.545455 -365.334545 
L 561.501818 -365.334545 
L 558.458182 -365.334545 
L 555.414545 -365.334545 
L 552.370909 -365.334545 
L 549.327273 -365.334545 
L 546.283636 -365.334545 
L 543.24 -365.334545 
L 540.196364 -365.334545 
L 537.152727 -365.334545 
L 534.109091 -365.334545 
L 531.065455 -365.334545 
L 528.021818 -365.334545 
L 524.978182 -365.334545 
L 521.934545 -365.334545 
L 518.890909 -365.334545 
L 515.847273 -365.334545 
L 512.803636 -365.334545 
L 509.76 -365.334545 
L 506.716364 -365.334545 
L 503.672727 -365.334545 
z
" id="m81eeb5aca8" style="stroke:#ffd700;stroke-opacity:0.2;stroke-width:1.5;"/>
    </defs>
    <g clip-path="url(#pda93bdcafc)">
     <use style="fill:#ffd700;fill-opacity:0.2;stroke:#ffd700;stroke-opacity:0.2;stroke-width:1.5;" x="0" xlink:href="#m81eeb5aca8" y="432"/>
    </g>
   </g>
   <g id="PolyCollection_6">
    <defs>
     <path d="M 625.418182 -365.334545 
L 625.418182 -68.825455 
L 628.461818 -68.825455 
L 631.505455 -68.825455 
L 634.549091 -68.825455 
L 637.592727 -68.825455 
L 640.636364 -68.825455 
L 643.68 -68.825455 
L 646.723636 -68.825455 
L 649.767273 -68.825455 
L 652.810909 -68.825455 
L 655.854545 -68.825455 
L 658.898182 -68.825455 
L 661.941818 -68.825455 
L 664.985455 -68.825455 
L 668.029091 -68.825455 
L 671.072727 -68.825455 
L 674.116364 -68.825455 
L 677.16 -68.825455 
L 680.203636 -68.825455 
L 683.247273 -68.825455 
L 686.290909 -68.825455 
L 689.334545 -68.825455 
L 692.378182 -68.825455 
L 695.421818 -68.825455 
L 698.465455 -68.825455 
L 701.509091 -68.825455 
L 704.552727 -68.825455 
L 707.596364 -68.825455 
L 710.64 -68.825455 
L 713.683636 -68.825455 
L 716.727273 -68.825455 
L 719.770909 -68.825455 
L 722.814545 -68.825455 
L 725.858182 -68.825455 
L 728.901818 -68.825455 
L 731.945455 -68.825455 
L 734.989091 -68.825455 
L 738.032727 -68.825455 
L 741.076364 -68.825455 
L 744.12 -68.825455 
L 747.163636 -68.825455 
L 747.163636 -365.334545 
L 747.163636 -365.334545 
L 744.12 -365.334545 
L 741.076364 -365.334545 
L 738.032727 -365.334545 
L 734.989091 -365.334545 
L 731.945455 -365.334545 
L 728.901818 -365.334545 
L 725.858182 -365.334545 
L 722.814545 -365.334545 
L 719.770909 -365.334545 
L 716.727273 -365.334545 
L 713.683636 -365.334545 
L 710.64 -365.334545 
L 707.596364 -365.334545 
L 704.552727 -365.334545 
L 701.509091 -365.334545 
L 698.465455 -365.334545 
L 695.421818 -365.334545 
L 692.378182 -365.334545 
L 689.334545 -365.334545 
L 686.290909 -365.334545 
L 683.247273 -365.334545 
L 680.203636 -365.334545 
L 677.16 -365.334545 
L 674.116364 -365.334545 
L 671.072727 -365.334545 
L 668.029091 -365.334545 
L 664.985455 -365.334545 
L 661.941818 -365.334545 
L 658.898182 -365.334545 
L 655.854545 -365.334545 
L 652.810909 -365.334545 
L 649.767273 -365.334545 
L 646.723636 -365.334545 
L 643.68 -365.334545 
L 640.636364 -365.334545 
L 637.592727 -365.334545 
L 634.549091 -365.334545 
L 631.505455 -365.334545 
L 628.461818 -365.334545 
L 625.418182 -365.334545 
z
" id="m462413d543" style="stroke:#ff0000;stroke-opacity:0.2;stroke-width:1.5;"/>
    </defs>
    <g clip-path="url(#pda93bdcafc)">
     <use style="fill:#ff0000;fill-opacity:0.2;stroke:#ff0000;stroke-opacity:0.2;stroke-width:1.5;" x="0" xlink:href="#m462413d543" y="432"/>
    </g>
   </g>
   <g id="matplotlib.axis_1">
    <g id="xtick_1">
     <g id="line2d_1">
      <defs>
       <path d="M 0 0 
L 0 9 
" id="me2bfb5e90d" style="stroke:#000000;stroke-width:1.875;"/>
      </defs>
      <g>
       <use style="stroke:#000000;stroke-width:1.875;" x="138.436364" xlink:href="#me2bfb5e90d" y="378"/>
      </g>
     </g>
     <g id="text_1">
      <!-- 0 -->
      <g transform="translate(133.187301 403.037422)scale(0.165 -0.165)">
       <defs>
        <path d="M 31.78125 66.40625 
Q 24.171875 66.40625 20.328125 58.90625 
Q 16.5 51.421875 16.5 36.375 
Q 16.5 21.390625 20.328125 13.890625 
Q 24.171875 6.390625 31.78125 6.390625 
Q 39.453125 6.390625 43.28125 13.890625 
Q 47.125 21.390625 47.125 36.375 
Q 47.125 51.421875 43.28125 58.90625 
Q 39.453125 66.40625 31.78125 66.40625 
z
M 31.78125 74.21875 
Q 44.046875 74.21875 50.515625 64.515625 
Q 56.984375 54.828125 56.984375 36.375 
Q 56.984375 17.96875 50.515625 8.265625 
Q 44.046875 -1.421875 31.78125 -1.421875 
Q 19.53125 -1.421875 13.0625 8.265625 
Q 6.59375 17.96875 6.59375 36.375 
Q 6.59375 54.828125 13.0625 64.515625 
Q 19.53125 74.21875 31.78125 74.21875 
z
" id="DejaVuSans-48"/>
       </defs>
       <use xlink:href="#DejaVuSans-48"/>
      </g>
     </g>
    </g>
    <g id="xtick_2">
     <g id="line2d_2">
      <g>
       <use style="stroke:#000000;stroke-width:1.875;" x="214.527273" xlink:href="#me2bfb5e90d" y="378"/>
      </g>
     </g>
     <g id="text_2">
      <!-- 25 -->
      <g transform="translate(204.029148 403.037422)scale(0.165 -0.165)">
       <defs>
        <path d="M 19.1875 8.296875 
L 53.609375 8.296875 
L 53.609375 0 
L 7.328125 0 
L 7.328125 8.296875 
Q 12.9375 14.109375 22.625 23.890625 
Q 32.328125 33.6875 34.8125 36.53125 
Q 39.546875 41.84375 41.421875 45.53125 
Q 43.3125 49.21875 43.3125 52.78125 
Q 43.3125 58.59375 39.234375 62.25 
Q 35.15625 65.921875 28.609375 65.921875 
Q 23.96875 65.921875 18.8125 64.3125 
Q 13.671875 62.703125 7.8125 59.421875 
L 7.8125 69.390625 
Q 13.765625 71.78125 18.9375 73 
Q 24.125 74.21875 28.421875 74.21875 
Q 39.75 74.21875 46.484375 68.546875 
Q 53.21875 62.890625 53.21875 53.421875 
Q 53.21875 48.921875 51.53125 44.890625 
Q 49.859375 40.875 45.40625 35.40625 
Q 44.1875 33.984375 37.640625 27.21875 
Q 31.109375 20.453125 19.1875 8.296875 
z
" id="DejaVuSans-50"/>
        <path d="M 10.796875 72.90625 
L 49.515625 72.90625 
L 49.515625 64.59375 
L 19.828125 64.59375 
L 19.828125 46.734375 
Q 21.96875 47.46875 24.109375 47.828125 
Q 26.265625 48.1875 28.421875 48.1875 
Q 40.625 48.1875 47.75 41.5 
Q 54.890625 34.8125 54.890625 23.390625 
Q 54.890625 11.625 47.5625 5.09375 
Q 40.234375 -1.421875 26.90625 -1.421875 
Q 22.3125 -1.421875 17.546875 -0.640625 
Q 12.796875 0.140625 7.71875 1.703125 
L 7.71875 11.625 
Q 12.109375 9.234375 16.796875 8.0625 
Q 21.484375 6.890625 26.703125 6.890625 
Q 35.15625 6.890625 40.078125 11.328125 
Q 45.015625 15.765625 45.015625 23.390625 
Q 45.015625 31 40.078125 35.4375 
Q 35.15625 39.890625 26.703125 39.890625 
Q 22.75 39.890625 18.8125 39.015625 
Q 14.890625 38.140625 10.796875 36.28125 
z
" id="DejaVuSans-53"/>
       </defs>
       <use xlink:href="#DejaVuSans-50"/>
       <use x="63.623047" xlink:href="#DejaVuSans-53"/>
      </g>
     </g>
    </g>
    <g id="xtick_3">
     <g id="line2d_3">
      <g>
       <use style="stroke:#000000;stroke-width:1.875;" x="290.618182" xlink:href="#me2bfb5e90d" y="378"/>
      </g>
     </g>
     <g id="text_3">
      <!-- 50 -->
      <g transform="translate(280.120057 403.037422)scale(0.165 -0.165)">
       <use xlink:href="#DejaVuSans-53"/>
       <use x="63.623047" xlink:href="#DejaVuSans-48"/>
      </g>
     </g>
    </g>
    <g id="xtick_4">
     <g id="line2d_4">
      <g>
       <use style="stroke:#000000;stroke-width:1.875;" x="366.709091" xlink:href="#me2bfb5e90d" y="378"/>
      </g>
     </g>
     <g id="text_4">
      <!-- 75 -->
      <g transform="translate(356.210966 403.037422)scale(0.165 -0.165)">
       <defs>
        <path d="M 8.203125 72.90625 
L 55.078125 72.90625 
L 55.078125 68.703125 
L 28.609375 0 
L 18.3125 0 
L 43.21875 64.59375 
L 8.203125 64.59375 
z
" id="DejaVuSans-55"/>
       </defs>
       <use xlink:href="#DejaVuSans-55"/>
       <use x="63.623047" xlink:href="#DejaVuSans-53"/>
      </g>
     </g>
    </g>
    <g id="xtick_5">
     <g id="line2d_5">
      <g>
       <use style="stroke:#000000;stroke-width:1.875;" x="442.8" xlink:href="#me2bfb5e90d" y="378"/>
      </g>
     </g>
     <g id="text_5">
      <!-- 100 -->
      <g transform="translate(427.052813 403.037422)scale(0.165 -0.165)">
       <defs>
        <path d="M 12.40625 8.296875 
L 28.515625 8.296875 
L 28.515625 63.921875 
L 10.984375 60.40625 
L 10.984375 69.390625 
L 28.421875 72.90625 
L 38.28125 72.90625 
L 38.28125 8.296875 
L 54.390625 8.296875 
L 54.390625 0 
L 12.40625 0 
z
" id="DejaVuSans-49"/>
       </defs>
       <use xlink:href="#DejaVuSans-49"/>
       <use x="63.623047" xlink:href="#DejaVuSans-48"/>
       <use x="127.246094" xlink:href="#DejaVuSans-48"/>
      </g>
     </g>
    </g>
    <g id="xtick_6">
     <g id="line2d_6">
      <g>
       <use style="stroke:#000000;stroke-width:1.875;" x="518.890909" xlink:href="#me2bfb5e90d" y="378"/>
      </g>
     </g>
     <g id="text_6">
      <!-- 125 -->
      <g transform="translate(503.143722 403.037422)scale(0.165 -0.165)">
       <use xlink:href="#DejaVuSans-49"/>
       <use x="63.623047" xlink:href="#DejaVuSans-50"/>
       <use x="127.246094" xlink:href="#DejaVuSans-53"/>
      </g>
     </g>
    </g>
    <g id="xtick_7">
     <g id="line2d_7">
      <g>
       <use style="stroke:#000000;stroke-width:1.875;" x="594.981818" xlink:href="#me2bfb5e90d" y="378"/>
      </g>
     </g>
     <g id="text_7">
      <!-- 150 -->
      <g transform="translate(579.234631 403.037422)scale(0.165 -0.165)">
       <use xlink:href="#DejaVuSans-49"/>
       <use x="63.623047" xlink:href="#DejaVuSans-53"/>
       <use x="127.246094" xlink:href="#DejaVuSans-48"/>
      </g>
     </g>
    </g>
    <g id="xtick_8">
     <g id="line2d_8">
      <g>
       <use style="stroke:#000000;stroke-width:1.875;" x="671.072727" xlink:href="#me2bfb5e90d" y="378"/>
      </g>
     </g>
     <g id="text_8">
      <!-- 175 -->
      <g transform="translate(655.32554 403.037422)scale(0.165 -0.165)">
       <use xlink:href="#DejaVuSans-49"/>
       <use x="63.623047" xlink:href="#DejaVuSans-55"/>
       <use x="127.246094" xlink:href="#DejaVuSans-53"/>
      </g>
     </g>
    </g>
    <g id="xtick_9">
     <g id="line2d_9">
      <g>
       <use style="stroke:#000000;stroke-width:1.875;" x="747.163636" xlink:href="#me2bfb5e90d" y="378"/>
      </g>
     </g>
     <g id="text_9">
      <!-- 200 -->
      <g transform="translate(731.416449 403.037422)scale(0.165 -0.165)">
       <use xlink:href="#DejaVuSans-50"/>
       <use x="63.623047" xlink:href="#DejaVuSans-48"/>
       <use x="127.246094" xlink:href="#DejaVuSans-48"/>
      </g>
     </g>
    </g>
    <g id="text_10">
     <!-- trial -->
     <g transform="translate(425.055938 424.146094)scale(0.18 -0.18)">
      <defs>
       <path d="M 18.3125 70.21875 
L 18.3125 54.6875 
L 36.8125 54.6875 
L 36.8125 47.703125 
L 18.3125 47.703125 
L 18.3125 18.015625 
Q 18.3125 11.328125 20.140625 9.421875 
Q 21.96875 7.515625 27.59375 7.515625 
L 36.8125 7.515625 
L 36.8125 0 
L 27.59375 0 
Q 17.1875 0 13.234375 3.875 
Q 9.28125 7.765625 9.28125 18.015625 
L 9.28125 47.703125 
L 2.6875 47.703125 
L 2.6875 54.6875 
L 9.28125 54.6875 
L 9.28125 70.21875 
z
" id="DejaVuSans-116"/>
       <path d="M 41.109375 46.296875 
Q 39.59375 47.171875 37.8125 47.578125 
Q 36.03125 48 33.890625 48 
Q 26.265625 48 22.1875 43.046875 
Q 18.109375 38.09375 18.109375 28.8125 
L 18.109375 0 
L 9.078125 0 
L 9.078125 54.6875 
L 18.109375 54.6875 
L 18.109375 46.1875 
Q 20.953125 51.171875 25.484375 53.578125 
Q 30.03125 56 36.53125 56 
Q 37.453125 56 38.578125 55.875 
Q 39.703125 55.765625 41.0625 55.515625 
z
" id="DejaVuSans-114"/>
       <path d="M 9.421875 54.6875 
L 18.40625 54.6875 
L 18.40625 0 
L 9.421875 0 
z
M 9.421875 75.984375 
L 18.40625 75.984375 
L 18.40625 64.59375 
L 9.421875 64.59375 
z
" id="DejaVuSans-105"/>
       <path d="M 34.28125 27.484375 
Q 23.390625 27.484375 19.1875 25 
Q 14.984375 22.515625 14.984375 16.5 
Q 14.984375 11.71875 18.140625 8.90625 
Q 21.296875 6.109375 26.703125 6.109375 
Q 34.1875 6.109375 38.703125 11.40625 
Q 43.21875 16.703125 43.21875 25.484375 
L 43.21875 27.484375 
z
M 52.203125 31.203125 
L 52.203125 0 
L 43.21875 0 
L 43.21875 8.296875 
Q 40.140625 3.328125 35.546875 0.953125 
Q 30.953125 -1.421875 24.3125 -1.421875 
Q 15.921875 -1.421875 10.953125 3.296875 
Q 6 8.015625 6 15.921875 
Q 6 25.140625 12.171875 29.828125 
Q 18.359375 34.515625 30.609375 34.515625 
L 43.21875 34.515625 
L 43.21875 35.40625 
Q 43.21875 41.609375 39.140625 45 
Q 35.0625 48.390625 27.6875 48.390625 
Q 23 48.390625 18.546875 47.265625 
Q 14.109375 46.140625 10.015625 43.890625 
L 10.015625 52.203125 
Q 14.9375 54.109375 19.578125 55.046875 
Q 24.21875 56 28.609375 56 
Q 40.484375 56 46.34375 49.84375 
Q 52.203125 43.703125 52.203125 31.203125 
z
" id="DejaVuSans-97"/>
       <path d="M 9.421875 75.984375 
L 18.40625 75.984375 
L 18.40625 0 
L 9.421875 0 
z
" id="DejaVuSans-108"/>
      </defs>
      <use xlink:href="#DejaVuSans-116"/>
      <use x="39.208984" xlink:href="#DejaVuSans-114"/>
      <use x="80.322266" xlink:href="#DejaVuSans-105"/>
      <use x="108.105469" xlink:href="#DejaVuSans-97"/>
      <use x="169.384766" xlink:href="#DejaVuSans-108"/>
     </g>
    </g>
   </g>
   <g id="matplotlib.axis_2">
    <g id="ytick_1">
     <g id="line2d_10">
      <defs>
       <path d="M 0 0 
L -9 0 
" id="m33d4b52868" style="stroke:#000000;stroke-width:1.875;"/>
      </defs>
      <g>
       <use style="stroke:#000000;stroke-width:1.875;" x="108" xlink:href="#m33d4b52868" y="363.174545"/>
      </g>
     </g>
     <g id="text_11">
      <!-- 0.0 -->
      <g transform="translate(69.259844 369.443256)scale(0.165 -0.165)">
       <defs>
        <path d="M 10.6875 12.40625 
L 21 12.40625 
L 21 0 
L 10.6875 0 
z
" id="DejaVuSans-46"/>
       </defs>
       <use xlink:href="#DejaVuSans-48"/>
       <use x="63.623047" xlink:href="#DejaVuSans-46"/>
       <use x="95.410156" xlink:href="#DejaVuSans-48"/>
      </g>
     </g>
    </g>
    <g id="ytick_2">
     <g id="line2d_11">
      <g>
       <use style="stroke:#000000;stroke-width:1.875;" x="108" xlink:href="#m33d4b52868" y="306.696623"/>
      </g>
     </g>
     <g id="text_12">
      <!-- 0.2 -->
      <g transform="translate(69.259844 312.965334)scale(0.165 -0.165)">
       <use xlink:href="#DejaVuSans-48"/>
       <use x="63.623047" xlink:href="#DejaVuSans-46"/>
       <use x="95.410156" xlink:href="#DejaVuSans-50"/>
      </g>
     </g>
    </g>
    <g id="ytick_3">
     <g id="line2d_12">
      <g>
       <use style="stroke:#000000;stroke-width:1.875;" x="108" xlink:href="#m33d4b52868" y="250.218701"/>
      </g>
     </g>
     <g id="text_13">
      <!-- 0.4 -->
      <g transform="translate(69.259844 256.487412)scale(0.165 -0.165)">
       <defs>
        <path d="M 37.796875 64.3125 
L 12.890625 25.390625 
L 37.796875 25.390625 
z
M 35.203125 72.90625 
L 47.609375 72.90625 
L 47.609375 25.390625 
L 58.015625 25.390625 
L 58.015625 17.1875 
L 47.609375 17.1875 
L 47.609375 0 
L 37.796875 0 
L 37.796875 17.1875 
L 4.890625 17.1875 
L 4.890625 26.703125 
z
" id="DejaVuSans-52"/>
       </defs>
       <use xlink:href="#DejaVuSans-48"/>
       <use x="63.623047" xlink:href="#DejaVuSans-46"/>
       <use x="95.410156" xlink:href="#DejaVuSans-52"/>
      </g>
     </g>
    </g>
    <g id="ytick_4">
     <g id="line2d_13">
      <g>
       <use style="stroke:#000000;stroke-width:1.875;" x="108" xlink:href="#m33d4b52868" y="193.740779"/>
      </g>
     </g>
     <g id="text_14">
      <!-- 0.6 -->
      <g transform="translate(69.259844 200.00949)scale(0.165 -0.165)">
       <defs>
        <path d="M 33.015625 40.375 
Q 26.375 40.375 22.484375 35.828125 
Q 18.609375 31.296875 18.609375 23.390625 
Q 18.609375 15.53125 22.484375 10.953125 
Q 26.375 6.390625 33.015625 6.390625 
Q 39.65625 6.390625 43.53125 10.953125 
Q 47.40625 15.53125 47.40625 23.390625 
Q 47.40625 31.296875 43.53125 35.828125 
Q 39.65625 40.375 33.015625 40.375 
z
M 52.59375 71.296875 
L 52.59375 62.3125 
Q 48.875 64.0625 45.09375 64.984375 
Q 41.3125 65.921875 37.59375 65.921875 
Q 27.828125 65.921875 22.671875 59.328125 
Q 17.53125 52.734375 16.796875 39.40625 
Q 19.671875 43.65625 24.015625 45.921875 
Q 28.375 48.1875 33.59375 48.1875 
Q 44.578125 48.1875 50.953125 41.515625 
Q 57.328125 34.859375 57.328125 23.390625 
Q 57.328125 12.15625 50.6875 5.359375 
Q 44.046875 -1.421875 33.015625 -1.421875 
Q 20.359375 -1.421875 13.671875 8.265625 
Q 6.984375 17.96875 6.984375 36.375 
Q 6.984375 53.65625 15.1875 63.9375 
Q 23.390625 74.21875 37.203125 74.21875 
Q 40.921875 74.21875 44.703125 73.484375 
Q 48.484375 72.75 52.59375 71.296875 
z
" id="DejaVuSans-54"/>
       </defs>
       <use xlink:href="#DejaVuSans-48"/>
       <use x="63.623047" xlink:href="#DejaVuSans-46"/>
       <use x="95.410156" xlink:href="#DejaVuSans-54"/>
      </g>
     </g>
    </g>
    <g id="ytick_5">
     <g id="line2d_14">
      <g>
       <use style="stroke:#000000;stroke-width:1.875;" x="108" xlink:href="#m33d4b52868" y="137.262857"/>
      </g>
     </g>
     <g id="text_15">
      <!-- 0.8 -->
      <g transform="translate(69.259844 143.531568)scale(0.165 -0.165)">
       <defs>
        <path d="M 31.78125 34.625 
Q 24.75 34.625 20.71875 30.859375 
Q 16.703125 27.09375 16.703125 20.515625 
Q 16.703125 13.921875 20.71875 10.15625 
Q 24.75 6.390625 31.78125 6.390625 
Q 38.8125 6.390625 42.859375 10.171875 
Q 46.921875 13.96875 46.921875 20.515625 
Q 46.921875 27.09375 42.890625 30.859375 
Q 38.875 34.625 31.78125 34.625 
z
M 21.921875 38.8125 
Q 15.578125 40.375 12.03125 44.71875 
Q 8.5 49.078125 8.5 55.328125 
Q 8.5 64.0625 14.71875 69.140625 
Q 20.953125 74.21875 31.78125 74.21875 
Q 42.671875 74.21875 48.875 69.140625 
Q 55.078125 64.0625 55.078125 55.328125 
Q 55.078125 49.078125 51.53125 44.71875 
Q 48 40.375 41.703125 38.8125 
Q 48.828125 37.15625 52.796875 32.3125 
Q 56.78125 27.484375 56.78125 20.515625 
Q 56.78125 9.90625 50.3125 4.234375 
Q 43.84375 -1.421875 31.78125 -1.421875 
Q 19.734375 -1.421875 13.25 4.234375 
Q 6.78125 9.90625 6.78125 20.515625 
Q 6.78125 27.484375 10.78125 32.3125 
Q 14.796875 37.15625 21.921875 38.8125 
z
M 18.3125 54.390625 
Q 18.3125 48.734375 21.84375 45.5625 
Q 25.390625 42.390625 31.78125 42.390625 
Q 38.140625 42.390625 41.71875 45.5625 
Q 45.3125 48.734375 45.3125 54.390625 
Q 45.3125 60.0625 41.71875 63.234375 
Q 38.140625 66.40625 31.78125 66.40625 
Q 25.390625 66.40625 21.84375 63.234375 
Q 18.3125 60.0625 18.3125 54.390625 
z
" id="DejaVuSans-56"/>
       </defs>
       <use xlink:href="#DejaVuSans-48"/>
       <use x="63.623047" xlink:href="#DejaVuSans-46"/>
       <use x="95.410156" xlink:href="#DejaVuSans-56"/>
      </g>
     </g>
    </g>
    <g id="ytick_6">
     <g id="line2d_15">
      <g>
       <use style="stroke:#000000;stroke-width:1.875;" x="108" xlink:href="#m33d4b52868" y="80.784935"/>
      </g>
     </g>
     <g id="text_16">
      <!-- 1.0 -->
      <g transform="translate(69.259844 87.053646)scale(0.165 -0.165)">
       <use xlink:href="#DejaVuSans-49"/>
       <use x="63.623047" xlink:href="#DejaVuSans-46"/>
       <use x="95.410156" xlink:href="#DejaVuSans-48"/>
      </g>
     </g>
    </g>
    <g id="text_17">
     <!-- prediction accuracy -->
     <g transform="translate(61.516406 303.537656)rotate(-90)scale(0.18 -0.18)">
      <defs>
       <path d="M 18.109375 8.203125 
L 18.109375 -20.796875 
L 9.078125 -20.796875 
L 9.078125 54.6875 
L 18.109375 54.6875 
L 18.109375 46.390625 
Q 20.953125 51.265625 25.265625 53.625 
Q 29.59375 56 35.59375 56 
Q 45.5625 56 51.78125 48.09375 
Q 58.015625 40.1875 58.015625 27.296875 
Q 58.015625 14.40625 51.78125 6.484375 
Q 45.5625 -1.421875 35.59375 -1.421875 
Q 29.59375 -1.421875 25.265625 0.953125 
Q 20.953125 3.328125 18.109375 8.203125 
z
M 48.6875 27.296875 
Q 48.6875 37.203125 44.609375 42.84375 
Q 40.53125 48.484375 33.40625 48.484375 
Q 26.265625 48.484375 22.1875 42.84375 
Q 18.109375 37.203125 18.109375 27.296875 
Q 18.109375 17.390625 22.1875 11.75 
Q 26.265625 6.109375 33.40625 6.109375 
Q 40.53125 6.109375 44.609375 11.75 
Q 48.6875 17.390625 48.6875 27.296875 
z
" id="DejaVuSans-112"/>
       <path d="M 56.203125 29.59375 
L 56.203125 25.203125 
L 14.890625 25.203125 
Q 15.484375 15.921875 20.484375 11.0625 
Q 25.484375 6.203125 34.421875 6.203125 
Q 39.59375 6.203125 44.453125 7.46875 
Q 49.3125 8.734375 54.109375 11.28125 
L 54.109375 2.78125 
Q 49.265625 0.734375 44.1875 -0.34375 
Q 39.109375 -1.421875 33.890625 -1.421875 
Q 20.796875 -1.421875 13.15625 6.1875 
Q 5.515625 13.8125 5.515625 26.8125 
Q 5.515625 40.234375 12.765625 48.109375 
Q 20.015625 56 32.328125 56 
Q 43.359375 56 49.78125 48.890625 
Q 56.203125 41.796875 56.203125 29.59375 
z
M 47.21875 32.234375 
Q 47.125 39.59375 43.09375 43.984375 
Q 39.0625 48.390625 32.421875 48.390625 
Q 24.90625 48.390625 20.390625 44.140625 
Q 15.875 39.890625 15.1875 32.171875 
z
" id="DejaVuSans-101"/>
       <path d="M 45.40625 46.390625 
L 45.40625 75.984375 
L 54.390625 75.984375 
L 54.390625 0 
L 45.40625 0 
L 45.40625 8.203125 
Q 42.578125 3.328125 38.25 0.953125 
Q 33.9375 -1.421875 27.875 -1.421875 
Q 17.96875 -1.421875 11.734375 6.484375 
Q 5.515625 14.40625 5.515625 27.296875 
Q 5.515625 40.1875 11.734375 48.09375 
Q 17.96875 56 27.875 56 
Q 33.9375 56 38.25 53.625 
Q 42.578125 51.265625 45.40625 46.390625 
z
M 14.796875 27.296875 
Q 14.796875 17.390625 18.875 11.75 
Q 22.953125 6.109375 30.078125 6.109375 
Q 37.203125 6.109375 41.296875 11.75 
Q 45.40625 17.390625 45.40625 27.296875 
Q 45.40625 37.203125 41.296875 42.84375 
Q 37.203125 48.484375 30.078125 48.484375 
Q 22.953125 48.484375 18.875 42.84375 
Q 14.796875 37.203125 14.796875 27.296875 
z
" id="DejaVuSans-100"/>
       <path d="M 48.78125 52.59375 
L 48.78125 44.1875 
Q 44.96875 46.296875 41.140625 47.34375 
Q 37.3125 48.390625 33.40625 48.390625 
Q 24.65625 48.390625 19.8125 42.84375 
Q 14.984375 37.3125 14.984375 27.296875 
Q 14.984375 17.28125 19.8125 11.734375 
Q 24.65625 6.203125 33.40625 6.203125 
Q 37.3125 6.203125 41.140625 7.25 
Q 44.96875 8.296875 48.78125 10.40625 
L 48.78125 2.09375 
Q 45.015625 0.34375 40.984375 -0.53125 
Q 36.96875 -1.421875 32.421875 -1.421875 
Q 20.0625 -1.421875 12.78125 6.34375 
Q 5.515625 14.109375 5.515625 27.296875 
Q 5.515625 40.671875 12.859375 48.328125 
Q 20.21875 56 33.015625 56 
Q 37.15625 56 41.109375 55.140625 
Q 45.0625 54.296875 48.78125 52.59375 
z
" id="DejaVuSans-99"/>
       <path d="M 30.609375 48.390625 
Q 23.390625 48.390625 19.1875 42.75 
Q 14.984375 37.109375 14.984375 27.296875 
Q 14.984375 17.484375 19.15625 11.84375 
Q 23.34375 6.203125 30.609375 6.203125 
Q 37.796875 6.203125 41.984375 11.859375 
Q 46.1875 17.53125 46.1875 27.296875 
Q 46.1875 37.015625 41.984375 42.703125 
Q 37.796875 48.390625 30.609375 48.390625 
z
M 30.609375 56 
Q 42.328125 56 49.015625 48.375 
Q 55.71875 40.765625 55.71875 27.296875 
Q 55.71875 13.875 49.015625 6.21875 
Q 42.328125 -1.421875 30.609375 -1.421875 
Q 18.84375 -1.421875 12.171875 6.21875 
Q 5.515625 13.875 5.515625 27.296875 
Q 5.515625 40.765625 12.171875 48.375 
Q 18.84375 56 30.609375 56 
z
" id="DejaVuSans-111"/>
       <path d="M 54.890625 33.015625 
L 54.890625 0 
L 45.90625 0 
L 45.90625 32.71875 
Q 45.90625 40.484375 42.875 44.328125 
Q 39.84375 48.1875 33.796875 48.1875 
Q 26.515625 48.1875 22.3125 43.546875 
Q 18.109375 38.921875 18.109375 30.90625 
L 18.109375 0 
L 9.078125 0 
L 9.078125 54.6875 
L 18.109375 54.6875 
L 18.109375 46.1875 
Q 21.34375 51.125 25.703125 53.5625 
Q 30.078125 56 35.796875 56 
Q 45.21875 56 50.046875 50.171875 
Q 54.890625 44.34375 54.890625 33.015625 
z
" id="DejaVuSans-110"/>
       <path id="DejaVuSans-32"/>
       <path d="M 8.5 21.578125 
L 8.5 54.6875 
L 17.484375 54.6875 
L 17.484375 21.921875 
Q 17.484375 14.15625 20.5 10.265625 
Q 23.53125 6.390625 29.59375 6.390625 
Q 36.859375 6.390625 41.078125 11.03125 
Q 45.3125 15.671875 45.3125 23.6875 
L 45.3125 54.6875 
L 54.296875 54.6875 
L 54.296875 0 
L 45.3125 0 
L 45.3125 8.40625 
Q 42.046875 3.421875 37.71875 1 
Q 33.40625 -1.421875 27.6875 -1.421875 
Q 18.265625 -1.421875 13.375 4.4375 
Q 8.5 10.296875 8.5 21.578125 
z
M 31.109375 56 
z
" id="DejaVuSans-117"/>
       <path d="M 32.171875 -5.078125 
Q 28.375 -14.84375 24.75 -17.8125 
Q 21.140625 -20.796875 15.09375 -20.796875 
L 7.90625 -20.796875 
L 7.90625 -13.28125 
L 13.1875 -13.28125 
Q 16.890625 -13.28125 18.9375 -11.515625 
Q 21 -9.765625 23.484375 -3.21875 
L 25.09375 0.875 
L 2.984375 54.6875 
L 12.5 54.6875 
L 29.59375 11.921875 
L 46.6875 54.6875 
L 56.203125 54.6875 
z
" id="DejaVuSans-121"/>
      </defs>
      <use xlink:href="#DejaVuSans-112"/>
      <use x="63.476562" xlink:href="#DejaVuSans-114"/>
      <use x="102.339844" xlink:href="#DejaVuSans-101"/>
      <use x="163.863281" xlink:href="#DejaVuSans-100"/>
      <use x="227.339844" xlink:href="#DejaVuSans-105"/>
      <use x="255.123047" xlink:href="#DejaVuSans-99"/>
      <use x="310.103516" xlink:href="#DejaVuSans-116"/>
      <use x="349.3125" xlink:href="#DejaVuSans-105"/>
      <use x="377.095703" xlink:href="#DejaVuSans-111"/>
      <use x="438.277344" xlink:href="#DejaVuSans-110"/>
      <use x="501.65625" xlink:href="#DejaVuSans-32"/>
      <use x="533.443359" xlink:href="#DejaVuSans-97"/>
      <use x="594.722656" xlink:href="#DejaVuSans-99"/>
      <use x="649.703125" xlink:href="#DejaVuSans-99"/>
      <use x="704.683594" xlink:href="#DejaVuSans-117"/>
      <use x="768.0625" xlink:href="#DejaVuSans-114"/>
      <use x="809.175781" xlink:href="#DejaVuSans-97"/>
      <use x="870.455078" xlink:href="#DejaVuSans-99"/>
      <use x="925.435547" xlink:href="#DejaVuSans-121"/>
     </g>
    </g>
   </g>
   <g id="line2d_16">
    <path clip-path="url(#pda93bdcafc)" d="M 138.436364 178.836883 
L 141.48 266.35525 
L 144.523636 237.668052 
L 147.567273 212.308863 
L 150.610909 250.942777 
L 153.654545 256.061245 
L 156.698182 163.840703 
L 159.741818 254.860722 
L 162.785455 205.036364 
L 165.829091 199.685824 
L 168.872727 203.761056 
L 171.916364 229.411046 
L 174.96 224.087125 
L 178.003636 195.37782 
L 181.047273 205.777058 
L 184.090909 213.674163 
L 187.134545 232.211248 
L 190.178182 211.39013 
L 193.221818 212.870398 
L 196.265455 270.667604 
L 199.309091 178.00103 
L 202.352727 219.991081 
L 205.396364 220.045565 
L 208.44 260.487414 
L 211.483636 171.553024 
L 214.527273 225.901818 
L 217.570909 216.331948 
L 220.614545 205.843191 
L 223.658182 206.291429 
L 226.701818 245.512208 
L 229.745455 196.83546 
L 232.789091 258.585801 
L 235.832727 206.291429 
L 238.876364 214.347589 
L 241.92 210.406396 
L 244.963636 217.945603 
L 248.007273 233.126699 
L 251.050909 180.707413 
L 254.094545 202.42969 
L 257.138182 196.307957 
L 260.181818 205.476451 
L 263.225455 228.301896 
L 266.269091 210.213506 
L 269.312727 197.774917 
L 272.356364 218.264087 
L 275.4 199.318846 
L 278.443636 163.840703 
L 281.487273 244.489057 
L 284.530909 190.603117 
L 287.574545 211.118601 
L 290.618182 199.685824 
L 293.661818 180.872392 
L 296.705455 205.476451 
L 299.749091 209.877328 
L 302.792727 224.220928 
L 305.836364 204.865218 
L 308.88 200.104489 
L 311.923636 219.991081 
L 314.967273 235.216753 
L 318.010909 221.97974 
L 321.054545 210.213506 
L 324.098182 193.740779 
L 327.141818 217.567403 
L 330.185455 217.70111 
L 333.229091 190.603117 
L 336.272727 218.264087 
L 339.316364 214.135584 
L 342.36 230.285317 
L 345.403636 181.296491 
L 348.447273 184.327792 
L 351.490909 221.97974 
L 354.534545 184.446944 
L 357.578182 198.141656 
L 360.621818 239.629091 
L 363.665455 205.843191 
L 366.709091 224.151968 
L 369.752727 216.177214 
L 372.796364 210.213506 
L 375.84 206.715437 
L 378.883636 210.014079 
L 381.927273 212.036444 
L 384.970909 231.923036 
L 388.014545 192.149852 
L 391.058182 192.254518 
L 394.101818 172.26326 
L 397.145455 156.650801 
L 400.189091 221.97974 
L 403.232727 214.347589 
L 406.276364 212.566753 
L 409.32 225.795816 
L 412.363636 201.215798 
L 415.407273 171.878358 
L 418.450909 212.811246 
L 421.494545 215.463057 
L 424.538182 183.818982 
L 427.581818 199.918052 
L 430.625455 176.240578 
L 433.669091 188.538865 
L 436.712727 176.299068 
L 439.756364 238.731666 
L 442.8 200.586588 
L 445.843636 269.044675 
L 448.887273 233.427968 
L 451.930909 217.826952 
L 454.974545 186.681039 
L 458.018182 196.12717 
L 461.061818 197.06301 
L 464.105455 193.740779 
L 467.149091 226.013878 
L 470.192727 176.137271 
L 473.236364 224.294409 
L 476.28 201.809054 
L 479.323636 215.657585 
L 482.367273 204.33039 
L 485.410909 201.809054 
L 488.454545 190.097042 
L 491.498182 203.013274 
L 494.541818 233.745974 
L 497.585455 208.059126 
L 500.629091 184.823213 
L 503.672727 210.531513 
L 506.716364 225.901818 
L 509.76 212.036444 
L 512.803636 182.758961 
L 515.847273 226.013878 
L 518.890909 174.914805 
L 521.934545 191.596048 
L 524.978182 223.913916 
L 528.021818 205.843191 
L 531.065455 242.743682 
L 534.109091 199.083285 
L 537.152727 274.927792 
L 540.196364 203.761056 
L 543.24 194.474259 
L 546.283636 203.153766 
L 549.327273 213.155065 
L 552.370909 214.135584 
L 555.414545 223.968399 
L 558.458182 178.836883 
L 561.501818 227.341568 
L 564.545455 219.991081 
L 567.589091 190.097042 
L 570.632727 214.548435 
L 573.676364 190.86902 
L 576.72 221.97974 
L 579.763636 204.081807 
L 582.807273 206.774146 
L 585.850909 208.440512 
L 588.894545 200.586588 
L 591.938182 211.894397 
L 594.981818 169.295111 
L 598.025455 207.117129 
L 601.069091 231.089083 
L 604.112727 184.327792 
L 607.156364 176.433029 
L 610.2 234.082152 
L 613.243636 227.480837 
L 616.287273 186.21039 
L 619.330909 160.969639 
L 622.374545 206.715437 
L 625.418182 213.422479 
L 628.461818 204.33039 
L 631.505455 209.521375 
L 634.549091 215.463057 
L 637.592727 223.968399 
L 640.636364 183.472066 
L 643.68 215.463057 
L 646.723636 205.036364 
L 649.767273 228.118645 
L 652.810909 221.97974 
L 655.854545 234.082152 
L 658.898182 216.013763 
L 661.941818 183.472066 
L 664.985455 245.214328 
L 668.029091 191.285217 
L 671.072727 200.703811 
L 674.116364 184.098207 
L 677.16 213.987581 
L 680.203636 188.172533 
L 683.247273 203.761056 
L 686.290909 233.427968 
L 689.334545 228.301896 
L 692.378182 196.518382 
L 695.421818 215.840836 
L 698.465455 210.773803 
L 701.509091 197.06301 
L 704.552727 215.657585 
L 707.596364 194.583733 
L 710.64 189.034286 
L 713.683636 196.83546 
L 716.727273 171.878358 
L 719.770909 253.09046 
L 722.814545 213.422479 
L 725.858182 202.369351 
L 728.901818 161.467681 
L 731.945455 205.368587 
L 734.989091 156.353986 
L 738.032727 177.493706 
L 741.076364 238.116289 
L 744.12 201.14772 
L 744.12 201.14772 
" style="fill:none;stroke:#008000;stroke-linecap:square;stroke-width:2.25;"/>
   </g>
   <g id="line2d_17">
    <path clip-path="url(#pda93bdcafc)" d="M 108 221.97974 
L 777.6 221.97974 
" style="fill:none;stroke:#000000;stroke-linecap:square;stroke-width:2.25;"/>
   </g>
   <g id="patch_3">
    <path d="M 108 378 
L 108 51.84 
" style="fill:none;stroke:#000000;stroke-linecap:square;stroke-linejoin:miter;stroke-width:1.875;"/>
   </g>
   <g id="patch_4">
    <path d="M 777.6 378 
L 777.6 51.84 
" style="fill:none;stroke:#000000;stroke-linecap:square;stroke-linejoin:miter;stroke-width:1.875;"/>
   </g>
   <g id="patch_5">
    <path d="M 108 378 
L 777.6 378 
" style="fill:none;stroke:#000000;stroke-linecap:square;stroke-linejoin:miter;stroke-width:1.875;"/>
   </g>
   <g id="patch_6">
    <path d="M 108 51.84 
L 777.6 51.84 
" style="fill:none;stroke:#000000;stroke-linecap:square;stroke-linejoin:miter;stroke-width:1.875;"/>
   </g>
  </g>
 </g>
 <defs>
  <clipPath id="pda93bdcafc">
   <rect height="326.16" width="669.6" x="108" y="51.84"/>
  </clipPath>
 </defs>
</svg>
